<?xml version="1.0" encoding="UTF-8" ?>
<!DOCTYPE svg PUBLIC "-//W3C//DTD SVG 1.1//EN" "http://www.w3.org/Graphics/SVG/1.1/DTD/svg11.dtd">
<svg width="650pt" height="647pt" viewBox="0 0 650 647" version="1.1" xmlns="http://www.w3.org/2000/svg">
<g id="#f6f6f6ff">
</g>
<g id="#f7eff1ff">
<path fill="#f7eff1" opacity="1.00" d=" M 563.25 0.00 L 571.64 0.00 C 577.70 0.83 582.88 5.40 584.94 11.07 C 585.75 21.58 580.35 31.25 574.60 39.58 C 571.68 41.36 568.79 43.29 567.56 46.64 C 563.87 49.08 559.36 51.31 555.00 48.98 C 548.04 46.46 539.01 46.40 535.13 38.90 C 533.38 35.05 528.77 33.81 526.61 30.36 C 524.48 25.41 522.17 18.65 525.75 13.76 C 527.96 8.60 533.05 5.90 538.10 4.06 C 546.11 2.68 548.37 12.35 554.63 14.93 C 557.21 9.77 557.61 2.84 563.25 0.00 M 561.19 3.22 C 559.82 6.55 559.80 10.49 557.46 13.36 C 556.52 15.69 556.89 20.24 553.15 18.93 C 550.07 14.97 546.94 11.05 543.86 7.10 C 541.05 6.75 538.05 7.14 535.30 7.29 C 530.92 9.03 528.70 13.57 526.27 17.29 C 527.14 20.45 525.23 25.33 528.14 27.82 C 527.70 32.99 536.35 33.31 536.34 38.74 C 543.14 43.69 551.57 46.86 559.92 48.00 C 562.72 46.22 565.92 44.51 567.42 41.36 C 570.63 38.29 574.87 36.25 577.62 32.71 C 579.46 27.19 582.48 21.95 583.48 16.23 C 584.20 9.73 579.54 4.38 573.91 2.01 L 573.91 3.04 C 570.35 0.99 564.96 1.57 561.19 3.22 Z" />
<path fill="#f7eff1" opacity="1.00" d=" M 143.14 484.34 C 153.91 486.44 166.73 482.55 176.02 489.95 C 181.10 492.63 187.21 494.55 189.89 500.07 C 192.53 504.96 193.56 511.69 190.68 516.68 C 186.04 521.02 181.24 526.92 174.24 525.77 C 171.61 523.49 168.80 521.49 165.39 520.50 C 163.70 519.06 160.63 517.93 159.16 520.23 C 159.04 523.85 158.82 531.08 158.70 534.70 C 156.07 541.64 147.04 538.17 141.99 541.96 C 139.47 539.98 136.35 539.18 133.24 538.69 C 130.25 536.78 131.20 532.71 128.64 530.35 C 127.32 523.80 128.18 516.75 128.04 510.04 C 128.65 507.85 130.59 506.30 131.13 504.08 C 133.50 496.67 138.25 490.27 143.14 484.34 Z" />
</g>
<g id="#f7e4e9ff">
<path fill="#f7e4e9" opacity="1.00" d=" M 561.19 3.22 C 564.96 1.57 570.35 0.99 573.91 3.04 C 576.25 5.07 578.30 7.40 580.66 9.40 C 584.43 17.79 578.20 25.62 574.83 32.98 C 572.09 32.64 569.93 30.69 567.55 29.46 C 562.76 28.41 557.94 29.42 553.22 30.13 C 554.19 33.45 552.40 36.53 551.56 39.66 C 550.29 41.76 547.97 44.15 545.34 42.66 C 539.25 38.16 533.93 32.70 528.14 27.82 C 525.23 25.33 527.14 20.45 526.27 17.29 C 528.70 13.57 530.92 9.03 535.30 7.29 C 538.05 7.14 541.05 6.75 543.86 7.10 C 546.94 11.05 550.07 14.97 553.15 18.93 C 556.89 20.24 556.52 15.69 557.46 13.36 C 559.80 10.49 559.82 6.55 561.19 3.22 Z" />
<path fill="#f7e4e9" opacity="1.00" d=" M 307.19 490.22 C 308.98 488.00 308.56 483.15 311.93 482.93 C 310.39 487.69 308.56 492.41 305.48 496.41 C 302.55 504.85 302.60 513.88 303.18 522.70 C 306.00 525.00 309.11 526.91 312.16 528.91 C 307.83 529.35 304.74 525.41 301.04 523.84 C 302.31 512.67 299.49 499.58 307.19 490.22 Z" />
</g>
<g id="#f7e9ecff">
<path fill="#f7e9ec" opacity="1.00" d=" M 573.91 2.01 C 579.54 4.38 584.20 9.73 583.48 16.23 C 582.48 21.95 579.46 27.19 577.62 32.71 C 574.87 36.25 570.63 38.29 567.42 41.36 C 565.92 44.51 562.72 46.22 559.92 48.00 C 551.57 46.86 543.14 43.69 536.34 38.74 C 536.35 33.31 527.70 32.99 528.14 27.82 C 533.93 32.70 539.25 38.16 545.34 42.66 C 547.97 44.15 550.29 41.76 551.56 39.66 C 552.40 36.53 554.19 33.45 553.22 30.13 C 557.94 29.42 562.76 28.41 567.55 29.46 C 569.93 30.69 572.09 32.64 574.83 32.98 C 578.20 25.62 584.43 17.79 580.66 9.40 C 578.30 7.40 576.25 5.07 573.91 3.04 L 573.91 2.01 Z" />
</g>
<g id="#f7eef0ff">
<path fill="#f7eef0" opacity="1.00" d=" M 541.90 54.11 C 546.32 55.00 549.96 57.79 552.76 61.26 C 553.02 66.40 553.34 71.55 553.69 76.70 C 551.71 80.24 549.16 83.60 548.69 87.76 C 542.76 92.29 533.60 92.39 527.02 88.93 C 523.43 86.85 519.76 84.89 516.17 82.82 C 514.34 78.37 514.79 72.88 518.54 69.59 C 521.85 64.30 528.35 68.59 532.99 69.06 C 533.28 66.34 532.96 63.78 532.40 61.17 C 534.27 57.62 538.51 55.92 541.90 54.11 M 542.23 56.43 C 539.13 57.07 536.27 58.60 534.35 61.15 C 535.09 64.73 535.65 68.35 536.02 71.99 C 531.75 72.63 528.13 70.54 524.80 68.32 C 518.97 68.64 515.73 75.75 518.31 80.71 C 521.98 83.03 527.19 83.57 529.22 87.80 C 534.64 88.66 540.43 89.69 545.76 87.74 C 547.74 86.04 547.70 83.14 549.06 81.03 C 551.19 77.80 552.88 74.03 552.01 70.00 C 552.51 63.99 548.96 56.61 542.23 56.43 Z" />
</g>
<g id="#f7e6eaff">
<path fill="#f7e6ea" opacity="1.00" d=" M 542.23 56.43 C 548.96 56.61 552.51 63.99 552.01 70.00 C 552.88 74.03 551.19 77.80 549.06 81.03 C 547.70 83.14 547.74 86.04 545.76 87.74 C 540.43 89.69 534.64 88.66 529.22 87.80 C 527.19 83.57 521.98 83.03 518.31 80.71 C 515.73 75.75 518.97 68.64 524.80 68.32 C 528.13 70.54 531.75 72.63 536.02 71.99 C 535.65 68.35 535.09 64.73 534.35 61.15 C 536.27 58.60 539.13 57.07 542.23 56.43 Z" />
</g>
<g id="#f7e6e9ff">
<path fill="#f7e6e9" opacity="1.00" d=" M 515.21 129.16 C 517.44 128.59 520.60 129.27 521.41 131.67 C 522.36 133.33 520.82 135.09 520.97 136.84 C 522.62 137.19 524.75 136.58 525.88 138.19 C 526.72 141.88 523.83 147.60 518.98 145.04 C 516.27 145.33 513.92 143.62 512.14 141.77 C 511.66 137.54 511.67 132.19 515.21 129.16 Z" />
</g>
<g id="#f7edefff">
<path fill="#f7edef" opacity="1.00" d=" M 537.30 134.25 C 541.74 132.24 545.27 135.10 547.86 138.20 C 550.07 142.80 544.98 144.14 544.12 147.74 C 549.65 148.42 549.54 154.55 547.71 158.70 C 539.66 164.45 528.61 156.54 526.97 148.00 C 528.32 142.36 532.02 136.96 537.30 134.25 M 538.29 136.27 C 533.28 138.46 530.57 143.73 529.29 148.80 C 531.58 152.92 535.36 156.21 539.29 158.75 C 544.25 160.77 548.60 155.94 546.98 151.13 C 545.49 150.31 542.50 148.68 541.01 147.86 C 540.48 144.65 545.70 144.86 545.99 141.95 C 546.68 138.19 541.84 134.46 538.29 136.27 Z" />
</g>
<g id="#f8e1e7ff">
<path fill="#f8e1e7" opacity="1.00" d=" M 538.29 136.27 C 541.84 134.46 546.68 138.19 545.99 141.95 C 545.70 144.86 540.48 144.65 541.01 147.86 C 542.50 148.68 545.49 150.31 546.98 151.13 C 548.60 155.94 544.25 160.77 539.29 158.75 C 535.36 156.21 531.58 152.92 529.29 148.80 C 530.57 143.73 533.28 138.46 538.29 136.27 Z" />
<path fill="#f8e1e7" opacity="1.00" d=" M 142.31 404.33 C 151.01 403.30 161.53 402.92 167.83 410.25 C 168.41 416.32 167.92 422.42 166.57 428.36 C 166.61 432.16 165.28 436.90 161.36 438.40 C 157.15 439.52 151.72 440.04 149.20 435.72 C 148.76 430.81 151.08 426.37 152.91 421.99 C 151.95 415.29 142.49 421.59 138.90 418.07 C 135.18 413.99 137.21 406.09 142.31 404.33 Z" />
</g>
<g id="#fae9eeff">
<path fill="#fae9ee" opacity="1.00" d=" M 361.98 185.07 C 367.63 174.47 385.25 172.50 390.95 184.05 C 392.40 192.79 396.30 202.19 392.85 210.91 C 390.87 215.02 391.44 220.16 388.84 223.90 C 388.09 223.90 386.61 223.91 385.86 223.92 C 390.08 220.86 389.32 214.48 391.19 210.10 C 392.90 204.92 393.35 199.21 390.81 194.24 C 390.79 189.68 391.30 183.92 386.71 181.31 C 380.75 175.18 368.24 176.84 364.69 184.81 C 363.40 190.76 368.29 195.93 368.04 201.93 C 367.32 201.90 365.88 201.85 365.16 201.83 C 362.14 200.24 358.46 200.32 355.67 198.31 C 358.81 198.02 361.87 198.91 365.02 199.02 C 365.18 194.18 362.14 189.88 361.98 185.07 Z" />
</g>
<g id="#f7dce3ff">
<path fill="#f7dce3" opacity="1.00" d=" M 364.69 184.81 C 368.24 176.84 380.75 175.18 386.71 181.31 C 391.30 183.92 390.79 189.68 390.81 194.24 C 389.32 191.08 389.16 187.48 387.71 184.31 C 385.48 182.48 383.22 180.63 380.66 179.26 C 374.43 177.18 369.62 182.09 364.69 184.81 Z" />
</g>
<g id="#fbd2deff">
<path fill="#fbd2de" opacity="1.00" d=" M 364.69 184.81 C 369.62 182.09 374.43 177.18 380.66 179.26 C 383.22 180.63 385.48 182.48 387.71 184.31 C 389.16 187.48 389.32 191.08 390.81 194.24 C 393.35 199.21 392.90 204.92 391.19 210.10 C 389.32 214.48 390.08 220.86 385.86 223.92 C 377.90 225.85 369.53 228.20 361.29 226.65 C 360.24 226.04 358.16 226.53 357.95 225.01 C 361.64 225.24 366.03 227.37 368.07 222.94 C 364.97 216.42 365.95 208.84 365.16 201.83 C 365.88 201.85 367.32 201.90 368.04 201.93 C 368.29 195.93 363.40 190.76 364.69 184.81 Z" />
</g>
<g id="#f6e6e9ff">
<path fill="#f6e6e9" opacity="1.00" d=" M 491.24 195.27 C 496.29 194.20 503.71 193.28 506.99 197.99 C 509.05 203.13 508.97 208.82 506.93 213.98 C 505.68 220.73 500.10 225.03 496.15 230.19 C 496.84 227.15 496.46 223.36 499.66 221.78 C 499.00 220.33 497.86 219.00 498.02 217.30 C 501.76 216.83 506.94 215.71 505.40 210.15 C 506.84 205.81 508.28 200.22 503.73 197.28 C 499.72 196.46 494.44 195.12 491.31 198.30 C 490.07 202.13 489.77 206.27 487.75 209.82 C 482.99 209.19 480.42 203.73 476.04 202.07 C 471.65 204.12 467.71 207.06 464.98 211.12 C 464.73 204.16 473.99 198.66 479.87 202.15 C 481.89 204.29 484.23 205.95 486.90 207.13 C 488.62 203.33 487.46 197.91 491.24 195.27 Z" />
<path fill="#f6e6e9" opacity="1.00" d=" M 587.28 289.31 C 592.18 287.03 591.99 292.92 593.17 295.93 C 595.36 296.41 597.08 294.72 599.02 294.04 C 601.64 295.15 605.50 296.53 602.89 300.78 C 598.87 304.42 593.31 305.15 588.07 305.00 C 583.29 301.06 584.11 295.53 585.21 290.21 C 585.73 289.98 586.76 289.53 587.28 289.31 Z" />
</g>
<g id="#f8dde4ff">
<path fill="#f8dde4" opacity="1.00" d=" M 491.31 198.30 C 494.44 195.12 499.72 196.46 503.73 197.28 C 508.28 200.22 506.84 205.81 505.40 210.15 C 506.94 215.71 501.76 216.83 498.02 217.30 C 497.86 219.00 499.00 220.33 499.66 221.78 C 496.46 223.36 496.84 227.15 496.15 230.19 C 494.56 233.26 490.62 231.92 487.88 231.25 C 483.03 229.87 477.47 229.04 474.04 224.96 C 469.75 221.41 464.20 217.47 464.98 211.12 C 467.71 207.06 471.65 204.12 476.04 202.07 C 480.42 203.73 482.99 209.19 487.75 209.82 C 489.77 206.27 490.07 202.13 491.31 198.30 Z" />
</g>
<g id="#fac9d6ff">
<path fill="#fac9d6" opacity="1.00" d=" M 344.29 217.72 C 339.81 210.21 345.10 194.74 355.67 198.31 C 358.46 200.32 362.14 200.24 365.16 201.83 C 365.95 208.84 364.97 216.42 368.07 222.94 C 366.03 227.37 361.64 225.24 357.95 225.01 C 352.49 225.24 346.36 223.29 344.29 217.72 Z" />
</g>
<g id="#f8eeefff">
<path fill="#f8eeef" opacity="1.00" d=" M 506.99 197.99 C 511.29 197.59 509.89 203.07 510.70 206.02 C 509.41 211.55 508.65 217.65 505.56 222.52 C 501.21 226.11 497.96 231.38 493.89 234.96 C 488.92 233.95 484.08 232.24 479.28 230.68 C 473.52 227.83 468.66 223.38 464.29 218.74 C 462.57 212.57 462.91 203.47 470.10 201.16 C 472.89 199.09 480.15 197.44 479.87 202.15 C 473.99 198.66 464.73 204.16 464.98 211.12 C 464.20 217.47 469.75 221.41 474.04 224.96 C 477.47 229.04 483.03 229.87 487.88 231.25 C 490.62 231.92 494.56 233.26 496.15 230.19 C 500.10 225.03 505.68 220.73 506.93 213.98 C 508.97 208.82 509.05 203.13 506.99 197.99 Z" />
</g>
<g id="#f8eaedff">
<path fill="#f8eaed" opacity="1.00" d=" M 525.90 205.88 C 528.42 203.66 533.58 197.77 536.03 203.04 C 534.25 202.73 531.78 201.04 530.74 203.73 C 527.36 208.12 521.41 209.81 518.96 214.98 C 515.05 221.43 509.17 229.66 513.67 237.32 C 517.25 242.40 525.45 244.63 530.71 240.68 C 532.38 236.53 532.87 231.92 535.09 227.97 C 536.42 228.90 537.62 230.01 538.87 231.05 C 539.14 231.28 539.69 231.74 539.96 231.97 C 541.51 234.16 542.97 236.42 544.32 238.75 C 540.33 239.10 540.12 232.66 536.05 231.94 C 533.27 235.66 533.84 241.08 529.74 243.82 C 523.94 244.65 518.19 244.13 513.32 240.72 C 511.09 236.93 509.77 232.67 509.39 228.29 C 513.37 219.94 516.94 210.09 525.90 205.88 Z" />
</g>
<g id="#f8dce4ff">
<path fill="#f8dce4" opacity="1.00" d=" M 530.74 203.73 C 531.78 201.04 534.25 202.73 536.03 203.04 C 542.60 205.50 549.84 207.89 553.87 214.09 C 554.93 216.98 557.39 218.60 559.74 220.25 C 560.88 223.68 561.19 227.35 560.96 230.96 C 558.67 237.36 552.00 241.40 545.17 239.91 C 544.96 239.62 544.54 239.04 544.32 238.75 C 542.97 236.42 541.51 234.16 539.96 231.97 C 543.20 232.99 545.87 235.14 548.76 236.84 C 550.17 235.35 551.46 233.76 552.84 232.24 C 547.37 231.96 548.62 224.51 549.62 220.65 C 550.34 218.36 552.40 214.57 548.41 214.57 C 548.25 210.45 544.73 207.88 541.08 206.81 C 538.01 205.87 534.02 202.16 530.95 205.15 C 539.41 211.24 537.47 222.04 538.87 231.05 C 537.62 230.01 536.42 228.90 535.09 227.97 C 532.87 231.92 532.38 236.53 530.71 240.68 C 525.45 244.63 517.25 242.40 513.67 237.32 C 509.17 229.66 515.05 221.43 518.96 214.98 C 521.41 209.81 527.36 208.12 530.74 203.73 Z" />
</g>
<g id="#f9d6e0ff">
<path fill="#f9d6e0" opacity="1.00" d=" M 530.95 205.15 C 534.02 202.16 538.01 205.87 541.08 206.81 C 544.73 207.88 548.25 210.45 548.41 214.57 C 552.40 214.57 550.34 218.36 549.62 220.65 C 548.62 224.51 547.37 231.96 552.84 232.24 C 551.46 233.76 550.17 235.35 548.76 236.84 C 545.87 235.14 543.20 232.99 539.96 231.97 C 539.69 231.74 539.14 231.28 538.87 231.05 C 537.47 222.04 539.41 211.24 530.95 205.15 Z" />
</g>
<g id="#fae8ecff">
<path fill="#fae8ec" opacity="1.00" d=" M 615.30 213.31 C 619.76 209.93 624.33 205.91 630.00 204.99 C 638.50 207.47 645.34 213.90 650.00 221.37 L 650.00 232.78 C 648.25 234.39 646.51 236.26 643.91 236.05 C 648.33 233.71 649.48 228.65 648.99 223.91 C 648.10 222.56 647.01 221.35 646.05 220.07 C 643.73 213.56 637.50 210.10 631.65 207.34 C 622.55 206.44 616.38 215.09 611.67 221.68 C 608.87 224.42 609.34 229.34 611.77 232.16 C 613.82 235.02 617.35 236.89 621.02 236.02 C 626.13 236.13 625.13 225.57 630.66 227.24 C 632.39 229.68 633.56 232.42 634.80 235.13 C 635.36 236.48 636.96 236.89 638.16 237.51 C 632.64 239.64 631.82 231.99 629.82 228.76 C 627.70 231.38 626.23 234.51 623.78 236.86 C 621.16 236.85 615.92 236.83 613.30 236.82 C 610.48 234.43 607.87 231.07 608.99 227.00 C 607.85 221.33 612.88 217.69 615.30 213.31 Z" />
</g>
<g id="#f7dde3ff">
<path fill="#f7dde3" opacity="1.00" d=" M 611.67 221.68 C 616.38 215.09 622.55 206.44 631.65 207.34 C 637.50 210.10 643.73 213.56 646.05 220.07 L 645.17 219.95 C 641.28 214.71 636.02 209.18 629.08 209.03 C 624.83 210.29 622.21 214.19 618.87 216.82 C 616.82 217.73 617.23 220.00 616.60 221.70 C 615.44 223.23 613.67 224.09 612.25 225.34 C 612.13 227.04 611.89 230.46 611.77 232.16 C 609.34 229.34 608.87 224.42 611.67 221.68 Z" />
</g>
<g id="#fbd7dfff">
<path fill="#fbd7df" opacity="1.00" d=" M 618.87 216.82 C 622.21 214.19 624.83 210.29 629.08 209.03 C 636.02 209.18 641.28 214.71 645.17 219.95 C 643.13 220.52 638.69 217.49 638.99 221.01 C 639.30 224.39 635.08 223.45 633.02 224.19 C 632.70 226.59 634.78 228.24 635.64 230.29 C 635.77 231.93 635.01 233.50 634.80 235.13 C 633.56 232.42 632.39 229.68 630.66 227.24 C 625.13 225.57 626.13 236.13 621.02 236.02 C 617.35 236.89 613.82 235.02 611.77 232.16 C 611.89 230.46 612.13 227.04 612.25 225.34 C 613.67 224.09 615.44 223.23 616.60 221.70 C 617.23 220.00 616.82 217.73 618.87 216.82 Z" />
</g>
<g id="#fbd0daff">
<path fill="#fbd0da" opacity="1.00" d=" M 638.99 221.01 C 638.69 217.49 643.13 220.52 645.17 219.95 L 646.05 220.07 C 647.01 221.35 648.10 222.56 648.99 223.91 C 644.74 225.47 642.93 229.87 639.46 232.44 C 638.37 233.40 636.90 234.19 636.90 235.84 C 638.67 236.06 640.45 236.19 642.24 236.34 C 640.88 236.76 639.52 237.15 638.16 237.51 C 636.96 236.89 635.36 236.48 634.80 235.13 C 635.01 233.50 635.77 231.93 635.64 230.29 C 634.78 228.24 632.70 226.59 633.02 224.19 C 635.08 223.45 639.30 224.39 638.99 221.01 Z" />
</g>
<g id="#f5bfcdff">
<path fill="#f5bfcd" opacity="1.00" d=" M 639.46 232.44 C 642.93 229.87 644.74 225.47 648.99 223.91 C 649.48 228.65 648.33 233.71 643.91 236.05 C 643.49 236.13 642.66 236.27 642.24 236.34 C 640.45 236.19 638.67 236.06 636.90 235.84 C 636.90 234.19 638.37 233.40 639.46 232.44 Z" />
</g>
<g id="#fac7d4ff">
<path fill="#fac7d4" opacity="1.00" d=" M 574.91 231.87 C 581.78 230.86 588.72 229.95 595.65 229.25 C 600.85 237.31 608.12 245.10 608.89 255.05 L 607.81 255.27 C 605.05 252.93 606.37 248.57 603.80 246.09 C 601.63 245.96 600.02 247.93 598.20 248.87 C 598.93 246.04 595.52 244.70 594.05 247.06 C 592.41 250.33 588.20 250.32 586.77 253.76 C 585.82 253.24 584.93 252.63 584.03 252.08 C 584.67 254.50 585.96 257.59 583.19 259.19 C 582.85 258.67 582.17 257.63 581.83 257.11 C 577.81 259.60 573.72 262.01 570.66 265.66 C 567.04 268.66 562.81 264.96 559.19 263.78 C 556.32 260.30 554.09 256.47 553.18 252.00 C 554.46 247.97 555.66 243.77 558.18 240.31 C 564.58 238.95 568.44 232.91 574.91 231.87 Z" />
</g>
<g id="#f7b9caff">
<path fill="#f7b9ca" opacity="1.00" d=" M 379.66 236.52 C 384.49 235.16 390.33 238.15 392.16 242.89 C 395.41 246.86 397.59 251.71 397.10 257.00 C 397.16 259.52 397.00 262.18 394.90 263.91 C 389.90 269.33 382.78 271.32 375.77 272.60 C 372.54 272.05 367.74 270.89 367.02 266.97 C 366.98 264.32 366.98 261.67 367.01 259.04 C 368.48 254.16 375.37 256.22 379.08 254.86 C 379.10 252.70 376.70 251.82 376.14 249.92 C 375.83 246.64 369.49 247.43 373.30 242.35 C 375.43 240.36 376.36 236.80 379.66 236.52 Z" />
</g>
<g id="#f8ebeeff">
<path fill="#f8ebee" opacity="1.00" d=" M 485.32 238.59 C 488.61 240.02 491.49 236.57 494.80 237.09 C 496.68 239.59 497.77 242.82 500.70 244.36 C 505.58 247.09 508.17 252.12 511.54 256.35 C 512.55 260.84 517.12 263.84 516.17 268.92 C 518.77 272.93 518.19 278.16 520.63 282.32 C 521.99 284.67 518.60 286.57 519.22 288.92 C 520.44 293.21 518.27 297.63 518.96 302.02 C 523.50 300.14 527.22 296.92 531.08 293.99 C 535.53 294.01 539.32 296.69 542.61 299.43 C 544.20 302.42 545.35 305.66 546.27 308.92 C 549.30 309.36 549.34 304.84 551.77 303.77 C 554.72 299.74 560.38 301.12 564.62 301.35 C 567.46 303.95 571.66 303.29 575.03 304.82 C 577.56 303.55 580.30 302.20 582.90 304.23 C 584.46 307.66 582.15 310.22 581.05 313.07 C 580.18 317.85 587.47 321.17 584.86 325.89 C 581.87 330.91 580.70 337.13 575.83 340.83 C 571.13 343.60 566.94 348.31 561.09 348.32 C 554.55 350.20 547.14 344.30 547.43 337.36 C 546.18 331.64 551.81 327.08 556.85 325.75 C 556.89 325.34 556.97 324.51 557.01 324.10 C 552.65 321.67 545.15 319.71 546.84 312.90 C 544.51 314.09 544.26 317.62 542.66 319.62 C 538.91 321.81 535.22 324.09 531.63 326.52 C 529.29 327.43 526.77 328.16 525.16 330.22 C 524.38 332.18 528.35 333.42 526.40 335.33 C 524.47 339.90 518.59 337.55 515.62 340.67 C 504.31 345.22 516.81 328.14 505.22 331.70 C 500.67 328.36 499.47 322.44 495.38 318.67 C 493.50 313.71 491.71 308.61 491.76 303.23 C 488.69 300.38 482.82 298.57 485.04 293.00 C 485.22 288.76 482.82 285.00 481.86 281.00 C 479.71 280.62 477.69 281.84 476.56 283.60 C 474.87 286.06 470.64 286.25 470.71 289.84 C 468.93 290.84 463.66 294.99 463.03 291.93 C 465.66 290.76 469.74 290.55 470.06 286.92 C 474.42 283.34 478.09 279.10 481.81 274.90 C 483.04 279.14 483.74 283.53 485.15 287.72 C 486.29 290.84 485.15 294.83 487.42 297.58 C 489.55 299.43 491.71 301.28 493.89 303.12 C 492.55 312.53 499.19 319.88 503.86 327.17 C 505.01 329.46 505.48 332.85 510.00 330.05 C 521.30 331.18 530.47 323.76 540.01 318.99 C 545.56 313.78 545.43 303.66 538.79 299.23 C 536.25 297.47 532.21 294.76 529.43 297.42 C 526.28 300.36 522.65 303.63 518.21 304.08 C 518.18 300.36 517.43 296.77 516.82 293.13 C 517.37 288.47 519.73 283.73 517.77 279.14 C 514.50 270.87 513.62 261.39 507.53 254.48 C 502.55 249.83 498.87 244.00 493.83 239.41 C 489.33 240.94 484.70 240.05 480.08 240.11 C 473.97 241.78 469.51 247.23 463.10 248.18 C 464.97 244.24 470.45 243.45 473.72 240.71 C 476.72 237.96 481.50 237.31 485.32 238.59 M 550.43 307.43 C 547.78 310.21 549.52 314.50 549.14 317.78 C 552.20 320.67 556.73 321.24 559.89 324.17 C 558.08 328.95 550.44 328.89 549.00 334.03 C 548.76 338.20 550.07 342.92 553.60 345.44 C 556.39 348.42 561.14 346.45 564.63 346.66 C 569.19 342.90 576.50 341.19 577.87 334.81 C 580.08 331.64 581.92 328.21 583.65 324.75 C 582.59 321.59 580.62 318.88 578.77 316.17 C 578.94 314.72 579.28 311.80 579.45 310.35 C 579.73 308.92 581.86 307.08 579.78 306.18 C 577.91 305.47 577.05 307.86 575.79 308.74 C 574.16 308.58 573.61 306.25 571.92 306.17 C 567.64 305.93 564.61 301.73 560.00 303.00 C 555.67 301.48 553.16 305.11 550.43 307.43 Z" />
</g>
<g id="#f9d4deff">
<path fill="#f9d4de" opacity="1.00" d=" M 480.08 240.11 C 484.70 240.05 489.33 240.94 493.83 239.41 C 498.87 244.00 502.55 249.83 507.53 254.48 C 513.62 261.39 514.50 270.87 517.77 279.14 C 519.73 283.73 517.37 288.47 516.82 293.13 L 515.98 292.71 C 516.09 290.08 515.98 287.04 513.72 285.28 C 509.90 282.90 505.01 284.21 500.86 284.74 C 495.01 285.00 493.24 291.89 491.00 296.02 C 492.57 304.57 503.09 302.17 509.00 299.98 C 512.61 299.14 513.91 295.34 515.98 292.71 C 515.98 294.05 515.99 295.39 516.01 296.74 C 512.04 302.91 504.51 303.28 497.98 304.71 C 496.53 304.42 495.23 303.67 493.89 303.12 C 491.71 301.28 489.55 299.43 487.42 297.58 C 485.15 294.83 486.29 290.84 485.15 287.72 C 483.74 283.53 483.04 279.14 481.81 274.90 C 478.09 279.10 474.42 283.34 470.06 286.92 C 468.63 288.15 465.26 290.65 464.47 287.62 C 464.04 281.08 459.53 276.19 455.71 271.29 C 452.22 269.14 447.50 267.81 447.00 263.00 C 447.27 262.53 447.82 261.60 448.10 261.13 C 453.42 257.13 459.46 253.97 463.10 248.18 C 469.51 247.23 473.97 241.78 480.08 240.11 M 481.97 241.06 C 480.50 241.82 477.57 243.33 476.10 244.09 C 476.04 246.95 476.44 250.03 473.84 251.81 C 471.10 250.62 466.62 248.06 464.66 251.68 C 460.22 254.41 461.46 261.02 465.24 263.69 C 468.47 264.02 471.26 265.73 474.33 266.62 C 479.07 267.07 483.88 265.59 487.77 262.88 C 489.39 256.48 489.76 249.60 487.75 243.24 C 486.31 241.68 483.96 241.36 481.97 241.06 Z" />
</g>
<g id="#fac6d4ff">
<path fill="#fac6d4" opacity="1.00" d=" M 481.97 241.06 C 483.96 241.36 486.31 241.68 487.75 243.24 C 489.76 249.60 489.39 256.48 487.77 262.88 C 483.88 265.59 479.07 267.07 474.33 266.62 C 471.26 265.73 468.47 264.02 465.24 263.69 C 461.46 261.02 460.22 254.41 464.66 251.68 C 466.62 248.06 471.10 250.62 473.84 251.81 C 476.44 250.03 476.04 246.95 476.10 244.09 C 477.57 243.33 480.50 241.82 481.97 241.06 Z" />
</g>
<g id="#fabfceff">
<path fill="#fabfce" opacity="1.00" d=" M 594.05 247.06 C 595.52 244.70 598.93 246.04 598.20 248.87 C 600.02 247.93 601.63 245.96 603.80 246.09 C 606.37 248.57 605.05 252.93 607.81 255.27 C 610.15 257.54 608.54 261.41 609.40 264.34 C 611.62 267.91 607.92 269.71 607.77 272.83 C 605.06 275.90 601.55 277.92 598.20 280.16 C 590.60 283.20 584.70 276.68 583.67 269.75 C 583.64 266.22 583.05 262.72 583.19 259.19 C 585.96 257.59 584.67 254.50 584.03 252.08 C 584.93 252.63 585.82 253.24 586.77 253.76 C 588.20 250.32 592.41 250.33 594.05 247.06 Z" />
</g>
<g id="#f6e4eaff">
<path fill="#f6e4ea" opacity="1.00" d=" M 454.07 255.11 C 458.28 254.36 458.73 247.72 463.10 248.18 C 459.46 253.97 453.42 257.13 448.10 261.13 C 447.34 257.62 452.70 257.47 454.07 255.11 Z" />
</g>
<g id="#f0d1d9ff">
<path fill="#f0d1d9" opacity="1.00" d=" M 397.10 257.00 C 400.19 256.39 398.54 263.04 396.60 263.96 C 396.18 263.94 395.33 263.92 394.90 263.91 C 397.00 262.18 397.16 259.52 397.10 257.00 Z" />
</g>
<g id="#f9ebeeff">
<path fill="#f9ebee" opacity="1.00" d=" M 570.66 265.66 C 573.72 262.01 577.81 259.60 581.83 257.11 C 582.17 257.63 582.85 258.67 583.19 259.19 C 583.05 262.72 583.64 266.22 583.67 269.75 C 582.06 274.53 585.61 279.18 586.31 283.87 C 590.12 283.99 596.85 285.29 598.20 280.16 C 601.55 277.92 605.06 275.90 607.77 272.83 C 607.81 273.59 607.90 275.11 607.94 275.87 C 602.98 280.14 597.59 283.79 592.13 287.15 C 592.96 289.16 593.92 291.13 595.16 292.93 C 598.67 291.14 602.02 293.16 604.93 295.18 C 605.74 298.11 605.02 301.67 602.74 303.74 C 599.20 305.29 595.40 306.19 591.93 307.93 C 589.30 307.37 586.47 306.31 584.25 304.76 C 582.71 299.40 581.30 293.68 583.11 288.23 C 580.88 288.27 575.59 290.33 576.31 288.21 C 579.28 287.62 583.71 286.09 582.98 282.27 C 580.31 283.94 576.18 278.05 574.15 281.23 C 573.30 283.84 575.38 285.97 576.31 288.21 C 571.01 288.47 569.70 275.02 577.67 279.47 C 579.00 279.59 581.68 279.83 583.01 279.95 C 583.22 277.02 582.23 274.47 581.51 271.76 C 581.41 268.21 583.54 263.54 579.83 261.17 C 576.26 263.08 572.96 265.36 569.72 267.76 C 566.58 267.64 560.19 267.62 559.19 263.78 C 562.81 264.96 567.04 268.66 570.66 265.66 M 587.28 289.31 C 586.76 289.53 585.73 289.98 585.21 290.21 C 584.11 295.53 583.29 301.06 588.07 305.00 C 593.31 305.15 598.87 304.42 602.89 300.78 C 605.50 296.53 601.64 295.15 599.02 294.04 C 597.08 294.72 595.36 296.41 593.17 295.93 C 591.99 292.92 592.18 287.03 587.28 289.31 Z" />
</g>
<g id="#f6d4dfff">
<path fill="#f6d4df" opacity="1.00" d=" M 366.05 259.01 L 367.01 259.04 C 366.98 261.67 366.98 264.32 367.02 266.97 C 364.77 266.22 366.46 261.38 366.05 259.01 Z" />
</g>
<g id="#f7dde4ff">
<path fill="#f7dde4" opacity="1.00" d=" M 446.21 263.07 L 447.00 263.00 C 447.50 267.81 452.22 269.14 455.71 271.29 C 459.53 276.19 464.04 281.08 464.47 287.62 C 465.26 290.65 468.63 288.15 470.06 286.92 C 469.74 290.55 465.66 290.76 463.03 291.93 C 457.46 291.71 453.46 287.87 449.14 284.88 C 443.58 278.89 444.47 270.43 446.21 263.07 Z" />
</g>
<g id="#f9eaedff">
<path fill="#f9eaed" opacity="1.00" d=" M 375.77 272.60 C 382.78 271.32 389.90 269.33 394.90 263.91 C 395.33 263.92 396.18 263.94 396.60 263.96 C 396.80 264.40 397.19 265.27 397.38 265.71 C 402.09 265.63 408.75 267.45 408.81 273.12 L 407.85 273.24 C 405.66 269.90 402.02 265.77 397.64 267.58 C 393.21 269.03 393.43 274.44 392.74 278.11 C 388.87 277.60 386.16 273.33 382.08 274.01 C 378.62 274.74 377.55 278.48 376.15 281.25 C 372.29 279.08 381.48 273.06 375.77 272.60 Z" />
</g>
<g id="#f6d7dfff">
<path fill="#f6d7df" opacity="1.00" d=" M 397.64 267.58 C 402.02 265.77 405.66 269.90 407.85 273.24 C 408.81 281.19 405.16 288.38 399.84 293.97 C 390.60 294.99 381.15 290.55 376.17 282.75 C 376.17 282.37 376.16 281.63 376.15 281.25 C 377.55 278.48 378.62 274.74 382.08 274.01 C 386.16 273.33 388.87 277.60 392.74 278.11 C 393.43 274.44 393.21 269.03 397.64 267.58 Z" />
</g>
<g id="#f4ced8ff">
<path fill="#f4ced8" opacity="1.00" d=" M 586.31 283.87 C 585.61 279.18 582.06 274.53 583.67 269.75 C 584.70 276.68 590.60 283.20 598.20 280.16 C 596.85 285.29 590.12 283.99 586.31 283.87 Z" />
</g>
<g id="#f6eaeeff">
<path fill="#f6eaee" opacity="1.00" d=" M 298.30 278.28 C 303.16 276.77 307.56 280.79 308.99 285.05 C 308.94 287.89 305.17 289.65 306.05 292.80 C 308.28 293.36 310.52 293.84 312.78 294.27 C 315.36 296.63 315.43 300.52 314.81 303.76 C 313.07 305.97 310.70 307.40 307.93 307.89 C 301.42 307.39 295.33 304.60 290.10 300.80 C 289.36 293.23 290.47 282.10 298.30 278.28 Z" />
</g>
<g id="#f2d3dcff">
<path fill="#f2d3dc" opacity="1.00" d=" M 574.15 281.23 C 576.18 278.05 580.31 283.94 582.98 282.27 C 583.71 286.09 579.28 287.62 576.31 288.21 C 575.38 285.97 573.30 283.84 574.15 281.23 Z" />
</g>
<g id="#f6e7eaff">
<path fill="#f6e7ea" opacity="1.00" d=" M 376.17 282.75 C 381.15 290.55 390.60 294.99 399.84 293.97 C 399.96 295.95 397.76 296.31 396.29 295.68 C 391.85 293.86 386.03 295.48 382.68 291.36 C 379.57 289.40 374.99 287.30 376.17 282.75 Z" />
</g>
<g id="#fac5d3ff">
<path fill="#fac5d3" opacity="1.00" d=" M 500.86 284.74 C 505.01 284.21 509.90 282.90 513.72 285.28 C 515.98 287.04 516.09 290.08 515.98 292.71 C 513.91 295.34 512.61 299.14 509.00 299.98 C 503.09 302.17 492.57 304.57 491.00 296.02 C 493.24 291.89 495.01 285.00 500.86 284.74 Z" />
</g>
<g id="#f6eef0ff">
<path fill="#f6eef0" opacity="1.00" d=" M 350.35 289.46 C 357.58 287.34 363.38 295.90 361.48 302.34 C 361.17 306.66 355.77 306.69 353.08 309.17 C 352.12 312.64 356.50 313.77 357.41 316.65 C 358.77 318.28 357.48 320.02 356.45 321.38 C 354.46 326.06 353.49 331.10 351.94 335.94 C 356.05 333.68 360.84 333.46 365.34 332.42 C 370.32 330.74 374.87 334.71 379.79 333.52 C 385.38 335.00 390.22 340.35 391.28 346.07 C 394.77 343.29 397.21 338.78 401.90 337.82 C 408.19 336.40 415.48 335.76 420.85 340.08 C 423.10 346.05 424.72 353.07 428.74 358.05 C 428.60 352.23 435.37 350.92 437.01 346.00 C 438.72 342.02 443.02 341.30 446.93 341.09 C 451.35 342.83 455.78 344.76 459.74 347.27 C 461.82 351.26 466.57 355.11 464.35 360.01 C 467.63 368.25 460.38 374.96 454.35 379.22 C 452.89 385.48 446.22 388.42 440.94 390.92 C 434.22 393.04 428.42 398.42 421.03 398.00 C 414.99 395.06 410.86 389.29 404.98 386.03 C 396.84 379.41 394.64 368.89 389.68 360.18 C 386.26 359.29 383.83 363.95 380.05 361.95 C 376.67 359.64 372.77 360.78 368.96 359.98 C 369.14 364.11 372.52 367.29 374.00 371.05 C 372.80 376.00 370.40 383.01 364.65 383.51 C 359.62 384.14 353.16 386.68 349.72 381.28 C 344.70 377.78 344.65 371.16 341.70 366.30 C 339.70 357.69 341.64 348.81 341.92 340.15 C 337.90 338.42 334.05 336.29 330.60 333.49 C 323.30 330.53 320.31 322.48 317.05 315.91 C 318.46 310.71 321.64 305.97 324.33 301.26 C 328.92 298.30 332.80 293.94 338.11 292.23 C 342.24 291.61 346.33 290.67 350.35 289.46 M 337.68 293.68 C 334.95 296.32 331.95 298.73 328.41 300.42 C 325.60 304.39 323.17 308.62 320.89 312.92 C 319.04 315.82 320.82 319.82 323.73 321.23 C 323.72 326.02 327.91 328.99 331.25 331.74 C 335.28 334.89 339.60 339.45 345.32 337.42 C 351.02 336.46 353.23 329.86 352.90 324.73 C 355.00 324.10 355.83 319.63 355.86 317.22 C 354.68 316.11 352.32 313.89 351.14 312.78 C 350.82 311.10 351.77 309.52 351.96 307.88 C 353.06 307.66 353.79 307.06 354.15 306.10 C 362.45 306.09 361.47 293.36 354.95 291.03 C 349.05 290.61 343.40 293.00 337.68 293.68 M 365.31 334.40 C 362.36 334.98 359.30 335.05 356.69 336.65 C 352.71 338.60 347.84 338.51 344.18 341.19 C 342.91 348.93 342.50 356.84 343.41 364.65 C 345.14 368.53 346.56 372.56 347.32 376.75 C 350.75 381.45 356.29 385.11 362.33 382.41 C 367.43 381.56 371.15 376.94 371.99 372.07 C 369.63 367.60 367.12 362.83 365.95 358.03 C 371.89 358.71 377.81 359.63 383.80 359.86 C 386.24 357.23 388.54 354.25 389.97 350.96 C 389.35 348.12 388.47 345.23 388.70 342.28 C 385.70 339.25 382.74 334.76 378.02 334.98 C 373.74 335.47 369.53 333.93 365.31 334.40 M 404.34 339.49 C 395.62 340.15 391.98 350.49 391.03 357.95 C 393.85 362.99 396.26 368.28 398.39 373.68 C 399.45 376.97 402.89 378.59 404.26 381.73 C 406.48 386.22 413.39 386.02 415.01 391.00 C 416.34 394.23 420.22 394.44 422.99 395.83 C 425.54 395.00 428.08 394.14 430.72 393.66 C 435.26 387.52 444.51 389.24 449.31 383.31 C 452.27 381.06 451.88 376.24 456.03 375.03 C 465.77 369.52 466.08 353.43 456.71 347.38 C 453.59 346.81 451.33 344.39 448.33 343.58 C 444.34 341.70 439.66 344.41 438.13 348.08 C 437.90 351.87 432.32 352.07 431.66 355.69 C 430.93 357.81 430.06 361.37 427.16 360.93 C 424.45 357.81 425.03 352.98 421.82 350.22 C 420.07 347.24 420.77 342.52 417.41 340.52 C 413.89 337.27 408.53 339.46 404.34 339.49 Z" />
<path fill="#f6eef0" opacity="1.00" d=" M 138.03 404.09 C 140.61 397.53 148.13 401.91 153.02 400.30 C 159.87 401.39 165.98 404.91 172.03 408.11 C 170.29 415.25 172.45 422.53 171.07 429.75 C 175.85 430.79 181.37 432.99 183.05 437.97 C 184.87 441.93 184.15 447.87 179.86 449.89 C 176.63 454.06 171.29 450.23 167.03 451.01 C 164.65 451.08 165.11 454.47 166.20 455.78 C 168.53 458.50 168.39 462.41 167.73 465.74 C 165.40 470.77 158.69 470.68 154.05 470.99 C 151.95 470.24 150.20 468.81 148.35 467.62 C 146.52 464.14 146.68 459.98 144.36 456.67 C 144.07 450.79 142.84 444.27 145.94 438.94 C 144.74 433.45 146.12 428.20 147.86 423.00 C 144.28 422.54 138.91 424.30 136.37 420.65 C 132.52 416.09 132.61 409.31 135.20 404.12 C 135.91 404.11 137.32 404.10 138.03 404.09 C 133.86 408.81 133.55 417.14 139.30 420.76 C 141.98 420.84 147.34 421.01 150.03 421.10 C 150.54 426.27 145.68 430.46 147.26 435.72 C 150.52 443.77 164.17 443.24 167.03 435.01 C 168.59 433.03 168.56 430.69 168.65 428.35 C 170.45 422.17 170.28 415.57 169.86 409.21 C 161.15 402.36 148.35 399.15 138.03 404.09 Z" />
</g>
<g id="#f6e5eaff">
<path fill="#f6e5ea" opacity="1.00" d=" M 337.68 293.68 C 343.40 293.00 349.05 290.61 354.95 291.03 C 361.47 293.36 362.45 306.09 354.15 306.10 C 353.28 302.14 358.17 296.04 353.75 293.37 C 347.57 293.28 340.42 292.91 335.86 297.82 C 334.11 300.70 330.58 302.37 330.17 305.99 C 332.00 314.27 336.32 322.77 343.83 327.30 C 345.31 331.59 338.22 331.84 338.89 335.98 C 341.40 335.76 344.69 336.69 347.06 335.08 C 350.40 332.72 350.26 327.79 352.90 324.73 C 353.23 329.86 351.02 336.46 345.32 337.42 C 339.60 339.45 335.28 334.89 331.25 331.74 C 327.91 328.99 323.72 326.02 323.73 321.23 C 320.82 319.82 319.04 315.82 320.89 312.92 C 323.17 308.62 325.60 304.39 328.41 300.42 C 331.95 298.73 334.95 296.32 337.68 293.68 Z" />
</g>
<g id="#f6dce3ff">
<path fill="#f6dce3" opacity="1.00" d=" M 335.86 297.82 C 340.42 292.91 347.57 293.28 353.75 293.37 C 358.17 296.04 353.28 302.14 354.15 306.10 C 353.79 307.06 353.06 307.66 351.96 307.88 C 348.10 308.94 345.89 312.67 342.37 314.42 C 342.28 314.77 342.10 315.47 342.01 315.82 C 345.43 317.73 349.04 319.27 352.82 320.33 C 353.00 321.79 352.94 323.26 352.90 324.73 C 350.26 327.79 350.40 332.72 347.06 335.08 C 344.69 336.69 341.40 335.76 338.89 335.98 C 338.22 331.84 345.31 331.59 343.83 327.30 C 336.32 322.77 332.00 314.27 330.17 305.99 C 330.58 302.37 334.11 300.70 335.86 297.82 Z" />
</g>
<g id="#f9e1e7ff">
<path fill="#f9e1e7" opacity="1.00" d=" M 515.98 292.71 L 516.82 293.13 C 517.43 296.77 518.18 300.36 518.21 304.08 C 522.65 303.63 526.28 300.36 529.43 297.42 C 532.21 294.76 536.25 297.47 538.79 299.23 C 545.43 303.66 545.56 313.78 540.01 318.99 C 530.47 323.76 521.30 331.18 510.00 330.05 C 505.48 332.85 505.01 329.46 503.86 327.17 C 505.32 327.37 508.25 327.78 509.72 327.98 C 508.45 321.82 513.66 317.95 515.93 312.94 C 519.61 308.12 516.37 302.08 516.01 296.74 C 515.99 295.39 515.98 294.05 515.98 292.71 Z" />
</g>
<g id="#f8dae2ff">
<path fill="#f8dae2" opacity="1.00" d=" M 497.98 304.71 C 504.51 303.28 512.04 302.91 516.01 296.74 C 516.37 302.08 519.61 308.12 515.93 312.94 C 513.66 317.95 508.45 321.82 509.72 327.98 C 508.25 327.78 505.32 327.37 503.86 327.17 C 499.19 319.88 492.55 312.53 493.89 303.12 C 495.23 303.67 496.53 304.42 497.98 304.71 Z" />
</g>
<g id="#f4d8e0ff">
<path fill="#f4d8e0" opacity="1.00" d=" M 390.28 300.28 C 395.94 299.08 398.82 306.36 398.01 311.00 C 401.07 318.03 392.97 320.51 388.00 320.01 C 384.30 321.79 381.89 319.22 379.22 317.62 C 377.82 314.82 379.20 312.54 380.22 310.21 C 382.41 309.54 384.96 310.11 386.94 308.86 C 387.22 306.90 385.74 305.15 386.14 303.21 C 387.32 301.98 388.69 300.94 390.28 300.28 Z" />
</g>
<g id="#f7e3e7ff">
<path fill="#f7e3e7" opacity="1.00" d=" M 550.43 307.43 C 553.16 305.11 555.67 301.48 560.00 303.00 C 564.61 301.73 567.64 305.93 571.92 306.17 C 573.61 306.25 574.16 308.58 575.79 308.74 C 577.05 307.86 577.91 305.47 579.78 306.18 C 581.86 307.08 579.73 308.92 579.45 310.35 C 579.28 311.80 578.94 314.72 578.77 316.17 C 576.07 309.46 568.85 308.30 563.55 304.42 C 561.35 304.96 556.95 302.44 555.39 305.39 C 553.69 308.40 548.61 309.17 550.98 314.03 C 550.80 320.78 561.79 319.34 561.89 325.77 C 558.45 328.50 554.58 330.60 551.13 333.29 C 548.42 340.47 555.70 347.87 562.91 345.95 C 568.24 342.73 573.58 339.41 577.87 334.81 C 576.50 341.19 569.19 342.90 564.63 346.66 C 561.14 346.45 556.39 348.42 553.60 345.44 C 550.07 342.92 548.76 338.20 549.00 334.03 C 550.44 328.89 558.08 328.95 559.89 324.17 C 556.73 321.24 552.20 320.67 549.14 317.78 C 549.52 314.50 547.78 310.21 550.43 307.43 Z" />
<path fill="#f7e3e7" opacity="1.00" d=" M 591.30 332.28 C 596.49 331.96 604.64 330.95 608.01 336.07 C 603.25 334.08 598.08 333.45 592.99 333.04 C 587.36 334.39 589.85 341.37 585.37 343.36 C 586.15 339.21 586.44 333.68 591.30 332.28 Z" />
</g>
<g id="#f9dbe2ff">
<path fill="#f9dbe2" opacity="1.00" d=" M 555.39 305.39 C 556.95 302.44 561.35 304.96 563.55 304.42 C 568.85 308.30 576.07 309.46 578.77 316.17 C 580.62 318.88 582.59 321.59 583.65 324.75 C 581.92 328.21 580.08 331.64 577.87 334.81 C 573.58 339.41 568.24 342.73 562.91 345.95 C 555.70 347.87 548.42 340.47 551.13 333.29 C 554.58 330.60 558.45 328.50 561.89 325.77 C 561.79 319.34 550.80 320.78 550.98 314.03 C 548.61 309.17 553.69 308.40 555.39 305.39 Z" />
</g>
<g id="#f6e5e9ff">
<path fill="#f6e5e9" opacity="1.00" d=" M 342.37 314.42 C 345.89 312.67 348.10 308.94 351.96 307.88 C 351.77 309.52 350.82 311.10 351.14 312.78 C 352.32 313.89 354.68 316.11 355.86 317.22 C 355.83 319.63 355.00 324.10 352.90 324.73 C 352.94 323.26 353.00 321.79 352.82 320.33 C 349.04 319.27 345.43 317.73 342.01 315.82 C 342.10 315.47 342.28 314.77 342.37 314.42 Z" />
</g>
<g id="#f7eef1ff">
<path fill="#f7eef1" opacity="1.00" d=" M 288.33 318.19 C 292.68 315.02 296.97 309.99 302.84 310.05 C 304.68 312.66 304.28 317.78 309.94 315.16 C 313.05 316.52 318.15 318.22 316.00 323.01 C 318.89 328.24 312.07 328.92 311.97 332.99 C 312.14 335.19 308.29 337.17 311.22 338.88 C 317.72 340.51 323.50 337.28 329.80 337.12 C 335.40 341.85 337.07 349.79 335.77 356.77 C 332.21 361.92 327.05 367.46 320.02 365.98 C 314.30 364.72 308.43 368.27 302.90 366.19 C 300.64 365.65 296.86 366.78 298.13 369.76 C 301.04 371.40 305.22 372.06 306.40 375.64 C 308.74 380.56 305.15 384.98 304.71 389.76 C 302.08 391.07 299.45 392.35 296.77 393.54 C 293.82 393.46 290.91 393.10 287.97 392.89 C 288.05 392.41 288.20 391.45 288.27 390.98 C 292.89 390.37 299.01 392.89 301.82 387.82 C 305.07 384.59 306.57 378.29 303.61 374.44 C 299.97 372.75 296.28 371.10 292.98 368.80 C 293.78 367.71 294.77 366.77 295.76 365.84 C 299.07 364.57 303.42 364.77 305.71 361.72 C 307.48 357.08 306.72 351.70 304.77 347.25 C 300.31 343.89 294.51 343.52 289.18 342.78 C 287.51 338.56 290.17 331.85 284.71 330.27 C 281.95 329.78 279.24 331.75 276.78 332.82 C 273.09 335.43 278.78 340.37 275.77 342.85 C 272.09 343.38 268.73 341.05 265.09 340.98 C 262.72 342.91 258.74 346.04 256.05 342.80 C 256.20 339.77 259.57 337.38 258.73 334.29 C 257.88 332.24 256.35 330.60 254.70 329.17 C 248.53 327.27 243.76 331.93 239.43 335.44 C 240.24 341.56 234.22 348.60 239.51 353.46 C 243.33 358.04 249.70 359.16 255.23 360.43 C 262.04 360.53 266.51 354.62 272.89 353.20 C 275.12 354.89 274.21 358.56 272.32 360.23 C 273.06 357.01 269.99 355.89 267.76 357.77 C 265.50 360.52 261.41 360.30 259.23 363.19 C 252.03 366.11 239.24 368.18 236.57 358.34 C 231.78 353.96 233.36 346.74 232.02 340.99 C 231.32 334.63 237.60 329.05 243.93 329.82 C 249.31 327.10 257.19 326.43 260.06 332.97 C 262.08 334.73 258.65 337.61 261.24 338.79 C 265.30 338.73 269.52 338.65 273.04 340.96 C 272.68 338.01 272.05 335.03 271.97 332.06 C 274.48 330.70 277.07 329.17 279.99 328.94 C 285.48 328.84 286.75 322.44 288.33 318.19 Z" />
</g>
<g id="#f9e8ecff">
<path fill="#f9e8ec" opacity="1.00" d=" M 458.25 324.28 C 461.93 322.99 465.92 322.74 469.78 323.13 C 470.72 325.79 471.68 328.45 473.30 330.79 C 475.59 331.84 475.13 327.32 477.33 328.24 C 476.17 329.89 475.89 333.60 473.21 332.89 C 471.33 330.57 470.35 327.71 468.73 325.24 C 463.05 321.87 453.28 327.96 455.99 335.00 C 458.58 342.91 465.65 347.41 472.16 351.91 C 463.61 351.32 458.35 342.31 453.99 335.95 C 454.43 331.84 454.67 326.95 458.25 324.28 Z" />
</g>
<g id="#f7d5dfff">
<path fill="#f7d5df" opacity="1.00" d=" M 455.99 335.00 C 453.28 327.96 463.05 321.87 468.73 325.24 C 470.35 327.71 471.33 330.57 473.21 332.89 C 475.89 333.60 476.17 329.89 477.33 328.24 C 479.23 321.10 489.69 323.43 491.71 329.30 C 493.92 338.44 486.39 346.90 478.66 350.61 C 476.60 351.44 474.17 354.21 472.16 351.91 C 465.65 347.41 458.58 342.91 455.99 335.00 Z" />
</g>
<g id="#f4b3c5ff">
<path fill="#f4b3c5" opacity="1.00" d=" M 195.08 335.15 C 191.00 331.28 199.44 325.01 202.99 328.97 C 206.23 332.94 209.51 338.18 207.72 343.64 C 203.51 346.27 199.53 350.55 193.99 349.04 C 188.29 349.25 188.31 338.56 194.10 339.06 C 195.44 339.02 196.79 338.96 198.13 338.88 C 197.83 337.15 196.25 336.26 195.08 335.15 Z" />
</g>
<g id="#f6e8ecff">
<path fill="#f6e8ec" opacity="1.00" d=" M 239.43 335.44 C 243.76 331.93 248.53 327.27 254.70 329.17 C 256.35 330.60 257.88 332.24 258.73 334.29 C 259.57 337.38 256.20 339.77 256.05 342.80 C 258.74 346.04 262.72 342.91 265.09 340.98 C 268.73 341.05 272.09 343.38 275.77 342.85 C 278.78 340.37 273.09 335.43 276.78 332.82 C 279.24 331.75 281.95 329.78 284.71 330.27 C 290.17 331.85 287.51 338.56 289.18 342.78 C 294.51 343.52 300.31 343.89 304.77 347.25 C 306.72 351.70 307.48 357.08 305.71 361.72 C 303.42 364.77 299.07 364.57 295.76 365.84 C 297.63 363.22 300.63 362.12 303.69 361.60 C 305.59 358.04 304.79 353.98 303.76 350.29 C 299.56 345.24 291.85 345.89 286.05 346.12 C 282.49 348.42 278.62 350.58 276.47 354.38 C 277.70 361.99 268.03 364.71 268.61 372.21 C 266.00 367.46 270.35 363.96 272.32 360.23 C 274.21 358.56 275.12 354.89 272.89 353.20 C 266.51 354.62 262.04 360.53 255.23 360.43 C 249.70 359.16 243.33 358.04 239.51 353.46 C 234.22 348.60 240.24 341.56 239.43 335.44 M 250.30 330.33 C 241.74 332.83 237.21 344.92 241.33 352.66 C 246.99 355.61 253.09 358.99 259.73 357.80 C 262.68 355.34 265.80 352.59 269.97 352.82 C 270.82 349.49 267.96 347.16 265.81 345.14 C 262.22 344.38 258.95 347.62 255.23 345.90 C 251.77 341.57 259.10 338.04 256.86 333.23 C 255.13 331.63 252.85 329.34 250.30 330.33 Z" />
</g>
<g id="#f7e0e7ff">
<path fill="#f7e0e7" opacity="1.00" d=" M 250.30 330.33 C 252.85 329.34 255.13 331.63 256.86 333.23 C 259.10 338.04 251.77 341.57 255.23 345.90 C 258.95 347.62 262.22 344.38 265.81 345.14 C 267.96 347.16 270.82 349.49 269.97 352.82 C 265.80 352.59 262.68 355.34 259.73 357.80 C 253.09 358.99 246.99 355.61 241.33 352.66 C 237.21 344.92 241.74 332.83 250.30 330.33 Z" />
</g>
<g id="#f8cfd8ff">
<path fill="#f8cfd8" opacity="1.00" d=" M 592.99 333.04 C 598.08 333.45 603.25 334.08 608.01 336.07 C 609.80 337.68 613.76 338.66 612.70 341.70 C 611.13 345.25 613.68 350.55 610.26 353.26 C 608.74 354.68 608.31 356.80 607.62 358.68 C 604.85 360.36 600.72 362.41 597.88 359.83 C 599.37 358.36 602.44 357.59 602.02 355.01 C 600.25 348.46 593.47 340.59 586.09 344.05 L 585.06 344.05 L 585.37 343.36 C 589.85 341.37 587.36 334.39 592.99 333.04 Z" />
</g>
<g id="#f6e3e8ff">
<path fill="#f6e3e8" opacity="1.00" d=" M 365.31 334.40 C 369.53 333.93 373.74 335.47 378.02 334.98 C 382.74 334.76 385.70 339.25 388.70 342.28 C 388.47 345.23 389.35 348.12 389.97 350.96 C 388.54 354.25 386.24 357.23 383.80 359.86 C 377.81 359.63 371.89 358.71 365.95 358.03 C 367.12 362.83 369.63 367.60 371.99 372.07 C 371.15 376.94 367.43 381.56 362.33 382.41 C 356.29 385.11 350.75 381.45 347.32 376.75 C 346.56 372.56 345.14 368.53 343.41 364.65 C 342.50 356.84 342.91 348.93 344.18 341.19 C 347.84 338.51 352.71 338.60 356.69 336.65 C 359.30 335.05 362.36 334.98 365.31 334.40 Z" />
</g>
<g id="#fddae0ff">
<path fill="#fddae0" opacity="1.00" d=" M 195.08 335.15 C 196.25 336.26 197.83 337.15 198.13 338.88 C 196.79 338.96 195.44 339.02 194.10 339.06 C 194.48 337.77 194.81 336.46 195.08 335.15 Z" />
</g>
<g id="#f6e7ecff">
<path fill="#f6e7ec" opacity="1.00" d=" M 404.34 339.49 C 408.53 339.46 413.89 337.27 417.41 340.52 C 420.77 342.52 420.07 347.24 421.82 350.22 C 425.03 352.98 424.45 357.81 427.16 360.93 C 430.06 361.37 430.93 357.81 431.66 355.69 C 432.32 352.07 437.90 351.87 438.13 348.08 C 439.66 344.41 444.34 341.70 448.33 343.58 C 451.33 344.39 453.59 346.81 456.71 347.38 C 466.08 353.43 465.77 369.52 456.03 375.03 C 451.88 376.24 452.27 381.06 449.31 383.31 C 444.51 389.24 435.26 387.52 430.72 393.66 C 428.08 394.14 425.54 395.00 422.99 395.83 C 420.22 394.44 416.34 394.23 415.01 391.00 C 413.39 386.02 406.48 386.22 404.26 381.73 C 402.89 378.59 399.45 376.97 398.39 373.68 C 396.26 368.28 393.85 362.99 391.03 357.95 C 391.98 350.49 395.62 340.15 404.34 339.49 Z" />
</g>
<g id="#fab9c8ff">
<path fill="#fab9c8" opacity="1.00" d=" M 586.09 344.05 C 593.47 340.59 600.25 348.46 602.02 355.01 C 602.44 357.59 599.37 358.36 597.88 359.83 C 595.49 361.33 595.13 364.80 592.79 366.14 C 588.74 366.06 584.77 363.24 583.48 359.41 C 582.64 357.13 579.81 357.03 578.01 355.85 C 579.24 353.15 581.76 351.16 582.21 348.12 C 582.67 346.16 584.65 345.22 586.09 344.05 Z" />
</g>
<g id="#f9e5e9ff">
<path fill="#f9e5e9" opacity="1.00" d=" M 531.05 349.05 C 533.31 343.88 540.60 342.17 544.99 346.00 C 550.21 347.55 546.60 353.09 546.99 356.88 C 548.75 357.03 550.52 357.10 552.29 357.32 C 550.30 358.31 548.26 359.23 546.12 359.83 C 542.54 356.49 548.97 351.85 545.73 348.29 C 542.14 344.27 535.56 345.51 532.24 349.29 C 531.33 356.40 529.77 363.99 533.26 370.73 C 534.99 372.74 537.89 372.88 540.25 373.75 C 538.47 373.79 534.92 373.88 533.14 373.93 C 529.09 366.50 528.08 357.09 531.05 349.05 Z" />
</g>
<g id="#fac6d1ff">
<path fill="#fac6d1" opacity="1.00" d=" M 575.93 351.90 C 577.56 348.27 580.33 343.42 585.06 344.05 L 586.09 344.05 C 584.65 345.22 582.67 346.16 582.21 348.12 C 581.76 351.16 579.24 353.15 578.01 355.85 C 579.81 357.03 582.64 357.13 583.48 359.41 C 584.77 363.24 588.74 366.06 592.79 366.14 C 591.91 367.63 592.43 368.38 594.23 368.47 C 591.83 369.77 590.14 367.97 588.17 367.00 C 586.62 371.17 583.03 374.93 584.30 379.71 C 586.14 386.46 593.50 389.64 599.95 390.11 C 599.93 393.56 593.51 390.01 591.31 389.68 C 585.68 389.91 579.62 387.12 576.12 383.00 C 575.71 379.45 571.11 378.99 570.26 375.67 C 567.38 371.70 572.77 369.61 571.71 366.11 C 570.57 360.96 574.74 356.68 575.93 351.90 Z" />
</g>
<g id="#f6dfe6ff">
<path fill="#f6dfe6" opacity="1.00" d=" M 286.05 346.12 C 291.85 345.89 299.56 345.24 303.76 350.29 C 304.79 353.98 305.59 358.04 303.69 361.60 C 300.63 362.12 297.63 363.22 295.76 365.84 C 294.77 366.77 293.78 367.71 292.98 368.80 C 296.28 371.10 299.97 372.75 303.61 374.44 C 306.57 378.29 305.07 384.59 301.82 387.82 C 299.01 392.89 292.89 390.37 288.27 390.98 C 286.24 386.96 280.72 386.39 277.94 383.06 C 275.65 380.35 274.03 376.98 271.00 375.01 C 269.95 374.29 268.86 373.54 268.61 372.21 C 268.03 364.71 277.70 361.99 276.47 354.38 C 278.62 350.58 282.49 348.42 286.05 346.12 M 280.38 361.22 C 277.62 363.84 277.78 367.14 279.97 370.08 C 276.70 370.34 272.93 365.29 270.14 369.22 C 269.59 372.60 273.93 373.32 275.00 376.00 C 276.70 381.58 285.77 382.78 288.42 377.39 C 289.35 375.20 293.95 376.39 292.96 373.09 C 289.94 368.27 288.27 358.02 280.38 361.22 Z" />
</g>
<g id="#f9cfd9ff">
<path fill="#f9cfd9" opacity="1.00" d=" M 532.24 349.29 C 535.56 345.51 542.14 344.27 545.73 348.29 C 548.97 351.85 542.54 356.49 546.12 359.83 C 548.26 359.23 550.30 358.31 552.29 357.32 C 558.00 355.25 561.25 364.19 559.24 368.23 C 555.53 374.61 546.56 374.20 540.25 373.75 C 537.89 372.88 534.99 372.74 533.26 370.73 C 529.77 363.99 531.33 356.40 532.24 349.29 Z" />
</g>
<g id="#f1bacaff">
<path fill="#f1baca" opacity="1.00" d=" M 206.06 352.01 C 206.79 350.43 207.43 347.30 209.77 348.15 C 211.80 349.53 213.84 350.91 216.05 352.00 C 217.24 352.45 217.44 353.96 217.98 354.97 C 216.02 358.42 213.90 363.60 209.05 362.99 C 205.61 362.56 206.54 357.49 208.64 355.66 C 210.15 353.50 205.50 353.96 206.06 352.01 Z" />
</g>
<g id="#f5d0dcff">
<path fill="#f5d0dc" opacity="1.00" d=" M 209.77 348.15 C 212.25 347.70 215.80 349.32 216.05 352.00 C 213.84 350.91 211.80 349.53 209.77 348.15 Z" />
</g>
<g id="#f5d7ddff">
<path fill="#f5d7dd" opacity="1.00" d=" M 571.02 359.01 C 570.91 355.61 573.64 353.70 575.93 351.90 C 574.74 356.68 570.57 360.96 571.71 366.11 C 572.77 369.61 567.38 371.70 570.26 375.67 C 571.11 378.99 575.71 379.45 576.12 383.00 C 573.19 381.69 570.81 379.47 568.22 377.66 C 567.68 371.33 568.91 364.97 571.02 359.01 Z" />
</g>
<g id="#f9ecf0ff">
<path fill="#f9ecf0" opacity="1.00" d=" M 266.43 367.21 C 267.62 364.48 269.15 360.84 272.32 360.23 C 270.35 363.96 266.00 367.46 268.61 372.21 C 268.86 373.54 269.95 374.29 271.00 375.01 C 274.03 376.98 275.65 380.35 277.94 383.06 C 280.72 386.39 286.24 386.96 288.27 390.98 C 283.13 390.19 279.53 385.55 275.12 383.03 C 271.20 386.62 274.85 390.66 277.00 394.05 C 277.58 396.33 274.40 396.15 273.91 397.95 C 272.99 399.40 272.78 401.13 273.11 402.81 C 276.05 404.71 279.49 403.17 282.68 403.24 C 284.20 404.68 285.72 406.12 287.40 407.38 C 288.74 413.01 289.94 420.75 284.98 424.76 C 286.55 424.74 287.21 425.48 286.96 426.96 C 285.10 425.95 282.97 426.00 280.92 425.98 L 281.09 425.14 C 287.69 420.97 288.86 411.18 282.96 405.97 C 281.19 403.35 277.41 404.81 275.01 404.83 C 268.25 408.52 270.96 403.33 270.71 400.73 C 271.63 398.70 272.91 396.86 273.91 394.88 C 274.58 392.13 272.23 390.04 270.82 388.01 C 271.23 385.89 273.55 383.81 272.40 381.65 C 271.66 378.82 267.30 378.88 265.25 379.10 C 264.09 380.64 263.14 382.33 262.16 383.99 C 261.61 384.26 260.53 384.79 259.98 385.05 C 260.61 381.16 263.82 376.99 267.97 376.77 C 267.77 373.54 266.87 370.40 266.43 367.21 Z" />
</g>
<g id="#f6d8e1ff">
<path fill="#f6d8e1" opacity="1.00" d=" M 280.38 361.22 C 288.27 358.02 289.94 368.27 292.96 373.09 C 293.95 376.39 289.35 375.20 288.42 377.39 C 285.77 382.78 276.70 381.58 275.00 376.00 C 273.93 373.32 269.59 372.60 270.14 369.22 C 272.93 365.29 276.70 370.34 279.97 370.08 C 277.78 367.14 277.62 363.84 280.38 361.22 Z" />
</g>
<g id="#fbbdcaff">
<path fill="#fbbdca" opacity="1.00" d=" M 588.17 367.00 C 590.14 367.97 591.83 369.77 594.23 368.47 C 596.87 367.65 599.80 368.15 602.23 369.40 C 600.21 370.35 597.66 368.27 596.09 370.18 C 596.32 373.72 598.70 376.84 598.54 380.37 C 596.92 383.69 598.82 389.23 602.92 389.21 C 602.68 390.20 601.69 390.50 599.95 390.11 C 593.50 389.64 586.14 386.46 584.30 379.71 C 583.03 374.93 586.62 371.17 588.17 367.00 Z" />
</g>
<g id="#f7b1c0ff">
<path fill="#f7b1c0" opacity="1.00" d=" M 596.09 370.18 C 597.66 368.27 600.21 370.35 602.23 369.40 C 605.73 367.65 608.04 371.17 609.03 374.04 C 608.93 376.90 609.00 379.84 608.77 382.72 C 608.50 386.04 606.19 388.61 602.92 389.21 C 598.82 389.23 596.92 383.69 598.54 380.37 C 598.70 376.84 596.32 373.72 596.09 370.18 Z" />
</g>
<g id="#f6d3ddff">
<path fill="#f6d3dd" opacity="1.00" d=" M 609.03 374.04 C 612.20 373.91 609.30 380.67 609.85 383.03 L 608.77 382.72 C 609.00 379.84 608.93 376.90 609.03 374.04 Z" />
</g>
<g id="#f7e5ebff">
<path fill="#f7e5eb" opacity="1.00" d=" M 265.25 379.10 C 267.30 378.88 271.66 378.82 272.40 381.65 C 273.55 383.81 271.23 385.89 270.82 388.01 C 268.14 386.25 265.33 384.63 262.16 383.99 C 263.14 382.33 264.09 380.64 265.25 379.10 Z" />
</g>
<g id="#f5bacbff">
<path fill="#f5bacb" opacity="1.00" d=" M 262.16 383.99 C 265.33 384.63 268.14 386.25 270.82 388.01 C 272.23 390.04 274.58 392.13 273.91 394.88 C 272.91 396.86 271.63 398.70 270.71 400.73 C 269.64 402.55 268.72 404.52 268.91 406.70 C 273.57 406.25 278.26 405.93 282.96 405.97 C 288.86 411.18 287.69 420.97 281.09 425.14 C 281.39 422.07 283.28 418.08 279.76 416.17 C 276.00 416.83 269.40 418.24 272.01 423.94 C 272.61 427.75 278.01 425.52 280.92 425.98 C 282.97 426.00 285.10 425.95 286.96 426.96 C 290.15 432.29 282.04 437.50 277.31 434.62 C 275.83 433.34 272.53 433.75 272.08 431.90 C 272.08 429.32 272.84 424.27 269.00 425.16 C 266.60 425.76 264.43 424.67 262.17 424.08 C 260.94 424.98 260.99 426.51 260.94 427.89 C 262.92 427.54 264.88 427.00 266.90 426.97 C 266.98 428.28 267.03 429.60 267.04 430.93 C 266.80 431.19 266.32 431.73 266.08 432.00 C 262.91 432.68 259.51 433.64 256.86 431.15 C 254.35 429.33 256.77 424.83 255.97 422.07 C 253.91 418.35 247.95 416.54 249.97 410.99 C 248.84 405.34 251.58 400.31 252.02 394.90 C 251.53 389.72 255.71 386.78 259.98 385.05 C 260.53 384.79 261.61 384.26 262.16 383.99 Z" />
</g>
<g id="#eec6d1ff">
<path fill="#eec6d1" opacity="1.00" d=" M 249.19 419.67 C 249.68 411.54 245.18 401.36 252.02 394.90 C 251.58 400.31 248.84 405.34 249.97 410.99 C 247.95 416.54 253.91 418.35 255.97 422.07 C 253.35 422.39 251.69 419.96 249.19 419.67 Z" />
</g>
<g id="#f7cfdbff">
<path fill="#f7cfdb" opacity="1.00" d=" M 504.82 397.93 C 505.64 394.00 509.17 395.32 512.00 396.11 C 514.84 402.81 510.52 410.52 504.01 412.98 C 498.71 410.56 492.55 406.73 492.85 400.08 C 494.90 395.45 500.80 398.17 504.82 397.93 Z" />
<path fill="#f7cfdb" opacity="1.00" d=" M 262.17 424.08 C 264.43 424.67 266.60 425.76 269.00 425.16 C 272.84 424.27 272.08 429.32 272.08 431.90 C 268.98 432.44 272.90 424.91 268.11 427.03 C 267.54 428.11 268.94 431.35 267.04 430.93 C 267.03 429.60 266.98 428.28 266.90 426.97 C 264.88 427.00 262.92 427.54 260.94 427.89 C 260.99 426.51 260.94 424.98 262.17 424.08 Z" />
</g>
<g id="#f7ccdbff">
<path fill="#f7ccdb" opacity="1.00" d=" M 320.19 397.03 C 321.01 394.82 325.17 395.63 326.98 396.50 C 324.82 397.28 322.56 397.46 320.19 397.03 Z" />
</g>
<g id="#f5adc3ff">
<path fill="#f5adc3" opacity="1.00" d=" M 326.98 396.50 C 331.36 394.85 336.18 397.77 338.83 401.07 C 340.79 405.40 343.57 409.60 342.71 414.67 C 341.99 417.49 339.30 418.75 336.94 419.96 C 335.14 420.90 333.38 421.98 331.43 422.60 C 329.65 420.77 328.24 417.96 325.39 417.84 C 327.22 423.56 319.24 424.99 316.63 428.64 C 313.19 429.17 309.78 426.00 307.30 423.67 C 308.20 422.14 309.78 420.98 310.05 419.14 C 307.69 418.49 305.29 418.02 302.86 417.75 C 303.90 416.50 305.02 415.31 306.28 414.29 C 308.19 414.25 310.13 414.57 311.98 413.90 C 312.23 412.04 310.94 410.61 310.26 409.01 C 310.80 407.66 311.54 406.39 311.93 404.99 C 313.36 401.62 317.19 398.98 320.19 397.03 C 322.56 397.46 324.82 397.28 326.98 396.50 Z" />
</g>
<g id="#f7e5eaff">
<path fill="#f7e5ea" opacity="1.00" d=" M 512.00 396.11 C 516.48 397.26 514.46 401.90 513.96 405.07 C 515.61 405.06 516.66 403.74 517.99 402.99 C 520.00 404.51 522.40 405.26 524.68 406.31 C 526.30 409.10 528.28 412.98 525.98 415.98 C 522.13 421.40 516.14 424.83 509.89 426.89 C 509.38 425.84 508.88 424.78 508.29 423.79 C 506.33 420.49 503.03 418.18 500.70 415.19 C 496.58 412.39 494.96 416.16 494.83 418.91 C 494.36 419.00 493.42 419.19 492.95 419.28 C 496.01 412.86 491.46 406.51 491.95 399.99 L 492.85 400.08 C 492.55 406.73 498.71 410.56 504.01 412.98 C 510.52 410.52 514.84 402.81 512.00 396.11 Z" />
</g>
<g id="#f6eef1ff">
<path fill="#f6eef1" opacity="1.00" d=" M 388.30 398.29 C 393.99 398.08 401.33 396.13 405.26 401.72 C 407.74 403.78 407.21 407.46 408.51 410.24 C 405.71 421.40 402.21 434.35 390.93 439.98 C 382.97 439.67 375.20 436.74 368.47 432.56 C 366.61 429.40 362.93 428.18 360.33 425.82 C 359.50 422.52 357.26 419.60 357.99 415.97 C 358.90 408.00 367.47 403.78 374.79 405.14 C 376.88 408.06 379.46 410.63 382.87 411.95 C 385.92 407.96 382.73 400.29 388.30 398.29 M 392.34 399.41 C 384.67 399.85 387.58 409.41 383.84 413.92 C 377.05 415.77 375.86 403.28 368.35 407.41 C 362.85 408.26 357.94 414.80 360.68 420.31 C 361.75 422.49 361.96 425.35 364.36 426.60 C 371.71 432.59 380.74 438.59 390.69 437.70 C 395.97 435.25 399.86 430.14 401.84 424.80 C 405.03 421.10 404.10 415.71 407.00 411.93 C 406.94 408.53 404.83 405.51 403.67 402.37 C 400.02 400.67 396.93 396.97 392.34 399.41 Z" />
</g>
<g id="#f6e6ecff">
<path fill="#f6e6ec" opacity="1.00" d=" M 392.34 399.41 C 396.93 396.97 400.02 400.67 403.67 402.37 C 404.83 405.51 406.94 408.53 407.00 411.93 C 404.10 415.71 405.03 421.10 401.84 424.80 C 399.86 430.14 395.97 435.25 390.69 437.70 C 380.74 438.59 371.71 432.59 364.36 426.60 C 361.96 425.35 361.75 422.49 360.68 420.31 C 357.94 414.80 362.85 408.26 368.35 407.41 C 375.86 403.28 377.05 415.77 383.84 413.92 C 387.58 409.41 384.67 399.85 392.34 399.41 Z" />
</g>
<g id="#f9d8e1ff">
<path fill="#f9d8e1" opacity="1.00" d=" M 268.91 406.70 C 268.72 404.52 269.64 402.55 270.71 400.73 C 270.96 403.33 268.25 408.52 275.01 404.83 C 277.41 404.81 281.19 403.35 282.96 405.97 C 278.26 405.93 273.57 406.25 268.91 406.70 Z" />
</g>
<g id="#ecbfceff">
<path fill="#ecbfce" opacity="1.00" d=" M 338.83 401.07 C 343.05 403.29 344.28 409.57 344.04 414.00 C 344.56 417.84 340.54 421.49 336.84 420.89 L 336.94 419.96 C 339.30 418.75 341.99 417.49 342.71 414.67 C 343.57 409.60 340.79 405.40 338.83 401.07 Z" />
</g>
<g id="#f6e6eaff">
<path fill="#f6e6ea" opacity="1.00" d=" M 138.03 404.09 C 148.35 399.15 161.15 402.36 169.86 409.21 C 170.28 415.57 170.45 422.17 168.65 428.35 C 168.56 430.69 168.59 433.03 167.03 435.01 C 164.17 443.24 150.52 443.77 147.26 435.72 C 145.68 430.46 150.54 426.27 150.03 421.10 C 147.34 421.01 141.98 420.84 139.30 420.76 C 133.55 417.14 133.86 408.81 138.03 404.09 M 142.31 404.33 C 137.21 406.09 135.18 413.99 138.90 418.07 C 142.49 421.59 151.95 415.29 152.91 421.99 C 151.08 426.37 148.76 430.81 149.20 435.72 C 151.72 440.04 157.15 439.52 161.36 438.40 C 165.28 436.90 166.61 432.16 166.57 428.36 C 167.92 422.42 168.41 416.32 167.83 410.25 C 161.53 402.92 151.01 403.30 142.31 404.33 Z" />
</g>
<g id="#f0cbd7ff">
<path fill="#f0cbd7" opacity="1.00" d=" M 233.17 403.06 C 235.90 403.10 239.43 403.68 239.94 406.89 C 238.97 408.19 236.24 407.33 236.11 409.10 C 236.65 411.96 232.21 411.51 231.13 409.80 C 230.39 407.31 231.73 404.98 233.17 403.06 Z" />
</g>
<g id="#f6ecefff">
<path fill="#f6ecef" opacity="1.00" d=" M 187.33 405.36 C 191.50 404.94 195.72 404.78 199.91 405.06 C 202.53 409.68 205.19 414.53 205.15 420.03 C 208.98 420.55 207.13 415.70 209.20 414.08 C 210.86 414.09 214.17 414.09 215.83 414.10 C 218.92 418.70 218.82 425.21 215.70 429.83 C 208.21 429.94 200.67 430.40 193.21 429.83 C 190.68 427.67 189.42 424.24 189.83 420.90 C 187.86 421.25 186.53 422.87 184.79 423.73 C 179.91 422.90 175.05 418.18 176.91 412.99 C 177.67 407.97 183.73 407.63 187.33 405.36 M 192.28 406.29 C 187.72 406.48 184.20 409.39 180.30 411.31 C 177.11 414.98 180.34 421.06 184.72 421.60 C 186.93 420.10 189.19 418.41 191.88 417.93 C 192.32 421.20 191.47 424.79 193.24 427.75 C 197.29 429.21 202.43 428.38 205.84 425.88 C 205.19 423.47 203.96 421.28 203.19 418.93 C 203.10 412.96 199.54 404.43 192.28 406.29 Z" />
</g>
<g id="#f6b5c9ff">
<path fill="#f6b5c9" opacity="1.00" d=" M 307.31 407.35 C 308.82 406.51 310.37 405.74 311.93 404.99 C 311.54 406.39 310.80 407.66 310.26 409.01 C 310.94 410.61 312.23 412.04 311.98 413.90 C 310.13 414.57 308.19 414.25 306.28 414.29 C 305.02 415.31 303.90 416.50 302.86 417.75 C 305.29 418.02 307.69 418.49 310.05 419.14 C 309.78 420.98 308.20 422.14 307.30 423.67 C 309.78 426.00 313.19 429.17 316.63 428.64 C 319.24 424.99 327.22 423.56 325.39 417.84 C 328.24 417.96 329.65 420.77 331.43 422.60 C 333.38 421.98 335.14 420.90 336.94 419.96 L 336.84 420.89 C 336.06 425.75 330.42 427.12 327.82 430.80 C 331.36 431.25 337.43 430.87 339.35 434.80 C 342.85 433.69 347.30 434.76 347.98 438.99 C 352.09 446.52 348.28 455.91 341.74 460.71 C 337.36 462.07 332.75 462.47 328.22 462.88 C 327.93 462.41 327.35 461.47 327.06 461.00 C 329.99 455.63 322.43 451.23 326.42 446.57 C 328.40 443.94 324.52 445.65 323.09 445.61 C 321.96 444.47 322.10 442.73 321.61 441.30 C 317.19 438.72 311.46 440.86 308.68 444.81 C 306.36 444.30 305.58 440.71 302.92 441.71 C 298.43 442.73 299.81 434.40 294.96 435.93 C 292.98 436.19 293.98 432.49 295.67 432.56 C 296.47 426.84 298.77 421.42 301.31 416.29 C 304.23 413.93 304.07 409.38 307.31 407.35 Z" />
</g>
<g id="#f6e2e7ff">
<path fill="#f6e2e7" opacity="1.00" d=" M 192.28 406.29 C 199.54 404.43 203.10 412.96 203.19 418.93 C 203.96 421.28 205.19 423.47 205.84 425.88 C 202.43 428.38 197.29 429.21 193.24 427.75 C 191.47 424.79 192.32 421.20 191.88 417.93 C 189.19 418.41 186.93 420.10 184.72 421.60 C 180.34 421.06 177.11 414.98 180.30 411.31 C 184.20 409.39 187.72 406.48 192.28 406.29 Z" />
</g>
<g id="#f3cad8ff">
<path fill="#f3cad8" opacity="1.00" d=" M 229.24 414.13 C 233.62 412.09 241.34 417.12 238.14 422.08 C 236.88 424.35 233.61 422.46 232.18 421.02 C 232.72 423.90 229.73 425.45 227.24 424.82 C 223.02 422.25 226.79 416.74 229.24 414.13 Z" />
</g>
<g id="#f7d1dcff">
<path fill="#f7d1dc" opacity="1.00" d=" M 494.83 418.91 C 494.96 416.16 496.58 412.39 500.70 415.19 C 503.03 418.18 506.33 420.49 508.29 423.79 C 506.26 422.69 504.21 421.65 502.01 420.96 C 501.03 419.69 500.04 418.43 498.89 417.32 C 497.54 417.86 496.29 418.69 494.83 418.91 Z" />
</g>
<g id="#f7afc5ff">
<path fill="#f7afc5" opacity="1.00" d=" M 272.01 423.94 C 269.40 418.24 276.00 416.83 279.76 416.17 C 283.28 418.08 281.39 422.07 281.09 425.14 L 280.92 425.98 C 278.01 425.52 272.61 427.75 272.01 423.94 Z" />
</g>
<g id="#f7c3d2ff">
<path fill="#f7c3d2" opacity="1.00" d=" M 494.83 418.91 C 496.29 418.69 497.54 417.86 498.89 417.32 C 500.04 418.43 501.03 419.69 502.01 420.96 C 498.60 420.54 495.18 420.10 491.82 419.49 L 492.95 419.28 C 493.42 419.19 494.36 419.00 494.83 418.91 Z" />
</g>
<g id="#f9b5c8ff">
<path fill="#f9b5c8" opacity="1.00" d=" M 483.19 427.38 C 484.01 423.35 488.07 420.32 491.82 419.49 C 495.18 420.10 498.60 420.54 502.01 420.96 C 505.08 423.97 509.69 426.69 507.92 432.02 C 506.89 436.75 507.82 441.79 510.11 446.03 C 510.86 445.57 511.47 444.96 511.95 444.20 C 512.61 443.31 513.29 442.43 513.98 441.57 C 517.65 445.78 517.86 453.18 523.96 455.08 C 530.44 457.83 537.64 453.51 540.91 447.77 C 540.93 449.15 540.94 450.55 540.94 451.94 C 539.41 455.01 539.70 459.53 535.98 460.98 C 528.97 464.42 523.52 470.52 515.31 471.35 C 508.97 471.70 502.56 473.05 496.22 472.86 C 492.07 466.62 486.57 461.00 484.38 453.69 C 483.79 450.79 481.15 448.27 482.41 445.19 C 482.80 441.08 480.23 437.19 480.05 433.07 C 480.80 431.02 482.23 429.33 483.19 427.38 Z" />
</g>
<g id="#f2bfcdff">
<path fill="#f2bfcd" opacity="1.00" d=" M 502.01 420.96 C 504.21 421.65 506.26 422.69 508.29 423.79 C 508.88 424.78 509.38 425.84 509.89 426.89 L 509.79 427.73 C 508.68 433.04 509.90 438.36 510.24 443.68 C 510.66 443.81 511.52 444.07 511.95 444.20 C 511.47 444.96 510.86 445.57 510.11 446.03 C 507.82 441.79 506.89 436.75 507.92 432.02 C 509.69 426.69 505.08 423.97 502.01 420.96 Z" />
</g>
<g id="#f7e3eaff">
<path fill="#f7e3ea" opacity="1.00" d=" M 474.23 425.14 C 477.59 424.18 480.30 426.26 483.19 427.38 C 482.23 429.33 480.80 431.02 480.05 433.07 C 480.23 437.19 482.80 441.08 482.41 445.19 C 481.20 442.53 478.73 441.09 476.35 439.61 C 474.49 437.46 472.65 435.23 471.26 432.74 C 470.12 429.85 472.27 427.06 474.23 425.14 Z" />
</g>
<g id="#fcdfe6ff">
<path fill="#fcdfe6" opacity="1.00" d=" M 510.24 443.68 C 509.90 438.36 508.68 433.04 509.79 427.73 C 510.22 432.15 510.79 436.55 511.14 440.99 C 512.16 440.76 513.18 440.52 514.20 440.26 C 514.15 440.58 514.04 441.24 513.98 441.57 C 513.29 442.43 512.61 443.31 511.95 444.20 C 511.52 444.07 510.66 443.81 510.24 443.68 Z" />
</g>
<g id="#f2d2ddff">
<path fill="#f2d2dd" opacity="1.00" d=" M 256.86 431.15 C 259.51 433.64 262.91 432.68 266.08 432.00 C 264.17 434.84 256.97 435.77 256.86 431.15 Z" />
</g>
<g id="#f7e1e8ff">
<path fill="#f7e1e8" opacity="1.00" d=" M 524.31 432.28 C 531.03 430.31 535.69 435.96 539.76 440.28 C 539.79 440.75 539.85 441.69 539.88 442.15 C 535.83 438.86 532.25 434.27 526.91 433.09 C 523.80 432.53 522.89 436.77 520.04 437.15 C 520.65 434.92 521.95 432.89 524.31 432.28 Z" />
</g>
<g id="#fbd2dcff">
<path fill="#fbd2dc" opacity="1.00" d=" M 520.04 437.15 C 522.89 436.77 523.80 432.53 526.91 433.09 C 532.25 434.27 535.83 438.86 539.88 442.15 C 542.12 444.54 543.57 451.07 540.94 451.94 C 540.94 450.55 540.93 449.15 540.91 447.77 C 542.12 444.13 536.65 446.95 536.95 448.96 C 535.48 451.67 532.62 452.94 529.91 453.95 C 526.28 454.11 522.95 451.97 520.26 449.73 C 518.37 446.53 519.40 442.64 518.84 439.13 C 518.20 439.12 516.93 439.10 516.29 439.09 C 515.62 437.34 519.01 438.03 520.04 437.15 Z" />
</g>
<g id="#f7c0d1ff">
<path fill="#f7c0d1" opacity="1.00" d=" M 294.96 435.93 C 299.81 434.40 298.43 442.73 302.92 441.71 C 305.58 440.71 306.36 444.30 308.68 444.81 C 311.46 440.86 317.19 438.72 321.61 441.30 C 322.10 442.73 321.96 444.47 323.09 445.61 C 324.52 445.65 328.40 443.94 326.42 446.57 C 322.43 451.23 329.99 455.63 327.06 461.00 C 324.50 460.82 321.41 460.44 319.88 458.13 C 315.80 453.82 311.88 447.07 304.98 447.89 C 300.96 445.05 297.86 440.14 294.96 435.93 Z" />
</g>
<g id="#f7eaeeff">
<path fill="#f7eaee" opacity="1.00" d=" M 270.20 438.15 C 279.26 436.39 288.24 438.88 295.19 444.78 C 298.63 449.90 297.28 457.44 291.80 460.88 C 286.88 463.21 284.66 456.72 280.08 458.00 C 278.89 460.62 281.66 465.49 278.25 467.25 C 273.40 471.37 265.65 470.06 263.04 463.96 C 261.07 455.03 263.34 444.49 270.20 438.15 M 272.25 439.17 C 266.44 444.73 263.11 453.38 264.53 461.34 C 265.47 466.77 272.00 469.03 276.76 466.85 C 279.44 463.40 276.32 458.13 279.21 455.11 C 283.26 455.42 286.48 459.91 290.81 458.88 C 292.84 456.83 295.01 454.71 296.00 451.95 C 295.68 449.62 294.71 447.42 293.71 445.31 C 287.39 440.85 279.97 438.79 272.25 439.17 Z" />
</g>
<g id="#f7dde5ff">
<path fill="#f7dde5" opacity="1.00" d=" M 272.25 439.17 C 279.97 438.79 287.39 440.85 293.71 445.31 C 294.71 447.42 295.68 449.62 296.00 451.95 C 295.01 454.71 292.84 456.83 290.81 458.88 C 286.48 459.91 283.26 455.42 279.21 455.11 C 276.32 458.13 279.44 463.40 276.76 466.85 C 272.00 469.03 265.47 466.77 264.53 461.34 C 263.11 453.38 266.44 444.73 272.25 439.17 Z" />
</g>
<g id="#f9c4d1ff">
<path fill="#f9c4d1" opacity="1.00" d=" M 516.29 439.09 C 516.93 439.10 518.20 439.12 518.84 439.13 C 519.40 442.64 518.37 446.53 520.26 449.73 C 522.95 451.97 526.28 454.11 529.91 453.95 C 532.62 452.94 535.48 451.67 536.95 448.96 C 536.65 446.95 542.12 444.13 540.91 447.77 C 537.64 453.51 530.44 457.83 523.96 455.08 C 517.86 453.18 517.65 445.78 513.98 441.57 C 514.04 441.24 514.15 440.58 514.20 440.26 C 514.72 439.96 515.77 439.38 516.29 439.09 Z" />
</g>
<g id="#f5d3deff">
<path fill="#f5d3de" opacity="1.00" d=" M 304.98 447.89 C 311.88 447.07 315.80 453.82 319.88 458.13 C 314.76 458.64 311.47 453.89 307.59 451.47 C 306.16 450.76 305.61 449.23 304.98 447.89 Z" />
</g>
<g id="#f7aec3ff">
<path fill="#f7aec3" opacity="1.00" d=" M 441.72 468.72 C 444.66 465.14 449.68 465.90 453.84 466.11 C 456.07 469.71 457.27 474.38 460.80 476.94 C 461.66 473.96 463.27 470.89 465.05 469.02 C 468.01 468.65 470.91 467.95 473.93 468.03 C 476.02 468.82 477.82 470.20 479.77 471.30 C 482.68 474.14 481.14 481.66 477.89 483.86 C 474.15 483.31 474.16 487.63 473.18 490.16 C 471.36 494.32 465.80 496.37 461.83 498.20 C 459.99 497.73 458.17 497.10 456.26 497.00 C 453.48 495.67 450.20 494.10 448.15 491.96 C 447.67 489.68 445.79 488.20 443.98 486.96 C 439.26 482.48 436.22 473.68 441.72 468.72 Z" />
</g>
<g id="#edb9c8ff">
<path fill="#edb9c8" opacity="1.00" d=" M 465.05 469.02 C 464.37 466.13 468.50 464.15 471.01 465.96 C 474.60 465.44 478.88 467.81 479.77 471.30 C 477.82 470.20 476.02 468.82 473.93 468.03 C 470.91 467.95 468.01 468.65 465.05 469.02 Z" />
</g>
<g id="#f7ebeeff">
<path fill="#f7ebee" opacity="1.00" d=" M 245.25 477.24 C 248.86 475.84 251.75 471.60 255.90 472.06 C 262.44 475.26 269.58 477.94 274.77 483.22 C 277.97 489.14 284.61 493.12 284.36 500.63 C 289.29 502.94 291.00 508.04 291.98 512.95 C 290.69 516.11 288.86 519.07 286.74 521.74 C 280.38 524.16 274.05 527.13 267.00 526.06 C 262.32 527.62 254.80 524.71 256.23 518.83 C 257.96 522.44 261.71 525.11 266.00 524.01 C 269.81 523.44 274.36 525.18 277.84 522.89 C 281.40 520.85 286.78 520.81 288.36 516.34 C 290.32 513.08 290.12 509.15 287.95 506.05 C 286.59 504.70 283.88 501.99 282.52 500.63 C 282.69 494.35 277.27 490.62 273.82 486.20 C 269.36 479.60 261.20 476.77 254.09 474.05 C 247.82 478.28 240.84 482.22 236.94 488.94 C 235.34 492.23 233.22 495.22 231.40 498.40 C 231.13 503.32 231.97 509.60 237.01 512.00 C 240.42 514.90 244.88 513.90 248.80 512.82 C 250.44 512.44 250.59 509.58 252.61 510.22 C 253.07 511.18 253.55 512.14 254.03 513.10 C 254.94 514.94 255.76 516.82 256.23 518.83 C 254.20 518.55 254.29 515.38 252.84 514.06 C 248.58 514.33 244.37 515.51 240.06 514.99 C 236.98 513.53 233.91 511.93 231.26 509.77 C 230.37 506.23 229.14 502.70 229.03 499.06 C 230.93 494.19 234.55 490.32 236.40 485.45 C 239.86 483.24 241.32 478.88 245.25 477.24 Z" />
</g>
<g id="#f8e0e6ff">
<path fill="#f8e0e6" opacity="1.00" d=" M 254.09 474.05 C 261.20 476.77 269.36 479.60 273.82 486.20 C 277.27 490.62 282.69 494.35 282.52 500.63 C 283.88 501.99 286.59 504.70 287.95 506.05 C 284.69 504.91 281.87 501.14 278.12 502.14 C 276.42 502.71 274.83 503.55 273.13 504.11 C 273.05 501.39 272.90 495.94 272.83 493.22 C 269.61 490.99 266.32 487.98 261.97 488.96 C 257.78 488.67 254.85 492.51 252.31 495.30 C 250.03 497.95 252.41 501.31 251.50 504.33 C 250.79 506.40 253.56 507.24 253.83 509.11 C 253.94 510.43 254.00 511.76 254.03 513.10 C 253.55 512.14 253.07 511.18 252.61 510.22 C 250.59 509.58 250.44 512.44 248.80 512.82 C 244.88 513.90 240.42 514.90 237.01 512.00 C 231.97 509.60 231.13 503.32 231.40 498.40 C 233.22 495.22 235.34 492.23 236.94 488.94 C 240.84 482.22 247.82 478.28 254.09 474.05 Z" />
</g>
<g id="#f8d1dcff">
<path fill="#f8d1dc" opacity="1.00" d=" M 320.34 478.38 C 322.77 478.95 328.04 476.13 329.09 480.04 C 324.56 479.28 319.09 478.69 316.22 483.20 C 316.54 486.46 322.61 486.90 319.57 491.42 C 318.74 492.19 317.70 492.78 317.09 493.77 C 318.51 495.08 321.52 495.51 321.02 498.00 C 320.68 502.36 315.63 505.14 317.17 510.01 C 315.05 511.40 318.87 516.68 315.65 517.62 C 309.68 515.51 308.55 520.79 308.12 524.82 C 309.93 525.49 311.82 525.88 313.68 526.41 C 315.70 527.75 316.64 530.10 317.96 532.04 C 315.32 532.59 313.97 530.28 312.16 528.91 C 309.11 526.91 306.00 525.00 303.18 522.70 C 302.60 513.88 302.55 504.85 305.48 496.41 C 308.56 492.41 310.39 487.69 311.93 482.93 C 313.78 480.50 317.71 480.04 320.34 478.38 Z" />
</g>
<g id="#f7c9d6ff">
<path fill="#f7c9d6" opacity="1.00" d=" M 316.22 483.20 C 319.09 478.69 324.56 479.28 329.09 480.04 C 334.88 480.63 337.69 486.93 338.85 492.02 C 338.33 494.96 335.21 496.48 334.42 499.33 C 333.36 502.43 331.36 505.08 330.03 508.08 C 332.40 508.51 335.07 506.09 337.05 508.12 C 335.33 509.44 334.41 511.44 333.10 513.12 C 331.47 515.28 327.98 516.18 330.05 520.20 C 331.34 519.03 332.17 517.24 334.01 516.85 C 334.70 521.32 331.36 524.74 329.11 528.17 C 328.04 532.23 332.39 533.54 335.30 534.66 C 329.64 535.24 322.73 535.33 317.96 532.04 C 316.64 530.10 315.70 527.75 313.68 526.41 C 311.82 525.88 309.93 525.49 308.12 524.82 C 308.55 520.79 309.68 515.51 315.65 517.62 C 318.87 516.68 315.05 511.40 317.17 510.01 C 315.63 505.14 320.68 502.36 321.02 498.00 C 321.52 495.51 318.51 495.08 317.09 493.77 C 317.70 492.78 318.74 492.19 319.57 491.42 C 322.61 486.90 316.54 486.46 316.22 483.20 Z" />
</g>
<g id="#edc3ceff">
<path fill="#edc3ce" opacity="1.00" d=" M 473.18 490.16 C 474.16 487.63 474.15 483.31 477.89 483.86 C 477.22 486.41 476.34 489.89 473.18 490.16 Z" />
</g>
<g id="#f6c8d7ff">
<path fill="#f6c8d7" opacity="1.00" d=" M 443.98 486.96 C 445.79 488.20 447.67 489.68 448.15 491.96 C 446.23 491.01 443.88 489.34 443.98 486.96 Z" />
</g>
<g id="#f8d8e0ff">
<path fill="#f8d8e0" opacity="1.00" d=" M 252.31 495.30 C 254.85 492.51 257.78 488.67 261.97 488.96 C 266.32 487.98 269.61 490.99 272.83 493.22 C 272.90 495.94 273.05 501.39 273.13 504.11 C 274.83 503.55 276.42 502.71 278.12 502.14 C 281.87 501.14 284.69 504.91 287.95 506.05 C 290.12 509.15 290.32 513.08 288.36 516.34 C 286.78 520.81 281.40 520.85 277.84 522.89 C 274.36 525.18 269.81 523.44 266.00 524.01 C 261.71 525.11 257.96 522.44 256.23 518.83 C 255.76 516.82 254.94 514.94 254.03 513.10 C 254.00 511.76 253.94 510.43 253.83 509.11 C 253.56 507.24 250.79 506.40 251.50 504.33 C 252.41 501.31 250.03 497.95 252.31 495.30 M 259.30 491.30 C 254.57 493.52 251.65 499.73 254.00 504.81 C 255.91 503.85 258.22 503.64 258.88 506.16 C 261.27 508.34 258.85 511.20 259.11 513.78 C 261.62 515.14 263.57 517.25 265.81 518.98 C 267.44 515.41 270.82 513.13 273.97 511.00 C 276.70 509.19 282.09 508.33 281.01 503.96 C 277.54 503.88 274.60 506.54 271.06 506.01 C 270.99 502.09 270.90 498.18 270.79 494.28 C 268.39 490.11 263.45 490.58 259.30 491.30 Z" />
</g>
<g id="#facddaff">
<path fill="#facdda" opacity="1.00" d=" M 259.30 491.30 C 263.45 490.58 268.39 490.11 270.79 494.28 C 270.90 498.18 270.99 502.09 271.06 506.01 C 274.60 506.54 277.54 503.88 281.01 503.96 C 282.09 508.33 276.70 509.19 273.97 511.00 C 270.82 513.13 267.44 515.41 265.81 518.98 C 263.57 517.25 261.62 515.14 259.11 513.78 C 258.85 511.20 261.27 508.34 258.88 506.16 C 258.22 503.64 255.91 503.85 254.00 504.81 C 251.65 499.73 254.57 493.52 259.30 491.30 Z" />
</g>
<g id="#f0c8d5ff">
<path fill="#f0c8d5" opacity="1.00" d=" M 456.26 497.00 C 458.17 497.10 459.99 497.73 461.83 498.20 C 461.02 500.24 456.59 498.93 456.26 497.00 Z" />
</g>
<g id="#f7beceff">
<path fill="#f7bece" opacity="1.00" d=" M 337.05 508.12 C 341.57 507.32 348.62 505.38 351.00 511.01 C 355.72 517.84 354.53 527.70 347.71 532.58 C 343.74 534.25 339.58 537.47 335.30 534.66 C 332.39 533.54 328.04 532.23 329.11 528.17 C 331.36 524.74 334.70 521.32 334.01 516.85 C 332.17 517.24 331.34 519.03 330.05 520.20 C 327.98 516.18 331.47 515.28 333.10 513.12 C 334.41 511.44 335.33 509.44 337.05 508.12 Z" />
</g>
<g id="#f7becdff">
<path fill="#f7becd" opacity="1.00" d=" M 52.13 538.19 C 55.76 534.29 61.08 530.46 66.73 532.28 C 70.00 534.10 73.69 536.88 73.91 540.94 C 74.05 544.88 76.02 548.40 76.77 552.22 C 76.94 553.50 77.08 554.79 77.18 556.09 C 78.89 554.89 80.06 552.93 81.98 552.06 C 84.51 551.43 87.02 549.31 89.72 550.27 C 94.37 552.81 96.96 557.81 101.69 560.31 C 105.39 565.97 98.90 571.09 99.99 577.00 C 99.18 581.28 100.29 585.46 102.16 589.25 C 102.06 589.64 101.87 590.43 101.78 590.82 C 98.94 593.76 95.72 597.21 91.01 596.03 C 87.91 594.47 86.08 596.83 83.87 597.98 C 84.32 596.90 84.54 595.09 85.99 594.97 C 89.16 594.49 92.20 593.49 95.18 592.32 C 93.47 591.89 91.41 592.22 90.12 590.80 C 90.16 588.29 90.72 585.58 90.83 583.15 C 88.44 582.55 84.07 580.69 84.85 584.92 C 83.73 583.69 82.68 582.31 81.03 581.79 C 84.20 579.09 87.49 576.44 90.13 573.18 C 85.31 571.44 77.87 573.02 75.80 567.11 C 73.88 567.49 71.99 568.10 70.01 568.04 C 71.95 566.00 74.24 564.23 75.62 561.72 C 75.37 559.43 75.11 557.13 75.70 554.88 C 76.49 551.28 71.65 550.14 71.23 546.89 C 71.14 542.43 64.14 542.03 67.70 536.35 C 64.65 535.63 61.24 532.95 58.29 535.28 C 56.30 536.70 55.63 539.18 54.58 541.28 C 54.38 545.25 57.39 548.44 58.89 551.91 C 57.59 553.54 55.47 552.84 53.78 552.42 C 54.32 552.27 55.40 551.97 55.94 551.83 C 56.06 547.00 51.32 543.10 52.13 538.19 M 85.97 552.06 C 79.15 552.84 76.65 562.12 81.24 566.77 C 84.95 568.62 88.85 570.27 92.95 570.98 C 97.15 570.15 99.22 565.22 97.87 561.29 C 95.97 560.41 94.04 559.58 92.13 558.74 C 91.90 557.19 92.69 555.76 92.86 554.27 C 90.61 553.43 88.51 551.58 85.97 552.06 Z" />
</g>
<g id="#f9b1c4ff">
<path fill="#f9b1c4" opacity="1.00" d=" M 58.29 535.28 C 61.24 532.95 64.65 535.63 67.70 536.35 C 64.14 542.03 71.14 542.43 71.23 546.89 C 71.65 550.14 76.49 551.28 75.70 554.88 C 75.11 557.13 75.37 559.43 75.62 561.72 C 74.24 564.23 71.95 566.00 70.01 568.04 C 65.35 570.58 59.66 572.36 54.26 571.76 C 51.52 571.35 48.79 571.12 46.04 570.88 C 42.01 570.11 40.01 566.06 37.99 562.94 C 36.58 558.87 39.54 555.87 40.30 552.23 C 40.71 552.13 41.51 551.95 41.91 551.86 C 45.83 550.66 49.86 551.69 53.78 552.42 C 55.47 552.84 57.59 553.54 58.89 551.91 C 57.39 548.44 54.38 545.25 54.58 541.28 C 55.63 539.18 56.30 536.70 58.29 535.28 M 64.28 545.29 C 58.61 547.10 60.55 554.83 62.19 558.92 C 65.93 558.25 71.41 560.83 73.82 556.76 C 74.63 553.68 72.33 551.19 69.21 551.81 C 69.23 548.90 67.88 544.50 64.28 545.29 Z" />
</g>
<g id="#f7d6ddff">
<path fill="#f7d6dd" opacity="1.00" d=" M 73.91 540.94 C 76.50 543.51 76.97 548.61 76.77 552.22 C 76.02 548.40 74.05 544.88 73.91 540.94 Z" />
</g>
<g id="#fba5bbff">
<path fill="#fba5bb" opacity="1.00" d=" M 64.28 545.29 C 67.88 544.50 69.23 548.90 69.21 551.81 C 72.33 551.19 74.63 553.68 73.82 556.76 C 71.41 560.83 65.93 558.25 62.19 558.92 C 60.55 554.83 58.61 547.10 64.28 545.29 Z" />
</g>
<g id="#f8cfd9ff">
<path fill="#f8cfd9" opacity="1.00" d=" M 81.98 552.06 C 83.70 548.66 87.25 546.47 90.95 546.01 C 94.01 547.16 97.16 550.06 96.22 553.84 C 99.63 556.01 103.45 557.82 106.13 560.95 C 106.44 564.52 106.44 568.20 104.06 571.03 C 101.17 575.07 104.89 579.14 105.95 582.92 C 104.78 585.08 103.38 587.11 102.16 589.25 C 100.29 585.46 99.18 581.28 99.99 577.00 C 98.90 571.09 105.39 565.97 101.69 560.31 C 96.96 557.81 94.37 552.81 89.72 550.27 C 87.02 549.31 84.51 551.43 81.98 552.06 Z" />
</g>
<g id="#f1c5d1ff">
<path fill="#f1c5d1" opacity="1.00" d=" M 41.91 551.86 C 44.02 547.39 50.54 552.23 54.00 551.21 L 53.78 552.42 C 49.86 551.69 45.83 550.66 41.91 551.86 Z" />
</g>
<g id="#fbadc0ff">
<path fill="#fbadc0" opacity="1.00" d=" M 85.97 552.06 C 88.51 551.58 90.61 553.43 92.86 554.27 C 92.69 555.76 91.90 557.19 92.13 558.74 C 94.04 559.58 95.97 560.41 97.87 561.29 C 99.22 565.22 97.15 570.15 92.95 570.98 C 88.85 570.27 84.95 568.62 81.24 566.77 C 76.65 562.12 79.15 552.84 85.97 552.06 Z" />
</g>
<g id="#f8dbe2ff">
<path fill="#f8dbe2" opacity="1.00" d=" M 106.13 560.95 C 108.86 563.12 111.89 565.57 112.98 569.04 C 111.58 576.07 109.13 583.02 104.77 588.77 C 103.84 589.51 103.15 590.95 101.78 590.82 C 101.87 590.43 102.06 589.64 102.16 589.25 C 103.38 587.11 104.78 585.08 105.95 582.92 C 104.89 579.14 101.17 575.07 104.06 571.03 C 106.44 568.20 106.44 564.52 106.13 560.95 Z" />
</g>
<g id="#fdd9e2ff">
<path fill="#fdd9e2" opacity="1.00" d=" M 46.04 570.88 C 48.79 571.12 51.52 571.35 54.26 571.76 C 51.84 571.48 46.69 573.34 46.04 570.88 Z" />
</g>
<g id="#f9e7ecff">
<path fill="#f9e7ec" opacity="1.00" d=" M 121.96 573.95 C 129.18 571.19 137.25 572.66 143.90 576.16 C 143.92 576.88 143.95 578.32 143.96 579.05 C 137.31 574.56 127.33 572.67 120.34 577.35 C 117.19 580.97 119.80 590.05 125.99 586.83 C 127.64 586.90 129.78 585.33 130.88 587.22 C 131.19 589.82 129.83 592.35 128.25 594.32 C 127.35 592.26 130.16 589.52 127.80 588.20 C 125.54 587.88 122.26 590.38 120.69 588.30 C 116.48 584.59 116.83 576.59 121.96 573.95 Z" />
</g>
<g id="#f9d8e0ff">
<path fill="#f9d8e0" opacity="1.00" d=" M 120.34 577.35 C 127.33 572.67 137.31 574.56 143.96 579.05 C 144.25 585.85 146.79 596.53 139.01 600.00 C 135.36 602.86 127.25 599.14 128.25 594.32 C 129.83 592.35 131.19 589.82 130.88 587.22 C 129.78 585.33 127.64 586.90 125.99 586.83 C 119.80 590.05 117.19 580.97 120.34 577.35 Z" />
</g>
<g id="#f7afc1ff">
<path fill="#f7afc1" opacity="1.00" d=" M 65.22 585.74 C 63.67 580.43 70.34 574.95 75.35 577.60 C 77.55 578.56 78.82 580.83 81.03 581.79 C 82.68 582.31 83.73 583.69 84.85 584.92 C 84.07 580.69 88.44 582.55 90.83 583.15 C 90.72 585.58 90.16 588.29 90.12 590.80 C 91.41 592.22 93.47 591.89 95.18 592.32 C 92.20 593.49 89.16 594.49 85.99 594.97 C 84.54 595.09 84.32 596.90 83.87 597.98 C 80.75 603.96 73.15 605.58 66.98 606.01 C 63.30 606.83 62.43 602.27 61.35 599.71 C 60.62 595.57 64.38 592.89 68.24 593.02 C 71.33 594.10 73.38 590.26 69.51 589.83 C 67.97 588.59 66.56 587.19 65.22 585.74 Z" />
</g>
<g id="#facdd8ff">
<path fill="#facdd8" opacity="1.00" d=" M 69.51 589.83 C 73.38 590.26 71.33 594.10 68.24 593.02 C 68.58 591.90 69.87 591.30 69.51 589.83 Z" />
</g>
<g id="#f5f0f1ff">
<path fill="#f5f0f1" opacity="1.00" d=" M 6.42 602.35 C 14.73 599.32 23.49 602.41 31.61 604.38 C 35.59 607.71 40.59 610.27 42.96 615.09 C 42.37 620.86 44.12 627.31 40.51 632.35 C 39.64 638.48 34.60 642.60 30.75 647.00 L 25.54 647.00 C 35.90 640.82 42.96 628.24 40.96 616.08 C 38.74 610.64 33.61 607.89 28.68 605.40 C 24.13 604.24 19.43 603.79 14.97 602.25 C 9.73 603.23 4.58 606.30 3.93 612.01 C 2.74 615.49 4.53 619.48 7.27 621.73 C 11.40 621.97 17.10 621.43 20.02 624.97 C 18.58 626.96 17.13 628.96 16.23 631.27 C 15.36 633.77 11.66 635.70 13.36 638.63 C 15.96 641.23 17.48 645.75 21.88 645.20 C 21.66 645.65 21.22 646.55 21.01 647.00 L 16.35 647.00 C 14.02 644.31 11.35 641.80 10.82 638.09 C 9.09 632.44 18.00 630.09 15.97 624.20 C 12.07 623.69 8.11 623.64 4.27 622.74 C 3.07 620.19 2.18 617.50 1.51 614.77 C 1.92 610.28 3.57 605.87 6.42 602.35 Z" />
</g>
<g id="#f5eaecff">
<path fill="#f5eaec" opacity="1.00" d=" M 3.93 612.01 C 4.58 606.30 9.73 603.23 14.97 602.25 C 19.43 603.79 24.13 604.24 28.68 605.40 C 33.61 607.89 38.74 610.64 40.96 616.08 C 42.96 628.24 35.90 640.82 25.54 647.00 L 21.01 647.00 C 21.22 646.55 21.66 645.65 21.88 645.20 C 17.48 645.75 15.96 641.23 13.36 638.63 C 11.66 635.70 15.36 633.77 16.23 631.27 C 17.13 628.96 18.58 626.96 20.02 624.97 C 17.10 621.43 11.40 621.97 7.27 621.73 C 4.53 619.48 2.74 615.49 3.93 612.01 Z" />
</g>
<g id="#f6ebeeff">
<path fill="#f6ebee" opacity="1.00" d=" M 61.35 617.45 C 66.18 616.84 70.98 617.10 75.75 618.21 C 79.48 620.88 78.49 626.17 79.93 630.06 C 79.73 634.75 80.07 640.77 75.32 643.33 C 72.24 646.82 67.17 644.00 64.14 641.82 C 62.72 639.05 65.59 634.41 62.81 632.17 C 59.94 632.33 57.07 633.36 54.21 632.85 C 50.87 630.07 48.99 623.70 52.71 620.71 C 54.88 618.29 58.54 618.75 61.35 617.45 Z" />
</g>
</svg>
