<?xml version="1.0" encoding="UTF-8" ?>
<!DOCTYPE svg PUBLIC "-//W3C//DTD SVG 1.1//EN" "http://www.w3.org/Graphics/SVG/1.1/DTD/svg11.dtd">
<svg width="349pt" height="336pt" viewBox="0 0 349 336" version="1.1" xmlns="http://www.w3.org/2000/svg">
<g id="#ffffffff">
<path fill="#ffffff" opacity="1.00" d=" M 96.34 260.33 C 97.81 258.42 100.47 258.89 102.53 259.26 C 106.45 260.25 111.11 261.44 112.90 265.53 C 114.90 261.37 119.14 257.92 124.03 259.06 C 131.54 260.74 134.20 270.59 130.93 276.92 C 129.23 281.06 124.65 283.96 120.15 282.80 C 114.86 281.64 112.14 276.04 111.85 271.05 C 109.04 274.44 104.57 275.13 100.41 274.87 C 100.60 277.17 101.76 279.37 101.64 281.68 C 100.26 283.95 97.07 282.79 95.12 282.00 C 92.87 281.12 94.52 278.70 95.17 277.25 C 98.83 272.11 93.51 265.69 96.34 260.33 M 123.44 264.47 C 118.72 267.05 118.26 273.46 119.81 278.09 C 120.39 280.19 123.07 281.30 124.92 280.05 C 130.15 277.63 130.54 270.51 128.07 265.95 C 127.19 264.26 125.13 263.83 123.44 264.47 M 103.32 265.29 C 101.47 266.97 101.03 270.23 102.92 272.06 C 105.28 274.58 110.12 272.28 110.37 269.04 C 110.37 265.75 105.94 263.49 103.32 265.29 Z" />
<path fill="#ffffff" opacity="1.00" d=" M 131.57 261.15 C 133.10 258.37 137.13 258.66 139.66 259.81 C 139.38 263.32 138.32 266.68 137.59 270.10 C 138.28 270.66 139.00 271.20 139.74 271.73 C 142.57 268.30 141.68 263.16 144.62 259.76 C 146.92 258.15 150.66 258.19 152.42 260.58 C 155.81 258.34 160.08 259.00 163.93 258.82 C 167.63 259.01 167.58 263.65 167.31 266.37 C 164.45 265.78 161.74 264.61 158.82 264.31 C 157.98 266.28 156.91 268.90 159.07 270.48 C 161.44 270.66 163.65 269.33 166.00 269.05 C 166.81 270.99 167.04 273.17 165.39 274.76 C 163.35 274.18 161.38 272.92 159.20 273.08 C 156.97 274.48 157.29 278.18 159.38 279.61 C 163.01 279.28 166.41 277.42 170.10 277.26 C 173.49 278.85 177.56 279.49 181.08 277.91 C 181.04 276.79 180.55 275.95 179.61 275.41 C 175.87 272.90 171.03 272.00 168.20 268.22 C 169.24 264.01 171.97 259.27 176.86 259.16 C 179.72 258.26 184.02 259.31 183.50 263.09 C 182.81 266.25 179.81 262.79 177.92 263.21 C 176.43 264.95 174.90 267.27 175.39 269.66 C 177.47 272.12 181.05 272.40 183.43 274.49 C 185.36 276.67 183.55 280.32 181.06 281.18 C 178.13 282.14 175.03 282.47 171.99 282.91 C 170.33 283.45 169.13 282.07 168.00 281.14 C 167.38 281.77 166.77 282.40 166.15 283.03 C 161.92 283.00 157.48 283.17 153.56 281.31 C 150.79 283.16 146.80 284.29 144.07 281.74 C 142.13 279.21 141.72 275.86 140.00 273.18 C 138.83 274.11 137.28 275.15 138.11 276.89 C 138.61 278.58 140.62 280.41 139.18 282.16 C 136.65 283.80 133.42 282.84 131.16 281.19 C 132.30 278.87 133.77 276.65 134.33 274.10 C 134.19 269.63 131.16 265.68 131.57 261.15 M 143.97 273.03 C 144.54 277.04 149.53 277.40 151.51 280.37 C 151.80 277.94 151.91 275.50 152.49 273.12 C 153.77 269.28 151.25 265.57 151.74 261.71 C 149.41 265.64 144.22 268.08 143.97 273.03 Z" />
<path fill="#ffffff" opacity="1.00" d=" M 198.25 261.99 C 201.53 259.55 205.82 258.63 209.84 259.08 C 212.67 259.92 213.21 263.14 212.34 265.62 C 209.47 264.48 206.22 263.65 203.43 265.48 C 200.36 266.62 200.12 270.25 200.02 273.02 C 199.51 277.13 204.92 281.14 208.41 278.36 C 209.53 277.63 209.90 276.25 210.57 275.17 C 209.47 273.43 205.69 271.37 208.05 269.22 C 210.23 267.85 212.55 269.35 214.29 270.70 C 213.81 272.44 213.22 274.17 212.99 275.98 C 212.90 277.95 216.31 279.53 214.33 281.33 C 213.14 282.58 211.31 282.76 209.76 283.29 C 209.54 281.90 209.34 280.51 209.15 279.13 C 206.70 281.08 203.93 283.97 200.49 282.39 C 193.08 278.96 191.57 266.92 198.25 261.99 Z" />
<path fill="#ffffff" opacity="1.00" d=" M 214.03 260.15 C 216.03 257.51 219.69 259.20 222.30 259.84 C 222.49 266.61 220.40 275.22 226.96 279.80 C 229.21 278.28 230.78 275.82 231.03 273.11 C 231.30 268.88 227.95 265.27 228.57 261.03 C 230.06 258.15 236.31 257.95 236.22 261.98 C 236.59 267.18 235.72 272.52 233.38 277.20 C 231.60 280.65 227.98 283.66 223.87 282.94 C 220.09 282.53 217.58 279.17 216.14 275.95 C 214.04 271.02 213.02 265.45 214.03 260.15 Z" />
<path fill="#ffffff" opacity="1.00" d=" M 240.20 259.91 C 243.93 258.05 249.47 258.62 251.83 262.40 C 253.42 265.38 252.87 268.84 253.03 272.08 C 252.85 275.41 256.40 277.70 255.99 281.05 C 254.76 283.11 252.10 282.84 250.04 283.00 C 249.99 281.02 251.22 278.76 249.99 276.98 C 247.42 275.29 244.07 276.04 241.46 277.25 C 240.41 279.06 241.26 282.10 238.91 282.96 C 237.09 283.17 235.33 282.40 233.57 282.06 C 232.32 278.79 234.95 276.20 236.44 273.58 C 239.42 269.54 235.76 263.22 240.20 259.91 M 245.35 265.27 C 242.99 266.97 241.60 273.22 245.91 273.05 C 248.05 273.38 251.85 273.14 251.45 270.09 C 251.49 267.21 248.41 262.75 245.35 265.27 Z" />
<path fill="#ffffff" opacity="1.00" d=" M 252.45 262.14 C 252.41 258.85 256.67 258.82 258.67 260.27 C 261.11 263.22 261.05 267.34 262.74 270.66 C 263.28 271.71 264.66 271.56 265.62 271.95 C 266.35 268.66 265.61 265.31 265.93 262.01 C 266.18 258.11 274.54 258.70 272.79 262.92 C 270.69 267.26 267.06 270.79 265.59 275.46 C 264.66 277.72 266.83 279.75 266.47 282.02 C 264.80 283.77 262.31 282.88 260.40 282.12 C 260.56 279.71 261.14 277.32 260.92 274.90 C 259.51 269.77 253.60 267.37 252.45 262.14 Z" />
</g>
<g id="#010101ff">
<path fill="#010101" opacity="1.00" d=" M 194.48 9.10 C 195.09 9.11 196.30 9.13 196.90 9.14 C 197.22 13.18 197.21 17.27 197.78 21.29 C 199.87 25.58 205.06 26.51 209.17 27.86 C 209.49 28.19 210.14 28.84 210.46 29.16 C 218.88 33.91 218.19 47.98 209.23 51.82 C 210.00 46.56 211.57 40.21 207.67 35.77 C 208.74 40.39 208.31 45.48 205.70 49.52 C 203.91 51.93 201.22 53.46 198.56 54.71 C 197.36 48.54 198.74 41.98 196.04 36.08 C 195.66 42.31 194.82 48.52 194.20 54.73 C 189.71 54.13 185.56 51.05 184.18 46.66 C 181.06 40.65 184.60 34.26 187.09 28.76 C 185.74 29.55 184.40 30.36 183.03 31.10 C 181.50 34.24 179.31 37.32 179.75 41.02 C 179.23 45.07 181.36 48.56 182.96 52.08 C 178.03 50.14 175.10 45.14 174.40 40.10 C 175.09 34.77 178.45 30.40 182.95 27.65 C 185.91 26.77 188.71 25.43 191.64 24.49 C 194.63 19.92 194.34 14.32 194.48 9.10 Z" />
<path fill="#010101" opacity="1.00" d=" M 140.25 16.55 C 141.12 15.81 141.99 15.07 142.85 14.32 C 142.54 17.14 142.33 19.96 142.52 22.79 C 143.14 22.83 144.36 22.91 144.97 22.94 C 146.54 24.00 148.45 24.81 149.11 26.75 C 150.13 27.79 151.09 28.89 152.00 30.03 C 154.87 32.61 157.39 35.57 158.85 39.17 C 161.17 43.97 161.66 50.51 157.92 54.76 C 156.02 57.57 152.44 58.12 149.50 59.29 C 146.25 60.69 143.39 58.11 140.43 57.20 C 135.40 51.83 133.17 43.57 135.73 36.54 C 136.70 33.73 136.35 30.69 137.11 27.84 C 138.02 25.70 139.90 24.08 140.34 21.72 C 136.74 23.99 132.62 24.95 128.38 24.60 C 130.24 19.98 134.83 14.92 140.25 16.55 M 145.35 37.47 C 140.42 39.46 140.72 46.69 143.85 50.14 C 145.71 52.37 148.87 51.87 151.37 51.29 C 152.58 49.08 154.41 46.77 153.59 44.08 C 152.74 40.50 149.48 36.12 145.35 37.47 Z" />
<path fill="#010101" opacity="1.00" d=" M 243.14 30.33 C 244.51 29.53 245.78 27.94 247.56 28.38 C 248.84 29.69 250.20 30.99 251.21 32.53 C 251.70 35.25 251.87 38.02 252.32 40.74 L 251.35 40.59 C 251.42 41.41 251.55 43.05 251.61 43.87 C 252.25 43.28 252.90 42.70 253.55 42.11 C 253.21 40.67 251.60 37.39 254.33 37.40 C 254.37 36.19 254.42 34.97 254.47 33.76 C 255.37 33.29 256.27 32.81 257.17 32.33 C 257.58 28.65 262.62 30.39 263.80 32.77 C 263.24 34.34 262.81 35.95 262.22 37.50 C 261.28 39.04 259.62 40.13 259.15 41.95 C 256.90 42.14 255.23 43.47 254.15 45.40 C 255.11 45.39 256.07 45.37 257.04 45.36 C 257.60 44.33 258.18 43.31 258.79 42.31 C 261.17 43.16 263.01 41.94 264.67 40.45 C 267.55 40.46 270.73 40.84 271.82 43.97 C 270.93 46.12 269.01 47.31 267.19 48.56 C 264.13 48.40 260.65 49.40 258.01 47.42 C 256.72 47.82 255.43 48.23 254.16 48.64 C 254.44 50.17 255.33 51.30 256.72 51.94 C 257.72 54.52 257.64 57.30 257.24 59.99 C 252.96 65.74 246.06 69.69 238.83 69.72 C 238.03 68.15 237.28 66.56 236.64 64.92 C 237.22 65.23 238.38 65.83 238.97 66.14 C 239.56 65.05 240.16 63.97 240.78 62.90 C 240.42 62.58 239.70 61.95 239.34 61.64 C 238.32 61.20 237.31 60.76 236.30 60.33 C 236.27 59.29 236.24 58.25 236.21 57.21 C 237.58 58.11 238.95 59.00 240.33 59.90 C 241.10 58.77 241.67 57.52 242.11 56.23 C 240.21 55.30 238.27 54.45 236.44 53.39 C 236.65 52.80 237.07 51.61 237.28 51.02 C 238.93 52.14 240.52 53.39 242.40 54.12 C 243.65 51.47 242.57 48.21 239.19 48.44 C 239.93 47.75 240.67 47.06 241.39 46.35 C 244.16 45.30 247.08 45.51 249.94 46.06 C 250.20 41.82 244.68 41.19 245.16 37.00 C 244.65 36.81 243.63 36.42 243.11 36.23 C 243.27 34.26 243.29 32.29 243.14 30.33 Z" />
<path fill="#010101" opacity="1.00" d=" M 145.81 39.74 C 146.43 39.88 147.67 40.15 148.29 40.29 C 149.03 41.17 149.80 42.02 150.59 42.86 C 151.27 44.76 151.16 46.76 150.47 48.64 C 148.88 48.75 147.28 48.76 145.68 48.67 C 144.13 45.75 143.71 42.52 145.81 39.74 Z" />
<path fill="#010101" opacity="1.00" d=" M 84.01 45.57 C 89.25 43.16 95.04 41.55 100.83 42.73 C 106.67 44.12 112.97 46.20 116.65 51.28 C 119.63 54.84 121.87 59.19 121.70 63.95 C 120.30 62.12 118.85 60.31 117.89 58.21 C 108.70 50.06 96.54 44.31 84.01 45.57 Z" />
<path fill="#010101" opacity="1.00" d=" M 79.10 43.88 C 80.96 44.10 82.16 45.59 83.53 46.68 C 83.46 46.96 83.32 47.50 83.25 47.78 C 84.13 48.77 84.80 49.88 85.26 51.11 C 86.08 51.46 86.91 51.80 87.74 52.13 C 92.17 50.77 96.97 51.14 101.50 51.72 C 117.35 56.77 122.22 80.28 109.88 91.29 C 109.68 91.79 109.28 92.80 109.09 93.31 C 107.34 93.55 105.57 93.61 103.81 93.55 C 103.64 92.92 103.30 91.65 103.13 91.01 C 101.06 88.38 99.17 85.44 96.13 83.81 C 93.55 81.90 90.28 81.14 87.94 78.88 C 87.47 78.69 86.54 78.32 86.07 78.13 C 84.10 75.40 81.46 73.00 80.84 69.55 C 79.23 65.72 80.95 61.78 82.08 58.10 C 83.62 56.74 84.67 54.99 85.46 53.11 C 84.35 51.40 83.23 49.70 82.04 48.05 C 81.10 46.63 80.09 45.26 79.10 43.88 Z" />
<path fill="#010101" opacity="1.00" d=" M 288.34 60.79 C 290.84 61.19 292.19 63.45 293.93 65.03 C 296.35 67.75 299.51 69.87 301.30 73.12 C 301.07 73.71 300.62 74.89 300.39 75.48 C 297.54 75.50 294.36 75.17 292.11 77.29 C 288.47 79.65 287.58 84.10 285.93 87.80 C 283.83 93.61 279.65 98.25 275.94 103.07 C 274.32 105.30 270.99 106.48 268.74 104.40 C 265.41 101.00 261.89 97.80 258.49 94.48 C 256.59 92.81 257.59 90.02 257.68 87.85 C 258.22 87.66 259.30 87.29 259.83 87.11 C 260.42 85.00 262.43 84.25 264.15 83.29 C 269.84 77.43 278.35 76.18 285.01 71.87 C 285.67 69.71 286.51 67.59 287.75 65.70 C 286.99 63.99 287.44 62.33 288.34 60.79 Z" />
<path fill="#010101" opacity="1.00" d=" M 210.36 75.70 C 210.99 75.29 212.23 74.48 212.86 74.08 C 213.45 74.54 214.62 75.45 215.21 75.90 C 216.08 77.68 214.60 79.34 214.08 80.97 C 211.38 88.06 209.31 95.36 206.30 102.33 C 208.07 104.39 210.63 105.30 213.11 106.17 C 213.41 105.93 213.99 105.45 214.29 105.21 C 218.20 98.17 222.11 91.04 226.24 84.11 C 226.77 83.20 227.29 82.28 227.79 81.35 C 228.96 81.35 230.13 81.38 231.30 81.42 C 231.52 82.00 231.94 83.16 232.16 83.74 C 230.44 87.50 228.00 90.86 226.43 94.68 C 226.07 95.06 225.36 95.82 225.00 96.20 C 223.62 101.59 217.98 105.35 218.29 111.21 C 220.74 112.08 222.31 114.14 223.80 116.15 C 223.92 116.82 224.17 118.18 224.30 118.86 C 226.16 119.88 228.08 120.91 229.55 122.49 C 230.86 124.00 230.47 126.16 230.84 127.99 C 232.88 129.72 234.61 131.76 236.18 133.93 C 199.71 133.81 163.25 133.91 126.78 133.88 C 127.14 132.94 127.50 132.01 127.86 131.08 C 132.01 129.60 130.77 124.40 133.54 121.59 C 135.08 120.57 136.76 119.69 138.10 118.41 C 139.08 115.45 140.57 112.64 143.50 111.23 C 144.16 108.80 146.35 107.55 148.77 107.54 C 149.01 107.12 149.49 106.27 149.73 105.84 C 151.31 105.30 152.89 104.75 154.49 104.26 C 154.61 103.76 154.86 102.77 154.99 102.28 C 159.42 103.08 164.77 102.12 167.23 97.96 C 168.52 98.19 169.79 98.55 171.00 99.06 C 174.35 97.59 177.81 98.50 181.10 99.62 C 184.38 98.84 187.70 97.36 190.98 99.10 C 192.40 98.63 194.03 97.49 195.44 98.65 C 197.06 100.12 198.71 101.52 200.93 101.99 C 204.28 93.31 207.36 84.46 210.36 75.70 Z" />
<path fill="#010101" opacity="1.00" d=" M 62.63 98.77 C 65.53 96.88 69.23 98.54 71.04 101.14 C 72.96 99.14 75.54 99.23 78.01 100.00 C 78.42 101.64 79.13 103.31 78.84 105.04 C 78.09 106.07 77.17 106.96 76.31 107.91 C 77.43 110.54 75.82 112.98 74.92 115.38 C 73.68 114.50 72.86 113.22 72.07 111.96 C 68.23 109.59 63.16 108.58 59.10 111.03 C 56.55 112.62 53.83 113.86 51.01 114.88 C 50.68 113.93 50.35 112.98 50.02 112.04 C 50.77 110.42 51.47 108.69 53.09 107.74 C 52.76 106.70 52.42 105.68 52.07 104.65 C 52.95 103.01 53.99 101.45 54.98 99.87 C 57.54 99.52 60.33 100.27 62.63 98.77 Z" />
<path fill="#010101" opacity="1.00" d=" M 295.22 110.56 C 297.46 107.37 300.48 104.58 304.10 103.05 C 305.67 103.17 306.03 105.09 306.96 106.08 C 311.27 111.39 311.39 120.27 306.44 125.23 C 304.84 127.69 301.59 128.31 299.92 130.69 C 303.33 132.14 306.87 133.56 309.34 136.47 C 310.64 139.09 313.72 141.72 312.22 144.89 C 308.13 146.91 303.72 149.05 299.02 148.11 C 293.76 146.83 289.65 142.37 287.89 137.36 C 285.38 138.32 282.98 139.51 280.58 140.71 C 279.16 142.20 276.95 143.49 274.96 142.21 C 275.07 141.74 275.28 140.81 275.39 140.35 C 281.79 137.23 287.56 132.92 294.04 129.98 C 294.84 128.92 295.84 128.14 297.22 128.06 C 293.55 123.09 292.20 116.17 295.22 110.56 Z" />
<path fill="#010101" opacity="1.00" d=" M 57.82 117.81 C 59.41 116.48 60.98 114.99 63.03 114.40 C 65.18 113.50 67.22 114.94 69.19 115.61 C 69.73 116.43 70.28 117.25 70.85 118.06 C 72.66 120.23 72.03 123.37 70.28 125.37 C 70.63 126.96 71.87 128.27 71.93 129.95 C 71.31 132.22 69.58 133.93 68.33 135.86 C 69.14 138.92 66.77 142.69 63.48 142.85 C 63.11 144.33 62.70 145.81 62.27 147.28 C 59.37 149.12 56.15 147.99 54.53 145.10 C 54.59 144.36 54.71 142.88 54.77 142.14 C 52.34 141.74 50.13 140.19 48.87 138.09 C 48.38 136.34 48.47 134.50 48.37 132.71 C 47.49 131.53 46.37 130.45 45.96 129.00 C 45.85 127.33 47.01 126.02 47.71 124.62 C 48.88 124.15 50.05 123.67 51.22 123.20 C 51.60 121.90 51.90 120.57 52.55 119.37 C 53.88 117.95 56.05 118.18 57.82 117.81 Z" />
<path fill="#010101" opacity="1.00" d=" M 75.76 119.09 C 76.64 118.80 77.52 118.06 78.49 118.47 C 81.06 120.29 83.57 122.22 85.82 124.43 C 84.98 125.80 84.13 127.18 83.12 128.44 C 80.46 127.68 77.75 127.17 75.07 126.50 C 75.60 124.07 76.03 121.59 75.76 119.09 Z" />
<path fill="#010101" opacity="1.00" d=" M 75.60 130.86 C 78.72 131.82 81.79 132.98 85.01 133.61 C 85.13 136.85 84.28 140.00 82.83 142.88 C 78.83 143.08 75.77 140.24 72.10 139.20 C 73.32 136.38 75.92 134.19 75.60 130.86 Z" />
<path fill="#010101" opacity="1.00" d=" M 121.12 138.12 C 161.60 138.18 202.07 138.01 242.55 138.20 C 242.12 149.48 244.01 161.23 239.98 172.05 C 239.44 176.41 236.91 180.08 235.34 184.10 C 233.75 186.33 232.61 188.84 231.00 191.06 C 226.55 196.85 221.37 202.13 215.20 206.10 C 217.81 207.66 221.20 208.81 222.00 212.13 C 223.61 214.78 221.98 217.60 221.09 220.18 C 219.04 221.81 216.87 223.77 214.04 223.54 C 192.37 223.58 170.70 223.58 149.03 223.54 C 146.43 223.74 144.45 221.93 142.59 220.40 C 141.88 218.88 140.94 217.47 140.37 215.89 C 139.95 213.28 141.95 211.20 142.93 208.96 C 144.32 208.29 145.71 207.60 146.98 206.72 C 146.84 204.50 144.31 203.59 142.91 202.18 C 140.83 200.48 138.67 198.83 137.13 196.60 L 136.72 196.54 C 129.06 187.95 123.91 177.30 121.58 166.06 C 120.91 156.76 121.16 147.43 121.12 138.12 M 136.44 148.86 C 136.54 150.74 136.86 152.59 137.71 154.29 C 139.84 154.59 142.61 155.45 144.20 153.49 C 145.52 152.35 145.21 150.55 145.34 149.01 C 143.68 147.98 142.30 145.78 140.08 146.28 C 138.74 146.95 137.63 147.97 136.44 148.86 M 152.74 149.81 C 152.43 151.62 153.84 153.00 154.51 154.53 C 156.41 154.74 158.30 154.61 160.18 154.32 C 161.33 151.74 161.82 147.71 158.52 146.55 C 155.89 145.26 153.87 147.79 152.74 149.81 M 170.53 147.57 C 168.37 149.08 169.76 152.02 169.82 154.15 C 172.01 154.65 174.26 154.83 176.49 154.36 C 177.26 152.42 178.62 150.00 176.86 148.16 C 175.69 145.76 172.21 145.67 170.53 147.57 M 185.48 148.89 C 185.53 150.74 185.88 152.55 186.72 154.21 C 188.72 154.60 190.97 155.22 192.80 153.98 C 194.53 152.89 194.27 150.70 194.37 148.95 C 192.71 147.93 191.30 145.77 189.09 146.29 C 187.79 147.01 186.66 148.00 185.48 148.89 M 201.82 149.96 C 201.64 151.67 202.96 153.01 203.58 154.50 C 205.43 154.68 207.28 154.62 209.12 154.42 C 210.60 151.83 210.91 147.71 207.54 146.51 C 204.87 145.31 202.83 147.81 201.82 149.96 M 218.41 148.50 C 218.44 150.10 218.28 151.76 218.74 153.33 C 220.22 155.32 223.05 154.68 225.17 154.39 C 225.82 153.23 226.52 152.10 227.07 150.89 C 227.09 149.00 225.49 147.78 224.23 146.65 C 222.05 145.34 220.06 147.27 218.41 148.50 Z" />
<path fill="#010101" opacity="1.00" d=" M 261.36 167.51 C 265.95 166.27 270.12 163.09 275.07 163.67 C 277.77 163.70 280.13 165.24 282.17 166.86 C 283.99 169.00 283.89 172.28 285.98 174.21 C 288.24 175.37 290.72 176.03 293.03 177.08 C 296.65 178.83 301.42 178.02 303.96 174.81 C 305.51 172.45 304.52 169.65 302.87 167.68 C 300.30 167.71 297.83 168.36 297.03 171.14 C 297.31 169.87 297.62 168.62 297.94 167.37 C 300.16 166.85 303.21 165.92 304.65 168.43 C 307.70 171.48 305.25 176.12 302.36 178.24 C 298.86 179.49 295.00 179.25 291.46 178.29 C 288.87 177.32 286.63 175.44 283.77 175.25 C 282.60 181.14 276.77 187.00 270.39 184.64 C 266.37 183.71 267.34 178.90 267.47 175.87 C 269.10 173.56 271.58 172.30 274.08 171.14 C 276.91 170.94 279.68 171.58 282.43 172.16 C 282.10 169.92 280.48 168.32 279.15 166.63 C 273.43 165.49 267.08 165.62 262.13 169.03 C 256.98 171.79 253.40 176.59 249.95 181.15 C 251.33 177.15 254.05 173.87 257.04 170.97 C 257.98 170.18 258.99 169.49 260.09 168.94 C 260.41 168.58 261.04 167.87 261.36 167.51 M 268.31 178.24 C 267.26 180.99 270.03 182.26 271.94 183.39 C 273.33 182.66 274.72 181.95 276.12 181.23 C 277.79 179.23 279.79 177.33 279.86 174.53 C 275.84 172.95 269.90 173.64 268.31 178.24 Z" />
<path fill="#010101" opacity="1.00" d=" M 79.80 168.79 C 82.31 164.31 88.26 162.63 93.04 164.05 C 101.65 166.50 110.13 172.31 113.17 181.05 C 110.53 177.55 108.03 173.75 104.31 171.29 C 104.00 170.97 103.39 170.32 103.09 169.99 C 100.99 169.04 99.05 167.79 96.98 166.79 C 93.69 165.95 90.26 165.90 86.89 166.13 C 83.80 166.15 80.98 169.22 81.39 172.32 C 85.52 170.52 90.60 170.64 94.19 173.55 C 95.64 175.58 97.15 178.03 96.59 180.64 C 95.95 182.06 95.00 183.30 94.14 184.60 C 90.87 185.15 86.73 185.70 84.30 182.91 C 83.56 182.20 82.78 181.54 81.97 180.92 C 80.95 179.06 80.01 177.17 79.14 175.25 C 75.88 175.69 73.41 178.29 70.13 178.67 C 67.06 179.36 63.90 179.14 60.88 178.33 C 59.35 176.51 57.00 174.81 57.42 172.11 C 57.02 169.33 59.26 166.51 62.14 166.69 C 64.73 166.49 66.15 168.95 67.12 170.96 C 65.83 169.92 64.64 168.75 63.28 167.81 C 60.78 167.29 57.90 169.45 58.35 172.13 C 58.73 175.39 61.88 177.66 65.00 177.91 C 69.15 178.47 72.69 175.81 76.47 174.58 C 79.16 173.97 78.57 170.68 79.80 168.79 M 83.31 174.69 C 84.25 178.75 87.67 182.85 92.06 182.91 C 95.68 182.52 95.06 178.44 94.33 175.92 C 91.01 173.82 87.00 173.00 83.31 174.69 Z" />
<path fill="#010101" opacity="1.00" d=" M 108.07 202.03 C 109.60 199.83 111.88 201.31 113.76 202.08 C 118.76 203.44 122.59 207.34 125.99 211.07 C 128.75 214.78 131.33 219.12 130.72 223.95 C 128.20 220.27 126.35 216.14 123.41 212.74 C 121.14 209.86 117.88 208.07 115.01 205.89 C 112.54 204.91 110.11 203.78 108.07 202.03 Z" />
<path fill="#010101" opacity="1.00" d=" M 245.09 204.20 C 247.81 202.28 251.20 201.05 254.50 200.76 L 254.78 202.04 C 252.30 205.09 247.82 205.46 244.98 208.21 C 243.22 209.43 241.78 211.03 240.00 212.21 C 239.78 212.66 239.35 213.54 239.13 213.98 C 236.27 216.89 234.86 220.82 232.50 224.10 C 232.14 219.77 234.11 215.73 236.52 212.27 C 236.80 211.84 237.35 210.97 237.63 210.53 C 239.86 208.13 242.23 205.85 245.09 204.20 Z" />
<path fill="#010101" opacity="1.00" d=" M 89.05 206.82 C 87.65 207.02 86.37 204.45 88.05 203.95 C 94.02 202.95 99.91 205.15 105.64 206.57 C 106.01 206.91 106.76 207.59 107.13 207.93 C 110.66 208.95 113.87 211.18 116.24 213.96 C 116.65 214.22 117.48 214.73 117.90 214.99 C 119.10 216.79 121.30 218.38 120.69 220.84 C 117.10 217.46 113.12 214.57 109.00 211.90 C 102.84 208.65 95.99 207.19 89.05 206.82 Z" />
<path fill="#010101" opacity="1.00" d=" M 266.56 204.44 C 270.01 203.77 273.89 202.89 277.09 204.87 C 275.07 208.22 270.62 206.47 267.47 207.63 C 260.06 208.51 253.30 212.06 247.45 216.57 C 245.71 217.88 244.47 220.31 241.94 219.91 C 244.08 216.35 247.12 213.27 250.54 210.91 C 252.45 209.20 254.83 208.23 257.14 207.19 C 259.96 205.36 263.40 205.28 266.56 204.44 Z" />
<path fill="#010101" opacity="1.00" d=" M 75.23 208.86 C 87.95 209.58 100.73 212.41 112.18 218.08 C 112.27 218.61 112.46 219.68 112.55 220.21 C 106.83 217.99 100.72 217.23 95.00 215.01 C 88.36 214.17 81.86 212.54 75.24 211.53 C 75.24 210.86 75.23 209.53 75.23 208.86 Z" />
<path fill="#010101" opacity="1.00" d=" M 266.96 212.09 C 273.01 211.14 278.93 209.39 285.06 208.88 C 286.79 208.33 289.02 209.18 288.69 211.39 C 281.73 212.51 274.86 214.13 267.90 215.20 C 262.42 217.43 256.47 217.91 250.96 220.06 C 251.08 219.45 251.33 218.25 251.45 217.65 C 252.02 217.53 253.14 217.30 253.70 217.18 C 257.57 214.21 262.61 214.03 266.96 212.09 Z" />
<path fill="#010101" opacity="1.00" d=" M 45.96 218.63 C 44.61 217.93 44.30 216.59 45.89 215.90 C 56.62 215.05 67.21 217.80 77.94 217.47 C 85.46 217.61 92.95 218.82 100.23 220.68 C 98.64 221.61 96.88 222.18 95.03 222.08 C 89.08 222.07 83.10 222.05 77.21 221.20 C 66.83 219.95 56.15 221.38 45.96 218.63 Z" />
<path fill="#010101" opacity="1.00" d=" M 284.00 217.47 C 295.46 217.86 306.76 215.13 318.24 215.81 C 318.36 216.61 318.49 217.42 318.62 218.23 C 308.39 221.44 297.54 219.99 287.04 221.09 C 280.06 221.98 272.99 222.29 265.97 221.94 C 265.36 221.66 264.13 221.10 263.51 220.82 C 270.10 218.64 277.11 217.98 284.00 217.47 Z" />
<path fill="#010101" opacity="1.00" d=" M 86.28 245.48 C 103.18 245.29 120.08 245.34 136.98 245.52 C 160.97 247.08 185.00 245.09 209.02 245.49 C 223.02 245.21 237.02 246.14 251.02 245.56 C 261.03 245.50 271.03 245.50 281.04 245.46 C 281.13 262.94 280.05 280.39 279.85 297.88 C 228.57 297.93 177.28 298.58 126.01 298.82 C 112.29 298.58 98.37 299.74 84.87 296.76 C 84.59 279.65 85.09 262.54 86.28 245.48 M 96.34 260.33 C 93.51 265.69 98.83 272.11 95.17 277.25 C 94.52 278.70 92.87 281.12 95.12 282.00 C 97.07 282.79 100.26 283.95 101.64 281.68 C 101.76 279.37 100.60 277.17 100.41 274.87 C 104.57 275.13 109.04 274.44 111.85 271.05 C 112.14 276.04 114.86 281.64 120.15 282.80 C 124.65 283.96 129.23 281.06 130.93 276.92 C 134.20 270.59 131.54 260.74 124.03 259.06 C 119.14 257.92 114.90 261.37 112.90 265.53 C 111.11 261.44 106.45 260.25 102.53 259.26 C 100.47 258.89 97.81 258.42 96.34 260.33 M 131.57 261.15 C 131.16 265.68 134.19 269.63 134.33 274.10 C 133.77 276.65 132.30 278.87 131.16 281.19 C 133.42 282.84 136.65 283.80 139.18 282.16 C 140.62 280.41 138.61 278.58 138.11 276.89 C 137.28 275.15 138.83 274.11 140.00 273.18 C 141.72 275.86 142.13 279.21 144.07 281.74 C 146.80 284.29 150.79 283.16 153.56 281.31 C 157.48 283.17 161.92 283.00 166.15 283.03 C 166.77 282.40 167.38 281.77 168.00 281.14 C 169.13 282.07 170.33 283.45 171.99 282.91 C 175.03 282.47 178.13 282.14 181.06 281.18 C 183.55 280.32 185.36 276.67 183.43 274.49 C 181.05 272.40 177.47 272.12 175.39 269.66 C 174.90 267.27 176.43 264.95 177.92 263.21 C 179.81 262.79 182.81 266.25 183.50 263.09 C 184.02 259.31 179.72 258.26 176.86 259.16 C 171.97 259.27 169.24 264.01 168.20 268.22 C 171.03 272.00 175.87 272.90 179.61 275.41 C 180.55 275.95 181.04 276.79 181.08 277.91 C 177.56 279.49 173.49 278.85 170.10 277.26 C 166.41 277.42 163.01 279.28 159.38 279.61 C 157.29 278.18 156.97 274.48 159.20 273.08 C 161.38 272.92 163.35 274.18 165.39 274.76 C 167.04 273.17 166.81 270.99 166.00 269.05 C 163.65 269.33 161.44 270.66 159.07 270.48 C 156.91 268.90 157.98 266.28 158.82 264.31 C 161.74 264.61 164.45 265.78 167.31 266.37 C 167.58 263.65 167.63 259.01 163.93 258.82 C 160.08 259.00 155.81 258.34 152.42 260.58 C 150.66 258.19 146.92 258.15 144.62 259.76 C 141.68 263.16 142.57 268.30 139.74 271.73 C 139.00 271.20 138.28 270.66 137.59 270.10 C 138.32 266.68 139.38 263.32 139.66 259.81 C 137.13 258.66 133.10 258.37 131.57 261.15 M 198.25 261.99 C 191.57 266.92 193.08 278.96 200.49 282.39 C 203.93 283.97 206.70 281.08 209.15 279.13 C 209.34 280.51 209.54 281.90 209.76 283.29 C 211.31 282.76 213.14 282.58 214.33 281.33 C 216.31 279.53 212.90 277.95 212.99 275.98 C 213.22 274.17 213.81 272.44 214.29 270.70 C 212.55 269.35 210.23 267.85 208.05 269.22 C 205.69 271.37 209.47 273.43 210.57 275.17 C 209.90 276.25 209.53 277.63 208.41 278.36 C 204.92 281.14 199.51 277.13 200.02 273.02 C 200.12 270.25 200.36 266.62 203.43 265.48 C 206.22 263.65 209.47 264.48 212.34 265.62 C 213.21 263.14 212.67 259.92 209.84 259.08 C 205.82 258.63 201.53 259.55 198.25 261.99 M 214.03 260.15 C 213.02 265.45 214.04 271.02 216.14 275.95 C 217.58 279.17 220.09 282.53 223.87 282.94 C 227.98 283.66 231.60 280.65 233.38 277.20 C 235.72 272.52 236.59 267.18 236.22 261.98 C 236.31 257.95 230.06 258.15 228.57 261.03 C 227.95 265.27 231.30 268.88 231.03 273.11 C 230.78 275.82 229.21 278.28 226.96 279.80 C 220.40 275.22 222.49 266.61 222.30 259.84 C 219.69 259.20 216.03 257.51 214.03 260.15 M 240.20 259.91 C 235.76 263.22 239.42 269.54 236.44 273.58 C 234.95 276.20 232.32 278.79 233.57 282.06 C 235.33 282.40 237.09 283.17 238.91 282.96 C 241.26 282.10 240.41 279.06 241.46 277.25 C 244.07 276.04 247.42 275.29 249.99 276.98 C 251.22 278.76 249.99 281.02 250.04 283.00 C 252.10 282.84 254.76 283.11 255.99 281.05 C 256.40 277.70 252.85 275.41 253.03 272.08 C 252.87 268.84 253.42 265.38 251.83 262.40 C 249.47 258.62 243.93 258.05 240.20 259.91 M 252.45 262.14 C 253.60 267.37 259.51 269.77 260.92 274.90 C 261.14 277.32 260.56 279.71 260.40 282.12 C 262.31 282.88 264.80 283.77 266.47 282.02 C 266.83 279.75 264.66 277.72 265.59 275.46 C 267.06 270.79 270.69 267.26 272.79 262.92 C 274.54 258.70 266.18 258.11 265.93 262.01 C 265.61 265.31 266.35 268.66 265.62 271.95 C 264.66 271.56 263.28 271.71 262.74 270.66 C 261.05 267.34 261.11 263.22 258.67 260.27 C 256.67 258.82 252.41 258.85 252.45 262.14 Z" />
<path fill="#010101" opacity="1.00" d=" M 143.97 273.03 C 144.22 268.08 149.41 265.64 151.74 261.71 C 151.25 265.57 153.77 269.28 152.49 273.12 C 151.91 275.50 151.80 277.94 151.51 280.37 C 149.53 277.40 144.54 277.04 143.97 273.03 Z" />
<path fill="#010101" opacity="1.00" d=" M 123.44 264.47 C 125.13 263.83 127.19 264.26 128.07 265.95 C 130.54 270.51 130.15 277.63 124.92 280.05 C 123.07 281.30 120.39 280.19 119.81 278.09 C 118.26 273.46 118.72 267.05 123.44 264.47 Z" />
<path fill="#010101" opacity="1.00" d=" M 103.32 265.29 C 105.94 263.49 110.37 265.75 110.37 269.04 C 110.12 272.28 105.28 274.58 102.92 272.06 C 101.03 270.23 101.47 266.97 103.32 265.29 Z" />
<path fill="#010101" opacity="1.00" d=" M 245.35 265.27 C 248.41 262.75 251.49 267.21 251.45 270.09 C 251.85 273.14 248.05 273.38 245.91 273.05 C 241.60 273.22 242.99 266.97 245.35 265.27 Z" />
<path fill="#010101" opacity="1.00" d=" M 295.95 268.96 C 302.51 267.81 309.20 267.83 315.83 267.41 C 314.87 268.27 313.92 269.13 312.98 270.00 C 311.37 273.22 309.50 276.37 307.08 279.04 C 304.90 283.21 302.13 287.03 299.70 291.04 C 300.30 292.43 301.07 293.74 302.12 294.86 C 306.34 299.69 310.50 304.58 314.15 309.87 C 315.40 311.45 316.49 313.14 317.61 314.82 C 301.71 314.92 285.81 315.27 269.92 314.85 C 270.45 314.09 270.98 313.33 271.51 312.58 C 275.16 309.23 278.19 305.13 282.39 302.41 C 284.85 297.96 283.78 292.70 284.28 287.85 C 284.92 281.73 285.13 275.58 285.40 269.44 C 288.92 269.53 292.46 269.48 295.95 268.96 Z" />
<path fill="#010101" opacity="1.00" d=" M 48.16 268.70 C 58.15 269.48 68.19 269.37 78.18 270.38 C 78.95 278.23 78.66 286.15 79.30 294.01 C 79.76 297.17 79.90 300.59 81.73 303.33 C 84.78 307.28 89.38 309.74 92.17 313.92 C 93.02 314.53 93.87 315.14 94.73 315.76 C 78.53 316.91 62.25 316.00 46.04 315.64 C 49.80 311.77 51.77 306.53 55.73 302.84 C 58.06 299.78 60.59 296.88 63.47 294.32 C 63.46 293.41 63.43 291.59 63.42 290.69 C 57.80 283.73 54.20 275.32 48.16 268.70 Z" />
<path fill="#010101" opacity="1.00" d=" M 267.15 301.92 C 270.21 301.90 273.28 301.99 276.33 302.23 C 275.81 302.43 274.76 302.83 274.23 303.03 C 271.55 305.99 268.36 308.48 266.04 311.76 C 266.33 308.47 266.86 305.21 267.15 301.92 Z" />
<path fill="#010101" opacity="1.00" d=" M 88.05 303.26 C 91.05 302.91 94.08 302.87 97.09 302.90 C 97.12 305.90 97.15 308.89 97.14 311.90 C 95.61 310.37 94.12 308.78 92.46 307.39 C 91.98 306.59 91.51 305.78 91.04 304.99 C 90.04 304.41 89.04 303.84 88.05 303.26 Z" />
</g>
</svg>
