<?xml version="1.0" encoding="UTF-8" ?>
<!DOCTYPE svg PUBLIC "-//W3C//DTD SVG 1.1//EN" "http://www.w3.org/Graphics/SVG/1.1/DTD/svg11.dtd">
<svg width="500pt" height="500pt" viewBox="0 0 500 500" version="1.1" xmlns="http://www.w3.org/2000/svg">
<g id="#ffffffff">
<path fill="#ffffff" opacity="1.00" d=" M 230.54 58.77 C 273.43 53.92 317.87 63.67 354.58 86.45 C 396.12 111.97 427.86 153.33 440.76 200.45 C 453.76 246.44 449.42 297.18 428.02 339.99 C 409.07 378.55 377.16 410.64 338.60 429.63 C 320.16 438.47 300.45 444.85 280.17 447.61 C 230.71 455.03 178.48 442.49 138.00 413.05 C 111.78 394.18 90.04 368.94 75.93 339.83 C 60.70 309.10 54.20 274.29 56.39 240.12 C 58.63 206.51 69.72 173.45 88.52 145.47 C 103.90 122.33 124.11 102.35 147.64 87.53 C 172.63 71.85 201.17 61.78 230.54 58.77 M 232.59 129.82 C 223.67 130.93 214.81 132.56 206.16 134.99 C 184.61 141.08 163.48 151.42 148.29 168.25 C 137.38 180.26 130.84 196.60 132.55 212.92 C 133.31 218.19 137.12 222.90 142.11 224.74 C 145.93 226.09 150.04 225.72 154.01 225.76 C 223.35 225.74 292.69 225.77 362.03 225.75 C 367.39 225.90 372.82 223.29 375.62 218.64 C 379.06 213.12 377.97 206.27 377.44 200.14 C 374.89 181.09 361.76 165.27 346.50 154.48 C 323.56 138.58 295.74 130.74 268.08 129.02 C 256.25 129.13 244.36 128.39 232.59 129.82 M 120.79 239.79 C 117.89 242.56 122.34 247.48 125.53 245.54 C 130.12 242.43 135.37 239.46 141.14 240.17 C 147.98 240.89 153.11 245.93 159.02 248.91 C 166.85 253.10 176.55 252.96 184.62 249.50 C 190.77 247.12 195.22 241.36 201.99 240.39 C 209.39 238.74 215.85 243.48 221.71 247.26 C 229.84 252.80 240.71 253.45 249.71 249.73 C 256.29 247.31 260.98 241.11 268.23 240.28 C 276.66 238.76 283.20 245.18 290.07 248.81 C 300.51 254.48 313.97 252.43 323.16 245.23 C 327.77 241.56 333.87 239.11 339.82 240.47 C 347.43 242.20 352.87 248.56 360.30 250.77 C 369.78 253.67 380.74 251.62 388.45 245.39 C 388.80 243.26 388.63 241.08 388.66 238.94 C 386.89 238.58 384.96 238.21 383.45 239.51 C 377.81 243.20 370.78 245.45 364.07 243.63 C 357.20 242.05 352.44 236.24 345.92 233.86 C 337.09 230.56 326.67 232.40 319.33 238.27 C 314.44 242.14 308.24 244.65 301.94 244.22 C 296.11 243.89 291.19 240.53 286.61 237.25 C 279.54 232.09 269.98 230.85 261.78 233.84 C 255.09 235.88 250.57 242.08 243.58 243.48 C 236.20 245.77 228.42 242.97 222.58 238.34 C 215.65 232.79 206.11 230.70 197.57 233.37 C 189.94 235.16 184.99 242.35 177.15 243.66 C 169.35 245.89 161.61 242.14 155.60 237.41 C 145.41 229.71 129.80 230.80 120.79 239.79 M 123.45 259.40 C 162.31 259.65 201.18 259.44 240.04 259.51 C 288.96 259.45 337.87 259.63 386.79 259.42 C 381.28 258.09 375.59 258.56 369.98 258.50 C 290.65 258.49 211.32 258.52 131.99 258.49 C 129.11 258.45 126.26 258.87 123.45 259.40 M 386.29 264.92 C 384.71 270.48 384.00 276.26 383.77 282.03 C 383.79 283.57 383.52 285.35 384.87 286.46 C 387.92 286.58 387.06 282.90 387.21 280.96 C 386.73 276.63 388.55 271.76 385.93 267.92 C 386.49 268.00 387.61 268.17 388.17 268.25 C 388.85 266.71 389.53 265.15 389.60 263.44 C 388.40 263.68 386.69 263.36 386.29 264.92 M 231.36 280.78 C 232.43 284.60 236.31 286.94 240.21 286.39 C 242.80 284.99 244.97 282.98 246.19 280.27 C 246.48 278.87 246.81 277.49 247.21 276.13 C 247.20 273.06 247.58 269.81 246.02 267.01 C 243.73 268.70 244.64 271.60 244.38 274.00 C 244.18 277.09 243.10 280.51 240.36 282.27 C 238.56 283.30 235.79 283.17 234.77 281.10 C 231.77 276.78 234.99 270.86 231.89 266.69 C 229.80 271.05 230.08 276.23 231.36 280.78 M 291.32 280.76 C 292.43 284.57 296.29 286.95 300.21 286.39 C 302.80 284.99 304.97 282.98 306.20 280.27 C 306.48 278.89 306.82 277.52 307.22 276.18 C 307.20 273.08 307.61 269.81 306.02 267.00 C 304.89 268.04 304.19 269.40 304.45 270.96 C 304.54 274.60 304.17 278.69 301.46 281.41 C 299.76 283.27 296.10 283.63 294.80 281.13 C 291.77 276.80 294.95 270.90 291.91 266.68 C 289.80 271.01 290.06 276.22 291.32 280.76 M 270.57 270.62 C 267.86 273.09 268.07 276.94 268.58 280.25 C 270.09 282.41 271.77 284.64 274.33 285.64 C 277.68 287.35 281.46 286.29 284.81 285.15 C 285.58 286.69 287.65 286.97 287.73 284.87 C 288.78 282.28 288.41 279.43 288.37 276.72 C 285.96 275.87 280.90 273.78 281.18 278.07 C 282.08 278.27 283.89 278.67 284.80 278.86 C 284.19 280.44 283.84 282.32 282.31 283.31 C 278.00 285.53 271.25 282.24 272.19 276.92 C 272.04 273.60 275.23 271.52 278.07 270.72 C 280.96 270.45 283.72 271.81 285.12 274.37 C 285.73 274.36 286.96 274.36 287.57 274.35 C 286.16 266.73 275.32 265.29 270.57 270.62 M 309.47 268.54 C 309.05 270.48 309.36 272.49 309.33 274.46 L 308.68 274.51 C 308.76 277.38 308.70 280.26 308.79 283.14 C 308.46 284.92 310.15 286.66 311.95 286.41 C 314.97 286.60 318.01 286.56 321.03 286.32 C 322.89 286.64 323.85 285.13 324.73 283.79 C 321.10 282.16 317.07 282.73 313.22 282.73 C 313.23 281.26 313.23 279.80 313.22 278.34 C 316.63 278.01 320.69 278.38 323.36 275.81 C 319.94 274.38 316.21 274.77 312.61 274.76 C 312.52 273.87 312.35 272.10 312.26 271.21 C 316.33 271.24 320.39 271.18 324.45 271.19 C 324.67 270.60 325.09 269.40 325.31 268.80 C 320.10 268.23 314.59 266.97 309.47 268.54 M 327.69 271.76 C 326.74 274.74 329.27 277.11 331.74 278.24 C 334.75 278.95 338.09 279.25 340.62 281.15 C 340.67 281.76 340.75 282.96 340.79 283.56 C 336.14 284.58 331.63 283.24 327.71 280.75 C 327.39 282.17 327.34 283.62 327.60 285.06 C 328.17 285.32 329.30 285.84 329.87 286.10 C 334.26 287.05 339.13 287.90 343.16 285.32 C 345.14 284.16 344.36 281.60 344.53 279.73 C 340.56 276.87 335.68 275.88 331.18 274.16 C 331.11 272.73 331.82 271.61 332.89 270.70 C 336.53 269.66 339.05 272.46 341.37 274.74 C 341.95 272.72 341.60 270.41 339.78 269.13 C 336.08 266.57 329.58 267.29 327.69 271.76 M 346.70 268.56 C 346.88 274.19 346.21 279.82 346.44 285.46 C 351.25 287.17 356.73 286.82 361.60 285.50 C 361.60 284.98 361.60 283.95 361.60 283.43 C 357.93 282.30 354.07 282.72 350.31 282.70 C 350.32 281.26 350.33 279.82 350.33 278.39 C 353.71 278.34 357.03 277.67 360.34 277.05 C 360.12 276.50 359.68 275.40 359.47 274.85 C 356.37 274.79 353.28 274.71 350.19 274.81 C 350.19 273.59 350.18 272.38 350.17 271.17 C 354.33 271.14 358.57 271.60 362.67 270.65 C 362.59 270.14 362.43 269.13 362.35 268.63 C 357.16 268.22 351.81 267.06 346.70 268.56 M 100.62 269.67 C 99.46 273.70 99.91 277.94 99.84 282.08 C 100.38 283.83 100.00 286.12 101.75 287.23 C 105.38 287.43 108.94 286.55 112.54 286.23 C 112.53 285.75 112.51 284.79 112.50 284.31 C 109.40 284.11 106.29 284.12 103.19 284.35 C 102.99 279.49 103.53 274.63 103.13 269.80 C 102.40 268.29 101.56 268.25 100.62 269.67 M 149.89 270.77 C 149.43 276.28 149.63 281.82 149.91 287.34 C 150.48 287.38 151.62 287.46 152.18 287.50 C 152.46 284.77 152.57 282.03 152.60 279.30 C 156.50 279.17 160.41 279.17 164.31 279.24 C 164.40 281.41 164.52 283.58 164.78 285.75 C 165.39 285.39 166.63 284.69 167.24 284.34 C 167.42 279.32 167.48 274.23 166.65 269.26 C 166.18 269.35 165.25 269.54 164.78 269.63 C 164.59 271.93 164.45 274.22 164.32 276.52 C 160.39 276.34 156.43 276.39 152.53 275.80 C 152.47 273.81 152.53 271.79 152.11 269.83 C 151.25 269.29 149.91 269.55 149.89 270.77 M 187.67 269.71 C 186.21 275.54 186.46 281.65 186.62 287.61 C 187.24 287.47 188.49 287.18 189.12 287.03 C 189.93 282.60 189.51 278.06 189.86 273.59 C 190.07 273.97 190.47 274.73 190.67 275.11 C 192.74 276.55 194.55 278.40 196.88 279.42 C 199.96 279.56 201.92 276.63 204.10 274.89 C 204.43 278.77 203.86 282.96 205.75 286.52 C 206.63 286.64 207.52 286.71 208.41 286.75 C 208.45 283.00 208.17 279.26 208.27 275.52 L 207.76 275.48 C 207.68 273.32 207.40 271.14 206.24 269.26 C 202.67 270.85 200.30 274.08 197.18 276.32 C 194.86 274.04 192.52 271.80 190.12 269.62 C 189.30 269.65 188.48 269.68 187.67 269.71 M 210.51 269.82 C 210.51 274.91 210.87 280.00 210.77 285.10 C 211.02 285.73 211.52 286.98 211.77 287.61 C 216.79 287.07 222.17 287.33 226.66 284.66 C 228.19 283.96 228.39 282.23 228.62 280.78 C 226.96 279.28 225.13 277.96 223.08 277.06 C 224.85 276.21 226.80 273.96 225.01 272.17 C 221.21 268.51 215.33 268.89 210.51 269.82 M 249.41 270.89 C 249.94 276.27 247.26 282.06 249.99 287.08 C 252.12 285.03 252.18 281.97 252.33 279.22 C 254.37 279.34 256.44 279.28 258.48 279.59 C 260.86 281.45 262.72 283.91 265.12 285.77 C 267.82 282.96 263.31 280.38 261.79 278.15 C 263.55 277.23 264.83 275.75 265.64 273.95 C 262.92 269.86 257.66 268.66 253.05 268.58 C 251.62 268.63 248.93 268.82 249.41 270.89 M 365.44 269.43 C 364.72 275.08 364.75 280.82 364.73 286.51 C 368.72 286.78 367.22 281.79 367.90 279.28 C 371.14 279.37 375.06 278.67 376.89 282.08 C 378.23 283.50 379.70 284.77 381.32 285.87 C 382.87 282.54 379.11 280.53 377.77 277.90 C 378.48 277.47 379.89 276.61 380.60 276.18 C 380.73 274.61 381.12 272.62 379.48 271.70 C 375.47 269.14 369.98 267.49 365.44 269.43 M 121.56 270.45 C 119.65 273.36 118.39 276.63 116.74 279.69 C 115.75 281.95 114.09 284.41 114.93 286.98 C 117.67 287.29 118.09 284.13 119.00 282.28 C 121.06 282.27 123.12 282.27 125.17 282.29 C 125.98 283.69 126.85 285.07 127.75 286.42 C 128.28 286.40 129.33 286.34 129.85 286.31 C 129.71 281.47 126.93 277.30 125.05 272.99 C 124.26 271.74 123.41 269.05 121.56 270.45 M 176.15 270.23 C 173.98 273.82 172.32 277.70 170.37 281.41 C 169.47 283.31 168.25 286.22 170.65 287.58 C 172.12 285.54 173.23 283.29 174.19 280.98 L 174.38 282.33 C 176.15 282.29 177.93 282.27 179.70 282.26 C 180.69 284.32 181.81 286.73 184.54 286.68 C 184.41 282.07 181.82 278.10 180.05 273.99 C 179.06 272.46 178.59 269.51 176.15 270.23 M 396.18 269.90 C 394.24 273.75 392.28 277.58 390.35 281.44 C 389.44 283.35 388.27 286.24 390.68 287.58 C 392.11 285.52 393.23 283.27 394.20 280.96 L 394.36 282.33 C 396.13 282.28 397.92 282.27 399.70 282.26 C 400.69 284.29 401.79 286.73 404.52 286.61 C 404.26 282.23 402.01 278.37 400.27 274.45 C 399.31 272.59 398.61 270.16 396.18 269.90 M 135.28 298.24 C 129.76 299.68 125.13 304.18 123.68 309.71 C 122.59 314.41 122.87 319.33 123.37 324.09 C 125.22 339.06 138.81 351.78 153.99 352.01 C 221.01 351.98 288.03 352.01 355.05 352.00 C 360.34 351.96 365.81 352.48 370.86 350.55 C 383.46 346.52 392.84 334.21 393.23 320.97 C 393.25 316.39 393.76 311.53 391.73 307.27 C 389.16 301.63 383.22 297.60 376.96 297.75 C 297.64 297.76 218.32 297.74 139.00 297.75 C 137.74 297.77 136.50 297.93 135.28 298.24 Z" />
<path fill="#ffffff" opacity="1.00" d=" M 232.59 137.76 C 263.78 134.13 296.33 137.64 324.97 151.00 C 340.69 158.51 355.65 169.37 364.18 184.91 C 368.70 193.13 370.77 202.68 369.87 212.03 C 369.39 215.24 366.31 217.84 363.05 217.73 C 291.34 217.78 219.63 217.73 147.93 217.76 C 144.33 218.13 140.90 215.40 140.37 211.84 C 139.27 199.91 143.17 187.85 150.28 178.30 C 158.97 166.45 171.35 157.82 184.43 151.42 C 199.56 144.19 215.97 139.79 232.59 137.76 M 241.42 141.32 C 239.73 142.84 239.62 145.95 241.45 147.42 C 243.61 149.47 247.56 147.82 247.71 144.85 C 248.29 141.50 243.99 139.06 241.42 141.32 M 284.48 149.61 C 281.89 151.05 282.13 155.76 285.10 156.63 C 287.13 157.56 289.82 156.19 290.16 153.95 C 291.25 150.73 287.32 147.68 284.48 149.61 M 191.37 159.45 C 188.74 160.30 188.15 164.15 190.10 165.97 C 192.03 168.06 196.00 166.93 196.46 164.07 C 197.33 161.14 194.22 158.23 191.37 159.45 M 318.31 161.27 C 315.98 163.17 316.86 167.67 319.95 168.16 C 322.40 168.81 325.06 166.52 324.54 163.95 C 324.57 160.88 320.51 159.32 318.31 161.27 M 228.54 173.63 C 226.26 174.87 226.00 178.39 227.90 180.08 C 229.84 181.97 233.78 180.84 234.10 178.05 C 235.11 174.86 231.38 172.01 228.54 173.63 M 171.40 189.51 C 168.31 190.62 168.30 195.53 171.25 196.81 C 173.98 198.10 177.44 195.38 176.52 192.42 C 176.32 190.04 173.51 188.58 171.40 189.51 M 310.17 191.14 C 306.22 193.01 308.48 200.13 312.98 198.44 C 318.13 197.20 315.04 188.54 310.17 191.14 Z" />
<path fill="#ffffff" opacity="1.00" d=" M 214.20 272.12 C 217.42 272.34 220.98 272.03 223.66 274.19 C 221.76 274.91 219.84 275.54 217.90 276.10 C 216.70 276.19 215.51 276.29 214.32 276.39 C 214.28 274.96 214.24 273.54 214.20 272.12 Z" />
<path fill="#ffffff" opacity="1.00" d=" M 252.21 276.66 C 252.26 274.96 252.32 273.26 252.39 271.56 C 256.00 271.64 259.69 272.06 262.95 273.75 C 262.79 274.17 262.47 275.00 262.31 275.41 C 259.06 276.55 255.61 276.60 252.21 276.66 Z" />
<path fill="#ffffff" opacity="1.00" d=" M 368.26 271.54 C 371.80 271.71 375.45 272.04 378.65 273.72 C 378.56 274.11 378.38 274.90 378.29 275.30 C 375.06 276.54 371.59 276.57 368.19 276.72 C 368.22 274.99 368.23 273.26 368.26 271.54 Z" />
<path fill="#ffffff" opacity="1.00" d=" M 121.09 278.37 C 121.46 277.30 121.82 276.23 122.18 275.16 C 122.41 276.44 122.79 277.69 124.04 278.31 C 123.30 278.32 121.82 278.35 121.09 278.37 Z" />
<path fill="#ffffff" opacity="1.00" d=" M 176.45 274.89 C 176.95 276.08 177.43 277.29 177.90 278.51 C 176.79 278.34 175.68 278.17 174.57 277.99 C 175.04 277.89 175.97 277.68 176.44 277.58 C 176.44 276.91 176.44 275.56 176.45 274.89 Z" />
<path fill="#ffffff" opacity="1.00" d=" M 396.45 274.88 C 396.95 276.09 397.43 277.30 397.90 278.52 C 396.79 278.34 395.68 278.16 394.58 277.97 C 395.04 277.88 395.97 277.70 396.43 277.61 C 396.43 276.93 396.45 275.57 396.45 274.88 Z" />
<path fill="#ffffff" opacity="1.00" d=" M 214.51 279.61 C 217.34 279.39 220.18 279.37 222.99 279.80 C 224.53 280.18 224.89 281.43 224.85 282.87 C 221.44 283.73 217.90 283.66 214.42 283.42 C 214.44 282.14 214.47 280.87 214.51 279.61 Z" />
<path fill="#ffffff" opacity="1.00" d=" M 139.24 306.31 C 217.48 306.15 295.74 306.33 373.98 306.22 C 376.89 306.17 380.28 306.27 382.34 308.67 C 385.39 311.66 384.38 316.23 384.51 320.05 C 384.65 332.49 373.45 343.63 361.03 343.51 C 292.34 343.46 223.64 343.50 154.95 343.50 C 145.10 343.42 135.92 336.35 132.93 327.04 C 131.49 322.84 131.64 318.32 131.78 313.96 C 131.69 309.93 135.23 306.35 139.24 306.31 M 266.85 309.88 C 266.77 320.34 265.91 330.91 267.81 341.27 C 268.61 341.20 270.21 341.06 271.01 340.99 C 274.50 339.64 278.44 340.68 281.85 339.11 C 278.96 338.85 276.06 338.83 273.17 338.75 C 272.99 330.13 273.99 321.39 272.07 312.90 C 271.44 310.55 268.85 310.22 266.85 309.88 M 235.49 333.39 C 235.42 332.40 235.29 330.41 235.23 329.42 L 234.64 329.53 C 233.45 325.28 232.30 321.03 231.16 316.77 C 229.65 315.81 228.00 315.17 226.20 315.16 C 226.57 322.88 228.85 330.40 231.62 337.58 C 232.24 337.77 233.49 338.15 234.11 338.34 C 234.60 337.97 235.60 337.23 236.09 336.86 C 238.75 328.91 240.61 320.66 241.29 312.31 C 238.17 318.91 237.44 326.39 235.49 333.39 M 287.23 316.96 C 286.15 324.76 285.42 332.59 284.77 340.43 C 285.61 340.52 287.31 340.69 288.16 340.77 C 290.64 334.83 291.57 328.35 291.94 321.97 C 292.13 322.84 292.52 324.60 292.71 325.47 C 292.92 325.62 293.35 325.91 293.56 326.06 C 293.05 326.60 292.04 327.68 291.53 328.22 C 292.12 328.36 293.30 328.63 293.89 328.76 C 295.61 331.94 296.04 336.40 299.57 338.18 C 297.39 330.31 294.26 322.72 291.90 314.88 C 290.82 314.47 289.75 314.06 288.68 313.64 C 288.02 314.66 287.29 315.70 287.23 316.96 M 246.31 317.22 C 249.17 318.23 252.22 318.31 255.22 318.41 C 254.50 320.10 253.67 321.73 252.71 323.30 C 251.17 323.43 249.65 323.64 248.15 324.01 C 249.08 324.21 250.94 324.59 251.87 324.79 C 249.08 328.53 246.97 332.81 246.00 337.40 C 251.00 339.01 256.30 337.57 261.39 337.19 C 258.43 335.47 254.81 336.62 251.58 336.41 C 253.14 332.50 255.79 329.19 257.83 325.54 C 259.06 325.38 260.29 325.23 261.53 325.09 L 261.41 323.61 C 260.76 323.67 259.44 323.80 258.79 323.86 C 259.87 321.81 262.40 318.41 259.37 316.84 C 255.10 315.89 250.53 316.14 246.31 317.22 Z" />
</g>
<g id="#000000ff">
<path fill="#000000" opacity="1.00" d=" M 233.62 45.83 C 265.03 43.02 297.01 47.50 326.52 58.60 C 344.79 65.87 362.23 75.36 377.92 87.26 C 391.39 97.93 404.28 109.50 414.82 123.15 C 450.44 166.74 466.31 225.38 458.83 281.06 C 451.71 337.89 419.38 390.70 372.70 423.70 C 354.46 437.06 333.66 446.61 312.16 453.40 C 292.97 459.11 272.94 461.57 252.98 462.19 C 234.75 461.93 216.55 459.71 198.84 455.39 C 174.08 448.56 150.21 437.78 129.58 422.38 C 102.77 402.92 80.63 377.09 65.69 347.51 C 36.44 290.01 35.95 218.72 64.93 161.01 C 77.38 136.20 94.62 113.74 115.77 95.72 C 134.65 79.02 156.95 66.46 180.43 57.48 C 197.62 51.55 215.46 47.32 233.62 45.83 M 230.54 58.77 C 201.17 61.78 172.63 71.85 147.64 87.53 C 124.11 102.35 103.90 122.33 88.52 145.47 C 69.72 173.45 58.63 206.51 56.39 240.12 C 54.20 274.29 60.70 309.10 75.93 339.83 C 90.04 368.94 111.78 394.18 138.00 413.05 C 178.48 442.49 230.71 455.03 280.17 447.61 C 300.45 444.85 320.16 438.47 338.60 429.63 C 377.16 410.64 409.07 378.55 428.02 339.99 C 449.42 297.18 453.76 246.44 440.76 200.45 C 427.86 153.33 396.12 111.97 354.58 86.45 C 317.87 63.67 273.43 53.92 230.54 58.77 Z" />
<path fill="#000000" opacity="1.00" d=" M 386.29 264.92 C 386.69 263.36 388.40 263.68 389.60 263.44 C 389.53 265.15 388.85 266.71 388.17 268.25 C 387.61 268.17 386.49 268.00 385.93 267.92 C 388.55 271.76 386.73 276.63 387.21 280.96 C 387.06 282.90 387.92 286.58 384.87 286.46 C 383.52 285.35 383.79 283.57 383.77 282.03 C 384.00 276.26 384.71 270.48 386.29 264.92 Z" />
<path fill="#000000" opacity="1.00" d=" M 231.36 280.78 C 230.08 276.23 229.80 271.05 231.89 266.69 C 234.99 270.86 231.77 276.78 234.77 281.10 C 235.79 283.17 238.56 283.30 240.36 282.27 C 243.10 280.51 244.18 277.09 244.38 274.00 C 244.64 271.60 243.73 268.70 246.02 267.01 C 247.58 269.81 247.20 273.06 247.21 276.13 C 246.81 277.49 246.48 278.87 246.19 280.27 C 244.97 282.98 242.80 284.99 240.21 286.39 C 236.31 286.94 232.43 284.60 231.36 280.78 Z" />
<path fill="#000000" opacity="1.00" d=" M 291.32 280.76 C 290.06 276.22 289.80 271.01 291.91 266.68 C 294.95 270.90 291.77 276.80 294.80 281.13 C 296.10 283.63 299.76 283.27 301.46 281.41 C 304.17 278.69 304.54 274.60 304.45 270.96 C 304.19 269.40 304.89 268.04 306.02 267.00 C 307.61 269.81 307.20 273.08 307.22 276.18 C 306.82 277.52 306.48 278.89 306.20 280.27 C 304.97 282.98 302.80 284.99 300.21 286.39 C 296.29 286.95 292.43 284.57 291.32 280.76 Z" />
<path fill="#000000" opacity="1.00" d=" M 270.57 270.62 C 275.32 265.29 286.16 266.73 287.57 274.35 C 286.96 274.36 285.73 274.36 285.12 274.37 C 283.72 271.81 280.96 270.45 278.07 270.72 C 275.23 271.52 272.04 273.60 272.19 276.92 C 271.25 282.24 278.00 285.53 282.31 283.31 C 283.84 282.32 284.19 280.44 284.80 278.86 C 283.89 278.67 282.08 278.27 281.18 278.07 C 280.90 273.78 285.96 275.87 288.37 276.72 C 288.41 279.43 288.78 282.28 287.73 284.87 C 287.65 286.97 285.58 286.69 284.81 285.15 C 281.46 286.29 277.68 287.35 274.33 285.64 C 271.77 284.64 270.09 282.41 268.58 280.25 C 268.07 276.94 267.86 273.09 270.57 270.62 Z" />
<path fill="#000000" opacity="1.00" d=" M 309.47 268.54 C 314.59 266.97 320.10 268.23 325.31 268.80 C 325.09 269.40 324.67 270.60 324.45 271.19 C 320.39 271.18 316.33 271.24 312.26 271.21 C 312.35 272.10 312.52 273.87 312.61 274.76 C 316.21 274.77 319.94 274.38 323.36 275.81 C 320.69 278.38 316.63 278.01 313.22 278.34 C 313.23 279.80 313.23 281.26 313.22 282.73 C 317.07 282.73 321.10 282.16 324.73 283.79 C 323.85 285.13 322.89 286.64 321.03 286.32 C 318.01 286.56 314.97 286.60 311.95 286.41 C 310.15 286.66 308.46 284.92 308.79 283.14 C 308.70 280.26 308.76 277.38 308.68 274.51 L 309.33 274.46 C 309.36 272.49 309.05 270.48 309.47 268.54 Z" />
<path fill="#000000" opacity="1.00" d=" M 327.69 271.76 C 329.58 267.29 336.08 266.57 339.78 269.13 C 341.60 270.41 341.95 272.72 341.37 274.74 C 339.05 272.46 336.53 269.66 332.89 270.70 C 331.82 271.61 331.11 272.73 331.18 274.16 C 335.68 275.88 340.56 276.87 344.53 279.73 C 344.36 281.60 345.14 284.16 343.16 285.32 C 339.13 287.90 334.26 287.05 329.87 286.10 C 329.30 285.84 328.17 285.32 327.60 285.06 C 327.34 283.62 327.39 282.17 327.71 280.75 C 331.63 283.24 336.14 284.58 340.79 283.56 C 340.75 282.96 340.67 281.76 340.62 281.15 C 338.09 279.25 334.75 278.95 331.74 278.24 C 329.27 277.11 326.74 274.74 327.69 271.76 Z" />
<path fill="#000000" opacity="1.00" d=" M 346.70 268.56 C 351.81 267.06 357.16 268.22 362.35 268.63 C 362.43 269.13 362.59 270.14 362.67 270.65 C 358.57 271.60 354.33 271.14 350.17 271.17 C 350.18 272.38 350.19 273.59 350.19 274.81 C 353.28 274.71 356.37 274.79 359.47 274.85 C 359.68 275.40 360.12 276.50 360.34 277.05 C 357.03 277.67 353.71 278.34 350.33 278.39 C 350.33 279.82 350.32 281.26 350.31 282.70 C 354.07 282.72 357.93 282.30 361.60 283.43 C 361.60 283.95 361.60 284.98 361.60 285.50 C 356.73 286.82 351.25 287.17 346.44 285.46 C 346.21 279.82 346.88 274.19 346.70 268.56 Z" />
<path fill="#000000" opacity="1.00" d=" M 100.62 269.67 C 101.56 268.25 102.40 268.29 103.13 269.80 C 103.53 274.63 102.99 279.49 103.19 284.35 C 106.29 284.12 109.40 284.11 112.50 284.31 C 112.51 284.79 112.53 285.75 112.54 286.23 C 108.94 286.55 105.38 287.43 101.75 287.23 C 100.00 286.12 100.38 283.83 99.84 282.08 C 99.91 277.94 99.46 273.70 100.62 269.67 Z" />
<path fill="#000000" opacity="1.00" d=" M 149.89 270.77 C 149.91 269.55 151.25 269.29 152.11 269.83 C 152.53 271.79 152.47 273.81 152.53 275.80 C 156.43 276.39 160.39 276.34 164.32 276.52 C 164.45 274.22 164.59 271.93 164.78 269.63 C 165.25 269.54 166.18 269.35 166.65 269.26 C 167.48 274.23 167.42 279.32 167.24 284.34 C 166.63 284.69 165.39 285.39 164.78 285.75 C 164.52 283.58 164.40 281.41 164.31 279.24 C 160.41 279.17 156.50 279.17 152.60 279.30 C 152.57 282.03 152.46 284.77 152.18 287.50 C 151.62 287.46 150.48 287.38 149.91 287.34 C 149.63 281.82 149.43 276.28 149.89 270.77 Z" />
<path fill="#000000" opacity="1.00" d=" M 187.67 269.71 C 188.48 269.68 189.30 269.65 190.12 269.62 C 192.52 271.80 194.86 274.04 197.18 276.32 C 200.30 274.08 202.67 270.85 206.24 269.26 C 207.40 271.14 207.68 273.32 207.76 275.48 L 208.27 275.52 C 208.17 279.26 208.45 283.00 208.41 286.75 C 207.52 286.71 206.63 286.64 205.75 286.52 C 203.86 282.96 204.43 278.77 204.10 274.89 C 201.92 276.63 199.96 279.56 196.88 279.42 C 194.55 278.40 192.74 276.55 190.67 275.11 C 190.47 274.73 190.07 273.97 189.86 273.59 C 189.51 278.06 189.93 282.60 189.12 287.03 C 188.49 287.18 187.24 287.47 186.62 287.61 C 186.46 281.65 186.21 275.54 187.67 269.71 Z" />
<path fill="#000000" opacity="1.00" d=" M 210.51 269.82 C 215.33 268.89 221.21 268.51 225.01 272.17 C 226.80 273.96 224.85 276.21 223.08 277.06 C 225.13 277.96 226.96 279.28 228.62 280.78 C 228.39 282.23 228.19 283.96 226.66 284.66 C 222.17 287.33 216.79 287.07 211.77 287.61 C 211.52 286.98 211.02 285.73 210.77 285.10 C 210.87 280.00 210.51 274.91 210.51 269.82 M 214.20 272.12 C 214.24 273.54 214.28 274.96 214.32 276.39 C 215.51 276.29 216.70 276.19 217.90 276.10 C 219.84 275.54 221.76 274.91 223.66 274.19 C 220.98 272.03 217.42 272.34 214.20 272.12 M 214.51 279.61 C 214.47 280.87 214.44 282.14 214.42 283.42 C 217.90 283.66 221.44 283.73 224.85 282.87 C 224.89 281.43 224.53 280.18 222.99 279.80 C 220.18 279.37 217.34 279.39 214.51 279.61 Z" />
<path fill="#000000" opacity="1.00" d=" M 249.41 270.89 C 248.93 268.82 251.62 268.63 253.05 268.58 C 257.66 268.66 262.92 269.86 265.64 273.95 C 264.83 275.75 263.55 277.23 261.79 278.15 C 263.31 280.38 267.82 282.96 265.12 285.77 C 262.72 283.91 260.86 281.45 258.48 279.59 C 256.44 279.28 254.37 279.34 252.33 279.22 C 252.18 281.97 252.12 285.03 249.99 287.08 C 247.26 282.06 249.94 276.27 249.41 270.89 M 252.21 276.66 C 255.61 276.60 259.06 276.55 262.31 275.41 C 262.47 275.00 262.79 274.17 262.95 273.75 C 259.69 272.06 256.00 271.64 252.39 271.56 C 252.32 273.26 252.26 274.96 252.21 276.66 Z" />
<path fill="#000000" opacity="1.00" d=" M 365.44 269.43 C 369.98 267.49 375.47 269.14 379.48 271.70 C 381.12 272.62 380.73 274.61 380.60 276.18 C 379.89 276.61 378.48 277.47 377.77 277.90 C 379.11 280.53 382.87 282.54 381.32 285.87 C 379.70 284.77 378.23 283.50 376.89 282.08 C 375.06 278.67 371.14 279.37 367.90 279.28 C 367.22 281.79 368.72 286.78 364.73 286.51 C 364.75 280.82 364.72 275.08 365.44 269.43 M 368.26 271.54 C 368.23 273.26 368.22 274.99 368.19 276.72 C 371.59 276.57 375.06 276.54 378.29 275.30 C 378.38 274.90 378.56 274.11 378.65 273.72 C 375.45 272.04 371.80 271.71 368.26 271.54 Z" />
<path fill="#000000" opacity="1.00" d=" M 121.56 270.45 C 123.41 269.05 124.26 271.74 125.05 272.99 C 126.93 277.30 129.71 281.47 129.85 286.31 C 129.33 286.34 128.28 286.40 127.75 286.42 C 126.85 285.07 125.98 283.69 125.17 282.29 C 123.12 282.27 121.06 282.27 119.00 282.28 C 118.09 284.13 117.67 287.29 114.93 286.98 C 114.09 284.41 115.75 281.95 116.74 279.69 C 118.39 276.63 119.65 273.36 121.56 270.45 M 121.09 278.37 C 121.82 278.35 123.30 278.32 124.04 278.31 C 122.79 277.69 122.41 276.44 122.18 275.16 C 121.82 276.23 121.46 277.30 121.09 278.37 Z" />
<path fill="#000000" opacity="1.00" d=" M 176.15 270.23 C 178.59 269.51 179.06 272.46 180.05 273.99 C 181.82 278.10 184.41 282.07 184.54 286.68 C 181.81 286.73 180.69 284.32 179.70 282.26 C 177.93 282.27 176.15 282.29 174.38 282.33 L 174.19 280.98 C 173.23 283.29 172.12 285.54 170.65 287.58 C 168.25 286.22 169.47 283.31 170.37 281.41 C 172.32 277.70 173.98 273.82 176.15 270.23 M 176.45 274.89 C 176.44 275.56 176.44 276.91 176.44 277.58 C 175.97 277.68 175.04 277.89 174.57 277.99 C 175.68 278.17 176.79 278.34 177.90 278.51 C 177.43 277.29 176.95 276.08 176.45 274.89 Z" />
<path fill="#000000" opacity="1.00" d=" M 396.18 269.90 C 398.61 270.16 399.31 272.59 400.27 274.45 C 402.01 278.37 404.26 282.23 404.52 286.61 C 401.79 286.73 400.69 284.29 399.70 282.26 C 397.92 282.27 396.13 282.28 394.36 282.33 L 394.20 280.96 C 393.23 283.27 392.11 285.52 390.68 287.58 C 388.27 286.24 389.44 283.35 390.35 281.44 C 392.28 277.58 394.24 273.75 396.18 269.90 M 396.45 274.88 C 396.45 275.57 396.43 276.93 396.43 277.61 C 395.97 277.70 395.04 277.88 394.58 277.97 C 395.68 278.16 396.79 278.34 397.90 278.52 C 397.43 277.30 396.95 276.09 396.45 274.88 Z" />
<path fill="#000000" opacity="1.00" d=" M 266.85 309.88 C 268.85 310.22 271.44 310.55 272.07 312.90 C 273.99 321.39 272.99 330.13 273.17 338.75 C 276.06 338.83 278.96 338.85 281.85 339.11 C 278.44 340.68 274.50 339.64 271.01 340.99 C 270.21 341.06 268.61 341.20 267.81 341.27 C 265.91 330.91 266.77 320.34 266.85 309.88 Z" />
<path fill="#000000" opacity="1.00" d=" M 235.49 333.39 C 237.44 326.39 238.17 318.91 241.29 312.31 C 240.61 320.66 238.75 328.91 236.09 336.86 C 235.60 337.23 234.60 337.97 234.11 338.34 C 233.49 338.15 232.24 337.77 231.62 337.58 C 228.85 330.40 226.57 322.88 226.20 315.16 C 228.00 315.17 229.65 315.81 231.16 316.77 C 232.30 321.03 233.45 325.28 234.64 329.53 L 235.23 329.42 C 235.29 330.41 235.42 332.40 235.49 333.39 Z" />
<path fill="#000000" opacity="1.00" d=" M 287.23 316.96 C 287.29 315.70 288.02 314.66 288.68 313.64 C 289.75 314.06 290.82 314.47 291.90 314.88 C 294.26 322.72 297.39 330.31 299.57 338.18 C 296.04 336.40 295.61 331.94 293.89 328.76 C 293.30 328.63 292.12 328.36 291.53 328.22 C 292.04 327.68 293.05 326.60 293.56 326.06 C 293.35 325.91 292.92 325.62 292.71 325.47 C 292.52 324.60 292.13 322.84 291.94 321.97 C 291.57 328.35 290.64 334.83 288.16 340.77 C 287.31 340.69 285.61 340.52 284.77 340.43 C 285.42 332.59 286.15 324.76 287.23 316.96 Z" />
<path fill="#000000" opacity="1.00" d=" M 246.31 317.22 C 250.53 316.14 255.10 315.89 259.37 316.84 C 262.40 318.41 259.87 321.81 258.79 323.86 C 259.44 323.80 260.76 323.67 261.41 323.61 L 261.53 325.09 C 260.29 325.23 259.06 325.38 257.83 325.54 C 255.79 329.19 253.14 332.50 251.58 336.41 C 254.81 336.62 258.43 335.47 261.39 337.19 C 256.30 337.57 251.00 339.01 246.00 337.40 C 246.97 332.81 249.08 328.53 251.87 324.79 C 250.94 324.59 249.08 324.21 248.15 324.01 C 249.65 323.64 251.17 323.43 252.71 323.30 C 253.67 321.73 254.50 320.10 255.22 318.41 C 252.22 318.31 249.17 318.23 246.31 317.22 Z" />
</g>
<g id="#57595bff">
<path fill="#57595b" opacity="1.00" d=" M 232.59 129.82 C 244.36 128.39 256.25 129.13 268.08 129.02 C 295.74 130.74 323.56 138.58 346.50 154.48 C 361.76 165.27 374.89 181.09 377.44 200.14 C 377.97 206.27 379.06 213.12 375.62 218.64 C 372.82 223.29 367.39 225.90 362.03 225.75 C 292.69 225.77 223.35 225.74 154.01 225.76 C 150.04 225.72 145.93 226.09 142.11 224.74 C 137.12 222.90 133.31 218.19 132.55 212.92 C 130.84 196.60 137.38 180.26 148.29 168.25 C 163.48 151.42 184.61 141.08 206.16 134.99 C 214.81 132.56 223.67 130.93 232.59 129.82 M 232.59 137.76 C 215.97 139.79 199.56 144.19 184.43 151.42 C 171.35 157.82 158.97 166.45 150.28 178.30 C 143.17 187.85 139.27 199.91 140.37 211.84 C 140.90 215.40 144.33 218.13 147.93 217.76 C 219.63 217.73 291.34 217.78 363.05 217.73 C 366.31 217.84 369.39 215.24 369.87 212.03 C 370.77 202.68 368.70 193.13 364.18 184.91 C 355.65 169.37 340.69 158.51 324.97 151.00 C 296.33 137.64 263.78 134.13 232.59 137.76 Z" />
<path fill="#57595b" opacity="1.00" d=" M 241.42 141.32 C 243.99 139.06 248.29 141.50 247.71 144.85 C 247.56 147.82 243.61 149.47 241.45 147.42 C 239.62 145.95 239.73 142.84 241.42 141.32 Z" />
<path fill="#57595b" opacity="1.00" d=" M 284.48 149.61 C 287.32 147.68 291.25 150.73 290.16 153.95 C 289.82 156.19 287.13 157.56 285.10 156.63 C 282.13 155.76 281.89 151.05 284.48 149.61 Z" />
<path fill="#57595b" opacity="1.00" d=" M 191.37 159.45 C 194.22 158.23 197.33 161.14 196.46 164.07 C 196.00 166.93 192.03 168.06 190.10 165.97 C 188.15 164.15 188.74 160.30 191.37 159.45 Z" />
<path fill="#57595b" opacity="1.00" d=" M 318.31 161.27 C 320.51 159.32 324.57 160.88 324.54 163.95 C 325.06 166.52 322.40 168.81 319.95 168.16 C 316.86 167.67 315.98 163.17 318.31 161.27 Z" />
<path fill="#57595b" opacity="1.00" d=" M 228.54 173.63 C 231.38 172.01 235.11 174.86 234.10 178.05 C 233.78 180.84 229.84 181.97 227.90 180.08 C 226.00 178.39 226.26 174.87 228.54 173.63 Z" />
<path fill="#57595b" opacity="1.00" d=" M 171.40 189.51 C 173.51 188.58 176.32 190.04 176.52 192.42 C 177.44 195.38 173.98 198.10 171.25 196.81 C 168.30 195.53 168.31 190.62 171.40 189.51 Z" />
<path fill="#57595b" opacity="1.00" d=" M 310.17 191.14 C 315.04 188.54 318.13 197.20 312.98 198.44 C 308.48 200.13 306.22 193.01 310.17 191.14 Z" />
<path fill="#57595b" opacity="1.00" d=" M 120.79 239.79 C 129.80 230.80 145.41 229.71 155.60 237.41 C 161.61 242.14 169.35 245.89 177.15 243.66 C 184.99 242.35 189.94 235.16 197.57 233.37 C 206.11 230.70 215.65 232.79 222.58 238.34 C 228.42 242.97 236.20 245.77 243.58 243.48 C 250.57 242.08 255.09 235.88 261.78 233.84 C 269.98 230.85 279.54 232.09 286.61 237.25 C 291.19 240.53 296.11 243.89 301.94 244.22 C 308.24 244.65 314.44 242.14 319.33 238.27 C 326.67 232.40 337.09 230.56 345.92 233.86 C 352.44 236.24 357.20 242.05 364.07 243.63 C 370.78 245.45 377.81 243.20 383.45 239.51 C 384.96 238.21 386.89 238.58 388.66 238.94 C 388.63 241.08 388.80 243.26 388.45 245.39 C 380.74 251.62 369.78 253.67 360.30 250.77 C 352.87 248.56 347.43 242.20 339.82 240.47 C 333.87 239.11 327.77 241.56 323.16 245.23 C 313.97 252.43 300.51 254.48 290.07 248.81 C 283.20 245.18 276.66 238.76 268.23 240.28 C 260.98 241.11 256.29 247.31 249.71 249.73 C 240.71 253.45 229.84 252.80 221.71 247.26 C 215.85 243.48 209.39 238.74 201.99 240.39 C 195.22 241.36 190.77 247.12 184.62 249.50 C 176.55 252.96 166.85 253.10 159.02 248.91 C 153.11 245.93 147.98 240.89 141.14 240.17 C 135.37 239.46 130.12 242.43 125.53 245.54 C 122.34 247.48 117.89 242.56 120.79 239.79 Z" />
<path fill="#57595b" opacity="1.00" d=" M 123.45 259.40 C 126.26 258.87 129.11 258.45 131.99 258.49 C 211.32 258.52 290.65 258.49 369.98 258.50 C 375.59 258.56 381.28 258.09 386.79 259.42 C 337.87 259.63 288.96 259.45 240.04 259.51 C 201.18 259.44 162.31 259.65 123.45 259.40 Z" />
<path fill="#57595b" opacity="1.00" d=" M 135.28 298.24 C 136.50 297.93 137.74 297.77 139.00 297.75 C 218.32 297.74 297.64 297.76 376.96 297.75 C 383.22 297.60 389.16 301.63 391.73 307.27 C 393.76 311.53 393.25 316.39 393.23 320.97 C 392.84 334.21 383.46 346.52 370.86 350.55 C 365.81 352.48 360.34 351.96 355.05 352.00 C 288.03 352.01 221.01 351.98 153.99 352.01 C 138.81 351.78 125.22 339.06 123.37 324.09 C 122.87 319.33 122.59 314.41 123.68 309.71 C 125.13 304.18 129.76 299.68 135.28 298.24 M 139.24 306.31 C 135.23 306.35 131.69 309.93 131.78 313.96 C 131.64 318.32 131.49 322.84 132.93 327.04 C 135.92 336.35 145.10 343.42 154.95 343.50 C 223.64 343.50 292.34 343.46 361.03 343.51 C 373.45 343.63 384.65 332.49 384.51 320.05 C 384.38 316.23 385.39 311.66 382.34 308.67 C 380.28 306.27 376.89 306.17 373.98 306.22 C 295.74 306.33 217.48 306.15 139.24 306.31 Z" />
</g>
</svg>
