<?xml version="1.0" encoding="UTF-8" ?>
<!DOCTYPE svg PUBLIC "-//W3C//DTD SVG 1.1//EN" "http://www.w3.org/Graphics/SVG/1.1/DTD/svg11.dtd">
<svg width="1200pt" height="1185pt" viewBox="0 0 1200 1185" version="1.1" xmlns="http://www.w3.org/2000/svg">
<g id="#ffffffff">
<path fill="#ffffff" opacity="1.00" d=" M 214.71 615.64 C 229.13 619.79 243.54 623.96 257.95 628.12 C 278.37 689.51 315.91 744.91 364.77 787.23 C 375.66 796.82 387.37 805.41 399.23 813.74 C 371.29 803.04 345.05 787.95 321.70 769.25 C 294.83 747.79 271.78 721.73 252.92 693.02 C 237.17 668.88 223.94 642.97 214.71 615.64 Z" />
<path fill="#ffffff" opacity="1.00" d=" M 1024.55 966.58 C 1027.00 963.96 1028.95 960.82 1031.88 958.68 C 1028.10 963.63 1023.50 967.91 1019.82 972.95 C 1012.62 980.01 1005.98 987.67 998.67 994.65 C 993.21 1000.16 987.29 1005.21 981.95 1010.83 C 976.42 1014.94 972.04 1020.46 966.11 1024.03 C 966.54 1023.65 967.41 1022.91 967.84 1022.53 C 970.53 1019.07 974.94 1017.19 977.53 1013.49 C 988.74 1004.17 998.80 993.53 1009.11 983.23 C 1014.44 977.85 1019.48 972.20 1024.55 966.58 Z" />
</g>
<g id="#000000ff">
<path fill="#000000" opacity="1.00" d=" M 474.10 50.89 C 557.94 31.06 646.35 32.39 730.03 52.43 C 805.14 70.37 876.75 103.22 938.97 149.04 C 981.84 180.58 1020.16 218.38 1051.84 261.17 C 1103.80 331.11 1138.40 413.46 1154.13 499.05 C 1170.27 586.70 1166.83 678.12 1142.52 763.95 C 1126.53 820.47 1101.43 874.52 1067.67 922.64 C 1065.95 926.00 1060.28 923.56 1061.67 920.00 C 1063.15 916.83 1065.23 913.98 1066.87 910.90 C 1056.35 925.38 1046.29 940.20 1034.98 954.09 C 1033.73 955.63 1032.41 957.13 1031.46 958.89 C 1038.18 952.05 1043.69 944.13 1049.80 936.76 C 1051.32 935.00 1053.94 933.57 1056.25 934.70 C 1058.22 935.59 1058.18 938.28 1056.80 939.68 C 1044.83 956.76 1030.60 972.07 1016.72 987.59 C 994.87 1011.88 969.66 1032.86 943.60 1052.46 C 915.73 1073.20 886.35 1092.13 854.87 1106.96 C 820.16 1123.04 784.15 1136.43 747.11 1146.08 C 727.01 1151.21 706.64 1155.59 685.94 1157.35 C 662.70 1159.41 639.36 1160.10 616.03 1160.19 C 589.60 1160.03 563.08 1159.25 536.87 1155.54 C 519.18 1152.63 501.53 1149.50 483.96 1145.93 C 461.21 1141.31 438.97 1134.52 417.12 1126.74 C 382.74 1114.98 350.10 1098.61 319.01 1079.90 C 298.32 1067.33 278.05 1053.99 258.94 1039.10 C 234.16 1019.43 211.37 997.35 190.07 973.99 C 170.69 952.69 152.77 930.00 137.42 905.61 C 127.17 889.49 117.81 872.81 109.06 855.83 C 102.12 842.20 95.07 828.58 89.69 814.23 C 81.74 793.56 75.01 772.44 68.76 751.20 C 64.48 736.27 60.11 721.31 57.56 705.95 C 53.95 684.79 51.66 663.41 50.05 642.01 C 49.84 638.02 49.55 633.53 52.08 630.16 C 53.47 628.24 56.81 627.57 58.33 629.68 C 59.87 632.56 59.82 635.96 60.35 639.12 C 63.20 663.33 66.47 687.49 70.71 711.50 C 74.26 727.72 77.86 743.95 82.51 759.90 C 87.49 777.20 94.80 793.69 101.79 810.24 C 111.12 831.44 121.54 852.15 132.45 872.59 C 147.61 899.80 166.74 924.56 186.58 948.50 C 204.33 969.31 222.12 990.32 243.01 1008.10 C 270.36 1031.60 299.85 1052.50 330.24 1071.86 C 332.31 1073.26 334.02 1075.65 336.76 1075.68 C 335.41 1074.60 333.97 1073.59 332.31 1073.09 C 312.90 1059.86 293.75 1046.20 275.19 1031.78 C 241.61 1006.43 211.56 976.56 185.25 943.77 C 174.80 930.68 164.46 917.47 155.32 903.42 C 144.95 887.56 135.45 871.15 126.47 854.47 C 118.23 839.03 110.28 823.39 104.04 807.02 C 98.27 792.09 92.06 777.27 87.57 761.89 C 86.06 758.36 89.50 754.76 93.12 755.91 C 98.57 770.61 103.53 785.54 109.92 799.88 C 123.61 831.40 139.07 862.27 158.03 890.97 C 168.57 906.86 180.00 922.16 192.00 936.98 C 193.56 938.87 194.99 940.96 197.07 942.36 C 188.44 931.07 179.76 919.76 172.22 907.69 C 171.30 906.26 171.80 904.37 170.75 903.02 C 154.29 878.69 140.39 852.72 127.37 826.41 C 118.36 808.47 111.68 789.48 105.36 770.46 C 99.62 752.68 93.97 734.82 90.32 716.48 C 86.09 695.53 82.34 674.42 80.86 653.08 C 79.81 639.74 78.71 626.39 78.26 613.01 C 78.25 609.38 77.98 605.25 80.41 602.25 C 81.80 600.37 85.18 600.84 85.72 603.20 C 86.54 606.71 86.50 610.34 86.82 613.92 C 88.45 640.06 91.02 666.14 94.40 692.12 C 97.77 712.26 102.28 732.21 107.60 751.92 C 111.56 766.95 117.40 781.38 122.90 795.88 C 123.82 792.69 127.17 791.84 129.75 793.71 C 126.78 786.96 124.26 780.02 121.61 773.15 C 120.12 768.77 118.04 764.06 119.26 759.38 C 119.98 756.72 123.88 756.42 125.00 758.94 C 128.06 764.29 129.69 770.30 131.97 775.99 C 137.80 791.73 144.69 807.05 151.69 822.29 C 156.36 832.20 161.02 842.13 166.52 851.61 C 170.80 858.59 175.35 865.40 179.75 872.30 C 179.51 870.07 178.14 867.23 180.10 865.44 C 182.70 864.30 184.63 867.09 186.05 868.82 C 205.24 895.34 225.16 921.51 248.41 944.64 C 260.70 957.38 273.76 969.38 287.59 980.45 C 307.73 997.77 330.26 1012.00 352.75 1026.03 C 353.53 1023.78 355.57 1022.53 357.89 1023.46 C 399.67 1031.00 435.19 1056.93 476.40 1066.39 C 596.40 1094.69 727.34 1077.23 834.23 1015.17 C 896.25 979.23 948.88 927.86 988.10 867.99 C 1031.55 801.75 1059.05 724.90 1066.12 645.93 C 1070.25 600.19 1067.28 553.79 1057.01 509.02 C 1035.22 413.52 982.25 325.76 909.17 260.70 C 859.13 216.05 799.14 182.35 734.43 164.39 C 689.86 151.87 643.24 146.75 597.01 149.09 C 551.29 151.34 506.03 160.76 462.88 175.92 C 390.86 201.25 324.79 242.19 267.87 292.85 C 263.33 296.73 258.86 300.86 253.46 303.53 C 251.52 304.51 248.48 305.00 247.26 302.71 C 245.92 300.15 247.24 297.35 247.82 294.79 C 227.55 317.09 210.13 341.73 192.40 366.04 C 181.65 381.17 170.74 396.25 161.58 412.42 C 151.32 431.78 141.57 451.43 132.67 471.45 C 131.91 473.27 130.00 473.97 128.33 474.70 C 124.87 485.35 121.62 496.20 116.22 506.07 C 114.74 508.37 113.07 511.58 109.91 511.53 C 107.19 510.55 106.26 507.47 105.67 504.92 C 104.25 497.39 104.63 489.65 105.26 482.06 C 103.15 485.46 98.92 486.62 95.57 484.15 C 89.46 508.14 86.47 532.80 81.57 557.05 C 79.62 564.52 78.19 572.80 72.59 578.55 C 73.04 586.65 73.74 595.44 69.84 602.86 C 68.70 605.40 64.43 607.18 63.03 603.91 C 60.61 597.95 61.03 591.29 60.91 584.98 C 59.55 586.57 58.22 588.51 56.02 588.96 C 54.55 589.34 52.44 588.90 52.17 587.13 C 50.78 579.86 51.25 572.38 51.30 565.01 C 49.64 569.53 48.76 575.59 43.94 577.83 C 39.64 578.62 38.45 573.41 38.24 570.16 C 36.54 550.08 38.21 529.88 40.31 509.90 C 42.65 488.59 46.94 467.50 53.39 447.04 C 91.96 319.01 177.49 206.56 288.37 132.31 C 344.79 94.44 407.90 66.40 474.10 50.89 M 485.59 50.43 C 421.66 64.01 360.35 89.34 304.99 124.02 C 196.47 191.89 110.40 295.73 66.00 415.97 C 56.47 442.26 47.96 469.13 44.10 496.92 C 40.92 519.41 38.94 542.18 39.86 564.91 C 40.34 568.79 39.78 573.49 42.97 576.38 C 44.07 575.34 45.32 574.40 46.04 573.04 C 49.66 566.29 50.31 558.53 52.01 551.20 L 53.35 550.96 C 54.04 562.99 52.19 575.21 54.18 587.20 C 57.10 586.95 59.03 584.53 59.91 581.92 C 60.72 580.35 60.79 577.95 62.96 577.71 C 63.07 583.51 62.74 589.32 63.26 595.12 C 63.54 598.24 63.78 601.61 65.82 604.18 C 67.26 602.76 68.72 601.25 69.25 599.24 C 71.53 592.14 70.87 584.57 70.52 577.25 C 76.27 572.60 77.28 564.65 79.24 557.96 C 84.08 534.37 87.18 510.43 92.64 486.96 C 93.26 485.26 93.33 482.93 95.04 481.93 C 97.27 481.98 99.55 484.52 101.61 482.83 C 104.29 480.98 104.50 476.90 107.60 475.60 C 107.54 481.74 106.61 487.85 106.77 494.00 C 106.91 499.38 106.86 505.20 110.03 509.83 C 113.42 507.81 115.01 504.06 116.67 500.67 C 120.79 491.68 123.78 482.23 126.73 472.80 C 128.42 472.29 130.50 471.93 131.07 469.96 C 136.79 456.91 143.08 444.12 149.44 431.37 C 155.07 420.23 160.61 409.01 167.49 398.57 C 183.51 373.87 201.23 350.34 218.75 326.70 C 229.88 311.95 242.04 298.03 254.27 284.20 C 254.74 283.06 257.78 281.35 257.08 283.84 C 253.67 289.58 248.13 295.10 248.89 302.31 C 255.12 301.95 259.54 296.83 264.21 293.27 C 317.28 245.73 378.18 206.50 444.64 180.48 C 486.99 163.89 531.56 152.74 576.87 148.47 C 650.52 141.28 725.94 153.37 793.58 183.43 C 856.40 211.21 912.19 254.08 956.70 306.29 C 1018.08 378.24 1058.60 468.56 1067.88 562.93 C 1075.71 642.35 1061.33 723.37 1029.33 796.30 C 999.80 863.65 955.23 924.56 898.99 972.05 C 848.67 1014.73 788.67 1045.55 725.18 1063.21 C 643.19 1086.10 555.33 1087.71 472.60 1067.60 C 436.29 1058.42 404.37 1037.32 368.19 1027.78 C 363.76 1026.83 359.34 1025.24 354.76 1025.57 C 355.37 1026.82 355.99 1028.08 356.61 1029.34 C 355.13 1030.07 353.82 1029.13 352.60 1028.40 C 337.66 1019.14 322.82 1009.69 308.51 999.47 C 297.63 991.87 287.64 983.13 277.40 974.71 C 265.92 965.22 255.35 954.71 244.93 944.08 C 222.71 921.66 203.50 896.50 185.06 870.95 C 183.96 869.37 182.55 868.05 181.05 866.87 C 181.25 873.99 186.51 879.27 190.07 884.94 C 189.05 885.62 188.01 886.29 186.95 886.92 C 180.75 877.80 174.84 868.48 168.84 859.22 C 161.34 847.90 155.66 835.52 149.86 823.28 C 142.07 806.39 134.51 789.37 128.22 771.86 C 126.39 767.38 125.25 762.47 122.08 758.69 C 119.36 763.29 122.41 768.54 123.80 773.09 C 128.54 785.57 133.52 797.95 138.57 810.31 C 139.10 811.68 139.45 813.11 139.60 814.60 L 138.10 813.96 C 134.18 807.50 132.43 799.53 126.80 794.16 C 125.79 795.17 124.65 796.31 124.99 797.91 C 125.30 802.26 127.54 806.16 128.32 810.42 C 127.83 810.23 126.86 809.85 126.38 809.65 C 117.04 787.32 108.19 764.64 102.59 741.03 C 97.85 721.18 93.07 701.26 90.93 680.93 C 88.25 659.00 86.22 637.00 84.82 614.96 C 84.51 611.04 84.52 607.08 83.59 603.24 C 80.80 602.91 80.62 606.88 80.36 608.89 C 80.30 623.00 81.79 637.08 82.77 651.15 C 84.24 673.22 88.07 695.06 92.48 716.72 C 96.12 734.80 101.71 752.41 107.37 769.94 C 113.68 788.90 120.34 807.82 129.33 825.70 C 142.37 852.01 156.27 877.99 172.78 902.31 C 173.89 904.03 173.62 906.29 174.82 907.99 C 182.55 919.80 190.88 931.22 199.78 942.18 C 198.50 943.07 197.21 943.95 195.93 944.84 C 171.75 916.26 150.17 885.38 132.68 852.24 C 116.61 821.81 102.51 790.28 91.67 757.59 C 87.59 758.74 90.23 763.25 90.88 765.96 C 100.25 792.43 109.98 818.91 123.18 843.76 C 138.48 872.93 154.96 901.69 175.28 927.70 C 193.77 951.93 213.84 975.02 236.04 995.93 C 251.84 1010.97 268.88 1024.62 286.35 1037.66 C 309.56 1055.15 333.25 1072.17 358.71 1086.26 C 373.35 1094.41 388.60 1101.39 404.02 1107.92 C 405.53 1108.58 407.44 1109.11 407.32 1111.19 C 403.13 1110.19 399.25 1108.27 395.26 1106.70 C 376.39 1098.85 357.74 1090.34 340.00 1080.16 C 318.47 1067.37 297.78 1053.19 277.63 1038.34 C 254.77 1021.22 232.31 1003.26 213.17 981.96 C 200.06 967.69 187.37 953.03 175.22 937.93 C 156.93 915.01 139.41 891.22 126.09 865.00 C 116.69 847.07 107.69 828.90 99.57 810.35 C 92.66 793.93 85.42 777.58 80.50 760.43 C 75.77 744.10 72.05 727.49 68.48 710.86 C 64.72 689.00 61.57 667.04 59.00 645.00 C 58.26 640.04 58.15 634.91 56.44 630.15 C 55.25 630.66 53.71 630.89 53.17 632.27 C 51.15 636.58 52.22 641.49 52.41 646.06 C 55.06 676.09 58.09 706.33 66.44 735.40 C 72.03 755.72 78.22 775.88 85.13 795.79 C 90.05 809.78 95.24 823.72 101.92 836.98 C 118.08 870.06 136.08 902.39 158.03 932.01 C 175.55 955.49 195.17 977.36 215.95 997.99 C 236.03 1017.79 257.32 1036.49 280.59 1052.47 C 316.88 1077.67 355.32 1100.07 396.29 1116.76 C 413.30 1123.48 430.63 1129.44 448.13 1134.77 C 468.73 1141.03 489.87 1145.24 511.05 1148.98 C 528.54 1152.23 546.10 1155.26 563.88 1156.34 C 593.89 1158.48 624.03 1158.53 654.09 1157.32 C 673.61 1156.41 693.20 1155.31 712.44 1151.67 C 734.08 1147.70 755.41 1142.12 776.37 1135.46 C 806.15 1125.88 835.32 1114.32 863.40 1100.50 C 893.45 1085.34 921.60 1066.64 948.34 1046.26 C 972.33 1027.88 995.47 1008.20 1015.67 985.65 C 1028.77 971.01 1042.13 956.52 1053.66 940.57 C 1054.41 939.22 1056.23 937.93 1055.33 936.23 C 1052.86 936.23 1051.20 938.12 1049.85 939.92 C 1018.15 981.15 980.44 1017.64 938.81 1048.76 C 915.93 1065.94 891.18 1080.44 865.94 1093.85 C 834.31 1110.43 801.46 1125.04 767.05 1134.83 C 744.63 1141.26 721.88 1146.66 698.83 1150.29 C 697.46 1151.33 696.72 1148.20 698.19 1148.43 C 736.32 1141.54 773.92 1131.25 809.91 1116.82 C 829.87 1108.81 849.02 1098.96 867.98 1088.86 C 892.89 1075.51 917.14 1060.81 939.36 1043.31 C 966.19 1022.77 990.80 999.49 1014.08 975.04 C 1035.02 952.90 1052.43 927.80 1069.78 902.85 C 1080.72 886.40 1090.56 869.25 1099.78 851.79 C 1106.25 839.26 1112.73 826.65 1117.26 813.25 C 1121.43 801.45 1125.65 789.67 1129.75 777.85 C 1130.16 776.41 1130.89 775.08 1132.13 774.17 C 1132.83 776.45 1131.82 778.71 1131.24 780.90 C 1121.85 811.63 1109.92 841.77 1093.44 869.43 C 1083.62 886.69 1073.35 903.70 1063.57 920.97 L 1063.99 922.04 L 1065.07 922.25 C 1069.37 917.37 1072.53 911.58 1076.23 906.23 C 1104.02 863.27 1125.23 816.12 1139.49 767.00 C 1164.90 679.59 1168.49 586.20 1151.62 496.85 C 1135.74 412.59 1101.49 331.57 1050.34 262.63 C 1018.23 219.23 979.29 180.98 935.68 149.20 C 877.06 106.45 810.18 75.19 739.96 57.03 C 657.16 35.58 569.35 32.51 485.59 50.43 M 1024.55 966.58 C 1019.48 972.20 1014.44 977.85 1009.11 983.23 C 998.80 993.53 988.74 1004.17 977.53 1013.49 C 974.94 1017.19 970.53 1019.07 967.84 1022.53 C 967.41 1022.91 966.54 1023.65 966.11 1024.03 C 972.04 1020.46 976.42 1014.94 981.95 1010.83 C 987.29 1005.21 993.21 1000.16 998.67 994.65 C 1005.98 987.67 1012.62 980.01 1019.82 972.95 C 1023.50 967.91 1028.10 963.63 1031.88 958.68 C 1028.95 960.82 1027.00 963.96 1024.55 966.58 Z" />
<path fill="#000000" opacity="1.00" d=" M 280.13 400.97 C 287.12 397.40 295.50 396.13 303.07 398.55 C 310.36 400.84 316.41 406.06 320.77 412.23 C 321.63 413.28 322.03 414.60 322.26 415.93 C 313.52 414.18 303.02 413.58 295.95 419.96 C 289.88 427.14 289.97 437.33 290.54 446.20 C 289.38 448.08 287.44 449.38 286.05 451.11 C 279.11 459.17 274.57 469.02 271.28 479.07 C 264.63 500.20 263.44 523.52 270.37 544.73 C 273.85 555.04 280.13 565.54 290.65 569.81 C 292.96 555.11 296.00 540.49 300.52 526.30 C 290.95 524.30 280.56 521.57 273.84 513.95 C 278.09 512.09 282.07 509.61 285.35 506.32 C 293.52 498.39 299.96 488.91 305.98 479.30 C 313.04 481.18 319.94 483.62 326.76 486.24 C 331.52 487.98 335.52 491.36 338.49 495.42 C 342.03 500.56 345.37 506.50 344.71 512.98 C 344.36 521.38 344.60 531.65 337.33 537.39 C 336.20 539.05 335.89 541.09 335.48 543.02 C 333.25 555.98 335.57 569.07 336.22 582.06 C 336.83 594.36 337.31 606.69 336.83 618.99 C 335.47 619.75 334.54 618.00 333.54 617.40 C 325.24 609.85 316.79 602.47 308.36 595.08 C 302.69 600.04 296.54 604.54 289.67 607.68 C 278.82 612.97 266.09 614.87 254.36 611.60 C 252.52 611.01 250.34 610.48 249.38 608.62 C 246.70 604.06 244.69 599.15 242.30 594.44 C 237.21 583.35 232.36 572.00 229.99 559.98 C 226.42 541.87 225.71 523.22 227.54 504.87 C 229.95 480.77 238.00 457.47 249.07 436.04 C 256.58 422.31 265.93 408.45 280.13 400.97 M 263.61 417.64 C 252.32 431.57 244.80 448.11 238.83 464.90 C 228.51 492.95 226.32 523.64 230.85 553.09 C 233.67 572.82 242.62 590.92 251.56 608.50 C 258.95 611.28 267.09 611.89 274.84 610.43 C 287.55 608.14 298.82 601.00 308.22 592.40 C 317.36 599.92 326.08 607.95 334.91 615.83 C 335.08 601.17 334.65 586.50 333.43 571.90 C 332.51 561.81 331.74 551.53 333.67 541.51 C 334.23 539.36 334.60 536.91 336.37 535.39 C 342.53 530.24 342.18 521.33 342.65 514.03 C 343.45 507.79 340.51 501.99 337.08 497.02 C 334.43 493.32 330.91 490.11 326.63 488.43 C 320.17 485.88 313.60 483.60 306.92 481.69 C 301.96 489.64 296.56 497.36 290.24 504.30 C 286.53 508.37 282.38 512.15 277.38 514.56 C 284.51 520.85 294.14 522.81 303.15 524.82 C 297.98 540.21 295.11 556.22 292.15 572.12 C 288.07 571.70 284.61 569.10 281.53 566.57 C 272.62 558.62 268.13 546.98 265.75 535.54 C 261.50 514.29 263.89 491.87 271.70 471.71 C 275.55 462.16 280.66 452.81 288.36 445.82 C 287.95 436.71 288.00 426.44 294.03 418.98 C 300.35 412.38 310.41 412.17 318.90 413.12 C 313.20 405.20 304.14 398.90 294.04 399.37 C 281.53 399.82 271.20 408.38 263.61 417.64 Z" />
<path fill="#000000" opacity="1.00" d=" M 490.52 472.21 C 492.70 471.32 494.04 474.46 495.65 475.56 C 497.02 477.00 498.40 478.46 499.69 480.00 C 502.20 483.52 505.22 486.93 506.40 491.18 C 505.79 494.39 504.26 497.33 503.26 500.43 C 502.73 501.89 502.22 503.36 501.73 504.84 C 497.01 519.78 491.52 535.02 491.99 550.90 C 491.55 551.06 490.68 551.39 490.24 551.55 C 492.30 561.53 494.70 571.46 496.37 581.51 C 493.02 580.73 490.75 577.94 488.03 576.04 C 480.49 569.80 472.43 563.95 466.30 556.25 C 469.44 544.84 467.40 532.69 463.26 521.81 C 458.60 508.10 452.47 494.94 447.44 481.39 C 455.89 483.09 463.98 486.26 472.25 488.65 C 474.80 495.06 477.39 501.45 479.95 507.86 C 484.96 496.50 489.06 484.59 490.52 472.21 M 492.28 475.07 C 490.07 487.94 486.09 500.67 479.93 512.19 C 476.10 505.25 473.85 497.57 470.68 490.32 C 463.97 488.27 457.29 486.08 450.54 484.18 C 455.72 496.29 460.71 508.48 465.14 520.89 C 469.42 531.98 471.34 544.28 468.59 555.99 C 476.08 564.18 484.98 570.91 493.65 577.80 C 491.92 568.31 489.35 558.96 487.97 549.42 C 488.44 549.24 489.39 548.89 489.87 548.72 C 490.41 528.71 497.93 509.75 504.49 491.10 C 501.46 485.04 497.06 479.82 492.28 475.07 Z" />
<path fill="#000000" opacity="1.00" d=" M 424.00 488.90 C 425.26 485.50 426.01 481.87 427.99 478.78 C 430.74 483.49 431.77 488.95 434.08 493.85 C 437.52 496.50 441.46 498.44 445.06 500.88 C 449.41 528.74 455.78 556.32 464.43 583.17 C 465.43 584.94 462.84 584.78 462.10 583.96 C 455.21 580.07 448.48 575.86 441.52 572.09 C 441.04 572.25 440.09 572.58 439.61 572.74 C 433.87 568.14 425.98 568.70 419.06 568.14 C 416.58 578.47 414.10 588.79 411.63 599.12 C 410.94 601.86 410.59 604.75 409.00 607.17 C 408.23 605.76 407.56 604.32 407.13 602.79 C 403.34 589.87 399.48 576.97 395.64 564.07 C 394.29 571.67 391.79 579.10 388.02 585.85 C 385.29 590.61 381.73 595.29 376.60 597.62 C 371.50 600.00 365.02 598.89 361.07 594.85 C 355.82 589.59 353.57 582.21 351.85 575.17 C 345.91 549.49 350.12 523.02 347.81 497.02 C 350.76 497.34 352.16 500.20 353.72 502.36 C 359.31 511.38 363.23 521.30 367.16 531.12 C 368.41 533.93 367.43 537.06 367.53 540.01 C 367.32 550.57 367.45 561.53 371.50 571.46 C 373.06 568.91 373.33 565.87 373.90 563.00 C 377.19 543.11 376.47 522.82 379.60 502.91 C 380.70 496.59 381.36 490.04 383.92 484.10 C 384.24 484.26 384.89 484.58 385.21 484.74 C 389.61 504.21 393.55 523.81 398.79 543.09 C 399.11 544.61 399.89 546.20 399.34 547.79 C 398.18 552.91 396.65 557.97 396.07 563.21 C 407.39 539.24 415.24 513.86 424.00 488.90 M 427.90 483.89 C 423.79 495.97 419.65 508.04 415.41 520.08 C 410.15 534.97 404.85 549.90 397.84 564.08 C 401.46 576.42 405.12 588.74 408.83 601.05 C 412.14 589.64 414.26 577.89 417.46 566.45 C 425.70 565.33 434.13 567.73 442.08 569.93 C 448.65 573.60 455.02 577.61 461.64 581.18 C 453.40 555.36 447.44 528.84 443.13 502.10 C 439.65 499.82 435.94 497.91 432.60 495.44 C 430.57 491.80 429.81 487.60 427.90 483.89 M 374.76 569.09 C 373.92 571.06 373.99 574.76 371.31 574.89 C 368.43 570.81 367.29 565.82 366.48 560.99 C 365.19 552.38 365.24 543.64 365.68 534.97 C 365.86 532.84 364.83 530.92 364.11 529.00 C 360.14 519.37 356.23 509.60 350.29 500.98 C 351.44 521.95 349.18 543.05 351.96 563.93 C 352.97 571.34 354.37 578.81 357.42 585.68 C 359.18 589.53 361.59 593.42 365.43 595.49 C 369.48 597.67 374.66 597.01 378.29 594.27 C 383.78 590.20 387.04 583.92 389.60 577.74 C 393.19 569.23 394.04 559.95 396.43 551.10 C 396.80 549.12 397.74 547.09 397.14 545.07 C 392.27 526.81 388.22 508.35 384.30 489.87 C 377.54 515.77 380.40 543.01 374.76 569.09 Z" />
<path fill="#000000" opacity="1.00" d=" M 428.70 527.73 C 429.41 526.01 429.45 523.43 431.63 522.92 C 432.96 530.36 433.70 537.89 434.83 545.36 C 430.95 546.22 426.99 546.72 423.02 546.90 C 424.45 540.38 426.91 534.15 428.70 527.73 M 425.61 544.69 C 427.91 544.40 430.21 544.12 432.51 543.84 C 431.87 539.00 431.24 534.16 430.56 529.32 C 428.67 534.36 427.27 539.57 425.61 544.69 Z" />
</g>
<g id="#fc2503ff">
<path fill="#fc2503" opacity="1.00" d=" M 485.59 50.43 C 569.35 32.51 657.16 35.58 739.96 57.03 C 810.18 75.19 877.06 106.45 935.68 149.20 C 979.29 180.98 1018.23 219.23 1050.34 262.63 C 1101.49 331.57 1135.74 412.59 1151.62 496.85 C 1168.49 586.20 1164.90 679.59 1139.49 767.00 C 1125.23 816.12 1104.02 863.27 1076.23 906.23 C 1072.53 911.58 1069.37 917.37 1065.07 922.25 L 1063.99 922.04 L 1063.57 920.97 C 1073.35 903.70 1083.62 886.69 1093.44 869.43 C 1109.92 841.77 1121.85 811.63 1131.24 780.90 C 1131.82 778.71 1132.83 776.45 1132.13 774.17 C 1130.89 775.08 1130.16 776.41 1129.75 777.85 C 1125.65 789.67 1121.43 801.45 1117.26 813.25 C 1112.73 826.65 1106.25 839.26 1099.78 851.79 C 1090.56 869.25 1080.72 886.40 1069.78 902.85 C 1052.43 927.80 1035.02 952.90 1014.08 975.04 C 990.80 999.49 966.19 1022.77 939.36 1043.31 C 917.14 1060.81 892.89 1075.51 867.98 1088.86 C 849.02 1098.96 829.87 1108.81 809.91 1116.82 C 773.92 1131.25 736.32 1141.54 698.19 1148.43 C 696.72 1148.20 697.46 1151.33 698.83 1150.29 C 721.88 1146.66 744.63 1141.26 767.05 1134.83 C 801.46 1125.04 834.31 1110.43 865.94 1093.85 C 891.18 1080.44 915.93 1065.94 938.81 1048.76 C 980.44 1017.64 1018.15 981.15 1049.85 939.92 C 1051.20 938.12 1052.86 936.23 1055.33 936.23 C 1056.23 937.93 1054.41 939.22 1053.66 940.57 C 1042.13 956.52 1028.77 971.01 1015.67 985.65 C 995.47 1008.20 972.33 1027.88 948.34 1046.26 C 921.60 1066.64 893.45 1085.34 863.40 1100.50 C 835.32 1114.32 806.15 1125.88 776.37 1135.46 C 755.41 1142.12 734.08 1147.70 712.44 1151.67 C 693.20 1155.31 673.61 1156.41 654.09 1157.32 C 624.03 1158.53 593.89 1158.48 563.88 1156.34 C 546.10 1155.26 528.54 1152.23 511.05 1148.98 C 489.87 1145.24 468.73 1141.03 448.13 1134.77 C 430.63 1129.44 413.30 1123.48 396.29 1116.76 C 355.32 1100.07 316.88 1077.67 280.59 1052.47 C 257.32 1036.49 236.03 1017.79 215.95 997.99 C 195.17 977.36 175.55 955.49 158.03 932.01 C 136.08 902.39 118.08 870.06 101.92 836.98 C 95.24 823.72 90.05 809.78 85.13 795.79 C 78.22 775.88 72.03 755.72 66.44 735.40 C 58.09 706.33 55.06 676.09 52.41 646.06 C 52.22 641.49 51.15 636.58 53.17 632.27 C 53.71 630.89 55.25 630.66 56.44 630.15 C 58.15 634.91 58.26 640.04 59.00 645.00 C 61.57 667.04 64.72 689.00 68.48 710.86 C 72.05 727.49 75.77 744.10 80.50 760.43 C 85.42 777.58 92.66 793.93 99.57 810.35 C 107.69 828.90 116.69 847.07 126.09 865.00 C 139.41 891.22 156.93 915.01 175.22 937.93 C 187.37 953.03 200.06 967.69 213.17 981.96 C 232.31 1003.26 254.77 1021.22 277.63 1038.34 C 297.78 1053.19 318.47 1067.37 340.00 1080.16 C 357.74 1090.34 376.39 1098.85 395.26 1106.70 C 399.25 1108.27 403.13 1110.19 407.32 1111.19 C 407.44 1109.11 405.53 1108.58 404.02 1107.92 C 388.60 1101.39 373.35 1094.41 358.71 1086.26 C 333.25 1072.17 309.56 1055.15 286.35 1037.66 C 268.88 1024.62 251.84 1010.97 236.04 995.93 C 213.84 975.02 193.77 951.93 175.28 927.70 C 154.96 901.69 138.48 872.93 123.18 843.76 C 109.98 818.91 100.25 792.43 90.88 765.96 C 90.23 763.25 87.59 758.74 91.67 757.59 C 102.51 790.28 116.61 821.81 132.68 852.24 C 150.17 885.38 171.75 916.26 195.93 944.84 C 197.21 943.95 198.50 943.07 199.78 942.18 C 190.88 931.22 182.55 919.80 174.82 907.99 C 173.62 906.29 173.89 904.03 172.78 902.31 C 156.27 877.99 142.37 852.01 129.33 825.70 C 120.34 807.82 113.68 788.90 107.37 769.94 C 101.71 752.41 96.12 734.80 92.48 716.72 C 88.07 695.06 84.24 673.22 82.77 651.15 C 81.79 637.08 80.30 623.00 80.36 608.89 C 80.62 606.88 80.80 602.91 83.59 603.24 C 84.52 607.08 84.51 611.04 84.82 614.96 C 86.22 637.00 88.25 659.00 90.93 680.93 C 93.07 701.26 97.85 721.18 102.59 741.03 C 108.19 764.64 117.04 787.32 126.38 809.65 C 126.86 809.85 127.83 810.23 128.32 810.42 C 127.54 806.16 125.30 802.26 124.99 797.91 C 124.65 796.31 125.79 795.17 126.80 794.16 C 132.43 799.53 134.18 807.50 138.10 813.96 L 139.60 814.60 C 139.45 813.11 139.10 811.68 138.57 810.31 C 133.52 797.95 128.54 785.57 123.80 773.09 C 122.41 768.54 119.36 763.29 122.08 758.69 C 125.25 762.47 126.39 767.38 128.22 771.86 C 134.51 789.37 142.07 806.39 149.86 823.28 C 155.66 835.52 161.34 847.90 168.84 859.22 C 174.84 868.48 180.75 877.80 186.95 886.92 C 188.01 886.29 189.05 885.62 190.07 884.94 C 186.51 879.27 181.25 873.99 181.05 866.87 C 182.55 868.05 183.96 869.37 185.06 870.95 C 203.50 896.50 222.71 921.66 244.93 944.08 C 255.35 954.71 265.92 965.22 277.40 974.71 C 287.64 983.13 297.63 991.87 308.51 999.47 C 322.82 1009.69 337.66 1019.14 352.60 1028.40 C 353.82 1029.13 355.13 1030.07 356.61 1029.34 C 355.99 1028.08 355.37 1026.82 354.76 1025.57 C 359.34 1025.24 363.76 1026.83 368.19 1027.78 C 404.37 1037.32 436.29 1058.42 472.60 1067.60 C 555.33 1087.71 643.19 1086.10 725.18 1063.21 C 788.67 1045.55 848.67 1014.73 898.99 972.05 C 955.23 924.56 999.80 863.65 1029.33 796.30 C 1061.33 723.37 1075.71 642.35 1067.88 562.93 C 1058.60 468.56 1018.08 378.24 956.70 306.29 C 912.19 254.08 856.40 211.21 793.58 183.43 C 725.94 153.37 650.52 141.28 576.87 148.47 C 531.56 152.74 486.99 163.89 444.64 180.48 C 378.18 206.50 317.28 245.73 264.21 293.27 C 259.54 296.83 255.12 301.95 248.89 302.31 C 248.13 295.10 253.67 289.58 257.08 283.84 C 257.78 281.35 254.74 283.06 254.27 284.20 C 242.04 298.03 229.88 311.95 218.75 326.70 C 201.23 350.34 183.51 373.87 167.49 398.57 C 160.61 409.01 155.07 420.23 149.44 431.37 C 143.08 444.12 136.79 456.91 131.07 469.96 C 130.50 471.93 128.42 472.29 126.73 472.80 C 123.78 482.23 120.79 491.68 116.67 500.67 C 115.01 504.06 113.42 507.81 110.03 509.83 C 106.86 505.20 106.91 499.38 106.77 494.00 C 106.61 487.85 107.54 481.74 107.60 475.60 C 104.50 476.90 104.29 480.98 101.61 482.83 C 99.55 484.52 97.27 481.98 95.04 481.93 C 93.33 482.93 93.26 485.26 92.64 486.96 C 87.18 510.43 84.08 534.37 79.24 557.96 C 77.28 564.65 76.27 572.60 70.52 577.25 C 70.87 584.57 71.53 592.14 69.25 599.24 C 68.72 601.25 67.26 602.76 65.82 604.18 C 63.78 601.61 63.54 598.24 63.26 595.12 C 62.74 589.32 63.07 583.51 62.96 577.71 C 60.79 577.95 60.72 580.35 59.91 581.92 C 59.03 584.53 57.10 586.95 54.18 587.20 C 52.19 575.21 54.04 562.99 53.35 550.96 L 52.01 551.20 C 50.31 558.53 49.66 566.29 46.04 573.04 C 45.32 574.40 44.07 575.34 42.97 576.38 C 39.78 573.49 40.34 568.79 39.86 564.91 C 38.94 542.18 40.92 519.41 44.10 496.92 C 47.96 469.13 56.47 442.26 66.00 415.97 C 110.40 295.73 196.47 191.89 304.99 124.02 C 360.35 89.34 421.66 64.01 485.59 50.43 Z" />
<path fill="#fc2503" opacity="1.00" d=" M 263.61 417.64 C 271.20 408.38 281.53 399.82 294.04 399.37 C 304.14 398.90 313.20 405.20 318.90 413.12 C 310.41 412.17 300.35 412.38 294.03 418.98 C 288.00 426.44 287.95 436.71 288.36 445.82 C 280.66 452.81 275.55 462.16 271.70 471.71 C 263.89 491.87 261.50 514.29 265.75 535.54 C 268.13 546.98 272.62 558.62 281.53 566.57 C 284.61 569.10 288.07 571.70 292.15 572.12 C 295.11 556.22 297.98 540.21 303.15 524.82 C 294.14 522.81 284.51 520.85 277.38 514.56 C 282.38 512.15 286.53 508.37 290.24 504.30 C 296.56 497.36 301.96 489.64 306.92 481.69 C 313.60 483.60 320.17 485.88 326.63 488.43 C 330.91 490.11 334.43 493.32 337.08 497.02 C 340.51 501.99 343.45 507.79 342.65 514.03 C 342.18 521.33 342.53 530.24 336.37 535.39 C 334.60 536.91 334.23 539.36 333.67 541.51 C 331.74 551.53 332.51 561.81 333.43 571.90 C 334.65 586.50 335.08 601.17 334.91 615.83 C 326.08 607.95 317.36 599.92 308.22 592.40 C 298.82 601.00 287.55 608.14 274.84 610.43 C 267.09 611.89 258.95 611.28 251.56 608.50 C 242.62 590.92 233.67 572.82 230.85 553.09 C 226.32 523.64 228.51 492.95 238.83 464.90 C 244.80 448.11 252.32 431.57 263.61 417.64 Z" />
<path fill="#fc2503" opacity="1.00" d=" M 486.43 422.72 C 497.71 423.46 509.03 424.34 520.23 425.75 C 523.02 438.07 524.79 450.64 527.19 463.05 C 532.18 490.73 537.16 518.41 542.16 546.09 C 542.73 549.15 543.07 552.27 544.09 555.23 C 554.29 513.20 564.01 471.05 574.15 429.02 C 573.99 427.15 577.25 426.92 577.19 428.83 C 585.76 472.97 593.93 517.20 602.50 561.34 C 605.92 549.03 608.30 536.44 611.32 524.03 C 618.04 494.93 624.65 465.79 631.42 436.70 C 631.52 434.69 633.82 435.24 635.14 435.45 C 641.81 436.61 648.60 437.22 655.20 438.81 C 638.40 512.04 621.08 585.15 604.04 658.32 C 598.72 658.15 593.42 657.48 588.17 656.67 C 586.98 654.69 587.06 652.22 586.52 650.04 C 580.64 618.37 574.85 586.68 568.85 555.03 C 561.09 586.69 553.30 618.35 545.50 649.99 C 545.26 652.80 541.87 651.38 540.07 651.40 C 535.94 650.65 531.54 650.96 527.57 649.56 C 519.00 604.62 511.08 559.52 502.75 514.52 C 502.30 511.31 501.03 508.09 501.73 504.84 C 502.22 503.36 502.73 501.89 503.26 500.43 C 512.37 549.28 521.16 598.20 530.12 647.09 C 534.29 647.49 538.43 648.44 542.64 648.24 C 548.87 623.80 554.72 599.24 560.80 574.76 C 563.36 565.23 565.12 555.47 568.15 546.09 C 568.62 546.06 569.55 546.02 570.02 545.99 C 571.27 549.12 571.58 552.53 572.23 555.82 C 578.26 588.50 584.39 621.17 590.39 653.87 C 594.13 654.38 597.89 654.77 601.66 655.06 C 618.20 583.72 635.00 512.44 651.57 441.11 C 645.75 440.26 639.94 439.30 634.11 438.52 C 624.22 482.03 614.19 525.51 604.17 568.98 C 604.33 571.93 600.39 571.82 600.73 568.90 C 592.30 524.92 584.02 480.90 575.59 436.91 C 565.19 479.06 555.60 521.41 545.34 563.59 C 545.03 566.40 541.90 565.49 542.06 563.03 C 533.91 518.17 525.92 473.28 517.76 428.42 C 508.42 427.63 499.09 426.75 489.75 425.96 C 493.08 443.97 496.22 462.02 499.69 480.00 C 498.40 478.46 497.02 477.00 495.65 475.56 C 492.99 461.18 490.39 446.80 487.75 432.43 C 487.16 429.21 486.38 426.00 486.43 422.72 Z" />
<path fill="#fc2503" opacity="1.00" d=" M 755.23 434.03 C 764.00 430.73 772.31 426.07 781.36 423.60 C 781.74 438.40 780.95 453.22 780.87 468.03 C 780.39 496.69 779.88 525.34 779.42 553.99 C 813.31 541.39 847.18 528.73 881.06 516.10 C 903.12 508.03 925.00 499.42 947.18 491.68 C 948.64 497.02 949.13 502.55 950.12 507.99 C 951.39 516.36 953.03 524.69 954.04 533.10 C 896.43 549.93 838.67 566.23 781.02 582.93 C 831.55 616.81 882.39 650.24 933.04 683.94 C 938.50 687.66 944.99 690.85 947.76 697.25 C 951.32 704.07 949.16 711.85 948.70 719.09 C 948.32 722.18 948.49 725.73 946.25 728.19 C 943.45 731.56 938.01 732.18 934.58 729.42 C 882.49 690.34 830.48 651.14 778.40 612.06 C 778.15 630.06 777.75 648.06 777.52 666.06 C 777.44 667.45 777.53 668.90 777.08 670.25 C 775.11 670.80 773.04 670.32 771.04 670.27 C 762.45 669.50 753.80 669.24 745.23 668.22 C 745.62 643.02 746.57 617.83 747.15 592.63 C 745.38 593.13 743.61 593.64 741.85 594.15 C 740.32 612.25 735.85 630.56 725.91 645.97 C 720.01 655.01 711.65 663.19 700.96 666.04 C 691.75 668.61 681.68 666.26 673.94 660.86 C 663.15 653.46 655.84 642.06 650.64 630.26 C 641.85 609.80 638.94 587.11 640.44 564.99 C 641.80 547.10 646.16 529.03 655.69 513.65 C 661.60 504.22 670.07 495.62 681.06 492.55 C 690.10 489.95 700.02 492.07 707.75 497.26 C 718.24 504.19 725.51 514.97 730.74 526.21 C 735.09 535.61 737.97 545.64 739.90 555.80 C 742.60 557.59 745.30 559.39 748.01 561.17 C 749.17 519.73 750.21 478.28 751.42 436.84 C 751.38 434.94 753.97 434.85 755.23 434.03 M 754.51 437.75 C 752.37 513.66 750.37 589.58 748.29 665.50 C 756.99 666.11 765.69 666.77 774.39 667.35 C 775.69 587.44 777.12 507.54 778.45 427.64 C 770.46 430.98 762.49 434.39 754.51 437.75 M 668.26 503.32 C 658.37 512.33 652.41 524.80 648.55 537.41 C 641.87 560.08 641.58 584.45 646.58 607.49 C 650.22 623.37 656.49 639.19 667.66 651.33 C 674.62 658.89 684.48 664.77 695.08 663.91 C 706.19 663.08 715.42 655.41 721.65 646.65 C 732.27 631.60 736.94 613.19 738.66 595.07 C 726.62 598.48 714.61 601.95 702.59 605.43 C 701.46 605.57 699.37 606.74 699.00 604.99 C 698.65 598.02 698.82 591.02 698.96 584.04 C 712.16 579.08 725.39 574.21 738.58 569.24 C 736.63 549.54 731.28 529.60 719.67 513.31 C 713.43 504.71 704.80 496.92 694.04 494.98 C 684.69 493.15 675.09 497.02 668.26 503.32 M 934.59 499.52 C 888.44 516.71 842.28 533.94 796.12 551.12 C 790.74 553.65 784.69 554.61 779.60 557.71 C 778.57 565.06 779.12 572.62 779.13 580.04 C 811.84 570.91 844.45 561.34 877.13 552.07 C 901.55 544.76 926.21 538.23 950.59 530.80 C 948.67 519.21 947.17 507.54 944.85 496.02 C 941.32 496.86 937.95 498.20 934.59 499.52 M 702.21 586.22 C 701.74 591.48 701.92 596.76 702.07 602.03 C 717.12 598.40 731.83 593.43 746.85 589.61 C 747.22 582.83 748.10 576.05 747.78 569.26 C 732.53 574.75 717.37 580.49 702.21 586.22 M 779.05 586.00 C 778.78 592.01 778.91 598.04 778.78 604.07 C 778.90 605.93 778.46 608.41 780.36 609.57 C 799.81 624.11 819.28 638.66 838.58 653.41 C 871.32 678.00 904.09 702.58 936.84 727.15 C 939.63 729.23 944.10 727.28 944.73 723.93 C 945.65 720.01 945.84 715.96 946.24 711.97 C 946.60 708.36 947.19 704.61 945.86 701.13 C 944.56 696.35 940.87 692.68 936.77 690.15 C 890.31 659.30 843.71 628.68 797.40 597.60 C 791.30 593.71 785.45 589.38 779.05 586.00 Z" />
<path fill="#fc2503" opacity="1.00" d=" M 492.28 475.07 C 497.06 479.82 501.46 485.04 504.49 491.10 C 497.93 509.75 490.41 528.71 489.87 548.72 C 489.39 548.89 488.44 549.24 487.97 549.42 C 489.35 558.96 491.92 568.31 493.65 577.80 C 484.98 570.91 476.08 564.18 468.59 555.99 C 471.34 544.28 469.42 531.98 465.14 520.89 C 460.71 508.48 455.72 496.29 450.54 484.18 C 457.29 486.08 463.97 488.27 470.68 490.32 C 473.85 497.57 476.10 505.25 479.93 512.19 C 486.09 500.67 490.07 487.94 492.28 475.07 Z" />
<path fill="#fc2503" opacity="1.00" d=" M 427.90 483.89 C 429.81 487.60 430.57 491.80 432.60 495.44 C 435.94 497.91 439.65 499.82 443.13 502.10 C 447.44 528.84 453.40 555.36 461.64 581.18 C 455.02 577.61 448.65 573.60 442.08 569.93 C 434.13 567.73 425.70 565.33 417.46 566.45 C 414.26 577.89 412.14 589.64 408.83 601.05 C 405.12 588.74 401.46 576.42 397.84 564.08 C 404.85 549.90 410.15 534.97 415.41 520.08 C 419.65 508.04 423.79 495.97 427.90 483.89 M 428.70 527.73 C 426.91 534.15 424.45 540.38 423.02 546.90 C 426.99 546.72 430.95 546.22 434.83 545.36 C 433.70 537.89 432.96 530.36 431.63 522.92 C 429.45 523.43 429.41 526.01 428.70 527.73 Z" />
<path fill="#fc2503" opacity="1.00" d=" M 374.76 569.09 C 380.40 543.01 377.54 515.77 384.30 489.87 C 388.22 508.35 392.27 526.81 397.14 545.07 C 397.74 547.09 396.80 549.12 396.43 551.10 C 394.04 559.95 393.19 569.23 389.60 577.74 C 387.04 583.92 383.78 590.20 378.29 594.27 C 374.66 597.01 369.48 597.67 365.43 595.49 C 361.59 593.42 359.18 589.53 357.42 585.68 C 354.37 578.81 352.97 571.34 351.96 563.93 C 349.18 543.05 351.44 521.95 350.29 500.98 C 356.23 509.60 360.14 519.37 364.11 529.00 C 364.83 530.92 365.86 532.84 365.68 534.97 C 365.24 543.64 365.19 552.38 366.48 560.99 C 367.29 565.82 368.43 570.81 371.31 574.89 C 373.99 574.76 373.92 571.06 374.76 569.09 Z" />
<path fill="#fc2503" opacity="1.00" d=" M 425.61 544.69 C 427.27 539.57 428.67 534.36 430.56 529.32 C 431.24 534.16 431.87 539.00 432.51 543.84 C 430.21 544.12 427.91 544.40 425.61 544.69 Z" />
</g>
<g id="#1e2728ff">
<path fill="#1e2728" opacity="1.00" d=" M 489.75 425.96 C 499.09 426.75 508.42 427.63 517.76 428.42 C 525.92 473.28 533.91 518.17 542.06 563.03 C 541.90 565.49 545.03 566.40 545.34 563.59 C 555.60 521.41 565.19 479.06 575.59 436.91 C 584.02 480.90 592.30 524.92 600.73 568.90 C 600.39 571.82 604.33 571.93 604.17 568.98 C 614.19 525.51 624.22 482.03 634.11 438.52 C 639.94 439.30 645.75 440.26 651.57 441.11 C 635.00 512.44 618.20 583.72 601.66 655.06 C 597.89 654.77 594.13 654.38 590.39 653.87 C 584.39 621.17 578.26 588.50 572.23 555.82 C 571.58 552.53 571.27 549.12 570.02 545.99 C 569.55 546.02 568.62 546.06 568.15 546.09 C 565.12 555.47 563.36 565.23 560.80 574.76 C 554.72 599.24 548.87 623.80 542.64 648.24 C 538.43 648.44 534.29 647.49 530.12 647.09 C 521.16 598.20 512.37 549.28 503.26 500.43 C 504.26 497.33 505.79 494.39 506.40 491.18 C 505.22 486.93 502.20 483.52 499.69 480.00 C 496.22 462.02 493.08 443.97 489.75 425.96 Z" />
<path fill="#1e2728" opacity="1.00" d=" M 754.51 437.75 C 762.49 434.39 770.46 430.98 778.45 427.64 C 777.12 507.54 775.69 587.44 774.39 667.35 C 765.69 666.77 756.99 666.11 748.29 665.50 C 750.37 589.58 752.37 513.66 754.51 437.75 Z" />
<path fill="#1e2728" opacity="1.00" d=" M 668.26 503.32 C 675.09 497.02 684.69 493.15 694.04 494.98 C 704.80 496.92 713.43 504.71 719.67 513.31 C 731.28 529.60 736.63 549.54 738.58 569.24 C 725.39 574.21 712.16 579.08 698.96 584.04 C 698.82 591.02 698.65 598.02 699.00 604.99 C 699.37 606.74 701.46 605.57 702.59 605.43 C 714.61 601.95 726.62 598.48 738.66 595.07 C 736.94 613.19 732.27 631.60 721.65 646.65 C 715.42 655.41 706.19 663.08 695.08 663.91 C 684.48 664.77 674.62 658.89 667.66 651.33 C 656.49 639.19 650.22 623.37 646.58 607.49 C 641.58 584.45 641.87 560.08 648.55 537.41 C 652.41 524.80 658.37 512.33 668.26 503.32 Z" />
<path fill="#1e2728" opacity="1.00" d=" M 192.97 581.20 C 194.39 580.77 195.79 581.44 197.16 581.74 C 212.20 586.01 227.23 590.31 242.30 594.44 C 244.69 599.15 246.70 604.06 249.38 608.62 C 250.34 610.48 252.52 611.01 254.36 611.60 C 266.09 614.87 278.82 612.97 289.67 607.68 C 330.33 619.54 371.20 630.72 411.94 642.32 C 511.81 670.47 611.67 698.62 711.54 726.78 C 714.91 727.86 718.59 728.29 721.61 730.26 C 724.36 732.57 726.38 735.62 728.60 738.42 C 731.29 741.90 731.29 747.03 728.76 750.60 C 713.37 774.05 693.58 794.62 670.66 810.79 C 645.01 828.97 615.63 841.60 585.09 848.87 C 547.77 857.76 508.79 858.87 470.83 853.70 C 408.75 845.17 348.63 819.87 300.69 779.27 C 252.27 738.95 216.07 683.83 199.78 622.86 C 196.55 610.74 194.05 598.42 192.76 585.94 C 192.72 584.37 192.20 582.66 192.97 581.20 M 214.71 615.64 C 223.94 642.97 237.17 668.88 252.92 693.02 C 271.78 721.73 294.83 747.79 321.70 769.25 C 345.05 787.95 371.29 803.04 399.23 813.74 C 387.37 805.41 375.66 796.82 364.77 787.23 C 315.91 744.91 278.37 689.51 257.95 628.12 C 243.54 623.96 229.13 619.79 214.71 615.64 Z" />
<path fill="#1e2728" opacity="1.00" d=" M 732.48 780.57 C 740.74 767.83 746.26 753.57 750.81 739.15 C 813.96 755.30 876.96 772.06 940.06 788.40 C 942.90 789.12 945.88 789.85 948.24 791.71 C 952.91 795.14 955.23 801.42 953.87 807.08 C 950.88 821.31 947.97 835.61 946.77 850.13 C 946.63 854.75 941.18 857.77 937.09 855.76 C 870.07 832.56 803.07 809.30 736.05 786.14 C 734.39 785.41 732.34 785.23 731.08 783.87 C 730.90 782.58 731.94 781.62 732.48 780.57 Z" />
</g>
<g id="#fb1814ff">
<path fill="#fb1814" opacity="1.00" d=" M 934.59 499.52 C 937.95 498.20 941.32 496.86 944.85 496.02 C 947.17 507.54 948.67 519.21 950.59 530.80 C 926.21 538.23 901.55 544.76 877.13 552.07 C 844.45 561.34 811.84 570.91 779.13 580.04 C 779.12 572.62 778.57 565.06 779.60 557.71 C 784.69 554.61 790.74 553.65 796.12 551.12 C 842.28 533.94 888.44 516.71 934.59 499.52 Z" />
<path fill="#fb1814" opacity="1.00" d=" M 702.21 586.22 C 717.37 580.49 732.53 574.75 747.78 569.26 C 748.10 576.05 747.22 582.83 746.85 589.61 C 731.83 593.43 717.12 598.40 702.07 602.03 C 701.92 596.76 701.74 591.48 702.21 586.22 Z" />
<path fill="#fb1814" opacity="1.00" d=" M 779.05 586.00 C 785.45 589.38 791.30 593.71 797.40 597.60 C 843.71 628.68 890.31 659.30 936.77 690.15 C 940.87 692.68 944.56 696.35 945.86 701.13 C 947.19 704.61 946.60 708.36 946.24 711.97 C 945.84 715.96 945.65 720.01 944.73 723.93 C 944.10 727.28 939.63 729.23 936.84 727.15 C 904.09 702.58 871.32 678.00 838.58 653.41 C 819.28 638.66 799.81 624.11 780.36 609.57 C 778.46 608.41 778.90 605.93 778.78 604.07 C 778.91 598.04 778.78 592.01 779.05 586.00 Z" />
</g>
</svg>
