<?xml version="1.0" encoding="UTF-8" ?>
<!DOCTYPE svg PUBLIC "-//W3C//DTD SVG 1.1//EN" "http://www.w3.org/Graphics/SVG/1.1/DTD/svg11.dtd">
<svg width="899pt" height="899pt" viewBox="0 0 899 899" version="1.1" xmlns="http://www.w3.org/2000/svg">
<g id="#ffffffff">
<path fill="#ffffff" opacity="1.00" d=" M 455.36 577.16 C 455.95 576.10 456.54 575.04 457.14 573.99 C 457.42 574.47 457.98 575.42 458.25 575.89 C 460.92 580.96 464.54 585.89 464.86 591.81 C 464.89 597.64 462.58 603.28 458.83 607.69 C 456.08 610.52 452.20 613.18 448.06 612.05 C 444.57 611.25 443.86 607.30 442.29 604.64 L 441.83 603.95 C 441.25 603.69 440.08 603.16 439.50 602.89 C 441.32 600.25 443.09 597.58 444.81 594.87 C 446.80 591.76 448.72 588.61 450.61 585.43 C 452.23 582.69 453.81 579.94 455.36 577.16 Z" />
</g>
<g id="#000000ff">
<path fill="#000000" opacity="1.00" d=" M 178.05 90.16 C 181.53 89.26 184.78 91.67 187.62 93.38 C 196.19 99.14 200.33 109.87 199.59 119.97 C 199.01 134.62 188.51 146.54 187.02 160.96 C 186.22 169.56 192.97 176.08 199.30 180.75 C 202.25 182.55 201.94 187.43 198.82 188.87 C 195.86 190.43 193.00 188.03 190.52 186.64 C 182.13 181.64 175.30 173.00 174.89 162.93 C 174.12 149.94 181.39 138.59 185.75 126.86 C 188.62 119.48 189.03 110.39 184.22 103.72 C 182.37 100.92 179.54 99.08 176.84 97.22 C 174.39 95.40 175.28 91.18 178.05 90.16 Z" />
<path fill="#000000" opacity="1.00" d=" M 220.13 90.14 C 223.10 89.29 225.92 91.23 228.42 92.59 C 237.42 97.98 242.17 108.72 241.64 119.01 C 241.44 133.69 231.15 145.65 229.13 159.90 C 227.97 167.19 232.57 173.77 238.01 178.09 C 239.90 179.91 242.92 181.08 243.35 183.96 C 244.03 187.34 240.23 190.49 237.06 189.08 C 227.66 184.73 219.05 176.67 217.28 166.07 C 215.33 155.00 220.23 144.41 224.59 134.54 C 227.46 128.07 230.50 121.25 229.81 113.98 C 229.54 107.17 225.33 100.98 219.46 97.68 C 216.40 96.14 216.98 91.21 220.13 90.14 Z" />
<path fill="#000000" opacity="1.00" d=" M 280.31 250.20 C 338.24 208.25 396.26 166.42 454.22 124.50 C 594.89 226.22 735.62 327.87 876.24 429.67 C 867.05 429.53 857.82 429.92 848.66 429.49 C 722.52 338.67 596.52 247.62 470.44 156.71 C 465.09 152.80 459.65 149.03 454.37 145.03 C 396.26 186.73 338.37 228.75 280.37 270.61 C 280.28 263.80 280.37 257.00 280.31 250.20 Z" />
<path fill="#000000" opacity="1.00" d=" M 201.42 198.59 C 204.22 197.21 207.67 198.08 209.84 200.21 C 213.52 203.67 215.35 208.56 216.87 213.26 C 220.10 224.19 221.09 235.67 221.00 247.03 C 220.74 258.54 219.56 270.24 215.47 281.08 C 213.60 285.56 211.09 290.84 206.00 292.24 C 201.51 293.32 197.80 289.62 195.78 286.06 C 191.44 278.37 189.86 269.49 188.74 260.84 C 187.03 245.18 187.57 229.07 191.81 213.84 C 193.67 208.16 195.83 201.60 201.42 198.59 M 202.41 203.28 C 199.55 205.74 198.17 209.40 196.88 212.84 C 193.42 223.17 192.45 234.16 192.36 245.00 C 192.43 256.16 193.41 267.49 197.09 278.09 C 198.39 281.45 199.81 285.08 202.78 287.33 C 204.55 288.67 206.71 287.20 207.81 285.71 C 211.28 281.14 212.77 275.43 214.07 269.93 C 216.98 255.89 217.15 241.32 215.27 227.12 C 214.08 219.68 212.59 211.99 208.49 205.53 C 207.27 203.58 204.61 201.21 202.41 203.28 Z" />
<path fill="#000000" opacity="1.00" d=" M 230.60 200.94 C 230.12 199.17 231.95 197.56 233.62 198.22 C 234.90 198.71 235.09 200.23 235.59 201.34 C 244.27 225.98 252.63 250.75 261.62 275.28 C 261.79 250.12 261.52 224.96 261.75 199.81 C 262.14 196.94 266.95 198.05 266.15 200.92 C 266.16 230.32 266.21 259.72 266.13 289.12 C 266.55 291.62 262.23 292.45 261.79 289.90 C 252.88 264.57 243.87 239.26 235.24 213.83 C 234.85 238.92 235.23 264.02 235.05 289.12 C 235.45 292.23 229.95 292.15 230.60 288.95 C 230.57 259.61 230.58 230.27 230.60 200.94 Z" />
<path fill="#000000" opacity="1.00" d=" M 173.52 199.68 C 176.92 197.93 181.09 197.90 184.56 199.48 C 186.33 200.09 186.45 202.97 184.67 203.66 C 183.40 204.12 182.15 203.26 180.89 203.11 C 178.23 202.34 175.35 203.43 173.41 205.29 C 170.06 208.45 168.43 212.91 167.14 217.22 C 163.43 230.11 162.66 243.76 164.16 257.06 C 165.09 264.80 166.75 272.60 170.35 279.57 C 171.83 282.28 173.74 285.11 176.76 286.25 C 179.13 287.21 181.61 286.15 183.99 285.80 C 186.11 285.92 186.70 289.10 184.85 290.03 C 181.17 291.56 176.71 291.70 173.22 289.60 C 169.73 287.56 167.45 284.03 165.70 280.48 C 161.63 271.91 159.96 262.41 159.24 253.01 C 158.31 239.71 159.44 226.13 163.57 213.40 C 165.40 208.02 168.26 202.40 173.52 199.68 Z" />
<path fill="#000000" opacity="1.00" d=" M 208.82 301.80 C 210.48 300.13 212.93 300.76 215.03 300.65 C 222.81 300.77 230.59 300.49 238.37 300.80 C 179.55 343.57 120.46 385.96 61.58 428.63 C 60.62 429.55 59.31 429.76 58.03 429.68 C 49.37 429.64 40.72 429.69 32.06 429.65 C 90.88 386.90 149.94 344.47 208.82 301.80 Z" />
<path fill="#000000" opacity="1.00" d=" M 139.99 429.40 C 144.60 429.43 149.21 429.41 153.83 429.41 C 153.84 510.44 153.83 591.47 153.84 672.49 C 354.08 672.50 554.33 672.49 754.58 672.50 C 754.59 591.47 754.59 510.45 754.58 429.43 C 759.24 429.40 763.91 429.42 768.58 429.42 C 768.58 515.11 768.59 600.81 768.58 686.50 C 559.05 686.51 349.52 686.48 139.98 686.52 C 139.87 600.81 139.87 515.10 139.99 429.40 Z" />
<path fill="#000000" opacity="1.00" d=" M 465.04 456.11 C 464.94 453.68 468.77 453.13 469.21 455.54 C 473.04 474.06 476.78 492.61 480.50 511.15 C 481.52 513.61 477.31 515.07 476.55 512.60 C 474.66 504.19 473.09 495.71 471.34 487.28 C 468.61 487.24 465.88 487.24 463.15 487.25 C 461.54 495.13 460.00 503.03 458.44 510.93 C 458.13 511.93 458.11 513.35 456.90 513.72 C 455.35 514.58 453.28 512.68 454.07 511.06 C 457.66 492.73 461.35 474.42 465.04 456.11 M 463.99 483.00 C 466.14 483.00 468.29 482.99 470.46 483.00 C 469.41 477.65 468.24 472.33 467.27 466.97 C 466.06 472.29 465.09 477.66 463.99 483.00 Z" />
</g>
<g id="#060200ff">
<path fill="#060200" opacity="1.00" d=" M 303.47 284.06 C 317.78 279.20 332.92 276.55 348.06 276.96 C 356.65 277.31 365.46 279.24 372.64 284.18 C 369.51 285.02 366.26 285.19 363.03 285.09 C 348.04 284.77 333.03 285.10 318.03 284.97 C 313.17 284.91 308.18 285.59 303.47 284.06 Z" />
</g>
<g id="#130800ff">
<path fill="#130800" opacity="1.00" d=" M 285.21 291.21 C 291.13 288.43 297.23 286.03 303.47 284.06 C 308.18 285.59 313.17 284.91 318.03 284.97 C 333.03 285.10 348.04 284.77 363.03 285.09 C 366.26 285.19 369.51 285.02 372.64 284.18 L 372.74 284.15 C 376.29 286.68 379.42 289.81 381.69 293.55 C 375.40 292.91 369.09 292.96 362.79 293.17 C 358.34 288.26 351.42 286.84 345.06 287.41 C 335.68 287.51 326.54 289.88 317.63 292.42 C 307.70 291.57 297.69 292.05 287.74 292.20 C 286.87 291.93 286.03 291.60 285.21 291.21 Z" />
</g>
<g id="#200d00ff">
<path fill="#200d00" opacity="1.00" d=" M 271.37 298.29 C 275.88 295.73 280.46 293.28 285.21 291.21 C 286.03 291.60 286.87 291.93 287.74 292.20 C 297.69 292.05 307.70 291.57 317.63 292.42 L 318.13 292.47 C 312.81 294.65 307.50 296.90 302.40 299.57 C 292.12 297.90 281.63 300.06 271.37 298.29 Z" />
</g>
<g id="#240f00ff">
<path fill="#240f00" opacity="1.00" d=" M 362.79 293.17 C 369.09 292.96 375.40 292.91 381.69 293.55 L 381.84 293.57 C 383.29 296.26 384.56 299.05 385.50 301.96 C 378.95 302.02 372.39 301.97 365.84 302.01 C 365.47 298.87 364.50 295.84 362.79 293.17 Z" />
</g>
<g id="#2d1200ff">
<path fill="#2d1200" opacity="1.00" d=" M 260.23 305.14 C 263.85 302.72 267.55 300.40 271.37 298.29 C 281.63 300.06 292.12 297.90 302.40 299.57 C 298.58 301.73 294.81 303.97 291.18 306.44 C 283.14 306.08 275.09 306.26 267.04 306.34 C 264.70 306.42 262.43 305.85 260.23 305.14 Z" />
<path fill="#2d1200" opacity="1.00" d=" M 301.45 633.36 C 307.80 630.67 314.01 627.61 319.74 623.76 C 325.67 624.43 331.67 623.69 337.57 624.70 C 333.80 628.27 329.73 631.51 325.53 634.56 C 317.70 633.38 309.73 634.96 301.93 633.43 L 301.45 633.36 Z" />
</g>
<g id="#341500ff">
<path fill="#341500" opacity="1.00" d=" M 365.84 302.01 C 372.39 301.97 378.95 302.02 385.50 301.96 C 386.14 304.70 386.63 307.47 386.80 310.29 C 379.61 309.75 372.12 311.50 365.16 309.19 C 365.55 306.82 365.79 304.42 365.84 302.01 Z" />
</g>
<g id="#441b00ff">
<path fill="#441b00" opacity="1.00" d=" M 237.44 323.28 C 244.47 316.57 252.14 310.53 260.23 305.14 C 262.43 305.85 264.70 306.42 267.04 306.34 C 275.09 306.26 283.14 306.08 291.18 306.44 C 283.66 311.72 276.57 317.63 270.27 324.33 C 259.37 322.98 248.25 325.31 237.44 323.28 Z" />
</g>
<g id="#4d1f00ff">
<path fill="#4d1f00" opacity="1.00" d=" M 365.05 309.16 L 365.16 309.19 C 372.12 311.50 379.61 309.75 386.80 310.29 L 386.94 310.29 C 387.56 317.43 385.49 324.44 382.44 330.82 C 373.19 328.32 363.46 331.28 354.17 329.07 C 358.51 322.88 362.78 316.44 365.05 309.16 Z" />
</g>
<g id="#411a00ff">
<path fill="#411a00" opacity="1.00" d=" M 500.27 316.37 C 500.40 313.53 500.46 309.53 503.97 308.85 C 510.40 307.58 516.33 312.31 519.93 317.21 C 513.38 317.13 506.74 317.47 500.27 316.37 Z" />
</g>
<g id="#4f2000ff">
<path fill="#4f2000" opacity="1.00" d=" M 500.20 316.36 L 500.27 316.37 C 506.74 317.47 513.38 317.13 519.93 317.21 L 520.05 317.20 C 521.44 319.54 521.95 322.24 521.43 324.93 C 513.62 324.99 505.80 325.19 498.01 324.71 L 497.73 324.13 C 498.33 321.47 499.50 318.99 500.20 316.36 Z" />
</g>
<g id="#632800ff">
<path fill="#632800" opacity="1.00" d=" M 237.33 323.26 L 237.44 323.28 C 248.25 325.31 259.37 322.98 270.27 324.33 C 264.70 330.25 259.69 336.66 254.77 343.12 L 253.97 343.27 C 242.92 341.96 231.76 343.35 220.67 342.54 C 225.34 335.41 231.21 329.15 237.33 323.26 Z" />
</g>
<g id="#5c2400ff">
<path fill="#5c2400" opacity="1.00" d=" M 497.29 324.90 L 498.01 324.71 C 505.80 325.19 513.62 324.99 521.43 324.93 C 520.50 327.66 519.96 330.56 518.69 333.17 L 517.98 333.36 C 510.04 332.60 501.85 334.52 494.12 332.18 C 495.24 329.78 496.00 327.21 497.29 324.90 Z" />
</g>
<g id="#6a2a00ff">
<path fill="#6a2a00" opacity="1.00" d=" M 341.43 344.34 C 345.88 339.42 350.18 334.37 354.17 329.07 C 363.46 331.28 373.19 328.32 382.44 330.82 C 380.19 335.62 377.48 340.19 374.57 344.61 C 363.59 343.21 352.45 343.81 341.43 344.34 Z" />
</g>
<g id="#732e00ff">
<path fill="#732e00" opacity="1.00" d=" M 485.37 350.61 C 488.36 344.50 491.24 338.33 494.12 332.18 C 501.85 334.52 510.04 332.60 517.98 333.36 L 518.27 333.91 C 516.64 339.84 513.79 345.37 511.46 351.06 C 502.96 350.49 494.45 351.07 485.95 350.64 L 485.37 350.61 Z" />
<path fill="#732e00" opacity="1.00" d=" M 487.32 597.20 C 489.17 595.29 490.89 593.27 492.57 591.21 C 500.80 593.53 509.43 591.32 517.79 592.69 C 515.72 597.32 513.78 602.02 512.16 606.83 C 505.51 606.66 498.86 606.73 492.21 606.83 C 492.23 606.15 492.25 604.78 492.27 604.10 C 490.78 605.51 489.30 606.92 487.78 608.30 C 478.20 606.93 468.48 607.99 458.83 607.69 C 462.58 603.28 464.89 597.64 464.86 591.81 C 472.43 591.99 479.99 592.05 487.56 591.84 C 487.46 593.62 487.38 595.41 487.32 597.20 Z" />
<path fill="#732e00" opacity="1.00" d=" M 343.48 602.60 C 346.29 599.36 349.11 596.13 351.76 592.76 C 361.92 593.17 372.09 592.58 382.26 593.08 C 380.46 597.83 379.11 602.74 378.55 607.80 C 371.98 607.54 365.41 607.65 358.85 607.73 C 358.42 606.19 358.05 604.65 357.72 603.10 C 357.51 603.25 357.09 603.54 356.88 603.68 C 352.42 603.22 347.93 603.14 343.48 602.60 Z" />
<path fill="#732e00" opacity="1.00" d=" M 426.84 604.96 C 429.62 601.34 432.24 597.59 434.71 593.75 C 438.10 593.84 441.48 594.17 444.81 594.87 C 443.09 597.58 441.32 600.25 439.50 602.89 C 440.08 603.16 441.25 603.69 441.83 603.95 L 442.29 604.64 C 440.69 604.97 439.10 605.33 437.49 605.58 L 437.45 605.58 C 433.94 605.03 430.39 604.73 426.84 604.96 Z" />
</g>
<g id="#7f3300ff">
<path fill="#7f3300" opacity="1.00" d=" M 220.41 342.52 L 220.67 342.54 C 231.76 343.35 242.92 341.96 253.97 343.27 L 254.29 343.79 C 252.11 347.92 249.25 351.76 247.12 355.98 C 235.88 356.06 224.62 356.29 213.39 355.75 C 215.08 351.02 217.84 346.80 220.41 342.52 Z" />
</g>
<g id="#7d3200ff">
<path fill="#7d3200" opacity="1.00" d=" M 341.32 344.35 L 341.43 344.34 C 352.45 343.81 363.59 343.21 374.57 344.61 C 372.85 347.19 371.04 349.71 369.18 352.19 C 357.60 351.76 345.96 352.80 334.43 351.37 C 336.75 349.06 339.05 346.72 341.32 344.35 Z" />
</g>
<g id="#8a3700ff">
<path fill="#8a3700" opacity="1.00" d=" M 652.28 346.23 C 655.82 342.34 661.54 344.02 665.99 344.97 C 669.92 346.09 675.07 348.23 675.35 352.97 C 675.09 357.87 671.73 361.85 669.53 366.05 C 661.04 365.63 652.53 365.71 644.03 365.87 C 645.04 358.80 647.22 351.49 652.28 346.23 Z" />
</g>
<g id="#8e3900ff">
<path fill="#8e3900" opacity="1.00" d=" M 334.43 351.37 C 345.96 352.80 357.60 351.76 369.18 352.19 C 365.76 356.74 362.08 361.10 358.25 365.31 C 345.37 364.63 332.42 366.01 319.59 364.41 C 324.80 360.37 329.66 355.92 334.43 351.37 Z" />
<path fill="#8e3900" opacity="1.00" d=" M 408.08 581.11 C 415.07 581.54 422.28 579.91 429.07 582.17 L 429.28 582.86 C 428.15 586.48 426.18 589.77 424.74 593.28 L 424.61 593.27 C 417.23 592.43 409.80 593.23 402.41 592.61 C 404.38 588.82 406.32 585.01 408.08 581.11 Z" />
<path fill="#8e3900" opacity="1.00" d=" M 239.68 582.56 C 245.71 581.33 251.88 581.93 257.99 581.73 C 261.03 581.62 264.07 581.98 267.04 582.60 C 265.48 586.09 263.99 589.61 262.72 593.22 L 262.62 593.21 C 253.95 592.61 245.26 592.91 236.58 592.97 C 237.46 589.45 238.54 586.00 239.68 582.56 Z" />
<path fill="#8e3900" opacity="1.00" d=" M 674.38 582.59 L 674.54 582.60 C 677.94 582.72 681.33 583.07 684.69 583.64 C 682.87 586.75 681.03 589.84 679.09 592.88 C 675.56 592.78 672.02 592.75 668.49 592.69 C 670.39 589.29 672.54 586.03 674.38 582.59 Z" />
</g>
<g id="#873600ff">
<path fill="#873600" opacity="1.00" d=" M 485.31 350.61 L 485.95 350.64 C 494.45 351.07 502.96 350.49 511.46 351.06 C 510.44 353.40 509.40 355.74 508.35 358.08 C 499.63 357.56 490.81 358.82 482.16 357.32 C 483.18 355.06 484.24 352.83 485.31 350.61 Z" />
</g>
<g id="#943b00ff">
<path fill="#943b00" opacity="1.00" d=" M 213.20 355.74 L 213.39 355.75 C 224.62 356.29 235.88 356.06 247.12 355.98 C 244.97 360.14 243.06 364.43 241.57 368.87 C 231.23 369.27 220.89 368.99 210.55 369.05 C 210.57 364.48 211.65 360.02 213.20 355.74 Z" />
<path fill="#943b00" opacity="1.00" d=" M 508.36 366.23 C 515.97 360.70 524.93 354.90 534.79 356.25 C 540.46 356.89 544.83 361.53 546.60 366.74 C 539.41 367.23 532.20 366.86 525.00 366.92 C 519.45 366.81 513.82 367.49 508.36 366.23 Z" />
<path fill="#943b00" opacity="1.00" d=" M 587.52 366.55 C 594.22 359.94 603.44 354.78 613.14 356.19 C 619.62 356.42 626.38 360.24 627.66 367.03 C 614.28 366.73 600.87 367.62 587.52 366.55 Z" />
<path fill="#943b00" opacity="1.00" d=" M 482.06 357.30 L 482.16 357.32 C 490.81 358.82 499.63 357.56 508.35 358.08 C 507.01 361.06 505.64 364.03 504.23 366.99 C 495.34 366.85 486.45 367.23 477.57 366.72 C 479.06 363.57 480.57 360.44 482.06 357.30 Z" />
</g>
<g id="#923b00ff">
<path fill="#923b00" opacity="1.00" d=" M 403.24 364.15 C 410.79 359.06 419.72 355.31 429.00 355.94 C 435.46 356.07 441.98 358.93 445.77 364.31 C 443.54 364.69 441.30 365.04 439.04 365.04 C 429.02 364.91 419.01 365.04 408.99 365.03 C 407.04 365.00 405.13 364.57 403.24 364.15 Z" />
</g>
<g id="#a64200ff">
<path fill="#a64200" opacity="1.00" d=" M 319.59 364.41 C 332.42 366.01 345.37 364.63 358.25 365.31 C 351.95 372.20 345.18 378.72 337.70 384.33 C 334.13 382.18 329.90 382.84 325.94 382.81 C 319.11 382.96 312.23 382.29 305.45 383.37 C 303.97 380.84 302.05 378.09 302.63 375.00 C 302.90 372.83 304.81 371.07 307.01 371.03 C 311.95 370.64 315.71 367.10 319.59 364.41 Z" />
</g>
<g id="#9d3f00ff">
<path fill="#9d3f00" opacity="1.00" d=" M 394.36 371.39 C 397.07 368.69 400.07 366.29 403.24 364.15 C 405.13 364.57 407.04 365.00 408.99 365.03 C 419.01 365.04 429.02 364.91 439.04 365.04 C 441.30 365.04 443.54 364.69 445.77 364.31 C 448.48 369.23 450.73 375.72 448.01 381.03 C 445.36 381.40 442.94 380.10 440.72 378.86 C 440.61 376.60 440.52 374.02 438.61 372.46 C 434.91 369.10 429.13 369.86 425.19 372.41 C 417.13 372.11 409.06 372.26 400.99 372.30 C 398.74 372.34 396.53 371.92 394.36 371.39 Z" />
</g>
<g id="#a14000ff">
<path fill="#a14000" opacity="1.00" d=" M 502.37 370.86 C 504.35 369.30 506.33 367.74 508.36 366.23 C 513.82 367.49 519.45 366.81 525.00 366.92 C 532.20 366.86 539.41 367.23 546.60 366.74 L 546.72 366.73 C 547.43 369.46 547.84 372.25 548.12 375.06 C 540.25 375.01 532.38 375.11 524.51 374.96 C 524.23 373.57 525.17 370.87 523.29 370.48 C 519.33 370.84 515.94 373.17 512.70 375.29 C 508.19 373.94 503.51 375.68 498.92 375.20 C 490.59 374.76 482.15 376.02 473.92 374.40 C 475.12 371.83 476.33 369.27 477.57 366.72 C 486.45 367.23 495.34 366.85 504.23 366.99 C 503.60 368.27 502.98 369.56 502.37 370.86 Z" />
<path fill="#a14000" opacity="1.00" d=" M 644.03 365.87 C 652.53 365.71 661.04 365.63 669.53 366.05 C 667.91 368.97 666.48 372.01 665.59 375.24 C 658.50 375.03 651.41 374.98 644.32 374.94 C 643.93 371.93 643.83 368.90 644.03 365.87 Z" />
</g>
<g id="#a34100ff">
<path fill="#a34100" opacity="1.00" d=" M 582.17 372.63 C 583.88 370.53 585.65 368.50 587.52 366.55 C 600.87 367.62 614.28 366.73 627.66 367.03 C 627.98 369.68 628.12 372.36 628.13 375.04 C 624.43 375.06 620.75 375.06 617.06 375.04 C 617.11 372.64 616.74 370.26 616.12 367.96 C 612.75 369.50 610.48 372.48 608.39 375.41 C 598.26 374.95 588.12 375.26 577.98 375.24 C 575.61 375.26 573.28 374.76 571.00 374.17 C 573.90 370.77 578.38 371.77 582.17 372.63 Z" />
<path fill="#a34100" opacity="1.00" d=" M 645.87 566.68 C 651.21 565.70 656.38 568.57 660.86 571.16 C 662.63 572.52 665.41 574.16 664.80 576.79 C 663.95 580.23 662.20 583.34 660.86 586.60 L 660.77 586.58 C 653.62 584.81 646.17 585.90 638.89 585.83 C 641.72 579.66 644.84 573.46 645.87 566.68 Z" />
<path fill="#a34100" opacity="1.00" d=" M 596.70 573.75 C 606.04 574.02 615.41 573.47 624.74 574.24 C 623.32 576.53 621.97 578.87 620.70 581.26 L 620.54 581.23 C 619.56 581.00 618.59 580.88 617.60 580.86 C 609.55 581.45 601.45 581.45 593.40 580.90 C 594.32 578.44 595.47 576.07 596.70 573.75 Z" />
</g>
<g id="#a94400ff">
<path fill="#a94400" opacity="1.00" d=" M 210.55 369.05 C 220.89 368.99 231.23 369.27 241.57 368.87 C 240.33 372.97 239.90 377.41 241.51 381.48 C 232.38 382.82 223.12 381.46 213.96 382.39 L 213.21 382.45 C 211.55 378.16 210.72 373.63 210.55 369.05 Z" />
<path fill="#a94400" opacity="1.00" d=" M 239.68 582.56 C 241.63 577.25 243.90 572.07 246.49 567.04 C 256.09 567.43 265.71 567.03 275.32 567.34 C 272.26 572.26 269.57 577.39 267.04 582.60 C 264.07 581.98 261.03 581.62 257.99 581.73 C 251.88 581.93 245.71 581.33 239.68 582.56 Z" />
</g>
<g id="#b34800ff">
<path fill="#b34800" opacity="1.00" d=" M 394.23 371.36 L 394.36 371.39 C 396.53 371.92 398.74 372.34 400.99 372.30 C 409.06 372.26 417.13 372.11 425.19 372.41 C 417.71 377.88 412.21 385.54 407.48 393.41 C 397.79 393.89 388.05 394.03 378.37 393.32 C 382.21 385.08 387.77 377.72 394.23 371.36 Z" />
</g>
<g id="#b54800ff">
<path fill="#b54800" opacity="1.00" d=" M 473.92 374.40 C 482.15 376.02 490.59 374.76 498.92 375.20 C 503.51 375.68 508.19 373.94 512.70 375.29 C 505.24 380.73 498.63 387.27 492.72 394.35 C 483.52 393.01 474.21 394.33 464.98 393.54 L 464.47 393.51 C 468.10 387.38 470.82 380.80 473.92 374.40 Z" />
<path fill="#b54800" opacity="1.00" d=" M 559.09 391.33 C 562.09 385.01 565.96 379.04 571.00 374.17 C 573.28 374.76 575.61 375.26 577.98 375.24 C 588.12 375.26 598.26 374.95 608.39 375.41 C 604.64 380.78 601.54 386.59 599.18 392.69 C 587.17 391.35 575.02 392.73 562.98 392.08 C 561.67 391.88 560.37 391.63 559.09 391.33 Z" />
</g>
<g id="#ae4600ff">
<path fill="#ae4600" opacity="1.00" d=" M 524.51 374.96 C 532.38 375.11 540.25 375.01 548.12 375.06 C 548.26 378.03 548.23 381.01 548.03 383.99 C 539.61 383.87 531.18 384.13 522.76 383.79 C 523.57 380.90 524.15 377.94 524.51 374.96 Z" />
<path fill="#ae4600" opacity="1.00" d=" M 617.06 375.04 C 620.75 375.06 624.43 375.06 628.13 375.04 C 627.94 378.34 627.66 381.65 627.21 384.93 C 623.34 384.90 619.46 384.87 615.59 384.84 C 616.34 381.62 616.82 378.33 617.06 375.04 Z" />
</g>
<g id="#b04600ff">
<path fill="#b04600" opacity="1.00" d=" M 644.32 374.94 C 651.41 374.98 658.50 375.03 665.59 375.24 C 665.32 378.41 665.76 381.62 667.44 384.37 C 659.15 385.48 650.66 385.32 642.35 384.42 C 643.34 382.35 644.36 380.30 645.35 378.24 C 645.10 377.41 644.58 375.77 644.32 374.94 Z" />
</g>
<g id="#b64900ff">
<path fill="#b64900" opacity="1.00" d=" M 703.60 376.56 C 706.61 375.52 711.06 376.88 712.28 380.01 C 710.50 384.54 708.04 388.76 705.85 393.10 C 702.65 392.30 699.42 391.67 696.17 391.16 C 698.85 386.39 701.01 381.37 703.60 376.56 Z" />
</g>
<g id="#bc4b00ff">
<path fill="#bc4b00" opacity="1.00" d=" M 241.51 381.48 L 241.63 381.46 C 246.39 388.99 255.67 391.40 263.70 393.77 C 259.45 396.04 254.53 394.89 249.95 395.09 C 241.13 395.26 232.29 394.66 223.50 395.49 C 219.21 391.92 215.65 387.49 213.24 382.45 L 213.96 382.39 C 223.12 381.46 232.38 382.82 241.51 381.48 Z" />
</g>
<g id="#bd4c00ff">
<path fill="#bd4c00" opacity="1.00" d=" M 431.53 382.48 C 435.69 381.04 439.95 383.59 443.75 385.15 C 446.89 386.98 451.39 389.00 451.33 393.27 C 443.73 394.56 435.90 394.19 428.27 393.37 C 429.64 389.82 430.63 386.16 431.53 382.48 Z" />
<path fill="#bd4c00" opacity="1.00" d=" M 642.28 384.41 L 642.35 384.42 C 650.66 385.32 659.15 385.48 667.44 384.37 C 670.81 388.16 676.85 388.98 678.92 393.92 C 670.97 394.00 663.02 393.92 655.07 394.04 C 655.58 392.95 656.11 391.86 656.63 390.78 C 655.52 390.06 654.43 389.34 653.34 388.62 C 651.76 391.10 650.12 393.55 648.39 395.93 C 644.43 395.14 640.39 394.83 636.36 394.57 C 638.81 391.48 640.49 387.90 642.28 384.41 Z" />
<path fill="#bd4c00" opacity="1.00" d=" M 615.59 384.84 C 619.46 384.87 623.34 384.90 627.21 384.93 C 626.63 388.30 625.86 391.64 624.97 394.94 C 620.85 394.96 616.75 394.93 612.64 394.85 C 613.80 391.56 614.79 388.22 615.59 384.84 Z" />
</g>
<g id="#ba4b00ff">
<path fill="#ba4b00" opacity="1.00" d=" M 305.45 383.37 C 312.23 382.29 319.11 382.96 325.94 382.81 C 329.90 382.84 334.13 382.18 337.70 384.33 C 331.58 388.63 324.92 393.75 317.09 393.59 C 312.04 391.92 308.53 387.48 305.45 383.37 Z" />
</g>
<g id="#bb4b00ff">
<path fill="#bb4b00" opacity="1.00" d=" M 520.22 391.30 C 521.15 388.82 522.02 386.33 522.76 383.79 C 531.18 384.13 539.61 383.87 548.03 383.99 C 547.62 386.82 547.03 389.62 546.34 392.39 C 540.23 392.33 534.12 392.09 528.01 392.28 C 525.36 392.41 522.75 391.99 520.22 391.30 Z" />
</g>
<g id="#d05300ff">
<path fill="#d05300" opacity="1.00" d=" M 509.23 412.10 C 513.66 405.61 517.35 398.61 520.22 391.30 C 522.75 391.99 525.36 392.41 528.01 392.28 C 534.12 392.09 540.23 392.33 546.34 392.39 C 543.82 400.44 539.42 407.76 534.09 414.25 L 533.88 414.18 C 525.96 411.17 517.33 414.08 509.23 412.10 Z" />
</g>
<g id="#d15400ff">
<path fill="#d15400" opacity="1.00" d=" M 538.10 412.23 C 545.75 405.97 552.81 398.96 559.09 391.33 C 560.37 391.63 561.67 391.88 562.98 392.08 C 575.02 392.73 587.17 391.35 599.18 392.69 C 597.54 397.41 595.92 402.61 597.31 407.58 C 597.94 410.05 600.19 411.47 602.40 412.40 C 595.49 413.15 588.54 412.47 581.64 413.13 C 580.59 412.22 579.56 411.26 578.55 410.33 C 578.11 411.43 577.67 412.53 577.25 413.65 C 569.49 411.92 561.50 413.40 553.65 412.47 C 548.48 411.75 542.99 414.58 538.10 412.23 Z" />
</g>
<g id="#ca5100ff">
<path fill="#ca5100" opacity="1.00" d=" M 688.60 404.68 C 691.03 400.12 693.70 395.70 696.17 391.16 C 699.42 391.67 702.65 392.30 705.85 393.10 C 703.69 397.22 701.34 401.24 699.02 405.28 C 695.53 405.37 692.05 405.08 688.60 404.68 Z" />
<path fill="#ca5100" opacity="1.00" d=" M 378.28 393.31 L 378.37 393.32 C 388.05 394.03 397.79 393.89 407.48 393.41 C 405.65 396.61 403.96 399.89 402.37 403.22 C 393.14 402.57 383.89 403.34 374.66 402.83 C 375.68 399.59 376.90 396.42 378.28 393.31 Z" />
<path fill="#ca5100" opacity="1.00" d=" M 428.18 393.36 L 428.27 393.37 C 435.90 394.19 443.73 394.56 451.33 393.27 C 449.97 396.55 448.64 399.85 447.14 403.07 C 439.53 402.77 431.85 403.65 424.30 402.37 C 425.60 399.37 426.96 396.39 428.18 393.36 Z" />
<path fill="#ca5100" opacity="1.00" d=" M 464.37 393.50 L 464.98 393.54 C 474.21 394.33 483.52 393.01 492.72 394.35 C 490.41 397.16 488.19 400.05 486.18 403.09 C 477.14 402.89 468.09 403.06 459.04 402.96 C 460.86 399.83 462.69 396.71 464.37 393.50 Z" />
<path fill="#ca5100" opacity="1.00" d=" M 655.07 394.04 C 663.02 393.92 670.97 394.00 678.92 393.92 C 678.71 397.15 677.44 400.15 676.07 403.04 C 667.73 402.93 659.38 402.80 651.05 403.09 C 652.34 400.05 653.65 397.02 655.07 394.04 Z" />
<path fill="#ca5100" opacity="1.00" d=" M 453.27 550.40 C 461.37 551.76 469.62 550.39 477.72 551.65 C 475.66 555.19 475.90 559.31 476.29 563.23 L 475.93 563.74 C 467.92 564.42 459.87 563.83 451.85 563.87 C 453.81 559.66 451.75 554.81 453.27 550.40 Z" />
<path fill="#ca5100" opacity="1.00" d=" M 557.83 550.69 C 565.50 551.02 573.34 549.75 580.88 551.60 C 578.84 555.85 576.65 560.02 574.67 564.30 L 574.57 564.29 C 566.97 563.38 559.31 564.43 551.72 563.54 C 553.58 559.18 555.82 554.99 557.83 550.69 Z" />
<path fill="#ca5100" opacity="1.00" d=" M 513.28 553.91 L 514.04 553.71 C 520.51 554.18 527.02 554.19 533.49 553.70 L 533.73 553.68 C 534.78 556.41 533.92 559.15 532.89 561.72 L 532.76 561.73 C 525.05 562.40 517.26 562.51 509.58 561.48 C 510.91 559.00 511.82 556.30 513.28 553.91 Z" />
</g>
<g id="#d25400ff">
<path fill="#d25400" opacity="1.00" d=" M 263.70 393.77 C 284.26 398.13 305.40 398.60 326.02 402.54 C 333.67 404.20 341.60 406.17 347.89 411.10 C 345.96 411.49 344.03 411.87 342.06 411.93 C 326.04 411.90 310.02 411.86 294.01 411.84 C 290.10 411.84 285.96 411.21 282.40 413.23 C 275.27 412.98 268.15 411.56 261.11 410.32 C 247.90 407.61 234.29 404.00 223.50 395.49 C 232.29 394.66 241.13 395.26 249.95 395.09 C 254.53 394.89 259.45 396.04 263.70 393.77 Z" />
</g>
<g id="#cd5200ff">
<path fill="#cd5200" opacity="1.00" d=" M 612.64 394.85 C 616.75 394.93 620.85 394.96 624.97 394.94 C 623.87 398.41 622.62 401.83 621.16 405.16 C 616.93 405.27 612.70 405.17 608.50 404.77 C 610.04 401.53 611.42 398.22 612.64 394.85 Z" />
<path fill="#cd5200" opacity="1.00" d=" M 626.31 404.34 C 629.81 401.24 633.15 397.97 636.36 394.57 C 640.39 394.83 644.43 395.14 648.39 395.93 C 645.90 399.27 643.23 402.47 640.33 405.46 C 635.65 405.08 630.89 405.54 626.31 404.34 Z" />
</g>
<g id="#d75600ff">
<path fill="#d75600" opacity="1.00" d=" M 424.20 402.36 L 424.30 402.37 C 431.85 403.65 439.53 402.77 447.14 403.07 C 445.66 406.38 444.12 409.67 442.61 412.97 C 434.96 411.00 427.02 412.41 419.23 412.21 C 420.90 408.93 422.62 405.68 424.20 402.36 Z" />
<path fill="#d75600" opacity="1.00" d=" M 373.74 407.04 C 373.96 405.61 374.32 404.23 374.66 402.83 C 383.89 403.34 393.14 402.57 402.37 403.22 C 401.00 406.10 400.10 409.20 398.72 412.06 L 398.01 412.26 C 390.17 411.52 382.29 412.32 374.44 411.85 C 374.19 410.25 373.93 408.65 373.74 407.04 Z" />
<path fill="#d75600" opacity="1.00" d=" M 459.04 402.96 C 468.09 403.06 477.14 402.89 486.18 403.09 C 484.21 406.13 482.45 409.31 481.08 412.66 C 472.18 410.88 462.98 413.26 454.12 411.26 C 455.71 408.47 457.40 405.72 459.04 402.96 Z" />
<path fill="#d75600" opacity="1.00" d=" M 651.05 403.09 C 659.38 402.80 667.73 402.93 676.07 403.04 C 674.58 406.08 673.10 409.14 671.72 412.23 L 671.57 412.22 C 663.78 411.48 655.89 412.76 648.16 411.33 C 648.99 408.54 649.98 405.80 651.05 403.09 Z" />
<path fill="#d75600" opacity="1.00" d=" M 516.34 544.85 C 523.11 543.51 529.75 548.39 533.49 553.70 C 527.02 554.19 520.51 554.18 514.04 553.71 L 513.76 553.14 C 514.62 550.38 516.01 547.77 516.34 544.85 Z" />
</g>
<g id="#e05900ff">
<path fill="#e05900" opacity="1.00" d=" M 626.20 404.32 L 626.31 404.34 C 630.89 405.54 635.65 405.08 640.33 405.46 C 632.55 413.62 622.69 420.25 611.40 422.14 C 606.83 422.17 602.22 422.34 597.71 421.57 C 591.89 419.78 586.24 417.17 581.64 413.13 C 588.54 412.47 595.49 413.15 602.40 412.40 C 602.87 412.43 603.83 412.50 604.31 412.53 C 605.78 409.98 607.21 407.42 608.50 404.77 C 612.70 405.17 616.93 405.27 621.16 405.16 C 620.60 406.33 620.06 407.52 619.53 408.71 C 621.84 407.38 624.05 405.89 626.20 404.32 Z" />
</g>
<g id="#db5800ff">
<path fill="#db5800" opacity="1.00" d=" M 688.42 404.66 L 688.60 404.68 C 692.05 405.08 695.53 405.37 699.02 405.28 C 696.56 409.34 694.09 413.40 691.49 417.37 C 687.80 416.96 684.09 417.09 680.44 417.61 C 683.26 413.40 685.95 409.10 688.42 404.66 Z" />
<path fill="#db5800" opacity="1.00" d=" M 382.47 551.87 C 390.83 545.49 401.18 540.64 411.94 541.79 C 418.06 542.27 424.73 545.38 427.29 551.20 L 426.98 551.75 C 420.33 552.59 413.63 551.95 406.96 552.15 C 398.80 551.96 390.62 552.46 382.47 551.87 Z" />
</g>
<g id="#e15a00ff">
<path fill="#e15a00" opacity="1.00" d=" M 373.97 422.09 C 372.94 417.14 372.72 412.01 373.74 407.04 C 373.93 408.65 374.19 410.25 374.44 411.85 C 382.29 412.32 390.17 411.52 398.01 412.26 L 398.29 412.88 C 397.76 415.97 396.66 418.93 396.04 422.01 C 388.69 422.11 381.33 422.05 373.97 422.09 Z" />
<path fill="#e15a00" opacity="1.00" d=" M 347.89 411.10 L 347.99 411.08 C 351.34 413.74 353.34 417.70 353.68 421.96 C 346.49 422.08 339.30 421.97 332.12 421.90 C 331.80 418.97 328.34 418.85 326.11 418.19 C 311.67 415.56 296.89 415.48 282.40 413.23 C 285.96 411.21 290.10 411.84 294.01 411.84 C 310.02 411.86 326.04 411.90 342.06 411.93 C 344.03 411.87 345.96 411.49 347.89 411.10 Z" />
<path fill="#e15a00" opacity="1.00" d=" M 648.05 411.31 L 648.16 411.33 C 655.89 412.76 663.78 411.48 671.57 412.22 C 670.36 415.22 669.02 418.18 667.84 421.19 C 660.45 423.02 652.84 421.88 645.35 421.71 C 646.01 418.18 646.95 414.72 648.05 411.31 Z" />
</g>
<g id="#e45b00ff">
<path fill="#e45b00" opacity="1.00" d=" M 454.03 411.24 L 454.12 411.26 C 462.98 413.26 472.18 410.88 481.08 412.66 C 479.97 415.69 479.72 418.95 480.11 422.14 C 473.04 422.15 465.97 422.19 458.92 421.71 C 458.73 421.72 458.35 421.74 458.16 421.74 C 454.51 422.29 450.79 422.27 447.21 421.27 C 449.58 417.99 451.86 414.65 454.03 411.24 Z" />
<path fill="#e45b00" opacity="1.00" d=" M 419.12 412.21 L 419.23 412.21 C 427.02 412.41 434.96 411.00 442.61 412.97 C 441.19 416.28 439.87 419.63 438.72 423.05 L 438.62 423.02 C 430.30 420.68 421.53 423.49 413.20 421.26 C 415.31 418.33 417.34 415.34 419.12 412.21 Z" />
<path fill="#e45b00" opacity="1.00" d=" M 502.18 421.05 C 504.72 418.22 507.06 415.22 509.23 412.10 C 517.33 414.08 525.96 411.17 533.88 414.18 C 533.66 414.68 533.22 415.68 533.00 416.18 C 534.67 414.82 536.34 413.48 538.10 412.23 C 542.99 414.58 548.48 411.75 553.65 412.47 C 561.50 413.40 569.49 411.92 577.25 413.65 C 576.07 416.76 575.05 419.94 574.38 423.21 C 567.87 423.13 561.36 422.98 554.85 423.35 L 554.30 423.37 C 553.42 419.81 553.06 416.15 552.95 412.49 C 549.27 415.98 545.47 419.35 541.40 422.38 C 529.94 421.75 518.44 422.36 506.97 422.17 C 505.30 422.14 503.74 421.51 502.18 421.05 Z" />
</g>
<g id="#eb5e01ff">
<path fill="#eb5e01" opacity="1.00" d=" M 680.44 417.61 C 684.09 417.09 687.80 416.96 691.49 417.37 C 688.64 421.79 685.49 426.00 682.17 430.07 C 678.52 430.11 674.87 429.95 671.27 429.30 C 674.55 425.58 677.67 421.72 680.44 417.61 Z" />
</g>
<g id="#f36100ff">
<path fill="#f36100" opacity="1.00" d=" M 397.90 431.49 C 404.67 431.91 409.18 425.81 413.20 421.26 C 421.53 423.49 430.30 420.68 438.62 423.02 C 437.96 425.53 437.25 428.08 437.47 430.70 C 441.65 428.66 444.34 424.76 447.21 421.27 C 450.79 422.27 454.51 422.29 458.16 421.74 C 454.89 427.11 450.67 431.86 446.21 436.27 C 442.68 439.65 438.24 443.27 433.00 442.32 C 425.99 441.19 420.81 435.27 417.68 429.26 C 411.44 435.71 403.84 443.52 394.02 442.30 C 383.53 441.32 376.31 431.71 373.97 422.09 C 381.33 422.05 388.69 422.11 396.04 422.01 C 395.99 425.09 394.61 429.60 397.90 431.49 Z" />
</g>
<g id="#f46100ff">
<path fill="#f46100" opacity="1.00" d=" M 458.92 421.71 C 465.97 422.19 473.04 422.15 480.11 422.14 C 480.89 425.69 482.76 430.20 486.99 430.42 C 493.31 430.23 497.98 425.21 502.18 421.05 C 503.74 421.51 505.30 422.14 506.97 422.17 C 518.44 422.36 529.94 421.75 541.40 422.38 C 526.04 433.90 507.48 442.18 488.03 442.42 C 481.15 442.55 473.79 441.88 467.97 437.86 C 462.66 434.19 459.93 427.89 458.92 421.71 Z" />
</g>
<g id="#f56200ff">
<path fill="#f56200" opacity="1.00" d=" M 645.35 421.71 C 652.84 421.88 660.45 423.02 667.84 421.19 C 666.72 424.80 664.63 428.61 665.83 432.47 C 667.82 431.78 669.61 430.66 671.20 429.29 L 671.27 429.30 C 674.87 429.95 678.52 430.11 682.17 430.07 C 677.84 434.83 673.26 440.00 666.96 442.03 C 655.33 444.80 643.23 433.58 645.35 421.71 Z" />
<path fill="#f56200" opacity="1.00" d=" M 597.71 421.57 C 602.22 422.34 606.83 422.17 611.40 422.14 C 606.17 429.60 599.13 436.01 590.85 439.91 C 582.21 443.88 571.36 443.25 563.75 437.33 C 559.10 433.91 556.14 428.74 554.26 423.38 L 554.85 423.35 C 561.36 422.98 567.87 423.13 574.38 423.21 C 574.27 425.56 573.75 428.47 575.72 430.25 C 577.80 431.73 580.56 431.29 582.93 430.98 C 588.90 429.93 593.59 425.74 597.71 421.57 Z" />
</g>
<g id="#f06000ff">
<path fill="#f06000" opacity="1.00" d=" M 332.12 421.90 C 339.30 421.97 346.49 422.08 353.68 421.96 C 353.53 425.48 352.86 428.96 351.63 432.27 L 351.50 432.27 C 342.38 431.46 333.07 433.33 324.09 431.23 C 327.18 428.50 330.22 425.62 332.12 421.90 Z" />
</g>
<g id="#ff6600ff">
<path fill="#ff6600" opacity="1.00" d=" M 286.28 453.21 C 299.69 447.43 312.54 440.19 324.09 431.23 C 333.07 433.33 342.38 431.46 351.50 432.27 C 346.22 443.96 336.13 452.60 325.79 459.76 C 311.79 469.10 296.14 476.42 279.47 479.26 C 271.79 480.37 263.24 480.78 256.39 476.50 C 247.15 470.66 242.11 459.63 242.14 448.90 C 242.26 444.09 248.76 441.78 252.19 444.92 C 255.64 447.63 252.96 452.98 256.11 455.92 C 259.23 458.89 263.95 459.01 268.00 458.82 C 274.37 458.07 280.37 455.59 286.28 453.21 Z" />
<path fill="#ff6600" opacity="1.00" d=" M 345.94 480.35 C 356.49 478.39 367.16 482.34 375.98 487.91 C 379.65 490.52 384.31 493.89 383.77 498.99 C 383.12 512.61 376.85 525.21 369.93 536.69 L 369.84 536.67 C 364.66 535.03 359.19 535.86 353.87 535.83 C 360.72 525.04 366.70 513.30 368.65 500.56 C 356.79 499.02 345.12 503.33 334.82 508.84 C 322.24 515.61 310.99 524.65 300.99 534.81 L 300.87 534.79 C 294.66 533.28 288.28 534.23 281.98 534.14 C 277.63 534.13 273.29 533.71 268.94 533.73 C 280.91 519.45 294.57 506.49 310.06 496.10 C 320.99 488.89 332.91 482.55 345.94 480.35 Z" />
<path fill="#ff6600" opacity="1.00" d=" M 578.45 501.40 C 581.54 500.08 584.94 501.89 587.75 503.21 C 591.49 505.45 595.89 508.36 596.48 513.06 C 596.34 518.59 593.84 523.67 591.88 528.74 L 591.79 528.75 C 584.00 529.28 576.18 529.32 568.40 528.83 C 572.29 519.91 577.01 511.13 578.45 501.40 Z" />
<path fill="#ff6600" opacity="1.00" d=" M 533.13 510.14 C 539.77 507.91 548.98 512.46 549.37 520.02 C 549.71 523.91 547.34 527.33 544.64 529.87 C 537.81 528.35 530.75 529.46 523.82 529.12 C 524.59 522.07 527.20 514.44 533.13 510.14 Z" />
</g>
<g id="#ec5f00ff">
<path fill="#ec5f00" opacity="1.00" d=" M 568.40 528.83 C 576.18 529.32 584.00 529.28 591.79 528.75 C 591.01 530.56 590.22 532.37 589.42 534.18 C 596.39 533.92 603.35 533.18 610.18 531.72 C 614.12 530.96 618.04 529.71 622.09 529.86 C 624.08 529.72 625.48 532.30 624.20 533.86 C 621.90 536.91 618.30 538.57 614.85 539.97 C 605.09 543.68 594.57 544.85 584.19 544.92 C 583.14 547.16 582.07 549.40 580.98 551.62 L 580.88 551.60 C 573.34 549.75 565.50 551.02 557.83 550.69 C 559.01 548.31 560.24 545.96 561.13 543.45 C 552.36 541.96 543.23 539.96 535.92 534.62 C 533.01 535.05 529.98 535.95 527.06 535.16 C 524.60 534.24 524.24 531.35 523.82 529.12 C 530.75 529.46 537.81 528.35 544.64 529.87 C 551.73 531.57 558.96 532.60 566.21 533.35 C 566.94 531.84 567.66 530.33 568.40 528.83 Z" />
<path fill="#ec5f00" opacity="1.00" d=" M 456.65 542.69 C 460.28 537.11 465.52 532.14 472.11 530.46 C 476.67 529.88 481.87 530.48 485.47 533.59 C 488.29 535.98 488.09 541.06 485.53 543.33 C 475.93 542.30 466.27 543.40 456.65 542.69 Z" />
</g>
<g id="#e25b00ff">
<path fill="#e25b00" opacity="1.00" d=" M 268.94 533.73 C 273.29 533.71 277.63 534.13 281.98 534.14 C 288.28 534.23 294.66 533.28 300.87 534.79 C 294.84 541.17 289.06 547.80 283.82 554.86 C 282.34 553.95 280.93 552.62 279.07 552.77 C 270.86 552.80 262.63 552.43 254.45 553.29 C 258.86 546.47 263.81 540.02 268.94 533.73 Z" />
</g>
<g id="#e95d00ff">
<path fill="#e95d00" opacity="1.00" d=" M 353.87 535.83 C 359.19 535.86 364.66 535.03 369.84 536.67 C 368.28 539.25 366.57 541.73 364.74 544.12 C 359.15 543.27 353.50 544.45 347.89 543.96 C 349.98 541.32 351.98 538.61 353.87 535.83 Z" />
</g>
<g id="#d55500ff">
<path fill="#d55500" opacity="1.00" d=" M 633.52 542.67 C 641.00 540.88 649.69 541.06 656.05 545.89 C 659.11 548.10 660.88 551.54 662.17 555.01 C 658.28 554.80 654.39 555.07 650.53 555.57 C 648.31 555.59 646.05 554.83 643.87 555.54 C 640.27 556.53 637.52 559.19 634.75 561.53 C 633.60 560.90 632.31 560.51 630.99 560.65 C 622.62 560.95 614.25 560.73 605.88 560.84 C 613.32 552.57 622.67 545.61 633.52 542.67 Z" />
</g>
<g id="#da5700ff">
<path fill="#da5700" opacity="1.00" d=" M 347.89 543.96 C 353.50 544.45 359.15 543.27 364.74 544.12 C 362.54 547.11 360.20 549.99 357.72 552.75 C 352.01 551.67 346.17 552.70 340.47 551.59 C 343.08 549.18 345.59 546.66 347.89 543.96 Z" />
</g>
<g id="#df5900ff">
<path fill="#df5900" opacity="1.00" d=" M 453.27 550.40 C 454.12 547.71 455.25 545.13 456.65 542.69 C 466.27 543.40 475.93 542.30 485.53 543.33 C 483.11 546.22 480.23 548.70 477.89 551.67 L 477.72 551.65 C 469.62 550.39 461.37 551.76 453.27 550.40 Z" />
</g>
<g id="#c75000ff">
<path fill="#c75000" opacity="1.00" d=" M 329.99 555.87 C 333.96 555.91 337.45 553.99 340.47 551.59 C 346.17 552.70 352.01 551.67 357.72 552.75 C 353.09 557.84 348.04 562.82 341.82 565.93 C 336.81 568.47 329.48 567.75 326.35 562.65 C 324.39 559.92 326.68 555.78 329.99 555.87 Z" />
<path fill="#c75000" opacity="1.00" d=" M 366.82 568.60 C 371.16 562.28 376.39 556.56 382.47 551.87 C 390.62 552.46 398.80 551.96 406.96 552.15 C 413.63 551.95 420.33 552.59 426.98 551.75 L 427.74 551.95 C 429.74 555.75 430.54 560.38 429.37 564.56 C 427.33 566.90 423.75 564.44 421.64 563.14 C 421.61 561.31 421.63 559.26 420.26 557.85 C 417.14 554.42 411.54 554.51 407.79 556.83 C 402.51 560.01 398.55 564.86 394.82 569.67 C 392.59 568.99 390.30 568.50 387.96 568.59 C 380.91 568.68 373.86 568.72 366.82 568.60 Z" />
<path fill="#c75000" opacity="1.00" d=" M 650.53 555.57 C 654.39 555.07 658.28 554.80 662.17 555.01 C 662.73 558.28 663.72 562.07 661.99 565.12 C 659.54 566.27 656.75 564.50 654.68 563.14 C 655.21 559.86 653.22 557.17 650.53 555.57 Z" />
</g>
<g id="#cb5100ff">
<path fill="#cb5100" opacity="1.00" d=" M 250.64 559.51 C 251.87 557.41 253.15 555.34 254.45 553.29 C 262.63 552.43 270.86 552.80 279.07 552.77 C 280.93 552.62 282.34 553.95 283.82 554.86 C 282.43 556.78 281.06 558.71 279.67 560.64 C 270.06 559.07 260.28 560.77 250.64 559.51 Z" />
</g>
<g id="#bf4c00ff">
<path fill="#bf4c00" opacity="1.00" d=" M 246.49 567.04 C 247.80 564.49 249.19 561.98 250.64 559.51 C 260.28 560.77 270.06 559.07 279.67 560.64 C 278.21 562.86 276.76 565.10 275.32 567.34 C 265.71 567.03 256.09 567.43 246.49 567.04 Z" />
</g>
<g id="#b74900ff">
<path fill="#b74900" opacity="1.00" d=" M 630.99 560.65 C 632.31 560.51 633.60 560.90 634.75 561.53 C 630.97 565.40 627.71 569.73 624.74 574.24 C 615.41 573.47 606.04 574.02 596.70 573.75 C 599.29 569.13 602.42 564.84 605.88 560.84 C 614.25 560.73 622.62 560.95 630.99 560.65 Z" />
<path fill="#b74900" opacity="1.00" d=" M 685.49 562.51 C 686.94 558.08 694.15 560.51 695.05 564.12 C 693.56 568.02 691.35 571.61 689.41 575.31 C 685.91 574.84 682.39 574.68 678.87 574.82 C 681.14 570.76 683.31 566.63 685.49 562.51 Z" />
</g>
<g id="#b34700ff">
<path fill="#b34700" opacity="1.00" d=" M 509.58 561.48 C 517.26 562.51 525.05 562.40 532.76 561.73 C 530.36 567.46 527.45 572.96 524.80 578.58 L 524.70 578.56 C 517.15 576.76 509.35 578.33 501.70 577.46 C 504.51 572.22 506.91 566.79 509.58 561.48 Z" />
<path fill="#b34700" opacity="1.00" d=" M 551.48 563.52 L 551.72 563.54 C 559.31 564.43 566.97 563.38 574.57 564.29 C 572.87 567.96 571.09 571.58 569.35 575.23 C 561.48 574.93 553.55 575.84 545.74 574.63 L 545.26 574.56 C 547.41 570.92 549.58 567.30 551.48 563.52 Z" />
</g>
<g id="#b14700ff">
<path fill="#b14700" opacity="1.00" d=" M 451.85 563.87 C 459.87 563.83 467.92 564.42 475.93 563.74 L 476.62 564.03 C 478.08 567.67 479.81 571.19 481.58 574.69 C 473.85 576.08 465.95 574.27 458.25 575.89 C 457.98 575.42 457.42 574.47 457.14 573.99 C 456.54 575.04 455.95 576.10 455.36 577.16 C 451.83 576.93 448.30 576.80 444.76 576.76 C 447.19 572.50 449.42 568.13 451.85 563.87 Z" />
</g>
<g id="#a64300ff">
<path fill="#a64300" opacity="1.00" d=" M 412.79 566.77 C 416.15 565.68 419.52 567.22 422.63 568.41 C 426.07 569.93 429.70 571.75 431.77 575.03 C 432.02 577.52 430.88 579.98 429.73 582.13 L 429.07 582.17 C 422.28 579.91 415.07 581.54 408.08 581.11 C 410.01 576.46 412.16 571.81 412.79 566.77 Z" />
</g>
<g id="#ad4500ff">
<path fill="#ad4500" opacity="1.00" d=" M 361.94 577.20 C 363.36 574.22 365.03 571.37 366.82 568.60 C 373.86 568.72 380.91 568.68 387.96 568.59 C 390.30 568.50 392.59 568.99 394.82 569.67 C 392.99 572.31 391.25 575.01 389.57 577.74 C 380.39 576.71 371.15 577.57 361.94 577.20 Z" />
</g>
<g id="#963c00ff">
<path fill="#963c00" opacity="1.00" d=" M 458.25 575.89 C 465.95 574.27 473.85 576.08 481.58 574.69 L 481.79 574.66 C 484.79 579.95 487.58 585.61 487.56 591.84 C 479.99 592.05 472.43 591.99 464.86 591.81 C 464.54 585.89 460.92 580.96 458.25 575.89 Z" />
<path fill="#963c00" opacity="1.00" d=" M 545.25 574.56 L 545.74 574.63 C 553.55 575.84 561.48 574.93 569.35 575.23 C 566.67 580.93 564.07 586.69 561.78 592.56 L 561.68 592.54 C 559.16 591.91 556.58 591.50 553.99 591.61 C 547.34 591.82 540.68 591.55 534.04 591.86 C 537.96 586.21 541.77 580.48 545.25 574.56 Z" />
</g>
<g id="#a04000ff">
<path fill="#a04000" opacity="1.00" d=" M 678.87 574.82 C 682.39 574.68 685.91 574.84 689.41 575.31 C 687.87 578.11 686.31 580.89 684.69 583.64 C 681.33 583.07 677.94 582.72 674.54 582.60 C 675.93 579.97 677.42 577.41 678.87 574.82 Z" />
</g>
<g id="#913b00ff">
<path fill="#913b00" opacity="1.00" d=" M 361.94 577.20 C 371.15 577.57 380.39 576.71 389.57 577.74 C 386.71 582.65 384.34 587.81 382.26 593.08 C 372.09 592.58 361.92 593.17 351.76 592.76 C 355.36 587.73 359.67 583.04 361.94 577.20 Z" />
</g>
<g id="#9a3d00ff">
<path fill="#9a3d00" opacity="1.00" d=" M 444.76 576.76 C 448.30 576.80 451.83 576.93 455.36 577.16 C 453.81 579.94 452.23 582.69 450.61 585.43 C 447.07 585.12 443.53 584.99 439.99 585.03 C 441.60 582.29 443.21 579.54 444.76 576.76 Z" />
<path fill="#9a3d00" opacity="1.00" d=" M 496.98 584.99 C 498.59 582.50 500.15 579.99 501.70 577.46 C 509.35 578.33 517.15 576.76 524.70 578.56 C 523.64 580.81 522.54 583.06 521.43 585.29 C 513.29 584.66 505.13 585.14 496.98 584.99 Z" />
</g>
<g id="#8b3800ff">
<path fill="#8b3800" opacity="1.00" d=" M 617.60 580.86 C 618.59 580.88 619.56 581.00 620.54 581.23 C 618.22 586.02 616.04 590.88 614.27 595.90 C 603.50 595.69 592.73 595.70 581.97 595.89 C 585.98 591.06 589.97 586.18 593.40 580.90 C 601.45 581.45 609.55 581.45 617.60 580.86 Z" />
<path fill="#8b3800" opacity="1.00" d=" M 496.98 584.99 C 505.13 585.14 513.29 584.66 521.43 585.29 C 520.21 587.74 519.03 590.21 517.88 592.70 L 517.79 592.69 C 509.43 591.32 500.80 593.53 492.57 591.21 C 494.05 589.15 495.53 587.08 496.98 584.99 Z" />
</g>
<g id="#893700ff">
<path fill="#893700" opacity="1.00" d=" M 439.99 585.03 C 443.53 584.99 447.07 585.12 450.61 585.43 C 448.72 588.61 446.80 591.76 444.81 594.87 C 441.48 594.17 438.10 593.84 434.71 593.75 C 436.50 590.86 438.27 587.96 439.99 585.03 Z" />
<path fill="#893700" opacity="1.00" d=" M 638.89 585.83 C 646.17 585.90 653.62 584.81 660.77 586.58 C 659.73 588.74 659.01 591.08 657.70 593.10 L 656.95 593.27 C 649.99 592.70 643.00 593.49 636.05 592.70 L 635.78 592.15 C 636.55 589.93 637.91 587.96 638.89 585.83 Z" />
</g>
<g id="#7c3200ff">
<path fill="#7c3200" opacity="1.00" d=" M 534.04 591.86 C 540.68 591.55 547.34 591.82 553.99 591.61 C 556.58 591.50 559.16 591.91 561.68 592.54 C 561.01 594.37 560.55 596.30 559.68 598.06 L 558.98 598.29 C 549.21 597.68 539.41 598.44 529.64 597.76 C 531.12 595.80 532.60 593.84 534.04 591.86 Z" />
</g>
<g id="#773000ff">
<path fill="#773000" opacity="1.00" d=" M 668.49 592.69 C 672.02 592.75 675.56 592.78 679.09 592.88 C 676.79 596.58 674.39 600.21 671.94 603.81 L 671.82 603.79 C 668.45 603.27 665.08 602.88 661.70 602.58 C 664.01 599.35 666.29 596.09 668.36 592.69 L 668.49 592.69 Z" />
</g>
<g id="#793000ff">
<path fill="#793000" opacity="1.00" d=" M 236.58 592.97 C 245.26 592.91 253.95 592.61 262.62 593.21 C 261.91 595.43 261.21 597.66 260.50 599.90 C 252.09 599.98 243.69 600.05 235.28 600.10 C 235.67 597.71 236.11 595.34 236.58 592.97 Z" />
<path fill="#793000" opacity="1.00" d=" M 397.96 599.96 C 399.52 597.56 401.01 595.11 402.41 592.61 C 409.80 593.23 417.23 592.43 424.61 593.27 C 423.60 595.52 422.83 597.88 421.68 600.07 L 420.97 600.26 C 413.30 599.88 405.63 600.01 397.96 599.96 Z" />
<path fill="#793000" opacity="1.00" d=" M 635.30 592.89 L 636.05 592.70 C 643.00 593.49 649.99 592.70 656.95 593.27 L 657.25 593.84 C 656.66 596.09 655.51 598.14 654.70 600.32 L 654.55 600.31 C 646.69 599.76 638.80 600.07 630.93 600.07 C 632.52 597.76 633.79 595.25 635.30 592.89 Z" />
</g>
<g id="#712d00ff">
<path fill="#712d00" opacity="1.00" d=" M 581.97 595.89 C 592.73 595.70 603.50 595.69 614.27 595.90 C 613.13 599.32 612.26 602.82 611.70 606.39 C 605.12 607.54 598.35 605.83 591.87 607.64 C 591.23 605.49 590.70 603.31 590.26 601.13 C 589.77 601.66 589.26 602.18 588.78 602.74 C 584.78 602.04 580.72 601.87 576.67 601.74 C 578.45 599.80 580.23 597.87 581.97 595.89 Z" />
</g>
<g id="#6f2c00ff">
<path fill="#6f2c00" opacity="1.00" d=" M 522.54 605.73 C 525.03 603.18 527.39 600.51 529.64 597.76 C 539.41 598.44 549.21 597.68 558.98 598.29 L 559.26 598.86 C 558.85 601.08 558.18 603.23 557.70 605.43 L 557.51 605.42 C 550.68 605.12 543.78 604.69 537.00 605.71 C 536.95 605.20 536.86 604.19 536.82 603.69 C 536.02 604.61 535.23 605.54 534.46 606.49 C 530.49 606.16 526.52 605.91 522.54 605.73 Z" />
</g>
<g id="#6a2b01ff">
<path fill="#6a2b01" opacity="1.00" d=" M 235.28 600.10 C 243.69 600.05 252.09 599.98 260.50 599.90 C 259.90 602.16 259.37 604.46 258.95 606.78 L 258.78 606.75 C 250.85 605.56 242.67 605.75 234.72 606.70 C 234.89 604.49 235.07 602.30 235.28 600.10 Z" />
</g>
<g id="#6a2a01ff">
<path fill="#6a2a01" opacity="1.00" d=" M 397.96 599.96 C 405.63 600.01 413.30 599.88 420.97 600.26 L 421.24 600.84 C 420.80 602.98 419.94 605.00 419.24 607.06 C 413.16 606.96 407.07 606.89 400.99 607.05 C 398.41 607.16 395.88 606.66 393.43 605.90 C 394.98 603.95 396.50 601.98 397.96 599.96 Z" />
<path fill="#6a2a01" opacity="1.00" d=" M 630.93 600.07 C 638.80 600.07 646.69 599.76 654.55 600.31 C 653.91 602.27 653.25 604.22 652.54 606.16 C 643.91 605.80 635.26 606.47 626.65 605.67 C 628.10 603.82 629.54 601.96 630.93 600.07 Z" />
</g>
<g id="#662901ff">
<path fill="#662901" opacity="1.00" d=" M 568.67 608.66 C 571.46 606.50 574.15 604.22 576.67 601.74 C 580.72 601.87 584.78 602.04 588.78 602.74 C 587.09 604.71 585.32 606.60 583.52 608.46 C 578.58 608.91 573.61 609.15 568.67 608.66 Z" />
</g>
<g id="#5c2500ff">
<path fill="#5c2500" opacity="1.00" d=" M 331.50 614.62 C 335.69 610.82 339.65 606.76 343.48 602.60 C 347.93 603.14 352.42 603.22 356.88 603.68 C 353.67 607.83 350.26 611.83 346.68 615.67 C 341.69 614.52 336.55 615.24 331.50 614.62 Z" />
<path fill="#5c2500" opacity="1.00" d=" M 651.56 612.39 C 656.02 610.45 658.74 606.22 661.70 602.58 C 665.08 602.88 668.45 603.27 671.82 603.79 C 669.42 607.31 666.72 610.60 663.94 613.81 L 663.83 613.79 C 660.29 612.94 656.65 612.86 653.04 613.01 C 646.77 613.29 640.44 612.59 634.22 613.67 L 634.16 613.68 C 633.68 612.78 633.21 611.90 632.75 611.02 C 631.94 611.83 631.14 612.65 630.37 613.49 C 626.62 613.28 622.89 612.89 619.15 612.58 L 618.56 612.53 C 621.60 610.68 624.25 608.29 626.65 605.67 C 635.26 606.47 643.91 605.80 652.54 606.16 C 651.99 608.19 651.60 610.27 651.56 612.39 Z" />
<path fill="#5c2500" opacity="1.00" d=" M 234.72 606.70 C 242.67 605.75 250.85 605.56 258.78 606.75 C 258.46 609.17 258.15 611.61 257.90 614.06 L 257.80 614.03 C 253.69 612.58 249.31 613.22 245.05 613.08 C 241.70 612.96 238.34 613.10 235.07 613.88 L 234.98 613.90 C 234.84 611.49 234.75 609.10 234.72 606.70 Z" />
</g>
<g id="#5a2400ff">
<path fill="#5a2400" opacity="1.00" d=" M 426.84 604.96 C 430.39 604.73 433.94 605.03 437.45 605.58 C 435.20 608.84 432.63 611.86 429.99 614.81 L 429.90 614.79 C 424.35 613.35 418.61 614.19 412.96 614.00 C 409.15 613.90 405.34 614.01 401.54 614.33 C 400.94 613.22 400.34 612.13 399.75 611.05 C 398.49 612.29 397.23 613.55 395.97 614.80 C 391.59 613.87 387.09 614.06 382.67 613.43 C 387.05 612.25 390.41 609.12 393.43 605.90 C 395.88 606.66 398.41 607.16 400.99 607.05 C 407.07 606.89 413.16 606.96 419.24 607.06 C 418.90 608.73 418.59 610.40 418.35 612.09 C 422.21 611.33 424.36 607.65 426.84 604.96 Z" />
<path fill="#5a2400" opacity="1.00" d=" M 537.00 605.71 C 543.78 604.69 550.68 605.12 557.51 605.42 C 557.57 607.52 556.79 609.95 558.17 611.79 C 561.89 612.98 565.56 610.49 568.67 608.66 C 573.61 609.15 578.58 608.91 583.52 608.46 C 581.01 610.89 578.44 613.25 575.68 615.39 C 570.49 614.77 565.27 614.88 560.06 614.93 C 553.83 615.03 547.56 614.39 541.39 615.53 C 539.21 612.62 537.58 609.31 537.00 605.71 Z" />
<path fill="#5a2400" opacity="1.00" d=" M 511.54 612.32 C 516.05 611.90 519.43 608.68 522.54 605.73 C 526.52 605.91 530.49 606.16 534.46 606.49 C 531.98 609.33 529.41 612.10 526.60 614.61 C 521.75 613.85 516.85 614.01 511.98 614.08 C 506.03 614.18 500.00 613.44 494.13 614.73 L 494.03 614.74 C 493.12 612.18 492.50 609.52 492.21 606.83 C 498.86 606.73 505.51 606.66 512.16 606.83 C 511.79 608.63 511.58 610.47 511.54 612.32 Z" />
<path fill="#5a2400" opacity="1.00" d=" M 591.87 607.64 C 598.35 605.83 605.12 607.54 611.70 606.39 C 611.67 608.91 611.41 612.10 614.10 613.45 C 607.92 614.59 601.61 613.50 595.42 614.45 C 594.04 612.28 592.88 609.99 591.87 607.64 Z" />
<path fill="#5a2400" opacity="1.00" d=" M 358.85 607.73 C 365.41 607.65 371.98 607.54 378.55 607.80 C 378.62 609.96 378.96 612.25 380.97 613.49 C 374.87 614.62 368.65 613.49 362.53 614.45 L 362.30 614.48 C 361.04 612.28 359.90 610.03 358.85 607.73 Z" />
</g>
<g id="#582400ff">
<path fill="#582400" opacity="1.00" d=" M 437.49 605.58 C 439.10 605.33 440.69 604.97 442.29 604.64 C 443.86 607.30 444.57 611.25 448.06 612.05 C 452.20 613.18 456.08 610.52 458.83 607.69 C 468.48 607.99 478.20 606.93 487.78 608.30 C 485.21 610.57 482.53 612.71 479.74 614.70 L 479.61 614.70 C 466.23 615.40 452.81 614.36 439.45 615.39 C 438.01 612.32 437.27 608.97 437.49 605.58 Z" />
</g>
<g id="#481d00ff">
<path fill="#481d00" opacity="1.00" d=" M 235.07 613.88 C 238.34 613.10 241.70 612.96 245.05 613.08 C 249.31 613.22 253.69 612.58 257.80 614.03 C 257.56 617.64 257.44 621.29 258.18 624.86 C 251.48 625.07 244.66 624.09 238.09 625.72 L 238.01 625.74 C 236.62 621.90 235.58 617.93 235.07 613.88 Z" />
<path fill="#481d00" opacity="1.00" d=" M 439.45 615.39 C 452.81 614.36 466.23 615.40 479.61 614.70 C 470.95 621.07 459.88 625.01 449.10 622.88 C 444.86 622.08 441.78 618.80 439.45 615.39 Z" />
<path fill="#481d00" opacity="1.00" d=" M 541.39 615.53 C 547.56 614.39 553.83 615.03 560.06 614.93 C 565.27 614.88 570.49 614.77 575.68 615.39 C 569.95 619.66 563.39 623.67 555.99 623.56 C 550.19 623.30 545.10 619.78 541.39 615.53 Z" />
</g>
<g id="#4a1d00ff">
<path fill="#4a1d00" opacity="1.00" d=" M 380.97 613.49 C 381.39 613.48 382.25 613.45 382.67 613.43 C 387.09 614.06 391.59 613.87 395.97 614.80 C 391.09 619.32 385.11 624.11 378.03 623.52 C 371.76 623.27 365.99 619.59 362.53 614.45 C 368.65 613.49 374.87 614.62 380.97 613.49 Z" />
<path fill="#4a1d00" opacity="1.00" d=" M 614.10 613.45 C 615.78 613.19 617.42 612.57 619.15 612.58 C 622.89 612.89 626.62 613.28 630.37 613.49 C 625.14 618.54 618.80 624.11 611.02 623.52 C 604.68 623.29 599.07 619.45 595.42 614.45 C 601.61 613.50 607.92 614.59 614.10 613.45 Z" />
<path fill="#4a1d00" opacity="1.00" d=" M 634.22 613.67 C 640.44 612.59 646.77 613.29 653.04 613.01 C 656.65 612.86 660.29 612.94 663.83 613.79 C 660.16 617.67 656.32 622.11 650.91 623.42 C 643.84 624.53 637.83 619.17 634.22 613.67 Z" />
<path fill="#4a1d00" opacity="1.00" d=" M 401.54 614.33 C 405.34 614.01 409.15 613.90 412.96 614.00 C 418.61 614.19 424.35 613.35 429.90 614.79 C 426.26 618.50 422.36 622.89 416.90 623.55 C 410.39 624.01 405.14 619.19 401.54 614.33 Z" />
<path fill="#4a1d00" opacity="1.00" d=" M 494.13 614.73 C 500.00 613.44 506.03 614.18 511.98 614.08 C 516.85 614.01 521.75 613.85 526.60 614.61 C 521.14 619.29 514.67 624.13 507.06 623.52 C 501.49 623.35 496.49 619.69 494.13 614.73 Z" />
</g>
<g id="#441c00ff">
<path fill="#441c00" opacity="1.00" d=" M 319.74 623.76 C 323.79 620.88 327.74 617.87 331.50 614.62 C 336.55 615.24 341.69 614.52 346.68 615.67 C 343.80 618.80 340.80 621.82 337.69 624.72 L 337.57 624.70 C 331.67 623.69 325.67 624.43 319.74 623.76 Z" />
</g>
<g id="#2b1100ff">
<path fill="#2b1100" opacity="1.00" d=" M 238.09 625.72 C 244.66 624.09 251.48 625.07 258.18 624.86 C 259.99 629.61 263.78 633.20 268.12 635.69 C 260.49 636.37 252.68 634.84 245.20 636.77 L 245.11 636.79 C 242.24 633.47 239.77 629.79 238.09 625.72 Z" />
</g>
<g id="#150800ff">
<path fill="#150800" opacity="1.00" d=" M 268.12 635.69 C 279.09 640.14 291.15 636.48 301.93 633.43 C 309.73 634.96 317.70 633.38 325.53 634.56 C 320.50 638.06 315.28 641.42 309.61 643.76 C 307.10 643.38 304.58 642.94 302.04 643.00 C 290.00 643.16 277.96 642.85 265.93 643.05 C 262.00 643.24 257.77 641.67 254.18 643.94 C 250.86 641.99 247.80 639.60 245.20 636.77 C 252.68 634.84 260.49 636.37 268.12 635.69 Z" />
</g>
<g id="#030200ff">
<path fill="#030200" opacity="1.00" d=" M 254.18 643.94 C 257.77 641.67 262.00 643.24 265.93 643.05 C 277.96 642.85 290.00 643.16 302.04 643.00 C 304.58 642.94 307.10 643.38 309.61 643.76 C 297.20 650.04 282.75 651.67 269.11 649.41 C 263.85 648.52 258.79 646.62 254.18 643.94 Z" />
</g>
</svg>
