<?xml version="1.0" encoding="UTF-8" ?>
<!DOCTYPE svg PUBLIC "-//W3C//DTD SVG 1.1//EN" "http://www.w3.org/Graphics/SVG/1.1/DTD/svg11.dtd">
<svg width="650pt" height="624pt" viewBox="0 0 650 624" version="1.1" xmlns="http://www.w3.org/2000/svg">
<g id="#f6f6f6ff">
</g>
<g id="#ffe6e5ff">
<path fill="#ffe6e5" opacity="1.00" d=" M 208.86 0.00 L 224.73 0.00 C 225.54 0.75 226.35 1.49 227.16 2.24 C 221.19 0.96 215.01 1.01 209.02 2.10 C 208.98 1.58 208.90 0.53 208.86 0.00 Z" />
</g>
<g id="#de2127ff">
<path fill="#de2127" opacity="1.00" d=" M 182.94 7.96 C 191.01 3.80 200.27 3.71 209.02 2.10 C 215.01 1.01 221.19 0.96 227.16 2.24 C 239.01 5.50 249.23 13.98 254.49 25.10 C 258.58 33.24 259.19 42.47 260.50 51.33 C 261.88 60.01 263.12 68.70 264.41 77.39 C 265.60 83.70 265.48 90.31 263.41 96.43 C 262.23 100.84 259.18 105.32 254.18 105.58 C 253.13 105.66 252.08 105.74 251.04 105.80 C 252.30 99.63 254.13 93.32 253.02 86.98 C 252.71 84.81 252.63 82.62 252.90 80.45 C 253.53 80.14 254.81 79.50 255.45 79.19 C 257.14 71.29 254.36 63.44 253.53 55.61 C 252.48 49.35 252.02 43.01 250.99 36.74 C 250.78 33.16 247.21 31.93 244.17 31.73 C 242.68 31.70 241.19 31.69 239.70 31.69 C 233.99 31.62 228.28 31.50 222.57 31.60 C 221.08 31.62 219.60 31.63 218.12 31.68 C 216.10 31.75 214.08 31.87 212.07 32.05 C 200.56 33.45 189.25 36.46 178.40 40.51 C 175.36 41.67 172.00 42.37 169.44 44.48 C 167.39 46.35 167.27 49.37 167.64 51.94 C 169.07 62.97 171.09 73.91 172.63 84.92 C 173.16 88.10 174.61 91.80 178.20 92.43 C 179.16 94.85 179.64 97.41 180.07 99.97 C 181.02 105.53 184.16 110.32 186.49 115.35 C 184.38 115.58 182.05 116.36 180.06 115.23 C 178.03 114.12 176.40 112.47 174.59 111.06 L 174.03 112.04 C 169.66 107.04 167.25 100.62 166.36 94.09 C 164.35 80.08 162.14 66.10 160.20 52.08 C 157.90 34.65 166.90 15.76 182.94 7.96 Z" />
<path fill="#de2127" opacity="1.00" d=" M 194.15 139.73 C 196.42 137.12 199.59 135.66 202.37 133.70 L 203.25 134.65 C 203.45 139.48 202.43 145.05 205.87 149.04 C 211.18 154.97 217.50 161.58 226.03 161.82 C 230.45 161.86 236.34 160.78 237.86 155.95 C 239.21 150.46 235.80 145.39 233.03 140.96 C 232.40 139.79 231.86 138.59 231.36 137.36 C 248.78 149.27 258.44 169.48 263.27 189.47 C 265.89 202.28 268.37 215.13 271.10 227.92 C 271.13 228.52 271.19 229.73 271.22 230.34 C 265.23 232.52 259.02 234.04 252.93 235.89 C 246.02 238.44 237.51 235.26 234.60 228.35 C 231.68 222.49 228.78 216.63 225.89 210.77 C 224.70 208.30 223.58 205.80 222.27 203.39 L 221.08 203.63 C 222.67 202.80 224.31 201.96 225.65 200.73 C 225.75 197.86 224.14 195.17 223.28 192.49 C 219.30 183.36 214.41 174.65 210.48 165.49 C 208.18 160.01 202.98 155.56 196.97 154.88 C 192.80 153.93 188.68 155.41 184.77 156.71 C 186.02 150.15 191.08 145.42 194.15 139.73 Z" />
<path fill="#de2127" opacity="1.00" d=" M 358.77 180.45 C 364.29 165.76 375.42 153.09 389.83 146.66 C 394.06 145.56 398.81 148.60 399.24 153.01 C 399.43 155.10 400.28 156.99 401.81 158.44 L 402.00 156.91 C 411.62 172.96 420.82 189.26 430.50 205.28 C 419.50 209.71 408.19 213.36 397.20 217.82 C 394.70 219.08 391.99 220.27 389.12 219.86 C 384.83 216.83 383.64 210.46 378.60 208.36 C 376.55 205.95 374.60 203.47 372.74 200.93 C 366.01 201.94 359.75 204.76 353.14 206.31 C 353.72 197.47 355.51 188.69 358.77 180.45 Z" />
<path fill="#de2127" opacity="1.00" d=" M 178.41 180.11 C 181.28 184.75 182.64 190.09 185.17 194.90 C 188.81 201.66 191.54 208.85 194.62 215.87 C 196.42 215.57 198.23 215.14 199.83 214.20 C 200.41 215.28 201.01 216.38 201.59 217.48 C 206.18 225.99 209.95 234.93 214.73 243.35 C 219.13 250.78 226.22 256.12 234.00 259.63 C 235.81 260.93 237.74 262.32 240.07 262.38 C 250.21 263.00 261.26 262.84 270.12 257.26 C 272.24 256.55 274.41 256.01 276.58 255.44 C 279.35 269.02 282.05 282.62 284.83 296.20 C 283.40 296.83 281.98 297.47 280.55 298.09 C 264.41 303.64 248.62 310.16 232.42 315.56 C 224.83 318.89 216.79 320.98 209.18 324.27 C 206.12 325.56 202.76 325.43 199.51 325.56 C 199.34 325.89 199.00 326.57 198.83 326.90 C 192.16 286.63 185.18 246.40 178.44 206.13 C 177.93 202.88 177.56 199.61 177.45 196.32 C 178.58 190.98 178.14 185.52 178.41 180.11 Z" />
<path fill="#de2127" opacity="1.00" d=" M 379.90 242.40 C 381.43 239.66 382.85 236.86 384.40 234.13 C 386.38 236.99 388.31 239.89 390.00 242.94 C 392.86 248.29 396.91 252.89 399.56 258.37 C 401.53 262.52 404.72 265.89 407.16 269.75 C 410.82 276.11 414.88 282.22 418.45 288.63 C 423.52 295.41 427.46 302.92 432.09 309.99 C 438.44 319.93 444.37 330.16 451.23 339.77 C 453.86 343.56 455.95 347.70 458.70 351.41 C 462.36 356.25 464.44 362.05 468.12 366.87 C 472.56 372.63 475.95 379.08 479.89 385.17 C 486.48 396.75 494.47 407.50 500.96 419.12 C 495.77 422.04 489.82 423.09 484.45 425.59 C 479.76 427.26 475.37 430.13 470.29 430.43 C 469.04 427.51 467.69 424.63 466.49 421.70 C 466.16 420.92 465.85 420.14 465.54 419.37 C 464.76 419.94 463.97 420.49 463.18 421.03 C 462.70 421.16 461.75 421.40 461.27 421.52 C 462.40 420.47 463.47 419.36 464.60 418.31 C 462.47 413.88 460.36 409.44 458.33 404.96 C 432.05 350.84 406.13 296.54 379.90 242.40 Z" />
<path fill="#de2127" opacity="1.00" d=" M 545.40 334.69 C 560.76 332.26 576.20 330.22 591.60 328.06 C 591.99 329.56 592.57 331.04 592.67 332.61 C 591.70 333.65 590.57 334.52 589.47 335.39 C 574.84 346.78 560.34 358.33 545.68 369.67 C 542.05 372.47 538.66 375.59 534.77 378.03 C 530.75 382.32 525.63 385.10 520.14 387.06 C 519.89 385.03 519.76 382.99 519.74 380.96 C 519.84 367.61 516.74 354.34 517.83 340.99 C 518.12 340.70 518.70 340.11 518.99 339.82 C 523.90 338.79 529.01 338.99 533.84 337.50 C 537.62 336.23 541.89 336.80 545.40 334.69 Z" />
<path fill="#de2127" opacity="1.00" d=" M 193.84 412.81 C 208.62 407.34 223.38 401.83 238.17 396.40 C 237.40 396.84 236.64 397.30 235.88 397.77 C 236.67 397.77 238.24 397.77 239.03 397.77 C 250.89 408.31 263.28 418.23 274.94 428.99 C 282.60 434.89 289.08 442.16 296.92 447.85 C 310.16 458.54 322.66 470.15 335.77 481.02 C 337.80 486.65 340.56 492.00 342.09 497.82 C 342.55 497.89 343.47 498.03 343.93 498.11 C 330.30 503.49 316.41 508.19 302.82 513.67 C 298.10 515.35 293.30 516.78 288.64 518.61 C 282.16 521.28 275.55 523.60 268.97 525.99 C 254.24 531.66 239.29 536.77 224.62 542.61 C 219.45 544.47 214.34 546.70 208.89 547.61 C 208.75 548.16 208.62 548.73 208.48 549.30 C 205.13 549.43 202.04 550.72 198.99 551.96 C 187.97 556.12 176.79 559.86 165.87 564.27 C 160.40 566.27 155.02 568.54 149.50 570.41 C 145.45 571.95 141.00 572.02 137.02 573.80 C 137.66 573.74 138.94 573.63 139.59 573.57 C 138.54 574.10 137.48 574.62 136.42 575.14 C 129.77 576.84 123.20 582.16 116.14 579.44 C 113.83 572.63 111.01 566.00 109.15 559.05 C 103.94 549.65 102.05 538.92 97.89 529.08 C 96.33 525.65 96.24 521.73 94.42 518.41 C 93.04 515.88 92.16 513.10 92.04 510.21 C 94.89 489.02 98.55 467.93 101.66 446.78 C 103.99 445.95 106.29 445.06 108.60 444.20 C 131.00 436.34 153.11 427.68 175.45 419.67 C 177.64 419.72 179.90 419.84 181.93 418.85 C 186.35 416.98 191.00 415.65 195.25 413.38 L 193.84 412.81 M 237.68 481.60 C 212.53 491.23 187.22 500.41 162.03 509.92 C 159.27 510.46 160.36 513.66 160.33 515.63 C 161.87 515.64 163.43 515.77 164.97 515.56 C 188.58 506.63 212.38 498.13 235.96 489.07 C 238.88 487.87 242.10 487.39 244.89 485.89 C 246.96 484.65 247.11 481.35 244.85 480.24 C 242.38 479.69 239.95 480.77 237.68 481.60 M 229.93 497.75 C 208.67 505.53 187.36 513.21 166.21 521.29 C 162.56 522.10 164.12 528.96 167.92 527.31 C 193.92 517.98 219.70 508.02 245.67 498.58 C 247.51 497.82 249.97 497.28 250.58 495.06 C 250.87 493.33 249.11 492.37 248.25 491.17 C 242.05 493.07 235.90 495.19 229.93 497.75 M 169.90 532.87 C 167.57 533.54 167.87 536.57 168.84 538.23 C 171.89 539.55 175.08 537.82 177.91 536.73 C 197.06 529.70 216.07 522.32 235.26 515.40 C 241.65 512.67 248.58 511.15 254.62 507.63 C 254.61 506.52 254.61 505.42 254.62 504.32 C 253.44 503.72 252.26 503.12 251.09 502.54 C 224.15 512.94 196.95 522.74 169.90 532.87 Z" />
</g>
<g id="#5c1e15ff">
<path fill="#5c1e15" opacity="1.00" d=" M 178.40 40.51 C 189.25 36.46 200.56 33.45 212.07 32.05 C 212.50 34.85 212.91 37.65 213.31 40.45 C 203.44 42.33 193.47 44.21 184.22 48.26 C 181.80 49.16 180.93 51.75 179.94 53.89 C 179.90 53.10 179.82 51.54 179.77 50.76 C 177.65 51.73 174.85 52.52 174.07 55.00 C 173.67 58.02 174.47 61.01 174.98 63.97 C 176.11 69.23 175.78 74.68 176.95 79.94 C 177.63 82.88 177.86 85.90 177.60 88.91 C 178.96 89.94 180.35 90.94 181.84 91.79 C 180.63 92.04 179.42 92.25 178.20 92.43 C 174.61 91.80 173.16 88.10 172.63 84.92 C 171.09 73.91 169.07 62.97 167.64 51.94 C 167.27 49.37 167.39 46.35 169.44 44.48 C 172.00 42.37 175.36 41.67 178.40 40.51 Z" />
</g>
<g id="#865544ff">
<path fill="#865544" opacity="1.00" d=" M 212.07 32.05 C 214.08 31.87 216.10 31.75 218.12 31.68 C 218.56 34.38 219.02 37.08 219.44 39.78 C 217.52 39.97 215.59 40.15 213.67 40.40 L 213.31 40.45 C 212.91 37.65 212.50 34.85 212.07 32.05 Z" />
</g>
<g id="#541f10ff">
<path fill="#541f10" opacity="1.00" d=" M 218.12 31.68 C 219.60 31.63 221.08 31.62 222.57 31.60 C 222.75 34.43 222.94 37.25 223.12 40.07 C 221.97 40.61 220.85 41.19 219.74 41.78 C 219.66 41.28 219.52 40.28 219.44 39.78 C 219.02 37.08 218.56 34.38 218.12 31.68 Z" />
</g>
<g id="#865443ff">
<path fill="#865443" opacity="1.00" d=" M 222.57 31.60 C 228.28 31.50 233.99 31.62 239.70 31.69 C 240.50 36.04 240.87 40.44 241.03 44.85 C 236.84 39.61 229.62 40.36 223.64 39.98 L 223.12 40.07 C 222.94 37.25 222.75 34.43 222.57 31.60 Z" />
</g>
<g id="#5a1e15ff">
<path fill="#5a1e15" opacity="1.00" d=" M 239.70 31.69 C 241.19 31.69 242.68 31.70 244.17 31.73 C 246.83 34.43 248.88 37.63 250.76 40.90 C 250.85 39.52 250.93 38.13 250.99 36.74 C 252.02 43.01 252.48 49.35 253.53 55.61 C 254.36 63.44 257.14 71.29 255.45 79.19 C 254.81 79.50 253.53 80.14 252.90 80.45 C 251.56 80.69 250.21 80.82 248.88 80.98 C 249.64 80.34 250.39 79.70 251.15 79.04 C 251.55 72.92 249.85 66.97 249.07 60.95 C 248.25 55.04 247.05 49.19 245.24 43.50 C 243.68 43.47 241.90 43.28 241.23 45.09 L 241.03 44.85 C 240.87 40.44 240.50 36.04 239.70 31.69 Z" />
</g>
<g id="#7f0f0bff">
<path fill="#7f0f0b" opacity="1.00" d=" M 244.17 31.73 C 247.21 31.93 250.78 33.16 250.99 36.74 C 250.93 38.13 250.85 39.52 250.76 40.90 C 248.88 37.63 246.83 34.43 244.17 31.73 Z" />
</g>
<g id="#573728ff">
<path fill="#573728" opacity="1.00" d=" M 213.31 40.45 L 213.67 40.40 C 214.11 47.22 215.38 53.96 216.35 60.72 C 217.53 68.27 218.32 75.89 219.84 83.38 C 207.56 84.94 195.44 87.68 183.60 91.29 L 183.42 91.34 C 182.80 78.82 177.93 66.47 179.94 53.89 C 180.93 51.75 181.80 49.16 184.22 48.26 C 193.47 44.21 203.44 42.33 213.31 40.45 M 192.19 63.92 C 194.40 63.78 196.02 62.19 198.04 61.54 C 199.62 61.69 201.10 62.29 202.65 62.57 C 204.34 62.37 204.16 59.92 202.73 59.39 C 199.12 56.98 191.63 58.65 192.19 63.92 M 198.37 67.42 C 196.77 68.42 195.50 70.06 195.04 71.91 C 194.73 76.17 195.36 81.19 199.06 83.90 C 201.19 85.68 203.81 83.47 204.54 81.38 C 205.81 77.43 205.65 72.54 202.72 69.33 C 201.66 68.10 200.09 66.96 198.37 67.42 Z" />
</g>
<g id="#826656ff">
<path fill="#826656" opacity="1.00" d=" M 213.67 40.40 C 215.59 40.15 217.52 39.97 219.44 39.78 C 219.52 40.28 219.66 41.28 219.74 41.78 C 220.16 46.17 221.30 50.50 221.31 54.91 C 220.88 55.47 220.02 56.58 219.60 57.13 C 219.49 57.85 219.39 58.57 219.30 59.29 C 220.43 59.58 221.56 59.87 222.69 60.16 C 222.79 61.75 222.90 63.35 222.93 64.95 L 222.71 65.90 C 221.22 70.20 222.27 74.74 224.86 78.36 C 225.17 79.38 225.48 80.40 225.79 81.42 C 226.82 81.74 227.85 82.07 228.88 82.40 C 225.88 82.80 222.85 83.03 219.84 83.38 C 218.32 75.89 217.53 68.27 216.35 60.72 C 215.38 53.96 214.11 47.22 213.67 40.40 Z" />
</g>
<g id="#543626ff">
<path fill="#543626" opacity="1.00" d=" M 219.74 41.78 C 220.85 41.19 221.97 40.61 223.12 40.07 L 223.64 39.98 C 224.01 44.70 224.57 49.43 225.86 54.00 C 227.52 54.55 229.16 55.22 230.71 56.06 C 230.69 56.75 230.67 58.13 230.66 58.82 C 229.11 58.16 227.58 57.50 226.04 56.85 C 226.11 54.39 223.94 54.28 222.07 54.13 C 222.06 55.37 222.06 56.62 222.06 57.86 C 223.43 57.87 224.81 57.89 226.20 57.90 C 226.40 59.47 226.59 61.03 226.80 62.59 C 225.51 63.37 224.20 64.14 222.93 64.95 C 222.90 63.35 222.79 61.75 222.69 60.16 C 221.56 59.87 220.43 59.58 219.30 59.29 C 219.39 58.57 219.49 57.85 219.60 57.13 C 220.02 56.58 220.88 55.47 221.31 54.91 C 221.30 50.50 220.16 46.17 219.74 41.78 Z" />
</g>
<g id="#816655ff">
<path fill="#816655" opacity="1.00" d=" M 223.64 39.98 C 229.62 40.36 236.84 39.61 241.03 44.85 L 241.23 45.09 C 244.10 56.98 244.96 69.22 247.30 81.20 L 247.34 81.42 C 241.41 81.62 235.48 81.73 229.57 82.30 C 230.83 78.34 232.76 74.24 231.87 69.98 C 231.43 66.85 228.97 64.65 226.80 62.59 C 226.59 61.03 226.40 59.47 226.20 57.90 L 226.04 56.85 C 227.58 57.50 229.11 58.16 230.66 58.82 C 230.67 58.13 230.69 56.75 230.71 56.06 C 229.16 55.22 227.52 54.55 225.86 54.00 C 224.57 49.43 224.01 44.70 223.64 39.98 Z" />
</g>
<g id="#451c0fff">
<path fill="#451c0f" opacity="1.00" d=" M 241.23 45.09 C 241.90 43.28 243.68 43.47 245.24 43.50 C 247.05 49.19 248.25 55.04 249.07 60.95 C 249.85 66.97 251.55 72.92 251.15 79.04 C 250.39 79.70 249.64 80.34 248.88 80.98 C 248.48 81.04 247.69 81.15 247.30 81.20 C 244.96 69.22 244.10 56.98 241.23 45.09 Z" />
</g>
<g id="#481a10ff">
<path fill="#481a10" opacity="1.00" d=" M 174.07 55.00 C 174.85 52.52 177.65 51.73 179.77 50.76 C 179.82 51.54 179.90 53.10 179.94 53.89 C 177.93 66.47 182.80 78.82 183.42 91.34 C 183.03 91.46 182.24 91.68 181.84 91.79 C 180.35 90.94 178.96 89.94 177.60 88.91 C 177.86 85.90 177.63 82.88 176.95 79.94 C 175.78 74.68 176.11 69.23 174.98 63.97 C 174.47 61.01 173.67 58.02 174.07 55.00 Z" />
</g>
<g id="#331808ff">
<path fill="#331808" opacity="1.00" d=" M 222.07 54.13 C 223.94 54.28 226.11 54.39 226.04 56.85 L 226.20 57.90 C 224.81 57.89 223.43 57.87 222.06 57.86 C 222.06 56.62 222.06 55.37 222.07 54.13 Z" />
</g>
<g id="#2b0d02ff">
<path fill="#2b0d02" opacity="1.00" d=" M 192.19 63.92 C 191.63 58.65 199.12 56.98 202.73 59.39 C 204.16 59.92 204.34 62.37 202.65 62.57 C 201.10 62.29 199.62 61.69 198.04 61.54 C 196.02 62.19 194.40 63.78 192.19 63.92 Z" />
</g>
<g id="#2d1104ff">
<path fill="#2d1104" opacity="1.00" d=" M 222.93 64.95 C 224.20 64.14 225.51 63.37 226.80 62.59 C 227.55 69.19 229.21 75.71 228.88 82.40 C 227.85 82.07 226.82 81.74 225.79 81.42 C 225.48 80.40 225.17 79.38 224.86 78.36 C 224.26 74.90 223.94 71.27 225.35 67.95 C 224.47 67.27 223.59 66.58 222.71 65.90 L 222.93 64.95 Z" />
</g>
<g id="#624638ff">
<path fill="#624638" opacity="1.00" d=" M 226.80 62.59 C 228.97 64.65 231.43 66.85 231.87 69.98 C 232.76 74.24 230.83 78.34 229.57 82.30 L 228.88 82.40 C 229.21 75.71 227.55 69.19 226.80 62.59 Z" />
</g>
<g id="#624838ff">
<path fill="#624838" opacity="1.00" d=" M 224.86 78.36 C 222.27 74.74 221.22 70.20 222.71 65.90 C 223.59 66.58 224.47 67.27 225.35 67.95 C 223.94 71.27 224.26 74.90 224.86 78.36 Z" />
</g>
<g id="#2d1309ff">
<path fill="#2d1309" opacity="1.00" d=" M 198.37 67.42 C 200.09 66.96 201.66 68.10 202.72 69.33 C 205.65 72.54 205.81 77.43 204.54 81.38 C 203.81 83.47 201.19 85.68 199.06 83.90 C 195.36 81.19 194.73 76.17 195.04 71.91 C 195.50 70.06 196.77 68.42 198.37 67.42 M 197.26 74.72 C 199.21 74.57 198.74 72.30 198.98 70.94 C 196.43 70.65 195.69 73.02 197.26 74.72 Z" />
</g>
<g id="#51362bff">
<path fill="#51362b" opacity="1.00" d=" M 197.26 74.72 C 195.69 73.02 196.43 70.65 198.98 70.94 C 198.74 72.30 199.21 74.57 197.26 74.72 Z" />
</g>
<g id="#911d1fff">
<path fill="#911d1f" opacity="1.00" d=" M 248.88 80.98 C 250.21 80.82 251.56 80.69 252.90 80.45 C 252.63 82.62 252.71 84.81 253.02 86.98 C 254.13 93.32 252.30 99.63 251.04 105.80 C 250.81 106.31 250.37 107.33 250.14 107.84 L 250.45 106.97 C 248.99 105.33 247.51 103.72 246.14 102.02 C 248.57 95.45 248.92 88.23 247.34 81.42 L 247.30 81.20 C 247.69 81.15 248.48 81.04 248.88 80.98 Z" />
</g>
<g id="#dfb29bff">
<path fill="#dfb29b" opacity="1.00" d=" M 228.88 82.40 L 229.57 82.30 C 235.48 81.73 241.41 81.62 247.34 81.42 C 248.92 88.23 248.57 95.45 246.14 102.02 C 247.51 103.72 248.99 105.33 250.45 106.97 L 250.14 107.84 C 245.30 118.86 235.05 127.47 223.13 129.62 C 210.06 132.27 196.11 126.67 187.86 116.34 C 188.86 114.63 190.28 113.00 190.45 110.95 C 190.27 109.32 189.08 108.08 188.35 106.69 C 185.38 102.11 184.13 96.66 183.60 91.29 C 195.44 87.68 207.56 84.94 219.84 83.38 C 222.85 83.03 225.88 82.80 228.88 82.40 M 201.29 97.39 C 202.03 102.97 205.39 107.92 210.22 110.77 C 214.39 113.13 219.72 113.11 223.98 111.00 C 228.78 108.01 232.19 102.70 232.34 96.97 C 232.44 95.30 232.75 91.98 230.04 92.90 C 220.47 94.49 210.83 95.66 201.29 97.39 Z" />
<path fill="#dfb29b" opacity="1.00" d=" M 353.14 206.31 C 359.75 204.76 366.01 201.94 372.74 200.93 C 374.60 203.47 376.55 205.95 378.60 208.36 C 382.56 213.46 386.36 218.69 389.97 224.04 C 388.18 227.44 386.28 230.78 384.40 234.13 C 382.85 236.86 381.43 239.66 379.90 242.40 C 379.23 243.50 378.56 244.59 377.88 245.69 C 371.19 245.21 364.54 244.27 357.83 244.22 C 354.21 243.65 350.60 243.09 346.94 242.88 C 343.81 242.91 341.36 240.72 338.64 239.53 C 335.07 238.93 331.65 240.35 328.27 241.27 C 311.04 245.98 293.79 250.64 276.58 255.44 C 274.41 256.01 272.24 256.55 270.12 257.26 C 262.81 258.98 255.67 261.92 248.06 261.90 C 243.27 262.02 238.55 261.01 234.00 259.63 C 226.22 256.12 219.13 250.78 214.73 243.35 C 209.95 234.93 206.18 225.99 201.59 217.48 C 209.45 214.44 218.05 213.93 225.89 210.77 C 228.78 216.63 231.68 222.49 234.60 228.35 C 237.51 235.26 246.02 238.44 252.93 235.89 C 259.02 234.04 265.23 232.52 271.22 230.34 C 271.19 229.73 271.13 228.52 271.10 227.92 C 271.35 228.42 271.84 229.43 272.09 229.94 C 276.31 229.29 280.36 227.89 284.43 226.62 C 307.38 220.02 330.29 213.26 353.14 206.31 M 359.10 218.16 C 355.66 218.98 352.66 221.52 351.59 224.94 C 349.85 229.80 352.29 235.73 357.09 237.75 C 362.89 240.84 370.61 236.40 371.26 229.97 C 372.76 223.15 365.82 216.56 359.10 218.16 Z" />
</g>
<g id="#961c20ff">
<path fill="#961c20" opacity="1.00" d=" M 183.42 91.34 L 183.60 91.29 C 184.13 96.66 185.38 102.11 188.35 106.69 C 189.08 108.08 190.27 109.32 190.45 110.95 C 190.28 113.00 188.86 114.63 187.86 116.34 C 186.65 116.38 185.45 116.41 184.25 116.45 C 180.28 116.90 176.24 115.49 174.03 112.04 L 174.59 111.06 C 176.40 112.47 178.03 114.12 180.06 115.23 C 182.05 116.36 184.38 115.58 186.49 115.35 C 184.16 110.32 181.02 105.53 180.07 99.97 C 179.64 97.41 179.16 94.85 178.20 92.43 C 179.42 92.25 180.63 92.04 181.84 91.79 C 182.24 91.68 183.03 91.46 183.42 91.34 Z" />
</g>
<g id="#fffefdff">
<path fill="#fffefd" opacity="1.00" d=" M 201.29 97.39 C 210.83 95.66 220.47 94.49 230.04 92.90 C 232.75 91.98 232.44 95.30 232.34 96.97 C 232.19 102.70 228.78 108.01 223.98 111.00 C 219.72 113.11 214.39 113.13 210.22 110.77 C 205.39 107.92 202.03 102.97 201.29 97.39 Z" />
</g>
<g id="#3f1e0aff">
<path fill="#3f1e0a" opacity="1.00" d=" M 251.04 105.80 C 252.08 105.74 253.13 105.66 254.18 105.58 C 250.58 118.38 240.18 128.97 227.35 132.57 C 219.69 134.84 211.41 134.44 203.84 132.00 C 195.90 129.02 188.88 123.58 184.25 116.45 C 185.45 116.41 186.65 116.38 187.86 116.34 C 196.11 126.67 210.06 132.27 223.13 129.62 C 235.05 127.47 245.30 118.86 250.14 107.84 C 250.37 107.33 250.81 106.31 251.04 105.80 Z" />
</g>
<g id="#ce8f70ff">
<path fill="#ce8f70" opacity="1.00" d=" M 203.84 132.00 C 211.41 134.44 219.69 134.84 227.35 132.57 C 227.82 134.79 229.55 136.20 231.36 137.36 C 231.86 138.59 232.40 139.79 233.03 140.96 C 224.12 142.83 214.50 142.61 206.04 139.02 C 204.29 138.69 204.49 136.78 204.00 135.46 C 203.82 135.26 203.44 134.85 203.25 134.65 L 202.37 133.70 C 202.74 133.28 203.48 132.43 203.84 132.00 Z" />
</g>
<g id="#e0b29bff">
<path fill="#e0b29b" opacity="1.00" d=" M 203.25 134.65 C 203.44 134.85 203.82 135.26 204.00 135.46 C 204.49 136.78 204.29 138.69 206.04 139.02 C 214.50 142.61 224.12 142.83 233.03 140.96 C 235.80 145.39 239.21 150.46 237.86 155.95 C 236.34 160.78 230.45 161.86 226.03 161.82 C 217.50 161.58 211.18 154.97 205.87 149.04 C 202.43 145.05 203.45 139.48 203.25 134.65 Z" />
</g>
<g id="#842726ff">
<path fill="#842726" opacity="1.00" d=" M 395.60 144.33 C 402.91 141.79 409.99 138.51 417.50 136.62 C 415.05 143.76 408.64 148.85 402.08 152.13 L 400.73 151.77 C 403.13 147.73 409.12 147.66 410.66 142.97 C 410.60 142.62 410.48 141.91 410.42 141.56 C 408.24 141.38 406.14 142.09 404.08 142.68 C 403.44 143.75 403.35 145.49 402.00 145.92 C 399.80 145.68 397.71 144.94 395.60 144.33 Z" />
</g>
<g id="#951e24ff">
<path fill="#951e24" opacity="1.00" d=" M 183.29 156.13 C 185.69 149.98 189.31 144.26 194.15 139.73 C 191.08 145.42 186.02 150.15 184.77 156.71 C 188.68 155.41 192.80 153.93 196.97 154.88 C 202.98 155.56 208.18 160.01 210.48 165.49 C 214.41 174.65 219.30 183.36 223.28 192.49 C 224.14 195.17 225.75 197.86 225.65 200.73 C 224.31 201.96 222.67 202.80 221.08 203.63 C 214.01 207.20 206.70 210.25 199.83 214.20 C 198.23 215.14 196.42 215.57 194.62 215.87 C 191.54 208.85 188.81 201.66 185.17 194.90 C 182.64 190.09 181.28 184.75 178.41 180.11 C 178.14 185.52 178.58 190.98 177.45 196.32 C 177.05 191.19 177.15 186.03 177.53 180.89 C 177.88 176.61 176.42 172.30 177.51 168.06 C 178.51 163.67 181.79 160.32 183.29 156.13 Z" />
<path fill="#951e24" opacity="1.00" d=" M 378.60 208.36 C 383.64 210.46 384.83 216.83 389.12 219.86 C 391.99 220.27 394.70 219.08 397.20 217.82 C 406.33 230.53 415.56 243.18 424.47 256.05 C 430.61 253.03 436.91 250.21 442.67 246.50 C 441.50 244.39 440.42 242.25 439.37 240.09 C 443.32 241.90 442.07 246.83 444.19 249.97 C 445.57 252.30 446.45 254.87 446.45 257.61 C 441.32 260.00 436.35 262.73 431.26 265.22 C 435.16 270.95 439.36 276.46 443.22 282.22 C 447.88 280.25 452.32 277.80 456.76 275.37 C 458.41 278.74 459.72 282.28 461.49 285.59 C 457.66 287.57 453.81 289.50 450.00 291.50 C 453.12 295.81 456.13 300.21 459.40 304.42 C 461.82 307.85 464.10 311.38 466.61 314.75 C 470.82 320.67 475.21 326.47 479.29 332.49 C 480.41 334.07 481.40 335.82 482.97 337.02 C 494.13 336.91 505.30 336.82 516.46 336.54 C 516.68 337.07 517.13 338.13 517.35 338.66 C 526.68 337.22 536.04 335.90 545.40 334.69 C 541.89 336.80 537.62 336.23 533.84 337.50 C 529.01 338.99 523.90 338.79 518.99 339.82 C 518.70 340.11 518.12 340.70 517.83 340.99 C 516.74 354.34 519.84 367.61 519.74 380.96 C 519.76 382.99 519.89 385.03 520.14 387.06 C 520.22 387.67 520.36 388.88 520.44 389.49 C 521.40 403.02 522.22 416.56 523.10 430.11 C 523.55 431.95 521.43 432.45 520.20 433.05 C 513.05 435.68 505.80 438.09 498.70 440.88 C 492.71 443.13 486.72 445.38 480.70 447.56 C 435.05 464.25 389.67 481.66 343.93 498.11 C 343.47 498.03 342.55 497.89 342.09 497.82 C 340.56 492.00 337.80 486.65 335.77 481.02 C 346.99 476.90 358.19 472.72 369.41 468.56 C 373.03 467.13 376.84 466.10 380.24 464.14 C 387.96 461.50 395.91 459.45 403.34 456.06 C 410.99 451.98 419.50 450.03 427.47 446.72 C 433.70 444.73 439.55 441.75 445.87 440.03 C 453.66 437.62 460.88 433.30 468.99 432.04 C 469.31 431.64 469.96 430.83 470.29 430.43 C 475.37 430.13 479.76 427.26 484.45 425.59 C 489.82 423.09 495.77 422.04 500.96 419.12 C 494.47 407.50 486.48 396.75 479.89 385.17 C 475.95 379.08 472.56 372.63 468.12 366.87 C 464.44 362.05 462.36 356.25 458.70 351.41 C 455.95 347.70 453.86 343.56 451.23 339.77 C 444.37 330.16 438.44 319.93 432.09 309.99 C 427.46 302.92 423.52 295.41 418.45 288.63 C 414.88 282.22 410.82 276.11 407.16 269.75 C 404.72 265.89 401.53 262.52 399.56 258.37 C 396.91 252.89 392.86 248.29 390.00 242.94 C 388.31 239.89 386.38 236.99 384.40 234.13 C 386.28 230.78 388.18 227.44 389.97 224.04 C 386.36 218.69 382.56 213.46 378.60 208.36 Z" />
<path fill="#951e24" opacity="1.00" d=" M 280.55 298.09 C 306.27 293.26 331.84 287.60 357.51 282.49 C 377.90 321.39 398.28 360.30 418.64 399.22 C 415.04 400.46 411.47 401.78 407.91 403.13 C 397.01 407.17 386.09 411.16 375.22 415.30 C 373.53 415.88 371.83 416.42 370.13 416.94 C 364.55 403.04 358.53 389.33 352.69 375.54 C 350.15 369.95 353.57 363.71 351.58 357.98 C 350.22 353.93 349.77 349.38 347.02 345.95 C 343.19 341.04 339.35 336.15 335.61 331.19 C 324.24 335.43 312.84 339.62 301.47 343.86 C 286.19 349.48 270.97 355.29 255.66 360.83 C 247.06 363.70 238.82 367.67 229.98 369.83 C 221.48 371.19 212.76 365.28 210.75 356.94 C 208.48 346.77 206.33 336.58 204.28 326.36 C 202.47 326.88 200.67 327.42 198.87 327.95 L 198.83 326.90 C 199.00 326.57 199.34 325.89 199.51 325.56 C 202.76 325.43 206.12 325.56 209.18 324.27 C 216.79 320.98 224.83 318.89 232.42 315.56 C 248.62 310.16 264.41 303.64 280.55 298.09 Z" />
<path fill="#951e24" opacity="1.00" d=" M 158.11 284.35 C 159.85 284.13 161.58 283.85 163.30 283.55 C 165.03 286.14 167.03 289.18 166.28 292.44 C 165.72 294.81 163.27 295.60 161.29 296.44 C 162.92 297.62 164.33 299.12 164.86 301.12 C 173.86 326.77 183.25 352.29 192.22 377.95 C 194.06 386.55 200.15 394.11 199.75 403.15 C 148.25 422.19 96.80 441.34 45.30 460.35 C 44.25 459.13 43.00 458.00 42.45 456.44 C 31.50 425.81 20.54 395.18 9.61 364.54 C 8.49 361.01 6.19 357.42 7.42 353.60 C 5.79 353.38 3.79 353.83 2.63 352.37 C 1.27 350.57 0.67 348.34 0.00 346.22 L 0.00 344.50 C 0.37 343.97 1.12 342.93 1.49 342.41 C 1.58 344.79 1.24 347.32 2.20 349.57 C 2.88 351.55 5.27 351.50 6.98 351.91 C 12.33 353.03 16.93 349.38 21.83 347.92 C 33.23 344.11 44.26 339.32 55.71 335.64 C 67.83 331.23 79.85 326.50 91.97 322.08 C 97.40 319.50 103.16 317.78 108.83 315.83 C 124.55 309.96 140.21 303.95 155.93 298.11 C 159.78 296.97 163.38 294.56 165.34 291.00 C 166.09 287.05 161.54 284.52 158.11 284.35 M 141.05 318.94 C 141.61 324.25 144.60 328.97 145.84 334.15 C 149.25 332.96 152.64 331.73 156.05 330.55 C 154.47 325.72 152.87 320.86 150.84 316.20 C 148.35 311.97 140.88 313.91 141.05 318.94 M 118.34 329.48 C 119.69 333.93 121.49 338.22 122.95 342.63 C 126.35 341.55 129.67 340.23 133.01 338.99 C 131.76 334.69 130.14 330.50 128.63 326.28 C 127.91 323.87 125.49 322.19 122.99 322.26 C 119.65 322.53 117.22 326.34 118.34 329.48 M 95.10 335.92 C 95.78 341.23 98.61 345.99 99.98 351.15 C 103.38 350.02 106.70 348.68 110.10 347.55 C 108.58 342.69 107.04 337.79 104.92 333.16 C 102.39 328.91 95.15 331.03 95.10 335.92 M 147.98 339.55 C 149.77 345.27 151.93 350.87 153.92 356.52 C 157.20 355.37 160.42 354.02 163.78 353.10 C 162.71 347.16 159.85 341.70 158.12 335.93 C 154.75 337.17 151.42 338.51 147.98 339.55 M 72.51 346.70 C 73.91 351.08 75.61 355.36 77.13 359.71 C 80.46 358.48 83.75 357.10 87.15 356.06 C 85.62 350.80 83.81 345.58 81.43 340.64 C 80.00 340.16 78.63 339.05 77.05 339.34 C 73.67 339.55 71.12 343.55 72.51 346.70 M 125.07 348.08 C 126.80 353.82 129.09 359.36 130.95 365.05 C 134.30 363.83 137.62 362.52 141.03 361.46 C 139.36 355.71 137.14 350.15 135.16 344.51 C 131.78 345.65 128.47 347.01 125.07 348.08 M 49.45 354.91 C 50.89 359.34 52.64 363.65 54.04 368.09 C 57.44 367.11 60.71 365.71 64.08 364.63 C 63.27 360.56 61.52 356.75 60.23 352.83 C 59.60 350.81 58.42 348.55 56.16 348.09 C 52.20 346.48 48.01 351.06 49.45 354.91 M 102.05 356.65 C 104.23 362.29 105.65 368.28 108.53 373.61 C 111.66 371.91 115.23 371.22 118.34 369.48 C 115.84 364.13 114.39 358.37 112.15 352.91 C 108.80 354.20 105.46 355.52 102.05 356.65 M 26.39 362.88 C 27.80 367.56 29.61 372.11 31.35 376.67 C 34.56 375.44 37.77 374.17 41.08 373.22 C 40.81 369.98 39.15 367.11 38.28 364.02 C 37.19 361.20 36.46 357.22 32.98 356.48 C 29.32 355.39 25.38 359.19 26.39 362.88 M 156.13 362.00 C 157.55 367.73 160.11 373.14 161.82 378.80 C 165.31 377.81 168.65 376.39 172.07 375.19 C 170.20 369.56 168.05 364.03 166.19 358.40 C 162.80 359.50 159.46 360.74 156.13 362.00 M 81.62 364.19 C 80.87 363.18 79.83 363.50 79.05 364.23 C 80.55 370.27 83.16 375.97 84.96 381.92 C 88.40 381.06 91.61 379.50 95.00 378.48 C 93.66 372.61 91.13 367.09 89.29 361.37 C 86.76 362.39 84.24 363.43 81.62 364.19 M 133.02 370.51 C 134.85 376.19 137.08 381.73 138.95 387.40 C 142.38 386.25 145.74 384.91 149.13 383.67 C 147.23 378.00 145.13 372.39 143.10 366.77 C 139.77 368.11 136.39 369.30 133.02 370.51 M 56.14 373.71 C 58.26 379.32 60.05 385.06 62.37 390.60 C 65.49 389.23 68.80 388.31 71.87 386.84 L 72.03 386.00 C 70.26 380.64 68.16 375.40 66.43 370.04 C 62.96 371.14 59.58 372.52 56.14 373.71 M 110.25 379.25 C 111.81 384.92 114.28 390.33 116.05 395.95 C 119.45 394.72 122.83 393.42 126.21 392.11 C 124.19 386.62 122.38 381.04 120.27 375.59 C 116.87 376.38 113.31 377.61 110.25 379.25 M 33.17 382.34 C 35.28 387.84 37.15 393.43 39.19 398.95 C 42.50 397.94 45.71 396.64 48.98 395.54 C 47.93 389.61 45.15 384.15 43.38 378.42 C 40.01 379.79 36.54 380.94 33.17 382.34 M 163.94 384.40 C 165.90 389.64 167.26 395.18 170.13 400.03 C 171.87 400.57 173.77 401.36 175.57 400.53 C 178.42 399.50 179.68 396.02 178.59 393.28 C 177.09 389.08 175.62 384.87 174.05 380.69 C 170.71 381.99 167.33 383.20 163.94 384.40 M 87.12 387.53 C 88.98 393.09 91.06 398.58 92.96 404.13 C 96.47 403.49 99.68 401.88 103.05 400.77 C 101.69 394.99 98.98 389.64 97.45 383.91 C 93.94 384.94 90.56 386.32 87.12 387.53 M 141.18 392.78 C 142.40 397.59 144.24 402.26 146.11 406.85 C 148.56 411.44 156.26 409.23 156.09 404.04 C 155.16 398.89 152.63 394.21 151.24 389.19 C 147.87 390.33 144.57 391.69 141.18 392.78 M 64.11 396.19 C 66.26 401.71 68.12 407.34 70.18 412.90 C 73.55 411.63 76.94 410.39 80.35 409.21 C 78.42 403.56 76.22 398.01 74.40 392.33 C 70.97 393.61 67.48 394.74 64.11 396.19 M 118.00 401.41 C 119.49 405.59 120.98 409.78 122.45 413.98 C 123.35 417.08 127.36 418.97 130.21 417.25 C 132.79 416.10 133.70 412.66 132.66 410.18 C 131.26 406.10 129.67 402.08 128.40 397.95 C 124.80 398.64 121.49 400.31 118.00 401.41 M 41.18 404.66 C 43.20 410.06 45.16 415.50 46.99 420.97 C 50.69 420.51 54.09 418.87 57.48 417.44 C 55.27 412.02 53.34 406.48 51.52 400.92 C 48.00 401.96 44.59 403.32 41.18 404.66 M 95.24 409.70 C 96.71 414.70 98.27 419.76 100.57 424.44 C 103.45 428.41 110.38 425.87 110.13 421.02 C 109.24 415.88 106.83 411.14 105.25 406.19 C 101.94 407.43 98.65 408.75 95.24 409.70 M 72.09 418.36 C 73.72 422.62 75.07 427.00 76.77 431.24 C 77.63 433.68 80.33 435.49 82.94 434.79 C 85.89 434.20 88.02 430.91 86.99 428.00 C 85.70 423.57 83.86 419.33 82.49 414.93 C 78.93 415.77 75.56 417.25 72.09 418.36 M 49.33 426.84 C 50.93 431.76 52.40 436.78 54.71 441.43 C 57.52 445.43 64.61 442.83 64.25 438.01 C 63.42 432.86 60.83 428.18 59.44 423.17 C 56.06 424.35 52.73 425.70 49.33 426.84 Z" />
<path fill="#951e24" opacity="1.00" d=" M 238.17 396.40 C 261.02 387.80 283.99 379.51 306.81 370.83 C 309.32 377.23 311.36 383.82 313.93 390.20 C 307.84 396.42 301.29 402.17 295.09 408.29 C 295.77 421.47 296.17 434.67 296.92 447.85 C 289.08 442.16 282.60 434.89 274.94 428.99 C 263.28 418.23 250.89 408.31 239.03 397.77 C 238.24 397.77 236.67 397.77 235.88 397.77 C 236.64 397.30 237.40 396.84 238.17 396.40 Z" />
</g>
<g id="#9e1922ff">
<path fill="#9e1922" opacity="1.00" d=" M 404.08 142.68 C 406.14 142.09 408.24 141.38 410.42 141.56 C 410.48 141.91 410.60 142.62 410.66 142.97 C 409.12 147.66 403.13 147.73 400.73 151.77 L 402.08 152.13 C 401.54 152.46 400.45 153.14 399.91 153.47 C 400.61 154.61 401.31 155.75 402.00 156.91 L 401.81 158.44 C 400.28 156.99 399.43 155.10 399.24 153.01 C 398.81 148.60 394.06 145.56 389.83 146.66 C 391.73 145.84 393.67 145.08 395.60 144.33 C 397.71 144.94 399.80 145.68 402.00 145.92 C 403.35 145.49 403.44 143.75 404.08 142.68 Z" />
<path fill="#9e1922" opacity="1.00" d=" M 248.06 261.90 C 255.67 261.92 262.81 258.98 270.12 257.26 C 261.26 262.84 250.21 263.00 240.07 262.38 C 237.74 262.32 235.81 260.93 234.00 259.63 C 238.55 261.01 243.27 262.02 248.06 261.90 Z" />
</g>
<g id="#cf8f72ff">
<path fill="#cf8f72" opacity="1.00" d=" M 199.83 214.20 C 206.70 210.25 214.01 207.20 221.08 203.63 L 222.27 203.39 C 223.58 205.80 224.70 208.30 225.89 210.77 C 218.05 213.93 209.45 214.44 201.59 217.48 C 201.01 216.38 200.41 215.28 199.83 214.20 Z" />
</g>
<g id="#080403ff">
<path fill="#080403" opacity="1.00" d=" M 359.10 218.16 C 365.82 216.56 372.76 223.15 371.26 229.97 C 370.61 236.40 362.89 240.84 357.09 237.75 C 352.29 235.73 349.85 229.80 351.59 224.94 C 352.66 221.52 355.66 218.98 359.10 218.16 Z" />
<path fill="#080403" opacity="1.00" d=" M 545.68 369.67 C 560.34 358.33 574.84 346.78 589.47 335.39 C 604.08 339.04 617.59 347.00 627.81 358.08 C 638.96 370.22 646.45 385.89 648.16 402.35 C 648.14 402.80 648.11 403.71 648.10 404.17 C 648.12 405.50 648.12 406.83 648.12 408.17 C 648.09 410.92 648.10 413.67 648.12 416.43 C 648.10 417.56 648.09 418.69 648.08 419.82 C 648.10 420.28 648.14 421.19 648.17 421.65 C 646.45 438.81 638.52 455.21 626.59 467.61 C 614.84 479.88 598.92 488.04 582.11 490.45 C 565.35 492.80 547.81 489.49 533.17 480.97 C 517.44 472.18 505.22 457.63 498.70 440.88 C 505.80 438.09 513.05 435.68 520.20 433.05 C 521.43 432.45 523.55 431.95 523.10 430.11 C 522.22 416.56 521.40 403.02 520.44 389.49 C 522.12 388.34 523.82 387.20 525.54 386.11 C 527.54 388.92 529.76 391.55 532.08 394.11 C 527.66 404.41 527.03 416.33 530.89 426.91 C 535.54 440.67 547.70 451.51 561.89 454.61 C 575.31 457.86 590.22 453.77 600.16 444.20 C 609.27 435.83 614.31 423.37 613.97 411.04 C 613.69 398.21 607.54 385.56 597.32 377.72 C 583.89 367.04 563.47 365.23 549.08 375.02 C 547.68 373.45 546.26 371.89 544.97 370.24 L 545.68 369.67 Z" />
<path fill="#080403" opacity="1.00" d=" M 255.66 360.83 C 270.97 355.29 286.19 349.48 301.47 343.86 C 306.96 343.98 312.04 348.43 312.32 354.01 C 312.82 357.58 310.97 360.80 308.91 363.53 C 307.95 363.59 307.00 363.67 306.05 363.77 C 270.61 376.86 235.18 390.00 199.75 403.15 C 200.15 394.11 194.06 386.55 192.22 377.95 C 192.81 379.67 193.42 381.39 193.99 383.12 C 205.99 378.70 217.94 374.12 229.98 369.83 C 238.82 367.67 247.06 363.70 255.66 360.83 Z" />
<path fill="#080403" opacity="1.00" d=" M 438.13 407.04 C 444.15 403.24 451.63 402.93 458.33 404.96 C 460.36 409.44 462.47 413.88 464.60 418.31 C 463.47 419.36 462.40 420.47 461.27 421.52 C 454.10 423.56 447.23 426.52 440.23 429.08 C 425.68 434.51 411.11 439.88 396.53 445.23 C 390.88 447.21 385.42 449.76 379.57 451.12 C 378.59 445.44 377.66 439.73 377.43 433.96 C 377.58 433.55 377.89 432.73 378.05 432.32 C 387.64 428.96 397.42 425.98 406.58 421.52 C 411.33 419.23 413.73 414.30 415.67 409.68 C 416.37 406.81 419.72 407.85 421.86 407.67 C 421.78 409.27 421.70 410.88 421.60 412.49 C 422.67 412.57 423.75 412.63 424.83 412.65 C 425.47 411.10 425.64 409.42 425.92 407.79 C 426.76 407.91 428.44 408.15 429.28 408.27 C 429.45 410.16 428.41 413.04 430.95 413.67 C 432.88 413.10 432.00 410.52 432.64 409.06 C 433.04 408.91 433.85 408.63 434.26 408.49 L 435.29 408.54 C 435.53 409.81 435.76 411.08 435.98 412.36 C 437.15 412.42 438.33 412.49 439.51 412.56 C 439.10 410.70 438.68 408.85 438.13 407.04 M 449.32 405.70 C 449.13 406.34 448.33 407.05 449.02 407.70 C 450.81 408.80 452.95 409.13 455.03 409.14 C 456.28 409.10 458.16 409.08 458.03 407.35 C 455.56 405.38 452.27 405.62 449.32 405.70 Z" />
<path fill="#080403" opacity="1.00" d=" M 343.93 498.11 C 389.67 481.66 435.05 464.25 480.70 447.56 C 484.57 452.38 489.37 456.39 494.84 459.28 C 495.32 460.72 495.79 462.17 496.25 463.63 L 497.38 462.65 C 497.20 464.47 497.35 466.29 497.82 468.07 C 463.89 477.61 429.97 487.20 396.02 496.70 C 373.68 503.12 351.26 509.23 328.92 515.67 C 321.18 517.61 313.62 520.25 305.79 521.85 C 304.98 519.06 303.99 516.32 302.82 513.67 C 316.41 508.19 330.30 503.49 343.93 498.11 Z" />
<path fill="#080403" opacity="1.00" d=" M 268.97 525.99 C 275.55 523.60 282.16 521.28 288.64 518.61 C 292.94 528.05 293.35 538.79 293.02 549.02 C 291.60 573.56 278.18 597.17 257.47 610.51 C 243.32 619.83 225.99 624.21 209.11 622.73 C 180.14 620.37 153.02 600.35 143.39 572.78 C 142.11 573.01 140.85 573.27 139.59 573.57 C 138.94 573.63 137.66 573.74 137.02 573.80 C 141.00 572.02 145.45 571.95 149.50 570.41 C 160.64 583.54 179.91 588.16 196.09 582.78 C 207.75 588.82 222.28 589.16 234.05 583.23 C 247.82 576.64 257.19 562.28 258.22 547.11 C 258.40 546.10 258.60 545.10 258.81 544.11 C 260.32 542.89 262.01 541.72 262.78 539.86 C 264.96 535.29 267.07 530.68 268.97 525.99 Z" />
</g>
<g id="#dd2127ff">
<path fill="#dd2127" opacity="1.00" d=" M 438.09 231.94 C 439.58 229.04 443.92 228.38 446.11 230.87 C 448.74 234.21 450.00 238.38 452.01 242.09 C 453.70 245.45 455.42 248.79 457.04 252.18 C 460.06 258.35 463.10 264.51 466.18 270.64 C 467.83 273.99 469.49 277.34 471.12 280.70 C 474.42 287.86 478.18 294.79 481.39 301.99 C 480.68 303.91 480.39 306.36 478.21 307.21 C 475.63 309.15 471.23 309.39 470.22 312.83 C 470.19 312.45 470.14 311.68 470.12 311.30 C 468.70 312.07 467.28 312.84 465.90 313.67 L 466.61 314.75 C 464.10 311.38 461.82 307.85 459.40 304.42 C 462.49 302.77 465.62 301.18 468.66 299.43 C 466.15 294.88 464.01 290.14 461.49 285.59 C 459.72 282.28 458.41 278.74 456.76 275.37 C 453.68 269.29 450.49 263.26 447.73 257.02 C 447.41 257.17 446.77 257.46 446.45 257.61 C 446.45 254.87 445.57 252.30 444.19 249.97 C 442.07 246.83 443.32 241.90 439.37 240.09 C 438.01 237.68 436.28 234.59 438.09 231.94 Z" />
<path fill="#dd2127" opacity="1.00" d=" M 13.89 337.46 C 61.98 319.65 110.08 301.81 158.17 283.97 C 159.81 283.33 161.58 283.50 163.30 283.55 C 161.58 283.85 159.85 284.13 158.11 284.35 C 161.54 284.52 166.09 287.05 165.34 291.00 C 163.38 294.56 159.78 296.97 155.93 298.11 C 140.21 303.95 124.55 309.96 108.83 315.83 C 103.16 317.78 97.40 319.50 91.97 322.08 C 79.85 326.50 67.83 331.23 55.71 335.64 C 44.26 339.32 33.23 344.11 21.83 347.92 C 16.93 349.38 12.33 353.03 6.98 351.91 C 5.27 351.50 2.88 351.55 2.20 349.57 C 1.24 347.32 1.58 344.79 1.49 342.41 C 5.39 340.23 9.75 339.09 13.89 337.46 Z" />
</g>
<g id="#931e28ff">
<path fill="#931e28" opacity="1.00" d=" M 452.01 242.09 C 455.12 240.80 458.25 237.86 461.81 239.31 C 465.18 240.49 466.06 245.32 464.03 248.02 C 462.00 249.85 459.40 250.85 457.04 252.18 C 455.42 248.79 453.70 245.45 452.01 242.09 Z" />
</g>
<g id="#b98482ff">
<path fill="#b98482" opacity="1.00" d=" M 338.64 239.53 C 341.36 240.72 343.81 242.91 346.94 242.88 C 350.60 243.09 354.21 243.65 357.83 244.22 C 357.96 245.30 358.23 247.45 358.37 248.53 C 353.77 249.57 349.23 247.53 344.84 246.39 C 341.43 245.70 340.10 242.24 338.64 239.53 Z" />
</g>
<g id="#f7f5f5ff">
<path fill="#f7f5f5" opacity="1.00" d=" M 446.45 257.61 C 446.77 257.46 447.41 257.17 447.73 257.02 C 450.49 263.26 453.68 269.29 456.76 275.37 C 452.32 277.80 447.88 280.25 443.22 282.22 C 439.36 276.46 435.16 270.95 431.26 265.22 C 436.35 262.73 441.32 260.00 446.45 257.61 Z" />
</g>
<g id="#961e25ff">
<path fill="#961e25" opacity="1.00" d=" M 466.18 270.64 C 468.70 269.45 471.13 267.87 473.92 267.41 C 477.20 267.50 479.83 270.87 479.13 274.07 C 478.65 278.06 474.00 278.93 471.12 280.70 C 469.49 277.34 467.83 273.99 466.18 270.64 Z" />
</g>
<g id="#f8f6f6ff">
<path fill="#f8f6f6" opacity="1.00" d=" M 450.00 291.50 C 453.81 289.50 457.66 287.57 461.49 285.59 C 464.01 290.14 466.15 294.88 468.66 299.43 C 465.62 301.18 462.49 302.77 459.40 304.42 C 456.13 300.21 453.12 295.81 450.00 291.50 Z" />
<path fill="#f8f6f6" opacity="1.00" d=" M 102.05 356.65 C 105.46 355.52 108.80 354.20 112.15 352.91 C 114.39 358.37 115.84 364.13 118.34 369.48 C 115.23 371.22 111.66 371.91 108.53 373.61 C 105.65 368.28 104.23 362.29 102.05 356.65 Z" />
</g>
<g id="#f9f4f6ff">
<path fill="#f9f4f6" opacity="1.00" d=" M 141.05 318.94 C 140.88 313.91 148.35 311.97 150.84 316.20 C 152.87 320.86 154.47 325.72 156.05 330.55 C 152.64 331.73 149.25 332.96 145.84 334.15 C 144.60 328.97 141.61 324.25 141.05 318.94 Z" />
</g>
<g id="#f6f7f7ff">
<path fill="#f6f7f7" opacity="1.00" d=" M 118.34 329.48 C 117.22 326.34 119.65 322.53 122.99 322.26 C 125.49 322.19 127.91 323.87 128.63 326.28 C 130.14 330.50 131.76 334.69 133.01 338.99 C 129.67 340.23 126.35 341.55 122.95 342.63 C 121.49 338.22 119.69 333.93 118.34 329.48 Z" />
</g>
<g id="#f6f6f5ff">
<path fill="#f6f6f5" opacity="1.00" d=" M 95.10 335.92 C 95.15 331.03 102.39 328.91 104.92 333.16 C 107.04 337.79 108.58 342.69 110.10 347.55 C 106.70 348.68 103.38 350.02 99.98 351.15 C 98.61 345.99 95.78 341.23 95.10 335.92 Z" />
<path fill="#f6f6f5" opacity="1.00" d=" M 81.62 364.19 C 84.24 363.43 86.76 362.39 89.29 361.37 C 91.13 367.09 93.66 372.61 95.00 378.48 C 91.61 379.50 88.40 381.06 84.96 381.92 C 83.16 375.97 80.55 370.27 79.05 364.23 C 79.83 363.50 80.87 363.18 81.62 364.19 Z" />
<path fill="#f6f6f5" opacity="1.00" d=" M 49.33 426.84 C 52.73 425.70 56.06 424.35 59.44 423.17 C 60.83 428.18 63.42 432.86 64.25 438.01 C 64.61 442.83 57.52 445.43 54.71 441.43 C 52.40 436.78 50.93 431.76 49.33 426.84 Z" />
</g>
<g id="#f8f5f3ff">
<path fill="#f8f5f3" opacity="1.00" d=" M 147.98 339.55 C 151.42 338.51 154.75 337.17 158.12 335.93 C 159.85 341.70 162.71 347.16 163.78 353.10 C 160.42 354.02 157.20 355.37 153.92 356.52 C 151.93 350.87 149.77 345.27 147.98 339.55 Z" />
<path fill="#f8f5f3" opacity="1.00" d=" M 87.12 387.53 C 90.56 386.32 93.94 384.94 97.45 383.91 C 98.98 389.64 101.69 394.99 103.05 400.77 C 99.68 401.88 96.47 403.49 92.96 404.13 C 91.06 398.58 88.98 393.09 87.12 387.53 Z" />
</g>
<g id="#f8f5f6ff">
<path fill="#f8f5f6" opacity="1.00" d=" M 72.51 346.70 C 71.12 343.55 73.67 339.55 77.05 339.34 C 78.63 339.05 80.00 340.16 81.43 340.64 C 83.81 345.58 85.62 350.80 87.15 356.06 C 83.75 357.10 80.46 358.48 77.13 359.71 C 75.61 355.36 73.91 351.08 72.51 346.70 Z" />
<path fill="#f8f5f6" opacity="1.00" d=" M 33.17 382.34 C 36.54 380.94 40.01 379.79 43.38 378.42 C 45.15 384.15 47.93 389.61 48.98 395.54 C 45.71 396.64 42.50 397.94 39.19 398.95 C 37.15 393.43 35.28 387.84 33.17 382.34 Z" />
</g>
<g id="#f6f5f5ff">
<path fill="#f6f5f5" opacity="1.00" d=" M 125.07 348.08 C 128.47 347.01 131.78 345.65 135.16 344.51 C 137.14 350.15 139.36 355.71 141.03 361.46 C 137.62 362.52 134.30 363.83 130.95 365.05 C 129.09 359.36 126.80 353.82 125.07 348.08 Z" />
<path fill="#f6f5f5" opacity="1.00" d=" M 118.00 401.41 C 121.49 400.31 124.80 398.64 128.40 397.95 C 129.67 402.08 131.26 406.10 132.66 410.18 C 133.70 412.66 132.79 416.10 130.21 417.25 C 127.36 418.97 123.35 417.08 122.45 413.98 C 120.98 409.78 119.49 405.59 118.00 401.41 Z" />
</g>
<g id="#f6f6f4ff">
<path fill="#f6f6f4" opacity="1.00" d=" M 49.45 354.91 C 48.01 351.06 52.20 346.48 56.16 348.09 C 58.42 348.55 59.60 350.81 60.23 352.83 C 61.52 356.75 63.27 360.56 64.08 364.63 C 60.71 365.71 57.44 367.11 54.04 368.09 C 52.64 363.65 50.89 359.34 49.45 354.91 Z" />
<path fill="#f6f6f4" opacity="1.00" d=" M 141.18 392.78 C 144.57 391.69 147.87 390.33 151.24 389.19 C 152.63 394.21 155.16 398.89 156.09 404.04 C 156.26 409.23 148.56 411.44 146.11 406.85 C 144.24 402.26 142.40 397.59 141.18 392.78 Z" />
</g>
<g id="#f8f5f4ff">
<path fill="#f8f5f4" opacity="1.00" d=" M 26.39 362.88 C 25.38 359.19 29.32 355.39 32.98 356.48 C 36.46 357.22 37.19 361.20 38.28 364.02 C 39.15 367.11 40.81 369.98 41.08 373.22 C 37.77 374.17 34.56 375.44 31.35 376.67 C 29.61 372.11 27.80 367.56 26.39 362.88 Z" />
<path fill="#f8f5f4" opacity="1.00" d=" M 133.02 370.51 C 136.39 369.30 139.77 368.11 143.10 366.77 C 145.13 372.39 147.23 378.00 149.13 383.67 C 145.74 384.91 142.38 386.25 138.95 387.40 C 137.08 381.73 134.85 376.19 133.02 370.51 Z" />
</g>
<g id="#f6f7f5ff">
<path fill="#f6f7f5" opacity="1.00" d=" M 156.13 362.00 C 159.46 360.74 162.80 359.50 166.19 358.40 C 168.05 364.03 170.20 369.56 172.07 375.19 C 168.65 376.39 165.31 377.81 161.82 378.80 C 160.11 373.14 157.55 367.73 156.13 362.00 Z" />
</g>
<g id="#cccccbff">
<path fill="#cccccb" opacity="1.00" d=" M 199.75 403.15 C 235.18 390.00 270.61 376.86 306.05 363.77 C 307.81 364.49 310.39 364.70 310.76 367.00 C 310.64 369.18 308.47 370.00 306.81 370.83 C 283.99 379.51 261.02 387.80 238.17 396.40 C 223.38 401.83 208.62 407.34 193.84 412.81 C 187.67 414.98 181.53 417.25 175.45 419.67 C 153.11 427.68 131.00 436.34 108.60 444.20 C 106.33 444.51 104.04 444.96 102.02 446.11 C 95.30 449.71 87.95 451.84 80.91 454.69 C 68.86 458.93 56.96 463.59 44.98 468.01 C 43.30 468.55 41.40 469.08 39.72 468.27 C 38.22 466.65 38.89 464.54 39.33 462.67 C 41.33 461.90 43.31 461.11 45.30 460.35 C 96.80 441.34 148.25 422.19 199.75 403.15 Z" />
</g>
<g id="#b3b1b2ff">
<path fill="#b3b1b2" opacity="1.00" d=" M 534.77 378.03 C 538.66 375.59 542.05 372.47 545.68 369.67 L 544.97 370.24 C 546.26 371.89 547.68 373.45 549.08 375.02 C 551.18 377.02 552.11 380.55 555.17 381.31 C 556.34 383.84 557.84 386.23 559.66 388.36 C 557.04 391.11 554.32 393.75 551.63 396.42 C 551.35 396.59 550.78 396.94 550.49 397.11 C 545.33 390.69 539.88 384.49 534.77 378.03 Z" />
</g>
<g id="#999998ff">
<path fill="#999998" opacity="1.00" d=" M 549.08 375.02 C 563.47 365.23 583.89 367.04 597.32 377.72 C 607.54 385.56 613.69 398.21 613.97 411.04 C 614.31 423.37 609.27 435.83 600.16 444.20 C 590.22 453.77 575.31 457.86 561.89 454.61 C 547.70 451.51 535.54 440.67 530.89 426.91 C 527.03 416.33 527.66 404.41 532.08 394.11 C 534.32 396.72 536.46 399.41 538.71 402.02 C 536.01 410.05 536.70 419.10 540.25 426.76 C 544.44 436.15 553.17 443.24 563.06 445.87 C 572.67 448.21 583.31 446.30 591.20 440.23 C 602.86 431.89 608.15 415.90 603.74 402.25 C 599.81 386.92 583.83 375.86 568.08 377.67 C 563.54 377.90 559.32 379.65 555.17 381.31 C 552.11 380.55 551.18 377.02 549.08 375.02 Z" />
<path fill="#999998" opacity="1.00" d=" M 198.99 551.96 C 202.04 550.72 205.13 549.43 208.48 549.30 C 205.69 560.21 195.16 568.53 183.97 569.20 C 177.58 569.82 171.13 567.89 165.87 564.27 C 176.79 559.86 187.97 556.12 198.99 551.96 Z" />
</g>
<g id="#f9f5f6ff">
<path fill="#f9f5f6" opacity="1.00" d=" M 56.14 373.71 C 59.58 372.52 62.96 371.14 66.43 370.04 C 68.16 375.40 70.26 380.64 72.03 386.00 L 71.87 386.84 C 68.80 388.31 65.49 389.23 62.37 390.60 C 60.05 385.06 58.26 379.32 56.14 373.71 Z" />
</g>
<g id="#f7f5f6ff">
<path fill="#f7f5f6" opacity="1.00" d=" M 110.25 379.25 C 113.31 377.61 116.87 376.38 120.27 375.59 C 122.38 381.04 124.19 386.62 126.21 392.11 C 122.83 393.42 119.45 394.72 116.05 395.95 C 114.28 390.33 111.81 384.92 110.25 379.25 Z" />
</g>
<g id="#b7282dff">
<path fill="#b7282d" opacity="1.00" d=" M 520.14 387.06 C 525.63 385.10 530.75 382.32 534.77 378.03 C 539.88 384.49 545.33 390.69 550.49 397.11 C 551.74 398.76 553.10 400.33 554.51 401.86 C 555.67 403.16 556.76 404.53 557.73 405.99 C 558.32 407.28 558.83 408.60 559.35 409.93 C 558.61 411.80 557.99 413.71 557.54 415.68 C 554.89 416.54 551.43 417.06 549.41 414.67 C 545.64 410.63 542.31 406.20 538.71 402.02 C 536.46 399.41 534.32 396.72 532.08 394.11 C 529.76 391.55 527.54 388.92 525.54 386.11 C 523.82 387.20 522.12 388.34 520.44 389.49 C 520.36 388.88 520.22 387.67 520.14 387.06 Z" />
<path fill="#b7282d" opacity="1.00" d=" M 82.08 520.88 C 83.26 518.54 84.78 516.38 86.82 514.70 C 90.00 520.66 91.16 527.34 93.48 533.61 C 96.78 540.84 98.87 548.54 101.90 555.88 C 99.88 556.74 97.86 557.60 95.84 558.47 C 91.91 556.45 88.38 553.50 87.14 549.09 C 87.06 549.63 86.90 550.70 86.81 551.23 C 85.17 544.55 84.21 537.72 82.81 530.99 C 82.15 527.00 80.80 522.93 81.68 518.87 C 81.78 519.37 81.98 520.38 82.08 520.88 Z" />
</g>
<g id="#ccccccff">
<path fill="#cccccc" opacity="1.00" d=" M 555.17 381.31 C 559.32 379.65 563.54 377.90 568.08 377.67 C 583.83 375.86 599.81 386.92 603.74 402.25 C 608.15 415.90 602.86 431.89 591.20 440.23 C 583.31 446.30 572.67 448.21 563.06 445.87 C 553.17 443.24 544.44 436.15 540.25 426.76 C 536.70 419.10 536.01 410.05 538.71 402.02 C 542.31 406.20 545.64 410.63 549.41 414.67 C 551.43 417.06 554.89 416.54 557.54 415.68 C 558.65 414.26 559.41 412.60 560.18 410.98 C 560.39 411.22 560.83 411.69 561.05 411.93 C 559.46 413.94 557.89 415.96 556.32 417.98 C 558.95 423.25 563.85 427.70 569.96 428.06 C 578.90 429.12 587.28 420.84 586.82 411.96 C 587.05 405.21 582.20 399.21 576.08 396.83 C 571.83 395.38 566.88 397.00 563.19 393.84 C 563.48 393.49 564.06 392.78 564.35 392.43 C 562.95 390.91 561.64 389.12 559.66 388.36 C 557.84 386.23 556.34 383.84 555.17 381.31 Z" />
<path fill="#cccccc" opacity="1.00" d=" M 222.05 561.24 C 230.86 557.38 239.36 552.88 248.06 548.79 L 249.25 548.96 C 247.77 558.36 242.56 567.34 234.56 572.64 C 226.54 578.51 215.86 579.78 206.36 577.46 C 210.28 574.47 214.06 571.17 216.81 567.04 C 218.26 564.86 219.72 562.56 222.05 561.24 Z" />
</g>
<g id="#f7f6f5ff">
<path fill="#f7f6f5" opacity="1.00" d=" M 163.94 384.40 C 167.33 383.20 170.71 381.99 174.05 380.69 C 175.62 384.87 177.09 389.08 178.59 393.28 C 179.68 396.02 178.42 399.50 175.57 400.53 C 173.77 401.36 171.87 400.57 170.13 400.03 C 167.26 395.18 165.90 389.64 163.94 384.40 Z" />
</g>
<g id="#671013ff">
<path fill="#671013" opacity="1.00" d=" M 551.63 396.42 C 554.32 393.75 557.04 391.11 559.66 388.36 C 561.64 389.12 562.95 390.91 564.35 392.43 C 564.06 392.78 563.48 393.49 563.19 393.84 C 561.42 395.59 559.56 397.24 557.76 398.94 C 556.76 395.93 560.64 394.55 562.11 392.52 C 561.43 391.92 560.74 391.36 560.04 390.81 C 557.41 392.98 555.51 396.50 551.63 396.42 Z" />
<path fill="#671013" opacity="1.00" d=" M 237.68 481.60 C 239.95 480.77 242.38 479.69 244.85 480.24 C 247.11 481.35 246.96 484.65 244.89 485.89 C 242.10 487.39 238.88 487.87 235.96 489.07 C 212.38 498.13 188.58 506.63 164.97 515.56 C 163.43 515.77 161.87 515.64 160.33 515.63 C 160.36 513.66 159.27 510.46 162.03 509.92 C 187.22 500.41 212.53 491.23 237.68 481.60 Z" />
<path fill="#671013" opacity="1.00" d=" M 229.93 497.75 C 235.90 495.19 242.05 493.07 248.25 491.17 C 249.11 492.37 250.87 493.33 250.58 495.06 C 249.97 497.28 247.51 497.82 245.67 498.58 C 219.70 508.02 193.92 517.98 167.92 527.31 C 164.12 528.96 162.56 522.10 166.21 521.29 C 187.36 513.21 208.67 505.53 229.93 497.75 Z" />
</g>
<g id="#931323ff">
<path fill="#931323" opacity="1.00" d=" M 551.63 396.42 C 555.51 396.50 557.41 392.98 560.04 390.81 C 560.74 391.36 561.43 391.92 562.11 392.52 C 560.64 394.55 556.76 395.93 557.76 398.94 C 556.68 399.93 555.58 400.89 554.51 401.86 C 553.10 400.33 551.74 398.76 550.49 397.11 C 550.78 396.94 551.35 396.59 551.63 396.42 Z" />
</g>
<g id="#f8f6f5ff">
<path fill="#f8f6f5" opacity="1.00" d=" M 64.11 396.19 C 67.48 394.74 70.97 393.61 74.40 392.33 C 76.22 398.01 78.42 403.56 80.35 409.21 C 76.94 410.39 73.55 411.63 70.18 412.90 C 68.12 407.34 66.26 401.71 64.11 396.19 Z" />
<path fill="#f8f6f5" opacity="1.00" d=" M 41.18 404.66 C 44.59 403.32 48.00 401.96 51.52 400.92 C 53.34 406.48 55.27 412.02 57.48 417.44 C 54.09 418.87 50.69 420.51 46.99 420.97 C 45.16 415.50 43.20 410.06 41.18 404.66 Z" />
</g>
<g id="#b2b2b2ff">
<path fill="#b2b2b2" opacity="1.00" d=" M 557.76 398.94 C 559.56 397.24 561.42 395.59 563.19 393.84 C 566.88 397.00 571.83 395.38 576.08 396.83 C 573.41 396.61 570.74 396.64 568.08 396.75 C 567.55 397.32 567.01 397.90 566.48 398.48 C 563.80 401.25 560.74 403.59 557.73 405.99 C 556.76 404.53 555.67 403.16 554.51 401.86 C 555.58 400.89 556.68 399.93 557.76 398.94 Z" />
</g>
<g id="#999999ff">
<path fill="#999999" opacity="1.00" d=" M 566.48 398.48 C 567.01 397.90 567.55 397.32 568.08 396.75 C 570.74 396.64 573.41 396.61 576.08 396.83 C 582.20 399.21 587.05 405.21 586.82 411.96 C 587.28 420.84 578.90 429.12 569.96 428.06 C 563.85 427.70 558.95 423.25 556.32 417.98 C 557.89 415.96 559.46 413.94 561.05 411.93 C 563.06 413.96 564.74 416.43 567.24 417.91 C 570.58 419.68 575.04 417.57 576.02 413.98 C 576.82 411.73 576.03 409.27 574.58 407.48 C 572.09 404.30 569.40 401.26 566.48 398.48 Z" />
<path fill="#999999" opacity="1.00" d=" M 248.06 548.79 C 251.41 547.18 254.76 545.54 258.07 543.86 C 258.11 544.67 258.19 546.30 258.22 547.11 C 257.19 562.28 247.82 576.64 234.05 583.23 C 222.28 589.16 207.75 588.82 196.09 582.78 C 199.63 581.24 203.12 579.55 206.36 577.46 C 215.86 579.78 226.54 578.51 234.56 572.64 C 242.56 567.34 247.77 558.36 249.25 548.96 L 248.06 548.79 Z" />
</g>
<g id="#4d4d4cff">
<path fill="#4d4d4c" opacity="1.00" d=" M 566.48 398.48 C 569.40 401.26 572.09 404.30 574.58 407.48 C 576.03 409.27 576.82 411.73 576.02 413.98 C 575.04 417.57 570.58 419.68 567.24 417.91 C 564.74 416.43 563.06 413.96 561.05 411.93 C 560.83 411.69 560.39 411.22 560.18 410.98 C 559.41 412.60 558.65 414.26 557.54 415.68 C 557.99 413.71 558.61 411.80 559.35 409.93 C 558.83 408.60 558.32 407.28 557.73 405.99 C 560.74 403.59 563.80 401.25 566.48 398.48 Z" />
</g>
<g id="#b2aeadff">
<path fill="#b2aead" opacity="1.00" d=" M 648.16 402.35 C 648.62 402.37 649.54 402.43 650.00 402.46 L 650.00 404.22 C 649.53 404.20 648.58 404.18 648.10 404.17 C 648.11 403.71 648.14 402.80 648.16 402.35 Z" />
</g>
<g id="#b2b2b0ff">
<path fill="#b2b2b0" opacity="1.00" d=" M 375.22 415.30 C 386.09 411.16 397.01 407.17 407.91 403.13 C 408.94 404.66 409.97 406.19 411.06 407.68 L 411.76 407.13 C 411.02 408.85 410.30 410.59 409.38 412.22 L 409.45 410.96 C 398.30 414.34 386.97 417.04 375.74 420.12 C 375.55 418.51 375.39 416.90 375.22 415.30 Z" />
</g>
<g id="#625e5dff">
<path fill="#625e5d" opacity="1.00" d=" M 648.10 404.17 C 648.58 404.18 649.53 404.20 650.00 404.22 L 650.00 408.21 C 649.53 408.20 648.59 408.18 648.12 408.17 C 648.12 406.83 648.12 405.50 648.10 404.17 Z" />
</g>
<g id="#323232ff">
<path fill="#323232" opacity="1.00" d=" M 411.76 407.13 C 412.36 405.80 413.52 405.06 414.85 404.59 C 415.49 405.44 416.13 406.30 416.78 407.16 C 418.48 407.15 420.18 407.14 421.89 407.10 L 421.86 407.67 C 419.72 407.85 416.37 406.81 415.67 409.68 C 413.73 414.30 411.33 419.23 406.58 421.52 C 397.42 425.98 387.64 428.96 378.05 432.32 C 377.89 432.73 377.58 433.55 377.43 433.96 C 376.85 432.63 375.70 431.73 374.66 430.79 C 375.06 429.41 375.65 428.09 377.11 427.62 C 386.04 424.50 395.10 421.65 403.71 417.69 C 406.19 416.62 408.15 414.60 409.38 412.22 C 410.30 410.59 411.02 408.85 411.76 407.13 Z" />
</g>
<g id="#fdfbffff">
<path fill="#fdfbff" opacity="1.00" d=" M 449.32 405.70 C 452.27 405.62 455.56 405.38 458.03 407.35 C 458.16 409.08 456.28 409.10 455.03 409.14 C 452.95 409.13 450.81 408.80 449.02 407.70 C 448.33 407.05 449.13 406.34 449.32 405.70 Z" />
</g>
<g id="#f9f4f7ff">
<path fill="#f9f4f7" opacity="1.00" d=" M 95.24 409.70 C 98.65 408.75 101.94 407.43 105.25 406.19 C 106.83 411.14 109.24 415.88 110.13 421.02 C 110.38 425.87 103.45 428.41 100.57 424.44 C 98.27 419.76 96.71 414.70 95.24 409.70 Z" />
</g>
<g id="#c93334ff">
<path fill="#c93334" opacity="1.00" d=" M 421.89 407.10 C 423.14 405.76 426.08 405.12 425.92 407.79 C 425.64 409.42 425.47 411.10 424.83 412.65 C 423.75 412.63 422.67 412.57 421.60 412.49 C 421.70 410.88 421.78 409.27 421.86 407.67 L 421.89 407.10 Z" />
</g>
<g id="#d72d2eff">
<path fill="#d72d2e" opacity="1.00" d=" M 429.49 406.53 C 430.03 406.40 431.12 406.13 431.66 405.99 C 431.96 406.60 432.56 407.81 432.85 408.41 L 433.72 408.46 L 434.26 408.49 C 433.85 408.63 433.04 408.91 432.64 409.06 C 432.00 410.52 432.88 413.10 430.95 413.67 C 428.41 413.04 429.45 410.16 429.28 408.27 C 429.33 407.83 429.44 406.96 429.49 406.53 Z" />
</g>
<g id="#d42d47ff">
<path fill="#d42d47" opacity="1.00" d=" M 433.72 408.46 C 434.76 407.01 437.03 403.87 438.13 407.04 C 438.68 408.85 439.10 410.70 439.51 412.56 C 438.33 412.49 437.15 412.42 435.98 412.36 C 435.76 411.08 435.53 409.81 435.29 408.54 L 434.26 408.49 L 433.72 408.46 Z" />
</g>
<g id="#272322ff">
<path fill="#272322" opacity="1.00" d=" M 648.12 408.17 C 648.59 408.18 649.53 408.20 650.00 408.21 L 650.00 415.92 C 649.53 416.04 648.59 416.30 648.12 416.43 C 648.10 413.67 648.09 410.92 648.12 408.17 Z" />
</g>
<g id="#fefefeff">
<path fill="#fefefe" opacity="1.00" d=" M 375.74 420.12 C 386.97 417.04 398.30 414.34 409.45 410.96 L 409.38 412.22 C 408.15 414.60 406.19 416.62 403.71 417.69 C 395.10 421.65 386.04 424.50 377.11 427.62 C 376.59 425.13 376.03 422.65 375.74 420.12 Z" />
</g>
<g id="#ba2f36ff">
<path fill="#ba2f36" opacity="1.00" d=" M 175.45 419.67 C 181.53 417.25 187.67 414.98 193.84 412.81 L 195.25 413.38 C 191.00 415.65 186.35 416.98 181.93 418.85 C 179.90 419.84 177.64 419.72 175.45 419.67 Z" />
</g>
<g id="#f8f5f5ff">
<path fill="#f8f5f5" opacity="1.00" d=" M 72.09 418.36 C 75.56 417.25 78.93 415.77 82.49 414.93 C 83.86 419.33 85.70 423.57 86.99 428.00 C 88.02 430.91 85.89 434.20 82.94 434.79 C 80.33 435.49 77.63 433.68 76.77 431.24 C 75.07 427.00 73.72 422.62 72.09 418.36 Z" />
</g>
<g id="#595856ff">
<path fill="#595856" opacity="1.00" d=" M 648.12 416.43 C 648.59 416.30 649.53 416.04 650.00 415.92 L 650.00 419.94 C 649.52 419.91 648.56 419.85 648.08 419.82 C 648.09 418.69 648.10 417.56 648.12 416.43 Z" />
</g>
<g id="#8c323eff">
<path fill="#8c323e" opacity="1.00" d=" M 465.54 419.37 C 465.85 420.14 466.16 420.92 466.49 421.70 C 442.15 430.13 418.22 439.77 393.92 448.35 C 389.21 449.88 384.87 452.55 379.87 453.12 C 379.80 452.62 379.65 451.62 379.57 451.12 C 385.42 449.76 390.88 447.21 396.53 445.23 C 411.11 439.88 425.68 434.51 440.23 429.08 C 447.23 426.52 454.10 423.56 461.27 421.52 C 461.75 421.40 462.70 421.16 463.18 421.03 C 463.97 420.49 464.76 419.94 465.54 419.37 Z" />
</g>
<g id="#a4a3a1ff">
<path fill="#a4a3a1" opacity="1.00" d=" M 648.08 419.82 C 648.56 419.85 649.52 419.91 650.00 419.94 L 650.00 421.68 C 649.54 421.67 648.62 421.66 648.17 421.65 C 648.14 421.19 648.10 420.28 648.08 419.82 Z" />
</g>
<g id="#313333ff">
<path fill="#313333" opacity="1.00" d=" M 393.92 448.35 C 418.22 439.77 442.15 430.13 466.49 421.70 C 467.69 424.63 469.04 427.51 470.29 430.43 C 469.96 430.83 469.31 431.64 468.99 432.04 C 460.88 433.30 453.66 437.62 445.87 440.03 C 439.55 441.75 433.70 444.73 427.47 446.72 C 419.50 450.03 410.99 451.98 403.34 456.06 C 395.91 459.45 387.96 461.50 380.24 464.14 C 378.81 460.70 376.50 456.23 379.87 453.12 C 384.87 452.55 389.21 449.88 393.92 448.35 Z" />
</g>
<g id="#4d4d4dff">
<path fill="#4d4d4d" opacity="1.00" d=" M 328.92 515.67 C 351.26 509.23 373.68 503.12 396.02 496.70 C 396.87 499.70 398.03 502.87 397.06 506.00 C 396.24 509.44 393.44 512.07 390.14 513.14 C 357.75 525.04 325.44 537.20 293.02 549.02 C 293.35 538.79 292.94 528.05 288.64 518.61 C 293.30 516.78 298.10 515.35 302.82 513.67 C 303.99 516.32 304.98 519.06 305.79 521.85 C 313.62 520.25 321.18 517.61 328.92 515.67 Z" />
<path fill="#4d4d4d" opacity="1.00" d=" M 224.62 542.61 C 226.05 549.11 222.70 555.26 220.71 561.27 L 222.05 561.24 C 219.72 562.56 218.26 564.86 216.81 567.04 C 214.06 571.17 210.28 574.47 206.36 577.46 C 203.12 579.55 199.63 581.24 196.09 582.78 C 179.91 588.16 160.64 583.54 149.50 570.41 C 155.02 568.54 160.40 566.27 165.87 564.27 C 171.13 567.89 177.58 569.82 183.97 569.20 C 195.16 568.53 205.69 560.21 208.48 549.30 C 208.62 548.73 208.75 548.16 208.89 547.61 C 214.34 546.70 219.45 544.47 224.62 542.61 Z" />
</g>
<g id="#670f13ff">
<path fill="#670f13" opacity="1.00" d=" M 169.90 532.87 C 196.95 522.74 224.15 512.94 251.09 502.54 C 252.26 503.12 253.44 503.72 254.62 504.32 C 254.61 505.42 254.61 506.52 254.62 507.63 C 248.58 511.15 241.65 512.67 235.26 515.40 C 216.07 522.32 197.06 529.70 177.91 536.73 C 175.08 537.82 171.89 539.55 168.84 538.23 C 167.87 536.57 167.57 533.54 169.90 532.87 Z" />
</g>
<g id="#921e21ff">
<path fill="#921e21" opacity="1.00" d=" M 81.68 518.87 C 83.03 514.16 87.59 511.44 92.04 510.21 C 92.16 513.10 93.04 515.88 94.42 518.41 C 96.24 521.73 96.33 525.65 97.89 529.08 C 102.05 538.92 103.94 549.65 109.15 559.05 C 107.24 559.52 105.35 560.07 103.48 560.67 C 103.25 559.96 102.79 558.56 102.56 557.86 C 99.49 558.61 96.18 560.30 93.07 558.80 C 90.00 557.40 87.53 554.56 86.81 551.23 C 86.90 550.70 87.06 549.63 87.14 549.09 C 88.38 553.50 91.91 556.45 95.84 558.47 C 97.86 557.60 99.88 556.74 101.90 555.88 C 98.87 548.54 96.78 540.84 93.48 533.61 C 91.16 527.34 90.00 520.66 86.82 514.70 C 84.78 516.38 83.26 518.54 82.08 520.88 C 81.98 520.38 81.78 519.37 81.68 518.87 Z" />
</g>
<g id="#323333ff">
<path fill="#323333" opacity="1.00" d=" M 224.62 542.61 C 239.29 536.77 254.24 531.66 268.97 525.99 C 267.07 530.68 264.96 535.29 262.78 539.86 C 262.01 541.72 260.32 542.89 258.81 544.11 C 258.60 545.10 258.40 546.10 258.22 547.11 C 258.19 546.30 258.11 544.67 258.07 543.86 C 254.76 545.54 251.41 547.18 248.06 548.79 C 239.36 552.88 230.86 557.38 222.05 561.24 L 220.71 561.27 C 222.70 555.26 226.05 549.11 224.62 542.61 Z" />
</g>
<g id="#931e24ff">
<path fill="#931e24" opacity="1.00" d=" M 116.14 579.44 C 123.20 582.16 129.77 576.84 136.42 575.14 C 135.68 584.97 136.67 594.84 136.72 604.65 C 134.61 605.76 132.32 606.42 130.07 607.19 C 126.97 598.43 124.07 589.58 120.55 580.98 C 119.67 581.24 117.90 581.75 117.01 582.00 C 116.72 581.14 116.43 580.28 116.14 579.44 Z" />
</g>
</svg>
