<?xml version="1.0" encoding="UTF-8" ?>
<!DOCTYPE svg PUBLIC "-//W3C//DTD SVG 1.1//EN" "http://www.w3.org/Graphics/SVG/1.1/DTD/svg11.dtd">
<svg width="800pt" height="800pt" viewBox="0 0 800 800" version="1.1" xmlns="http://www.w3.org/2000/svg">
<g id="#ffffffff">
</g>
<g id="#f7b943ff">
<path fill="#f7b943" opacity="1.00" d=" M 288.22 47.69 C 298.85 61.64 308.98 76.00 319.19 90.27 C 322.86 90.12 326.72 90.89 330.24 89.50 C 336.44 90.64 342.73 89.51 348.98 89.62 C 356.73 89.68 364.46 89.10 372.21 89.26 C 362.61 103.55 351.58 116.88 342.23 131.34 C 341.56 132.12 341.42 132.96 341.82 133.86 C 347.47 149.89 353.07 165.95 358.75 181.97 C 341.82 176.70 325.08 170.82 308.12 165.63 C 297.95 173.66 287.53 181.39 277.27 189.31 C 273.60 191.99 270.18 195.01 266.31 197.40 C 266.23 179.87 266.28 162.35 266.28 144.82 C 251.88 134.56 237.04 124.92 222.78 114.47 C 239.59 109.05 256.43 103.72 273.18 98.13 C 278.09 81.29 283.16 64.48 288.22 47.69 Z" />
<path fill="#f7b943" opacity="1.00" d=" M 644.89 524.90 C 650.04 518.08 655.13 511.21 660.25 504.36 C 663.45 506.53 667.73 506.66 670.86 504.26 C 676.03 511.03 681.03 517.93 686.16 524.74 C 687.40 526.39 688.66 528.04 689.92 529.70 C 673.70 529.50 657.47 529.48 641.25 529.72 C 642.45 528.11 643.67 526.51 644.89 524.90 M 651.87 518.95 C 651.23 521.13 653.86 522.79 655.66 521.61 C 657.65 520.76 656.31 518.48 656.12 516.96 C 654.53 517.04 652.08 516.74 651.87 518.95 M 660.10 517.09 C 659.37 518.63 658.84 521.17 660.98 521.82 C 663.18 522.94 665.14 519.99 663.90 518.14 C 663.32 516.51 661.35 517.26 660.10 517.09 M 668.16 517.21 C 665.52 518.30 667.17 522.93 669.95 521.92 C 673.35 521.32 671.46 515.21 668.16 517.21 M 675.04 517.07 C 673.52 519.54 674.93 522.51 678.04 522.23 C 678.60 520.94 679.77 519.53 678.97 518.07 C 678.17 516.63 676.32 517.32 675.04 517.07 Z" />
</g>
<g id="#e9ac04ff">
<path fill="#e9ac04" opacity="1.00" d=" M 400.97 52.85 C 423.04 46.71 446.27 46.86 468.92 48.73 C 493.66 51.06 518.43 57.90 539.29 71.74 C 548.80 78.00 557.35 85.59 565.29 93.73 C 569.27 97.51 572.69 101.88 576.98 105.35 L 576.66 105.82 C 562.35 99.25 546.51 95.78 530.75 96.26 C 547.84 105.95 563.61 119.13 572.90 136.73 C 556.58 126.55 537.72 121.00 518.84 118.02 C 534.24 129.77 548.82 142.99 560.16 158.79 C 541.66 150.25 522.48 143.26 502.95 137.48 C 477.53 130.05 451.40 124.73 424.94 122.93 C 397.16 120.78 368.96 123.33 342.23 131.34 C 351.58 116.88 362.61 103.55 372.21 89.26 C 364.46 89.10 356.73 89.68 348.98 89.62 C 342.73 89.51 336.44 90.64 330.24 89.50 C 351.20 73.00 375.17 59.93 400.97 52.85 Z" />
<path fill="#e9ac04" opacity="1.00" d=" M 400.03 245.62 C 400.58 245.81 401.69 246.19 402.24 246.38 C 403.74 251.42 404.34 256.77 406.55 261.61 C 408.98 267.51 413.00 273.46 419.37 275.48 C 424.28 277.27 429.69 275.58 433.88 272.80 C 441.07 268.07 446.36 261.07 451.00 253.96 C 451.59 254.25 452.77 254.84 453.35 255.14 C 452.00 265.07 450.43 276.51 456.82 285.11 C 459.08 288.64 463.69 290.04 467.54 288.35 C 475.08 285.13 480.35 278.46 485.33 272.21 C 486.46 272.74 487.63 273.21 488.81 273.65 C 488.47 273.81 487.79 274.13 487.45 274.29 C 485.60 277.63 484.53 281.34 482.86 284.77 L 482.68 284.89 C 478.92 286.98 476.94 290.98 473.84 293.80 C 468.99 299.15 462.87 303.09 456.66 306.67 C 441.00 314.54 423.37 317.47 406.00 318.01 C 383.34 317.63 360.12 320.63 339.40 330.25 C 332.52 312.17 325.57 294.12 318.80 276.01 C 319.19 275.96 319.98 275.87 320.37 275.82 C 322.25 276.81 323.32 278.75 324.81 280.20 C 329.24 284.85 335.45 288.54 342.08 287.96 C 345.90 287.57 348.45 284.00 349.41 280.55 C 351.54 273.09 350.83 265.21 350.22 257.58 C 351.49 257.26 352.73 256.85 353.98 256.43 C 359.13 263.62 364.65 271.42 373.20 274.75 C 378.62 276.95 385.14 275.30 389.02 270.97 C 395.52 264.11 397.98 254.59 400.03 245.62 Z" />
<path fill="#e9ac04" opacity="1.00" d=" M 135.08 249.29 C 137.07 249.21 139.05 249.07 141.04 248.86 C 145.64 259.93 151.24 270.76 159.14 279.87 C 163.91 285.29 169.78 290.06 176.76 292.24 C 182.11 293.88 187.88 293.18 193.06 291.29 C 197.83 289.60 202.14 286.87 206.24 283.95 C 210.80 280.51 214.96 276.55 218.91 272.43 C 218.68 277.27 215.92 281.39 213.46 285.38 C 203.64 299.99 188.22 310.11 171.68 315.60 C 155.49 321.51 138.02 321.96 120.99 322.02 C 105.73 323.27 89.61 325.91 76.92 335.06 C 68.62 316.02 60.21 297.02 51.95 277.97 C 52.82 277.49 53.69 277.03 54.53 276.50 C 58.65 280.37 63.21 283.84 68.32 286.32 C 76.59 290.36 85.86 292.17 95.04 291.78 C 103.15 291.76 111.21 288.69 117.20 283.21 C 126.93 274.42 132.00 261.76 135.08 249.29 Z" />
<path fill="#e9ac04" opacity="1.00" d=" M 602.57 280.69 C 608.31 266.37 620.36 255.21 634.44 249.23 C 643.18 250.64 652.09 251.00 660.66 253.36 C 672.19 255.84 683.04 260.82 693.05 266.97 C 699.56 271.66 706.42 276.43 710.57 283.49 C 699.00 286.11 687.64 289.86 677.11 295.37 C 675.59 290.68 673.20 285.89 668.90 283.19 C 665.50 281.00 660.82 281.22 657.60 283.61 C 653.54 286.50 651.37 291.25 649.93 295.87 C 635.97 288.35 620.50 283.87 604.85 281.62 C 604.04 281.42 603.28 281.11 602.57 280.69 Z" />
</g>
<g id="#e49d00ff">
<path fill="#e49d00" opacity="1.00" d=" M 392.34 234.87 C 392.71 228.91 399.49 224.80 405.02 226.81 C 410.81 228.49 413.62 236.11 410.26 241.15 C 408.72 244.26 405.21 245.21 402.24 246.38 C 401.69 246.19 400.58 245.81 400.03 245.62 C 395.20 244.67 391.50 239.81 392.34 234.87 Z" />
<path fill="#e49d00" opacity="1.00" d=" M 128.56 234.97 C 130.61 231.85 134.14 229.60 137.98 229.98 C 142.19 230.03 145.40 233.36 146.92 237.03 C 147.87 241.86 145.60 246.85 141.04 248.86 C 139.05 249.07 137.07 249.21 135.08 249.29 C 128.93 247.82 125.78 240.59 128.56 234.97 Z" />
<path fill="#e49d00" opacity="1.00" d=" M 450.10 238.10 C 455.15 233.68 464.08 236.45 465.59 243.04 C 468.01 250.14 460.38 257.40 453.35 255.14 C 452.77 254.84 451.59 254.25 451.00 253.96 C 445.51 250.71 444.93 241.92 450.10 238.10 Z" />
<path fill="#e49d00" opacity="1.00" d=" M 339.41 245.00 C 341.15 238.44 350.44 235.97 355.18 240.82 C 360.08 244.83 359.04 253.02 353.98 256.43 C 352.73 256.85 351.49 257.26 350.22 257.58 C 343.34 259.15 336.93 251.54 339.41 245.00 Z" />
<path fill="#e49d00" opacity="1.00" d=" M 485.95 255.96 C 491.85 252.24 500.85 256.86 500.51 264.04 C 501.23 270.11 494.60 275.74 488.81 273.65 C 487.63 273.21 486.46 272.74 485.33 272.21 C 479.44 268.87 480.05 259.02 485.95 255.96 Z" />
<path fill="#e49d00" opacity="1.00" d=" M 311.12 257.84 C 316.87 254.96 324.65 259.49 324.72 265.99 C 325.38 269.96 322.52 272.91 320.37 275.82 C 319.98 275.87 319.19 275.96 318.80 276.01 C 314.70 277.04 309.82 276.31 307.27 272.62 C 303.53 267.92 305.42 260.01 311.12 257.84 Z" />
<path fill="#e49d00" opacity="1.00" d=" M 39.18 266.84 C 40.17 260.44 48.23 256.86 53.68 260.32 C 59.61 263.39 60.12 272.85 54.53 276.50 C 53.69 277.03 52.82 277.49 51.95 277.97 C 45.19 280.62 37.46 273.87 39.18 266.84 Z" />
</g>
<g id="#d5064aff">
<path fill="#d5064a" opacity="1.00" d=" M 83.46 247.58 C 95.06 236.95 110.49 231.21 125.95 229.31 C 147.96 226.81 171.66 231.56 189.03 245.91 C 200.20 255.00 207.96 269.26 206.24 283.95 C 202.14 286.87 197.83 289.60 193.06 291.29 C 192.70 291.14 191.96 290.84 191.59 290.69 C 192.79 279.76 190.77 267.97 183.72 259.24 C 174.62 247.67 160.91 240.78 146.92 237.03 C 145.40 233.36 142.19 230.03 137.98 229.98 C 134.14 229.60 130.61 231.85 128.56 234.97 C 122.43 236.10 116.18 236.50 110.15 238.18 C 102.54 239.84 95.36 242.96 88.39 246.38 C 86.87 247.18 85.18 247.59 83.46 247.58 Z" />
</g>
<g id="#e11b4fff">
<path fill="#e11b4f" opacity="1.00" d=" M 110.15 238.18 C 116.18 236.50 122.43 236.10 128.56 234.97 C 125.78 240.59 128.93 247.82 135.08 249.29 C 132.00 261.76 126.93 274.42 117.20 283.21 C 111.21 288.69 103.15 291.76 95.04 291.78 C 85.86 292.17 76.59 290.36 68.32 286.32 C 65.79 271.83 72.58 257.17 83.28 247.58 L 83.46 247.58 C 85.18 247.59 86.87 247.18 88.39 246.38 C 95.36 242.96 102.54 239.84 110.15 238.18 Z" />
<path fill="#e11b4f" opacity="1.00" d=" M 146.92 237.03 C 160.91 240.78 174.62 247.67 183.72 259.24 C 190.77 267.97 192.79 279.76 191.59 290.69 C 191.96 290.84 192.70 291.14 193.06 291.29 C 187.88 293.18 182.11 293.88 176.76 292.24 C 169.78 290.06 163.91 285.29 159.14 279.87 C 151.24 270.76 145.64 259.93 141.04 248.86 C 145.60 246.85 147.87 241.86 146.92 237.03 Z" />
</g>
<g id="#df9700ff">
<path fill="#df9700" opacity="1.00" d=" M 634.44 249.23 C 652.20 241.59 672.95 241.24 691.03 248.01 C 706.52 253.82 720.28 265.59 726.06 281.38 C 720.84 281.51 715.67 282.44 710.57 283.49 C 706.42 276.43 699.56 271.66 693.05 266.97 C 683.04 260.82 672.19 255.84 660.66 253.36 C 652.09 251.00 643.18 250.64 634.44 249.23 Z" />
</g>
<g id="#e09900ff">
<path fill="#e09900" opacity="1.00" d=" M 218.62 257.59 C 221.95 252.42 230.31 252.07 234.10 256.90 C 238.08 261.42 236.51 269.58 230.84 271.93 C 228.37 273.31 225.53 272.93 222.89 272.38 C 213.39 295.10 203.81 317.79 194.33 340.52 C 193.06 340.02 191.78 339.56 190.48 339.14 C 156.55 328.93 118.99 325.49 85.14 337.84 C 83.14 338.64 81.18 339.52 79.22 340.40 C 79.04 340.00 78.70 339.20 78.52 338.80 C 77.99 337.54 77.45 336.31 76.92 335.06 C 89.61 325.91 105.73 323.27 120.99 322.02 C 138.02 321.96 155.49 321.51 171.68 315.60 C 188.22 310.11 203.64 299.99 213.46 285.38 C 215.92 281.39 218.68 277.27 218.91 272.43 C 219.25 272.04 219.94 271.26 220.28 270.87 C 216.83 267.45 215.67 261.69 218.62 257.59 Z" />
<path fill="#e09900" opacity="1.00" d=" M 473.84 293.80 C 476.94 290.98 478.92 286.98 482.68 284.89 C 475.18 303.45 467.25 321.84 459.45 340.28 C 457.90 339.72 456.34 339.16 454.80 338.60 C 431.69 330.11 406.47 328.88 382.19 331.76 C 371.20 333.13 360.26 335.20 349.66 338.43 C 347.55 339.06 345.46 339.71 343.37 340.37 C 341.88 337.06 340.66 333.64 339.40 330.25 C 360.12 320.63 383.34 317.63 406.00 318.01 C 423.37 317.47 441.00 314.54 456.66 306.67 C 462.87 303.09 468.99 299.15 473.84 293.80 Z" />
</g>
<g id="#f3ebe8ff">
<path fill="#f3ebe8" opacity="1.00" d=" M 593.10 286.00 C 594.68 282.20 598.94 281.33 602.57 280.69 C 603.28 281.11 604.04 281.42 604.85 281.62 C 620.50 283.87 635.97 288.35 649.93 295.87 C 648.59 301.20 648.63 306.77 649.20 312.21 C 638.85 310.91 628.39 310.41 617.98 311.15 C 613.79 311.42 609.60 312.17 605.71 313.79 C 611.81 314.14 617.92 313.49 624.03 313.73 C 632.73 313.86 641.38 314.73 650.01 315.80 C 650.76 318.20 651.71 320.54 652.89 322.77 C 640.44 330.41 626.30 334.84 612.10 337.86 C 609.92 338.29 607.71 338.64 605.64 339.46 C 602.11 339.20 597.86 339.69 595.33 336.66 C 590.87 331.50 588.35 324.76 588.02 317.97 C 587.41 307.14 588.44 295.91 593.10 286.00 M 605.07 292.46 C 610.34 294.17 615.90 294.86 621.11 296.83 C 630.37 299.68 639.12 303.90 648.22 307.16 C 648.20 305.84 648.74 303.68 646.99 303.19 C 633.76 297.50 619.74 291.75 605.07 292.46 Z" />
<path fill="#f3ebe8" opacity="1.00" d=" M 726.06 281.38 C 730.05 281.06 732.69 284.74 734.07 288.01 C 737.41 296.21 738.45 305.17 738.21 313.98 C 738.45 322.06 736.56 330.86 730.70 336.77 C 728.35 339.37 724.57 339.44 721.35 339.11 C 719.82 338.93 718.30 338.68 716.81 338.42 C 701.92 335.46 687.11 330.98 673.98 323.21 C 675.29 320.91 676.33 318.46 677.11 315.93 C 687.98 314.49 698.95 313.51 709.93 313.71 C 714.02 313.83 718.12 314.06 722.22 313.80 C 718.36 312.11 714.16 311.49 709.99 311.17 C 699.31 310.33 688.57 310.94 677.96 312.29 C 678.13 306.65 678.68 300.86 677.11 295.37 C 687.64 289.86 699.00 286.11 710.57 283.49 C 715.67 282.44 720.84 281.51 726.06 281.38 M 679.74 303.67 C 679.51 304.03 679.07 304.73 678.84 305.08 C 678.89 305.77 679.00 307.15 679.05 307.84 C 688.80 303.33 698.80 299.31 709.05 296.09 C 713.63 294.61 718.43 293.92 723.00 292.37 C 707.82 291.77 693.39 297.72 679.74 303.67 Z" />
</g>
<g id="#e43929ff">
<path fill="#e43929" opacity="1.00" d=" M 657.60 283.61 C 660.82 281.22 665.50 281.00 668.90 283.19 C 673.20 285.89 675.59 290.68 677.11 295.37 C 678.68 300.86 678.13 306.65 677.96 312.29 C 677.72 313.51 677.44 314.73 677.11 315.93 C 676.33 318.46 675.29 320.91 673.98 323.21 C 671.44 326.74 667.71 330.33 662.98 329.79 C 658.49 329.80 655.25 326.16 652.89 322.77 C 651.71 320.54 650.76 318.20 650.01 315.80 C 649.68 314.61 649.41 313.42 649.20 312.21 C 648.63 306.77 648.59 301.20 649.93 295.87 C 651.37 291.25 653.54 286.50 657.60 283.61 M 661.36 289.54 C 656.43 291.55 654.27 297.15 653.56 302.07 C 652.79 308.40 653.77 315.77 658.66 320.33 C 661.04 322.79 665.24 322.97 667.91 320.86 C 671.09 318.41 672.72 314.47 673.44 310.62 C 674.36 304.62 673.78 298.03 670.18 292.94 C 668.28 290.20 664.67 288.33 661.36 289.54 Z" />
<path fill="#e43929" opacity="1.00" d=" M 735.17 424.75 C 746.41 441.66 757.11 460.17 758.47 480.89 C 759.76 496.29 754.06 511.28 746.51 524.42 C 742.10 532.39 735.52 538.77 729.65 545.63 C 728.02 547.50 726.00 548.94 723.98 550.34 C 718.70 532.97 714.68 515.19 712.51 497.16 C 718.86 493.73 726.16 488.93 726.97 481.09 C 726.74 474.85 723.64 469.17 721.36 463.48 C 730.19 452.58 735.06 438.77 735.17 424.75 Z" />
<path fill="#e43929" opacity="1.00" d=" M 590.11 431.24 C 590.55 431.36 591.45 431.61 591.89 431.74 C 593.03 444.49 598.95 456.44 607.26 466.04 C 605.35 471.20 602.42 476.41 602.89 482.08 C 604.28 489.45 611.17 493.84 617.28 497.18 C 615.07 515.48 610.84 533.47 605.60 551.13 L 605.48 551.01 C 596.20 542.01 587.12 532.49 580.99 520.99 C 575.08 509.58 570.40 497.05 570.86 484.01 C 571.29 464.86 579.99 447.07 590.11 431.24 Z" />
<path fill="#e43929" opacity="1.00" d=" M 582.35 541.41 C 583.64 543.58 585.09 545.66 586.62 547.68 C 577.78 599.82 569.68 652.20 566.53 705.04 C 566.07 706.70 567.00 708.03 568.60 708.54 C 580.89 714.45 593.86 718.90 607.06 722.31 C 606.93 726.08 606.82 729.85 606.63 733.62 C 589.07 729.69 571.38 725.31 555.06 717.58 C 558.35 669.60 566.34 622.11 575.45 574.94 C 577.74 563.76 579.78 552.53 582.35 541.41 Z" />
<path fill="#e43929" opacity="1.00" d=" M 740.39 551.32 C 741.83 549.07 743.59 547.05 745.51 545.18 C 748.68 557.68 750.78 570.45 753.34 583.09 C 761.81 627.57 768.95 672.39 772.25 717.58 C 756.18 725.04 738.91 729.63 721.63 733.32 C 721.50 729.50 721.35 725.69 721.20 721.88 C 734.16 718.33 746.99 714.00 759.01 707.94 C 760.61 707.27 759.75 705.25 759.92 703.97 C 756.69 652.74 749.19 601.87 740.39 551.32 Z" />
</g>
<g id="#f0c100ff">
<path fill="#f0c100" opacity="1.00" d=" M 661.36 289.54 C 664.67 288.33 668.28 290.20 670.18 292.94 C 673.78 298.03 674.36 304.62 673.44 310.62 C 672.72 314.47 671.09 318.41 667.91 320.86 C 665.24 322.97 661.04 322.79 658.66 320.33 C 653.77 315.77 652.79 308.40 653.56 302.07 C 654.27 297.15 656.43 291.55 661.36 289.54 Z" />
<path fill="#f0c100" opacity="1.00" d=" M 90.47 497.09 C 93.21 498.59 96.15 499.69 99.12 500.67 C 100.65 501.16 102.19 501.62 103.73 502.09 C 103.76 509.59 103.19 517.07 102.41 524.52 C 101.32 535.03 99.98 545.51 98.55 555.98 C 98.17 558.64 97.77 561.28 97.42 563.95 C 97.24 565.31 97.08 566.67 96.91 568.05 C 95.42 565.92 93.72 563.93 91.66 562.33 C 87.17 558.78 82.95 554.91 78.73 551.06 L 78.91 550.47 C 84.29 533.05 88.18 515.17 90.47 497.09 Z" />
<path fill="#f0c100" opacity="1.00" d=" M 175.31 501.19 C 178.85 500.10 182.36 498.86 185.60 497.04 C 187.84 515.16 191.81 533.06 197.17 550.51 C 197.22 550.67 197.32 551.00 197.37 551.17 C 191.04 555.89 185.77 561.93 179.04 566.15 C 178.51 562.81 178.00 559.46 177.54 556.12 C 176.04 545.31 174.66 534.48 173.58 523.62 C 172.81 516.48 172.36 509.30 172.25 502.12 C 173.27 501.80 174.29 501.49 175.31 501.19 Z" />
<path fill="#f0c100" opacity="1.00" d=" M 355.11 497.22 C 357.85 498.60 360.72 499.71 363.65 500.62 C 365.21 501.09 366.77 501.48 368.35 501.91 C 368.58 506.60 368.25 511.29 367.84 515.97 C 366.42 532.00 364.32 547.96 362.11 563.89 L 361.96 565.18 C 361.56 565.30 360.77 565.54 360.37 565.66 C 354.48 561.10 348.88 556.15 343.40 551.10 L 343.49 550.80 C 348.87 533.31 352.94 515.39 355.11 497.22 Z" />
<path fill="#f0c100" opacity="1.00" d=" M 617.28 497.18 C 620.04 498.58 622.96 499.68 625.91 500.65 C 627.41 501.13 628.91 501.58 630.42 502.04 C 630.68 509.64 629.98 517.22 629.23 524.78 C 628.24 535.17 626.83 545.51 625.46 555.85 C 625.10 558.48 624.72 561.11 624.33 563.74 C 623.90 566.55 623.45 569.36 623.07 572.19 C 623.07 570.16 623.00 568.14 622.95 566.12 C 617.17 561.11 611.09 556.45 605.60 551.13 C 610.84 533.47 615.07 515.48 617.28 497.18 Z" />
<path fill="#f0c100" opacity="1.00" d=" M 702.20 501.17 C 705.71 500.05 709.22 498.85 712.51 497.16 C 714.68 515.19 718.70 532.97 723.98 550.34 L 724.13 550.84 C 718.26 556.23 712.40 561.70 705.79 566.21 L 705.52 564.40 C 705.10 561.63 704.71 558.86 704.34 556.09 C 702.82 545.45 701.62 534.78 700.34 524.11 C 700.08 523.93 699.56 523.56 699.30 523.37 L 700.50 523.97 C 699.62 516.71 699.19 509.39 699.31 502.08 C 700.26 501.77 701.23 501.47 702.20 501.17 Z" />
<path fill="#f0c100" opacity="1.00" d=" M 440.12 501.13 C 443.58 500.18 446.90 498.81 450.13 497.26 C 452.57 515.27 456.36 533.12 461.79 550.47 C 456.53 556.68 449.83 561.40 443.56 566.50 C 441.75 552.25 439.61 538.04 438.22 523.73 C 437.35 516.50 436.90 509.21 436.99 501.93 C 438.03 501.66 439.07 501.40 440.12 501.13 Z" />
</g>
<g id="#d8d7d6ff">
<path fill="#d8d7d6" opacity="1.00" d=" M 605.07 292.46 C 619.74 291.75 633.76 297.50 646.99 303.19 C 648.74 303.68 648.20 305.84 648.22 307.16 C 639.12 303.90 630.37 299.68 621.11 296.83 C 615.90 294.86 610.34 294.17 605.07 292.46 Z" />
<path fill="#d8d7d6" opacity="1.00" d=" M 679.74 303.67 C 693.39 297.72 707.82 291.77 723.00 292.37 C 718.43 293.92 713.63 294.61 709.05 296.09 C 698.80 299.31 688.80 303.33 679.05 307.84 C 679.00 307.15 678.89 305.77 678.84 305.08 C 679.07 304.73 679.51 304.03 679.74 303.67 Z" />
<path fill="#d8d7d6" opacity="1.00" d=" M 605.71 313.79 C 609.60 312.17 613.79 311.42 617.98 311.15 C 628.39 310.41 638.85 310.91 649.20 312.21 C 649.41 313.42 649.68 314.61 650.01 315.80 C 641.38 314.73 632.73 313.86 624.03 313.73 C 617.92 313.49 611.81 314.14 605.71 313.79 Z" />
<path fill="#d8d7d6" opacity="1.00" d=" M 677.96 312.29 C 688.57 310.94 699.31 310.33 709.99 311.17 C 714.16 311.49 718.36 312.11 722.22 313.80 C 718.12 314.06 714.02 313.83 709.93 313.71 C 698.95 313.51 687.98 314.49 677.11 315.93 C 677.44 314.73 677.72 313.51 677.96 312.29 Z" />
</g>
<g id="#9c6d54ff">
<path fill="#9c6d54" opacity="1.00" d=" M 612.10 337.86 C 626.30 334.84 640.44 330.41 652.89 322.77 C 655.25 326.16 658.49 329.80 662.98 329.79 C 667.71 330.33 671.44 326.74 673.98 323.21 C 687.11 330.98 701.92 335.46 716.81 338.42 C 717.05 351.27 717.99 364.35 715.08 376.98 C 713.90 382.87 709.65 387.46 704.94 390.88 C 700.51 394.04 695.42 396.54 689.92 397.00 C 692.99 395.12 696.32 393.44 698.57 390.52 C 704.27 383.37 706.51 374.03 706.78 365.03 C 703.31 371.53 697.85 378.06 690.05 378.91 C 684.31 379.75 679.41 376.16 674.10 374.78 C 672.92 374.47 671.74 374.19 670.58 373.92 C 670.54 371.94 671.39 369.65 670.04 367.95 C 667.22 363.78 659.80 364.40 657.74 368.99 C 657.21 370.64 657.68 372.40 657.74 374.09 C 656.11 374.27 654.50 374.44 652.89 374.70 C 647.21 375.98 642.01 379.96 635.91 378.86 C 628.68 377.84 623.65 371.83 620.11 365.92 C 619.67 377.49 624.57 389.62 634.33 396.28 C 627.67 395.43 621.03 392.54 616.72 387.25 C 613.64 383.49 612.46 378.62 611.78 373.92 C 610.12 361.95 610.91 349.83 612.10 337.86 M 636.25 347.49 C 633.18 350.54 633.15 357.41 637.34 359.54 C 640.98 359.60 641.80 354.86 641.44 352.02 C 641.40 349.52 639.19 345.52 636.25 347.49 M 687.24 347.40 C 684.16 350.29 684.22 355.89 687.06 358.94 C 688.70 360.52 691.20 358.78 691.76 356.97 C 692.60 354.31 692.65 351.20 691.30 348.70 C 690.67 347.24 688.58 346.37 687.24 347.40 Z" />
<path fill="#9c6d54" opacity="1.00" d=" M 655.60 396.76 C 657.95 395.41 660.46 394.33 663.10 393.70 C 665.70 394.43 669.07 394.86 670.52 397.42 L 669.90 397.46 C 665.38 397.88 660.79 398.62 656.41 396.97 L 655.60 396.76 Z" />
</g>
<g id="#fadacaff">
<path fill="#fadaca" opacity="1.00" d=" M 85.14 337.84 C 118.99 325.49 156.55 328.93 190.48 339.14 C 189.62 352.32 191.56 365.88 187.71 378.75 C 185.64 385.29 180.03 389.89 174.36 393.31 C 171.69 395.01 168.63 395.93 165.52 396.37 C 168.60 393.48 172.10 390.88 174.18 387.12 C 178.00 380.44 179.88 372.70 179.80 365.02 C 176.59 371.36 171.41 377.51 164.04 378.76 C 156.73 380.22 150.75 374.54 143.65 374.17 C 143.70 372.23 144.05 370.25 143.65 368.33 C 140.76 363.64 132.22 364.22 130.62 369.74 C 129.87 371.47 131.18 373.14 131.84 374.68 C 123.50 372.73 116.64 380.80 108.28 378.66 C 101.19 377.43 96.77 371.34 93.00 365.79 C 93.10 377.35 97.51 389.37 107.22 396.24 C 100.16 395.35 93.13 391.93 89.01 385.97 C 85.26 380.41 84.83 373.49 84.26 367.02 C 83.42 357.29 84.54 347.55 85.14 337.84 M 109.31 347.57 C 106.63 350.37 106.65 355.12 108.69 358.28 C 109.64 359.97 112.38 359.86 113.31 358.22 C 115.08 355.32 115.16 351.42 113.44 348.49 C 112.69 347.11 110.50 346.26 109.31 347.57 M 160.28 347.55 C 157.92 349.62 157.96 353.12 158.47 355.97 C 158.94 357.88 160.73 360.31 162.97 359.33 C 165.84 357.28 165.91 353.17 165.09 350.07 C 164.63 348.10 162.24 345.82 160.28 347.55 Z" />
<path fill="#fadaca" opacity="1.00" d=" M 382.19 331.76 C 406.47 328.88 431.69 330.11 454.80 338.60 C 454.67 351.69 455.98 365.06 452.63 377.89 C 451.04 384.33 445.77 388.93 440.44 392.43 C 435.56 395.60 429.85 397.20 424.11 397.84 C 429.30 396.54 434.21 393.80 437.30 389.33 C 442.40 382.29 444.22 373.46 444.66 364.93 C 441.14 371.34 435.86 377.93 428.12 378.88 C 420.61 380.22 414.63 373.63 407.18 374.47 C 407.32 372.20 408.52 369.37 406.44 367.62 C 403.25 363.85 396.30 364.63 394.32 369.24 C 394.06 370.98 394.52 372.72 394.72 374.46 C 387.32 373.74 381.36 380.27 373.90 378.85 C 366.10 377.96 361.04 371.25 357.37 364.98 C 357.99 373.67 359.77 382.75 365.18 389.82 C 367.46 392.92 370.78 394.97 374.04 396.91 C 367.57 395.65 360.84 393.75 356.06 388.95 C 352.15 385.17 350.44 379.79 349.66 374.54 C 347.91 362.57 348.86 350.43 349.66 338.43 C 360.26 335.20 371.20 333.13 382.19 331.76 M 373.26 347.34 C 370.77 348.98 370.79 352.46 371.07 355.12 C 371.26 357.40 373.31 360.61 375.95 359.19 C 378.57 356.76 378.82 352.55 377.53 349.39 C 376.87 347.74 375.04 346.17 373.26 347.34 M 424.20 347.23 C 421.64 349.26 421.26 353.09 422.14 356.05 C 422.70 357.78 423.83 360.06 426.07 359.49 C 429.27 358.06 429.43 353.85 428.89 350.88 C 428.57 348.72 426.65 346.06 424.20 347.23 Z" />
<path fill="#fadaca" opacity="1.00" d=" M 128.71 396.77 C 131.25 395.39 133.96 394.02 136.89 393.82 C 139.41 394.37 141.75 395.52 144.06 396.65 L 143.39 396.83 C 138.93 398.46 134.12 398.69 129.63 397.02 L 128.71 396.77 Z" />
<path fill="#fadaca" opacity="1.00" d=" M 393.83 396.29 C 396.23 395.34 398.64 394.42 401.03 393.44 C 403.42 394.38 405.81 395.31 408.19 396.28 C 405.69 399.35 401.48 398.82 397.97 398.61 C 396.19 398.75 395.05 397.30 393.83 396.29 Z" />
<path fill="#fadaca" opacity="1.00" d=" M 431.53 505.33 C 431.72 510.54 431.54 515.76 431.62 520.98 C 433.83 521.88 436.02 522.80 438.22 523.73 C 439.61 538.04 441.75 552.25 443.56 566.50 C 443.59 566.85 443.66 567.55 443.70 567.90 C 443.48 566.79 443.30 565.67 443.15 564.57 C 436.09 566.85 427.58 568.45 421.01 564.01 C 414.34 559.08 410.92 550.23 411.71 542.09 C 411.74 539.42 414.06 537.99 416.19 537.01 C 418.24 536.97 420.29 536.99 422.34 537.00 C 425.38 537.00 428.41 537.00 431.45 537.00 C 431.47 532.60 431.45 528.20 431.48 523.80 C 431.54 518.61 431.50 513.42 431.51 508.23 C 431.52 507.51 431.53 506.06 431.53 505.33 Z" />
<path fill="#fadaca" opacity="1.00" d=" M 362.11 563.89 C 364.32 547.96 366.42 532.00 367.84 515.97 C 367.66 518.90 367.79 521.85 367.73 524.79 C 369.68 523.22 371.91 522.08 374.23 521.17 C 374.24 521.84 374.26 523.20 374.27 523.87 C 374.30 528.23 374.28 532.59 374.25 536.95 C 377.43 536.99 380.61 537.01 383.79 537.00 C 386.03 536.99 388.27 536.98 390.51 537.02 C 392.47 538.06 394.75 539.44 394.83 541.95 C 395.73 551.13 391.41 561.69 382.60 565.57 C 375.96 568.07 368.48 566.54 362.11 563.89 Z" />
<path fill="#fadaca" opacity="1.00" d=" M 102.41 524.52 C 104.92 523.32 107.45 522.16 110.00 521.04 C 110.00 522.85 110.00 524.66 110.01 526.48 C 110.00 530.72 109.99 534.97 110.01 539.22 C 113.14 539.23 116.28 539.23 119.41 539.22 C 122.75 539.22 126.09 539.21 129.42 539.22 C 130.27 542.38 130.53 545.67 130.05 548.93 C 124.46 554.25 116.95 557.66 109.16 557.53 C 105.58 557.33 102.08 556.53 98.55 555.98 C 99.98 545.51 101.32 535.03 102.41 524.52 Z" />
<path fill="#fadaca" opacity="1.00" d=" M 167.49 520.73 L 167.59 520.93 C 167.71 521.16 167.96 521.62 168.08 521.84 C 169.91 522.44 171.75 523.02 173.58 523.62 C 174.66 534.48 176.04 545.31 177.54 556.12 C 169.51 558.40 160.68 557.80 153.40 553.55 C 151.05 551.95 149.16 549.81 147.14 547.85 C 146.77 544.95 147.14 542.05 147.78 539.22 C 151.14 539.21 154.51 539.22 157.88 539.22 C 161.07 539.23 164.26 539.23 167.45 539.23 C 167.47 534.95 167.46 530.68 167.46 526.41 C 167.47 524.51 167.49 522.60 167.49 520.73 Z" />
</g>
<g id="#f5fafcff">
<path fill="#f5fafc" opacity="1.00" d=" M 79.22 340.40 C 81.18 339.52 83.14 338.64 85.14 337.84 C 84.54 347.55 83.42 357.29 84.26 367.02 C 84.83 373.49 85.26 380.41 89.01 385.97 C 93.13 391.93 100.16 395.35 107.22 396.24 C 97.51 389.37 93.10 377.35 93.00 365.79 C 96.77 371.34 101.19 377.43 108.28 378.66 C 116.64 380.80 123.50 372.73 131.84 374.68 C 133.38 375.61 134.90 376.55 136.42 377.51 C 138.90 376.56 141.33 375.47 143.65 374.17 C 150.75 374.54 156.73 380.22 164.04 378.76 C 171.41 377.51 176.59 371.36 179.80 365.02 C 179.88 372.70 178.00 380.44 174.18 387.12 C 172.10 390.88 168.60 393.48 165.52 396.37 C 168.63 395.93 171.69 395.01 174.36 393.31 C 180.03 389.89 185.64 385.29 187.71 378.75 C 191.56 365.88 189.62 352.32 190.48 339.14 C 191.78 339.56 193.06 340.02 194.33 340.52 C 195.67 340.82 195.72 342.47 195.47 343.54 C 194.90 346.44 195.01 349.40 195.50 352.31 C 196.82 361.16 197.11 370.10 197.36 379.03 C 198.22 386.66 197.22 394.31 197.08 401.95 C 195.75 421.80 191.15 442.54 178.07 458.13 C 171.39 465.35 162.62 470.78 153.00 473.03 C 136.27 477.22 118.78 475.94 101.90 473.35 C 96.03 472.59 90.36 470.60 84.42 470.29 C 83.04 468.92 81.70 467.52 80.43 466.06 C 71.57 455.89 65.64 443.03 64.75 429.50 C 64.43 425.65 64.47 421.80 64.37 417.95 C 65.25 391.05 71.83 364.74 78.52 338.80 C 78.70 339.20 79.04 340.00 79.22 340.40 M 128.71 396.77 L 129.63 397.02 C 132.81 401.76 140.26 401.47 143.39 396.83 L 144.06 396.65 C 141.75 395.52 139.41 394.37 136.89 393.82 C 133.96 394.02 131.25 395.39 128.71 396.77 Z" />
</g>
<g id="#5d4125ff">
<path fill="#5d4125" opacity="1.00" d=" M 605.64 339.46 C 607.71 338.64 609.92 338.29 612.10 337.86 C 610.91 349.83 610.12 361.95 611.78 373.92 C 612.46 378.62 613.64 383.49 616.72 387.25 C 621.03 392.54 627.67 395.43 634.33 396.28 C 624.57 389.62 619.67 377.49 620.11 365.92 C 623.65 371.83 628.68 377.84 635.91 378.86 C 642.01 379.96 647.21 375.98 652.89 374.70 C 656.60 374.48 660.33 375.36 663.04 378.04 C 666.35 375.94 670.10 374.50 674.10 374.78 C 679.41 376.16 684.31 379.75 690.05 378.91 C 697.85 378.06 703.31 371.53 706.78 365.03 C 706.51 374.03 704.27 383.37 698.57 390.52 C 696.32 393.44 692.99 395.12 689.92 397.00 C 695.42 396.54 700.51 394.04 704.94 390.88 C 709.65 387.46 713.90 382.87 715.08 376.98 C 717.99 364.35 717.05 351.27 716.81 338.42 C 718.30 338.68 719.82 338.93 721.35 339.11 C 721.79 341.16 722.25 343.22 722.64 345.29 C 721.52 351.54 723.46 357.78 723.63 364.04 C 724.85 385.67 725.43 407.80 719.72 428.90 C 716.16 441.88 709.96 454.71 699.32 463.35 C 690.68 470.93 679.12 473.94 667.94 475.17 C 650.58 476.97 633.02 474.70 616.09 470.77 C 614.53 470.47 612.94 470.44 611.36 470.41 C 609.93 469.00 608.57 467.54 607.26 466.04 C 598.95 456.44 593.03 444.49 591.89 431.74 C 591.45 427.26 591.18 422.76 591.23 418.26 C 592.33 391.48 598.18 365.12 605.64 339.46 M 655.60 396.76 L 656.41 396.97 C 659.47 401.54 666.38 401.49 669.90 397.46 L 670.52 397.42 C 669.07 394.86 665.70 394.43 663.10 393.70 C 660.46 394.33 657.95 395.41 655.60 396.76 Z" />
</g>
<g id="#cb651eff">
<path fill="#cb651e" opacity="1.00" d=" M 343.37 340.37 C 345.46 339.71 347.55 339.06 349.66 338.43 C 348.86 350.43 347.91 362.57 349.66 374.54 C 350.44 379.79 352.15 385.17 356.06 388.95 C 360.84 393.75 367.57 395.65 374.04 396.91 C 370.78 394.97 367.46 392.92 365.18 389.82 C 359.77 382.75 357.99 373.67 357.37 364.98 C 361.04 371.25 366.10 377.96 373.90 378.85 C 381.36 380.27 387.32 373.74 394.72 374.46 C 396.92 375.38 398.97 376.62 401.00 377.88 C 402.98 376.61 404.99 375.35 407.18 374.47 C 414.63 373.63 420.61 380.22 428.12 378.88 C 435.86 377.93 441.14 371.34 444.66 364.93 C 444.22 373.46 442.40 382.29 437.30 389.33 C 434.21 393.80 429.30 396.54 424.11 397.84 C 429.85 397.20 435.56 395.60 440.44 392.43 C 445.77 388.93 451.04 384.33 452.63 377.89 C 455.98 365.06 454.67 351.69 454.80 338.60 C 456.34 339.16 457.90 339.72 459.45 340.28 C 459.80 342.28 460.53 344.27 460.51 346.32 C 460.07 349.23 460.09 352.18 460.52 355.09 C 462.27 369.66 462.47 384.36 462.00 399.01 C 461.25 414.41 458.47 429.93 452.01 444.01 C 446.72 455.00 438.07 464.65 426.90 469.83 C 415.34 474.89 402.48 476.10 389.98 475.81 C 378.77 475.31 367.55 474.02 356.62 471.42 C 354.19 470.86 351.71 470.56 349.23 470.38 C 347.84 469.00 346.48 467.59 345.18 466.13 C 336.32 455.97 330.38 443.15 329.46 429.62 C 329.14 425.80 328.99 421.96 329.10 418.14 C 330.14 391.71 335.72 365.62 343.37 340.37 M 393.83 396.29 C 395.05 397.30 396.19 398.75 397.97 398.61 C 401.48 398.82 405.69 399.35 408.19 396.28 C 405.81 395.31 403.42 394.38 401.03 393.44 C 398.64 394.42 396.23 395.34 393.83 396.29 Z" />
</g>
<g id="#e2edecff">
<path fill="#e2edec" opacity="1.00" d=" M 195.50 352.31 C 195.01 349.40 194.90 346.44 195.47 343.54 C 201.38 366.90 207.17 390.52 208.27 414.70 C 208.25 418.99 208.30 423.29 208.14 427.59 C 207.70 440.57 202.76 453.20 194.62 463.28 C 188.69 470.99 181.12 477.30 172.88 482.42 C 171.18 483.40 169.42 484.28 167.67 485.17 C 167.64 482.69 167.57 480.23 167.45 477.76 C 164.25 477.77 161.05 477.77 157.86 477.78 C 145.03 477.77 132.19 477.77 119.36 477.78 C 116.24 477.77 113.13 477.77 110.01 477.78 C 110.00 481.00 109.99 484.22 110.00 487.44 C 107.01 486.13 104.04 484.76 101.21 483.12 C 95.11 479.57 89.39 475.32 84.42 470.29 C 90.36 470.60 96.03 472.59 101.90 473.35 C 118.78 475.94 136.27 477.22 153.00 473.03 C 162.62 470.78 171.39 465.35 178.07 458.13 C 191.15 442.54 195.75 421.80 197.08 401.95 C 197.22 394.31 198.22 386.66 197.36 379.03 C 197.11 370.10 196.82 361.16 195.50 352.31 Z" />
</g>
<g id="#3f2916ff">
<path fill="#3f2916" opacity="1.00" d=" M 723.63 364.04 C 723.46 357.78 721.52 351.54 722.64 345.29 C 728.71 368.05 733.88 391.21 735.09 414.80 C 735.23 418.11 735.29 421.43 735.17 424.75 C 735.06 438.77 730.19 452.58 721.36 463.48 C 715.49 470.95 708.13 477.15 700.07 482.13 C 688.92 488.86 676.10 493.15 663.00 493.21 C 650.92 493.05 639.07 489.30 628.60 483.38 C 622.33 479.82 616.52 475.44 611.36 470.41 C 612.94 470.44 614.53 470.47 616.09 470.77 C 633.02 474.70 650.58 476.97 667.94 475.17 C 679.12 473.94 690.68 470.93 699.32 463.35 C 709.96 454.71 716.16 441.88 719.72 428.90 C 725.43 407.80 724.85 385.67 723.63 364.04 Z" />
<path fill="#3f2916" opacity="1.00" d=" M 642.12 556.89 C 647.54 556.06 652.03 552.75 656.35 549.61 L 656.44 551.06 C 654.55 557.86 649.81 564.66 642.56 566.29 C 636.42 567.37 629.98 566.33 624.33 563.74 C 624.72 561.11 625.10 558.48 625.46 555.85 C 630.91 557.03 636.57 558.16 642.12 556.89 Z" />
<path fill="#3f2916" opacity="1.00" d=" M 674.32 549.55 C 678.60 552.11 682.61 555.40 687.60 556.52 C 693.09 558.14 698.87 557.39 704.34 556.09 C 704.71 558.86 705.10 561.63 705.52 564.40 C 699.44 566.44 692.57 567.85 686.36 565.58 C 679.71 562.98 675.97 556.14 674.32 549.55 Z" />
</g>
<g id="#5c4636ff">
<path fill="#5c4636" opacity="1.00" d=" M 109.31 347.57 C 110.50 346.26 112.69 347.11 113.44 348.49 C 115.16 351.42 115.08 355.32 113.31 358.22 C 112.38 359.86 109.64 359.97 108.69 358.28 C 106.65 355.12 106.63 350.37 109.31 347.57 Z" />
<path fill="#5c4636" opacity="1.00" d=" M 160.28 347.55 C 162.24 345.82 164.63 348.10 165.09 350.07 C 165.91 353.17 165.84 357.28 162.97 359.33 C 160.73 360.31 158.94 357.88 158.47 355.97 C 157.96 353.12 157.92 349.62 160.28 347.55 Z" />
<path fill="#5c4636" opacity="1.00" d=" M 373.26 347.34 C 375.04 346.17 376.87 347.74 377.53 349.39 C 378.82 352.55 378.57 356.76 375.95 359.19 C 373.31 360.61 371.26 357.40 371.07 355.12 C 370.79 352.46 370.77 348.98 373.26 347.34 Z" />
<path fill="#5c4636" opacity="1.00" d=" M 424.20 347.23 C 426.65 346.06 428.57 348.72 428.89 350.88 C 429.43 353.85 429.27 358.06 426.07 359.49 C 423.83 360.06 422.70 357.78 422.14 356.05 C 421.26 353.09 421.64 349.26 424.20 347.23 Z" />
</g>
<g id="#b45010ff">
<path fill="#b45010" opacity="1.00" d=" M 460.52 355.09 C 460.09 352.18 460.07 349.23 460.51 346.32 C 466.82 368.56 471.56 391.39 472.87 414.52 C 473.03 418.20 473.09 421.88 472.96 425.57 C 472.55 439.31 467.77 452.84 459.07 463.52 C 453.30 471.02 445.86 477.06 437.92 482.12 C 430.47 486.73 422.21 490.05 413.65 491.91 C 406.26 490.35 398.59 490.47 391.27 492.37 C 382.42 490.98 373.92 487.74 366.17 483.30 C 360.06 479.66 354.24 475.45 349.23 470.38 C 351.71 470.56 354.19 470.86 356.62 471.42 C 367.55 474.02 378.77 475.31 389.98 475.81 C 402.48 476.10 415.34 474.89 426.90 469.83 C 438.07 464.65 446.72 455.00 452.01 444.01 C 458.47 429.93 461.25 414.41 462.00 399.01 C 462.47 384.36 462.27 369.66 460.52 355.09 Z" />
</g>
<g id="#51300cff">
<path fill="#51300c" opacity="1.00" d=" M 636.25 347.49 C 639.19 345.52 641.40 349.52 641.44 352.02 C 641.80 354.86 640.98 359.60 637.34 359.54 C 633.15 357.41 633.18 350.54 636.25 347.49 Z" />
<path fill="#51300c" opacity="1.00" d=" M 687.24 347.40 C 688.58 346.37 690.67 347.24 691.30 348.70 C 692.65 351.20 692.60 354.31 691.76 356.97 C 691.20 358.78 688.70 360.52 687.06 358.94 C 684.22 355.89 684.16 350.29 687.24 347.40 Z" />
</g>
<g id="#f4bbb1ff">
<path fill="#f4bbb1" opacity="1.00" d=" M 130.62 369.74 C 132.22 364.22 140.76 363.64 143.65 368.33 C 144.05 370.25 143.70 372.23 143.65 374.17 C 141.33 375.47 138.90 376.56 136.42 377.51 C 134.90 376.55 133.38 375.61 131.84 374.68 C 131.18 373.14 129.87 371.47 130.62 369.74 Z" />
<path fill="#f4bbb1" opacity="1.00" d=" M 394.32 369.24 C 396.30 364.63 403.25 363.85 406.44 367.62 C 408.52 369.37 407.32 372.20 407.18 374.47 C 404.99 375.35 402.98 376.61 401.00 377.88 C 398.97 376.62 396.92 375.38 394.72 374.46 C 394.52 372.72 394.06 370.98 394.32 369.24 Z" />
</g>
<g id="#774b36ff">
<path fill="#774b36" opacity="1.00" d=" M 657.74 368.99 C 659.80 364.40 667.22 363.78 670.04 367.95 C 671.39 369.65 670.54 371.94 670.58 373.92 C 671.74 374.19 672.92 374.47 674.10 374.78 C 670.10 374.50 666.35 375.94 663.04 378.04 C 660.33 375.36 656.60 374.48 652.89 374.70 C 654.50 374.44 656.11 374.27 657.74 374.09 C 657.68 372.40 657.21 370.64 657.74 368.99 Z" />
</g>
<g id="#e69997ff">
<path fill="#e69997" opacity="1.00" d=" M 129.63 397.02 C 134.12 398.69 138.93 398.46 143.39 396.83 C 140.26 401.47 132.81 401.76 129.63 397.02 Z" />
</g>
<g id="#cc7d77ff">
<path fill="#cc7d77" opacity="1.00" d=" M 656.41 396.97 C 660.79 398.62 665.38 397.88 669.90 397.46 C 666.38 401.49 659.47 401.54 656.41 396.97 Z" />
</g>
<g id="#0095a2ff">
<path fill="#0095a2" opacity="1.00" d=" M 208.14 427.59 C 208.30 423.29 208.25 418.99 208.27 414.70 C 218.78 424.84 227.72 436.72 234.26 449.80 C 240.59 461.93 244.63 475.76 242.74 489.53 C 240.16 509.72 229.32 527.49 218.56 544.32 C 216.90 546.77 215.14 549.14 213.48 551.59 C 210.05 556.57 206.44 561.43 202.60 566.11 C 200.55 561.23 198.99 556.19 197.37 551.17 C 197.32 551.00 197.22 550.67 197.17 550.51 C 199.51 548.79 201.76 546.93 203.69 544.75 C 209.38 538.35 215.28 532.02 219.56 524.56 C 226.73 511.92 232.56 497.79 231.81 482.98 C 230.78 462.61 221.19 443.82 209.84 427.31 C 209.42 427.38 208.57 427.52 208.14 427.59 Z" />
<path fill="#0095a2" opacity="1.00" d=" M 64.37 417.95 C 64.47 421.80 64.43 425.65 64.75 429.50 C 60.17 435.03 57.16 441.60 53.95 447.97 C 48.10 459.05 44.46 471.40 43.97 483.95 C 43.48 496.66 48.03 508.92 53.88 519.99 C 57.79 528.56 64.02 535.74 70.25 542.68 C 72.86 545.57 75.68 548.28 78.91 550.47 L 78.73 551.06 C 77.11 556.18 75.38 561.27 73.51 566.31 C 68.82 560.52 64.44 554.47 60.26 548.31 C 58.76 546.22 57.05 544.30 55.58 542.20 C 54.11 538.28 51.42 535.02 49.43 531.38 C 41.79 518.34 35.01 504.32 33.24 489.14 C 32.16 479.32 33.58 469.31 37.17 460.12 C 43.11 444.32 52.91 430.24 64.37 417.95 Z" />
</g>
<g id="#006562ff">
<path fill="#006562" opacity="1.00" d=" M 472.87 414.52 C 485.76 427.16 496.49 442.21 503.14 459.06 C 507.14 469.13 509.01 480.25 507.22 491.02 C 504.28 510.11 494.44 527.29 483.78 543.09 C 481.76 546.17 479.75 549.26 477.57 552.24 C 474.14 556.93 470.79 561.68 467.14 566.21 C 465.17 561.03 463.36 555.78 461.79 550.47 C 471.94 541.23 481.71 531.02 487.37 518.33 C 492.89 508.15 496.78 496.72 496.11 485.01 C 496.70 473.14 493.07 461.54 487.99 450.96 C 483.68 442.12 479.24 433.20 472.96 425.57 C 473.09 421.88 473.03 418.20 472.87 414.52 Z" />
<path fill="#006562" opacity="1.00" d=" M 306.18 450.07 C 312.13 438.36 319.77 427.41 329.10 418.14 C 328.99 421.96 329.14 425.80 329.46 429.62 C 328.57 430.66 327.67 431.71 326.88 432.84 C 318.41 446.67 310.96 461.66 309.10 477.98 C 308.67 484.95 308.61 492.03 310.20 498.87 C 311.95 507.69 316.33 515.66 320.31 523.62 C 326.40 533.93 334.66 542.78 343.49 550.80 L 343.40 551.10 C 341.80 556.16 340.20 561.23 338.17 566.14 C 333.38 560.14 328.86 553.94 324.44 547.67 C 322.98 545.57 321.54 543.47 320.16 541.33 C 310.18 525.57 300.44 508.80 297.97 489.99 C 295.97 476.18 299.90 462.28 306.18 450.07 Z" />
</g>
<g id="#cd3e2bff">
<path fill="#cd3e2b" opacity="1.00" d=" M 735.09 414.80 C 748.11 427.16 758.58 442.30 765.28 458.98 C 769.75 470.04 771.29 482.34 768.89 494.08 C 765.40 511.72 756.20 527.53 746.53 542.45 C 746.05 543.30 745.71 544.21 745.51 545.18 C 743.59 547.05 741.83 549.07 740.39 551.32 C 736.88 556.41 733.16 561.35 729.38 566.24 C 727.51 561.14 725.71 556.02 724.13 550.84 L 723.98 550.34 C 726.00 548.94 728.02 547.50 729.65 545.63 C 735.52 538.77 742.10 532.39 746.51 524.42 C 754.06 511.28 759.76 496.29 758.47 480.89 C 757.11 460.17 746.41 441.66 735.17 424.75 C 735.29 421.43 735.23 418.11 735.09 414.80 Z" />
<path fill="#cd3e2b" opacity="1.00" d=" M 565.51 456.36 C 571.65 442.25 580.37 429.18 591.23 418.26 C 591.18 422.76 591.45 427.26 591.89 431.74 C 591.45 431.61 590.55 431.36 590.11 431.24 C 579.99 447.07 571.29 464.86 570.86 484.01 C 570.40 497.05 575.08 509.58 580.99 520.99 C 587.12 532.49 596.20 542.01 605.48 551.01 C 604.02 556.17 602.19 561.22 600.40 566.29 C 595.59 560.24 591.18 553.90 586.62 547.68 C 585.09 545.66 583.64 543.58 582.35 541.41 C 572.69 525.75 562.98 509.35 560.30 490.84 C 558.51 479.13 560.80 467.13 565.51 456.36 Z" />
</g>
<g id="#006d6aff">
<path fill="#006d6a" opacity="1.00" d=" M 472.96 425.57 C 479.24 433.20 483.68 442.12 487.99 450.96 C 493.07 461.54 496.70 473.14 496.11 485.01 C 496.78 496.72 492.89 508.15 487.37 518.33 C 481.71 531.02 471.94 541.23 461.79 550.47 C 456.36 533.12 452.57 515.27 450.13 497.26 C 456.39 493.96 463.38 489.43 464.67 481.91 C 464.91 475.37 461.60 469.37 459.07 463.52 C 467.77 452.84 472.55 439.31 472.96 425.57 Z" />
<path fill="#006d6a" opacity="1.00" d=" M 326.88 432.84 C 327.67 431.71 328.57 430.66 329.46 429.62 C 330.38 443.15 336.32 455.97 345.18 466.13 C 342.88 472.12 338.55 478.90 341.71 485.36 C 344.47 490.86 349.83 494.41 355.11 497.22 C 352.94 515.39 348.87 533.31 343.49 550.80 C 334.66 542.78 326.40 533.93 320.31 523.62 C 316.33 515.66 311.95 507.69 310.20 498.87 C 308.61 492.03 308.67 484.95 309.10 477.98 C 310.96 461.66 318.41 446.67 326.88 432.84 Z" />
</g>
<g id="#00a5b6ff">
<path fill="#00a5b6" opacity="1.00" d=" M 208.14 427.59 C 208.57 427.52 209.42 427.38 209.84 427.31 C 221.19 443.82 230.78 462.61 231.81 482.98 C 232.56 497.79 226.73 511.92 219.56 524.56 C 215.28 532.02 209.38 538.35 203.69 544.75 C 201.76 546.93 199.51 548.79 197.17 550.51 C 191.81 533.06 187.84 515.16 185.60 497.04 C 191.85 493.48 199.17 488.88 200.03 481.03 C 199.78 474.75 196.25 469.24 194.62 463.28 C 202.76 453.20 207.70 440.57 208.14 427.59 Z" />
<path fill="#00a5b6" opacity="1.00" d=" M 53.95 447.97 C 57.16 441.60 60.17 435.03 64.75 429.50 C 65.64 443.03 71.57 455.89 80.43 466.06 C 78.84 470.99 76.23 475.76 76.01 481.02 C 76.86 488.92 84.19 493.51 90.47 497.09 C 88.18 515.17 84.29 533.05 78.91 550.47 C 75.68 548.28 72.86 545.57 70.25 542.68 C 64.02 535.74 57.79 528.56 53.88 519.99 C 48.03 508.92 43.48 496.66 43.97 483.95 C 44.46 471.40 48.10 459.05 53.95 447.97 Z" />
</g>
<g id="#60b7c3ff">
<path fill="#60b7c3" opacity="1.00" d=" M 172.88 482.42 C 181.12 477.30 188.69 470.99 194.62 463.28 C 196.25 469.24 199.78 474.75 200.03 481.03 C 199.17 488.88 191.85 493.48 185.60 497.04 C 182.36 498.86 178.85 500.10 175.31 501.19 C 174.56 494.93 174.34 488.58 172.88 482.42 Z" />
<path fill="#60b7c3" opacity="1.00" d=" M 80.43 466.06 C 81.70 467.52 83.04 468.92 84.42 470.29 C 89.39 475.32 95.11 479.57 101.21 483.12 C 100.69 488.99 100.16 494.86 99.12 500.67 C 96.15 499.69 93.21 498.59 90.47 497.09 C 84.19 493.51 76.86 488.92 76.01 481.02 C 76.23 475.76 78.84 470.99 80.43 466.06 Z" />
<path fill="#60b7c3" opacity="1.00" d=" M 58.33 556.01 C 58.69 553.37 59.19 550.75 60.26 548.31 C 64.44 554.47 68.82 560.52 73.51 566.31 C 79.04 573.29 84.56 580.27 90.28 587.09 C 86.29 632.07 82.32 677.08 80.20 722.19 C 66.89 719.05 53.95 714.33 41.60 708.46 C 38.84 707.61 40.09 704.17 39.87 702.03 C 42.92 653.02 50.31 604.41 58.33 556.01 Z" />
<path fill="#60b7c3" opacity="1.00" d=" M 213.48 551.59 C 217.47 572.08 220.39 592.78 223.43 613.44 C 227.30 640.51 230.53 667.68 232.50 694.95 C 232.91 699.17 233.09 703.42 232.92 707.67 C 220.57 713.68 207.60 718.30 194.37 721.94 C 192.30 677.43 188.51 633.02 184.41 588.66 C 190.64 581.28 196.72 573.77 202.60 566.11 C 206.44 561.43 210.05 556.57 213.48 551.59 Z" />
</g>
<g id="#009c95ff">
<path fill="#009c95" opacity="1.00" d=" M 437.92 482.12 C 445.86 477.06 453.30 471.02 459.07 463.52 C 461.60 469.37 464.91 475.37 464.67 481.91 C 463.38 489.43 456.39 493.96 450.13 497.26 C 446.90 498.81 443.58 500.18 440.12 501.13 C 439.25 494.80 438.67 488.45 437.92 482.12 Z" />
<path fill="#009c95" opacity="1.00" d=" M 341.71 485.36 C 338.55 478.90 342.88 472.12 345.18 466.13 C 346.48 467.59 347.84 469.00 349.23 470.38 C 354.24 475.45 360.06 479.66 366.17 483.30 C 364.93 489.01 364.82 494.89 363.65 500.62 C 360.72 499.71 357.85 498.60 355.11 497.22 C 349.83 494.41 344.47 490.86 341.71 485.36 Z" />
<path fill="#009c95" opacity="1.00" d=" M 324.44 547.67 C 328.86 553.94 333.38 560.14 338.17 566.14 C 343.71 573.45 349.62 580.48 355.37 587.63 C 353.12 601.63 352.60 615.86 351.16 629.97 C 348.57 660.67 346.34 691.39 344.86 722.16 C 330.98 718.71 317.16 714.20 304.60 707.30 C 304.04 701.58 305.14 695.82 305.32 690.09 C 309.11 642.31 316.38 594.89 324.44 547.67 Z" />
<path fill="#009c95" opacity="1.00" d=" M 477.57 552.24 C 478.49 553.68 479.09 555.29 479.30 557.01 C 487.30 606.07 494.88 655.32 497.73 704.99 C 498.30 706.97 496.58 708.17 495.02 708.88 C 483.43 714.26 471.36 718.57 459.02 721.89 C 457.23 682.66 454.04 643.50 450.50 604.37 C 449.98 599.23 449.84 594.05 448.80 588.98 C 454.99 581.45 461.17 573.91 467.14 566.21 C 470.79 561.68 474.14 556.93 477.57 552.24 Z" />
</g>
<g id="#93c6ceff">
<path fill="#93c6ce" opacity="1.00" d=" M 721.36 463.48 C 723.64 469.17 726.74 474.85 726.97 481.09 C 726.16 488.93 718.86 493.73 712.51 497.16 C 709.22 498.85 705.71 500.05 702.20 501.17 C 701.50 494.82 700.77 488.48 700.07 482.13 C 708.13 477.15 715.49 470.95 721.36 463.48 Z" />
<path fill="#93c6ce" opacity="1.00" d=" M 607.26 466.04 C 608.57 467.54 609.93 469.00 611.36 470.41 C 616.52 475.44 622.33 479.82 628.60 483.38 C 626.99 489.02 627.12 494.93 625.91 500.65 C 622.96 499.68 620.04 498.58 617.28 497.18 C 611.17 493.84 604.28 489.45 602.89 482.08 C 602.42 476.41 605.35 471.20 607.26 466.04 Z" />
<path fill="#93c6ce" opacity="1.00" d=" M 586.62 547.68 C 591.18 553.90 595.59 560.24 600.40 566.29 C 605.91 573.50 611.70 580.50 617.46 587.51 C 612.72 632.33 609.50 677.31 607.06 722.31 C 593.86 718.90 580.89 714.45 568.60 708.54 C 567.00 708.03 566.07 706.70 566.53 705.04 C 569.68 652.20 577.78 599.82 586.62 547.68 Z" />
<path fill="#93c6ce" opacity="1.00" d=" M 729.38 566.24 C 733.16 561.35 736.88 556.41 740.39 551.32 C 749.19 601.87 756.69 652.74 759.92 703.97 C 759.75 705.25 760.61 707.27 759.01 707.94 C 746.99 714.00 734.16 718.33 721.20 721.88 C 719.31 683.19 716.25 644.57 712.76 605.99 C 712.21 600.41 712.12 594.74 710.68 589.29 C 717.12 581.78 723.29 574.04 729.38 566.24 Z" />
</g>
<g id="#d49c00ff">
<path fill="#d49c00" opacity="1.00" d=" M 110.01 477.78 C 113.13 477.77 116.24 477.77 119.36 477.78 C 119.15 483.34 116.46 490.21 110.01 490.56 C 110.00 489.78 110.00 488.22 110.00 487.44 C 109.99 484.22 110.00 481.00 110.01 477.78 Z" />
<path fill="#d49c00" opacity="1.00" d=" M 157.86 477.78 C 161.05 477.77 164.25 477.77 167.45 477.76 C 167.27 482.05 167.28 486.35 167.29 490.64 C 165.43 489.96 163.22 489.73 161.87 488.13 C 159.22 485.34 158.66 481.38 157.86 477.78 Z" />
<path fill="#d49c00" opacity="1.00" d=" M 133.27 494.38 C 136.74 493.71 140.37 493.72 143.85 494.32 C 146.83 495.65 146.07 499.46 146.44 502.10 C 153.38 502.40 160.32 502.19 167.27 502.16 C 167.26 504.11 167.28 506.06 167.30 508.02 C 159.92 507.98 152.53 507.87 145.15 508.09 C 146.46 514.13 147.35 520.81 144.58 526.58 C 144.08 528.11 142.33 527.87 141.06 528.05 C 138.56 528.15 135.96 528.24 133.56 527.42 C 129.74 521.76 131.11 514.42 132.13 508.09 C 124.76 507.88 117.38 508.02 110.00 508.01 C 110.00 506.05 110.00 504.10 110.00 502.15 C 116.92 502.24 123.85 502.41 130.78 502.09 C 131.34 499.53 130.72 495.98 133.27 494.38 Z" />
<path fill="#d49c00" opacity="1.00" d=" M 395.67 505.49 C 395.59 503.56 394.56 500.71 397.08 499.89 C 400.97 499.20 405.11 499.08 408.96 499.99 C 411.23 500.84 410.09 503.67 410.33 505.45 C 417.39 505.46 424.47 505.62 431.53 505.33 C 431.53 506.06 431.52 507.51 431.51 508.23 C 424.07 508.30 416.63 508.29 409.19 508.22 C 410.56 512.98 411.93 519.19 408.22 523.20 C 405.36 524.31 402.05 523.79 399.04 523.68 C 397.45 523.74 396.60 522.21 396.09 520.96 C 394.48 516.83 395.25 512.26 396.78 508.22 C 389.25 508.29 381.72 508.29 374.19 508.23 C 374.19 507.25 374.21 506.27 374.26 505.30 C 381.39 505.66 388.53 505.41 395.67 505.49 Z" />
<path fill="#d49c00" opacity="1.00" d=" M 374.27 523.87 C 376.50 524.75 379.09 525.39 380.52 527.52 C 382.68 530.20 383.11 533.73 383.79 537.00 C 380.61 537.01 377.43 536.99 374.25 536.95 C 374.28 532.59 374.30 528.23 374.27 523.87 Z" />
<path fill="#d49c00" opacity="1.00" d=" M 422.34 537.00 C 422.33 531.19 425.36 525.06 431.48 523.80 C 431.45 528.20 431.47 532.60 431.45 537.00 C 428.41 537.00 425.38 537.00 422.34 537.00 Z" />
<path fill="#d49c00" opacity="1.00" d=" M 110.01 526.48 C 116.46 526.89 119.08 533.66 119.41 539.22 C 116.28 539.23 113.14 539.23 110.01 539.22 C 109.99 534.97 110.00 530.72 110.01 526.48 Z" />
<path fill="#d49c00" opacity="1.00" d=" M 161.45 529.37 C 162.86 527.46 165.38 527.16 167.46 526.41 C 167.46 530.68 167.47 534.95 167.45 539.23 C 164.26 539.23 161.07 539.23 157.88 539.22 C 158.61 535.81 159.16 532.14 161.45 529.37 Z" />
</g>
<g id="#f9c000ff">
<path fill="#f9c000" opacity="1.00" d=" M 119.36 477.78 C 132.19 477.77 145.03 477.77 157.86 477.78 C 158.66 481.38 159.22 485.34 161.87 488.13 C 163.22 489.73 165.43 489.96 167.29 490.64 C 167.30 494.48 167.28 498.32 167.27 502.16 C 160.32 502.19 153.38 502.40 146.44 502.10 C 146.07 499.46 146.83 495.65 143.85 494.32 C 140.37 493.72 136.74 493.71 133.27 494.38 C 130.72 495.98 131.34 499.53 130.78 502.09 C 123.85 502.41 116.92 502.24 110.00 502.15 C 110.00 498.28 110.00 494.42 110.01 490.56 C 116.46 490.21 119.15 483.34 119.36 477.78 Z" />
<path fill="#f9c000" opacity="1.00" d=" M 110.00 508.01 C 117.38 508.02 124.76 507.88 132.13 508.09 C 131.11 514.42 129.74 521.76 133.56 527.42 C 135.96 528.24 138.56 528.15 141.06 528.05 C 142.33 527.87 144.08 528.11 144.58 526.58 C 147.35 520.81 146.46 514.13 145.15 508.09 C 152.53 507.87 159.92 507.98 167.30 508.02 C 167.36 512.26 167.13 516.50 167.49 520.73 C 167.49 522.60 167.47 524.51 167.46 526.41 C 165.38 527.16 162.86 527.46 161.45 529.37 C 159.16 532.14 158.61 535.81 157.88 539.22 C 154.51 539.22 151.14 539.21 147.78 539.22 C 141.66 539.24 135.54 539.24 129.42 539.22 C 126.09 539.21 122.75 539.22 119.41 539.22 C 119.08 533.66 116.46 526.89 110.01 526.48 C 110.00 524.66 110.00 522.85 110.00 521.04 C 110.00 516.69 110.00 512.35 110.00 508.01 Z" />
</g>
<g id="#c4c076ff">
<path fill="#c4c076" opacity="1.00" d=" M 167.45 477.76 C 167.57 480.23 167.64 482.69 167.67 485.17 C 167.68 497.09 167.74 509.01 167.59 520.93 L 167.49 520.73 C 167.13 516.50 167.36 512.26 167.30 508.02 C 167.28 506.06 167.26 504.11 167.27 502.16 C 167.28 498.32 167.30 494.48 167.29 490.64 C 167.28 486.35 167.27 482.05 167.45 477.76 Z" />
</g>
<g id="#00a9a6ff">
<path fill="#00a9a6" opacity="1.00" d=" M 413.65 491.91 C 422.21 490.05 430.47 486.73 437.92 482.12 C 438.67 488.45 439.25 494.80 440.12 501.13 C 439.07 501.40 438.03 501.66 436.99 501.93 C 436.90 509.21 437.35 516.50 438.22 523.73 C 436.02 522.80 433.83 521.88 431.62 520.98 C 431.54 515.76 431.72 510.54 431.53 505.33 C 428.18 498.26 420.95 493.94 413.65 491.91 Z" />
<path fill="#00a9a6" opacity="1.00" d=" M 366.17 483.30 C 373.92 487.74 382.42 490.98 391.27 492.37 C 384.34 494.50 377.85 498.87 374.26 505.30 C 374.21 506.27 374.19 507.25 374.19 508.23 C 374.21 512.54 374.21 516.86 374.23 521.17 C 371.91 522.08 369.68 523.22 367.73 524.79 C 367.79 521.85 367.66 518.90 367.84 515.97 C 368.25 511.29 368.58 506.60 368.35 501.91 C 366.77 501.48 365.21 501.09 363.65 500.62 C 364.82 494.89 364.93 489.01 366.17 483.30 Z" />
<path fill="#00a9a6" opacity="1.00" d=" M 390.51 537.02 C 399.07 536.99 407.63 537.00 416.19 537.01 C 414.06 537.99 411.74 539.42 411.71 542.09 C 410.92 550.23 414.34 559.08 421.01 564.01 C 427.58 568.45 436.09 566.85 443.15 564.57 C 443.30 565.67 443.48 566.79 443.70 567.90 C 444.96 575.52 445.95 583.17 447.34 590.77 C 447.70 590.32 448.44 589.43 448.80 588.98 C 449.84 594.05 449.98 599.23 450.50 604.37 C 454.04 643.50 457.23 682.66 459.02 721.89 C 459.07 725.71 459.35 729.52 459.49 733.34 C 459.53 735.58 459.48 737.82 459.47 740.08 C 422.10 751.20 381.39 751.22 344.06 739.93 C 344.23 738.19 344.40 736.46 344.59 734.75 C 344.36 734.43 343.90 733.79 343.67 733.48 C 345.48 730.01 344.48 725.90 344.86 722.16 C 346.34 691.39 348.57 660.67 351.16 629.97 C 352.60 615.86 353.12 601.63 355.37 587.63 C 356.19 588.65 357.01 589.66 357.85 590.69 C 359.80 582.30 360.69 573.69 361.96 565.18 L 362.11 563.89 C 368.48 566.54 375.96 568.07 382.60 565.57 C 391.41 561.69 395.73 551.13 394.83 541.95 C 394.75 539.44 392.47 538.06 390.51 537.02 Z" />
</g>
<g id="#bbdce1ff">
<path fill="#bbdce1" opacity="1.00" d=" M 663.00 493.21 C 676.10 493.15 688.92 488.86 700.07 482.13 C 700.77 488.48 701.50 494.82 702.20 501.17 C 701.23 501.47 700.26 501.77 699.31 502.08 C 699.19 509.39 699.62 516.71 700.50 523.97 L 699.30 523.37 C 696.79 522.08 694.03 520.87 691.15 521.28 C 688.95 521.41 687.63 523.37 686.16 524.74 C 681.03 517.93 676.03 511.03 670.86 504.26 C 669.09 501.96 667.37 499.63 665.68 497.27 C 663.84 499.61 662.03 501.97 660.25 504.36 C 655.13 511.21 650.04 518.08 644.89 524.90 C 643.41 523.50 642.13 521.42 639.89 521.28 C 635.96 520.66 632.53 523.06 629.23 524.78 C 629.98 517.22 630.68 509.64 630.42 502.04 C 628.91 501.58 627.41 501.13 625.91 500.65 C 627.12 494.93 626.99 489.02 628.60 483.38 C 639.07 489.30 650.92 493.05 663.00 493.21 Z" />
<path fill="#bbdce1" opacity="1.00" d=" M 646.82 535.72 C 659.27 535.67 671.72 535.67 684.17 535.72 C 681.03 536.45 677.60 537.00 675.07 539.15 C 673.13 542.23 673.79 546.14 674.32 549.55 C 675.97 556.14 679.71 562.98 686.36 565.58 C 692.57 567.85 699.44 566.44 705.52 564.40 L 705.79 566.21 C 706.93 574.20 708.19 582.18 709.40 590.17 C 709.72 589.95 710.36 589.51 710.68 589.29 C 712.12 594.74 712.21 600.41 712.76 605.99 C 716.25 644.57 719.31 683.19 721.20 721.88 C 721.35 725.69 721.50 729.50 721.63 733.32 C 721.69 735.52 721.72 737.73 721.76 739.94 C 687.95 750.42 651.32 750.93 616.92 742.92 C 613.32 742.12 609.79 741.10 606.34 739.83 C 606.43 737.75 606.53 735.69 606.63 733.62 C 606.82 729.85 606.93 726.08 607.06 722.31 C 609.50 677.31 612.72 632.33 617.46 587.51 C 618.37 588.46 619.33 589.37 620.29 590.29 C 621.25 584.26 622.28 578.24 623.07 572.19 C 623.45 569.36 623.90 566.55 624.33 563.74 C 629.98 566.33 636.42 567.37 642.56 566.29 C 649.81 564.66 654.55 557.86 656.44 551.06 C 657.27 547.39 657.74 543.29 656.25 539.75 C 654.03 536.91 650.07 536.58 646.82 535.72 Z" />
</g>
<g id="#89cad5ff">
<path fill="#89cad5" opacity="1.00" d=" M 101.21 483.12 C 104.04 484.76 107.01 486.13 110.00 487.44 C 110.00 488.22 110.00 489.78 110.01 490.56 C 110.00 494.42 110.00 498.28 110.00 502.15 C 110.00 504.10 110.00 506.05 110.00 508.01 C 110.00 512.35 110.00 516.69 110.00 521.04 C 107.45 522.16 104.92 523.32 102.41 524.52 C 103.19 517.07 103.76 509.59 103.73 502.09 C 102.19 501.62 100.65 501.16 99.12 500.67 C 100.16 494.86 100.69 488.99 101.21 483.12 Z" />
<path fill="#89cad5" opacity="1.00" d=" M 167.67 485.17 C 169.42 484.28 171.18 483.40 172.88 482.42 C 174.34 488.58 174.56 494.93 175.31 501.19 C 174.29 501.49 173.27 501.80 172.25 502.12 C 172.36 509.30 172.81 516.48 173.58 523.62 C 171.75 523.02 169.91 522.44 168.08 521.84 C 167.96 521.62 167.71 521.16 167.59 520.93 C 167.74 509.01 167.68 497.09 167.67 485.17 Z" />
<path fill="#89cad5" opacity="1.00" d=" M 129.42 539.22 C 135.54 539.24 141.66 539.24 147.78 539.22 C 147.14 542.05 146.77 544.95 147.14 547.85 C 148.42 555.07 152.28 562.57 159.34 565.56 C 165.34 568.10 171.82 566.02 177.92 565.10 C 178.20 565.36 178.76 565.89 179.04 566.15 C 180.00 574.32 181.30 582.46 182.74 590.56 C 183.16 590.09 183.99 589.13 184.41 588.66 C 188.51 633.02 192.30 677.43 194.37 721.94 C 194.58 725.71 194.77 729.49 194.88 733.27 C 194.92 735.52 194.92 737.78 194.93 740.04 C 181.33 744.30 167.16 746.56 152.99 747.84 C 145.61 747.91 138.25 749.37 130.87 748.35 C 114.42 747.75 97.96 745.40 82.14 740.76 C 78.86 740.09 80.20 735.84 79.85 733.45 C 79.96 729.69 80.09 725.94 80.20 722.19 C 82.32 677.08 86.29 632.07 90.28 587.09 C 91.28 588.20 92.34 589.27 93.41 590.33 C 94.72 582.92 95.78 575.48 96.91 568.05 C 97.08 566.67 97.24 565.31 97.42 563.95 C 103.35 566.20 109.90 567.61 116.20 566.23 C 123.98 564.17 128.64 556.41 130.05 548.93 C 130.53 545.67 130.27 542.38 129.42 539.22 Z" />
</g>
<g id="#853213ff">
<path fill="#853213" opacity="1.00" d=" M 391.27 492.37 C 398.59 490.47 406.26 490.35 413.65 491.91 C 420.95 493.94 428.18 498.26 431.53 505.33 C 424.47 505.62 417.39 505.46 410.33 505.45 C 410.09 503.67 411.23 500.84 408.96 499.99 C 405.11 499.08 400.97 499.20 397.08 499.89 C 394.56 500.71 395.59 503.56 395.67 505.49 C 388.53 505.41 381.39 505.66 374.26 505.30 C 377.85 498.87 384.34 494.50 391.27 492.37 Z" />
</g>
<g id="#e49700ff">
<path fill="#e49700" opacity="1.00" d=" M 660.25 504.36 C 662.03 501.97 663.84 499.61 665.68 497.27 C 667.37 499.63 669.09 501.96 670.86 504.26 C 667.73 506.66 663.45 506.53 660.25 504.36 Z" />
<path fill="#e49700" opacity="1.00" d=" M 651.87 518.95 C 652.08 516.74 654.53 517.04 656.12 516.96 C 656.31 518.48 657.65 520.76 655.66 521.61 C 653.86 522.79 651.23 521.13 651.87 518.95 Z" />
<path fill="#e49700" opacity="1.00" d=" M 660.10 517.09 C 661.35 517.26 663.32 516.51 663.90 518.14 C 665.14 519.99 663.18 522.94 660.98 521.82 C 658.84 521.17 659.37 518.63 660.10 517.09 Z" />
<path fill="#e49700" opacity="1.00" d=" M 668.16 517.21 C 671.46 515.21 673.35 521.32 669.95 521.92 C 667.17 522.93 665.52 518.30 668.16 517.21 Z" />
<path fill="#e49700" opacity="1.00" d=" M 675.04 517.07 C 676.32 517.32 678.17 516.63 678.97 518.07 C 679.77 519.53 678.60 520.94 678.04 522.23 C 674.93 522.51 673.52 519.54 675.04 517.07 Z" />
<path fill="#e49700" opacity="1.00" d=" M 641.25 529.72 C 657.47 529.48 673.70 529.50 689.92 529.70 C 691.40 531.66 692.82 533.67 694.20 535.71 C 690.85 535.74 687.51 535.68 684.17 535.72 C 671.72 535.67 659.27 535.67 646.82 535.72 C 643.54 535.68 640.26 535.75 636.98 535.77 C 638.36 533.72 639.77 531.70 641.25 529.72 Z" />
</g>
<g id="#884f1bff">
<path fill="#884f1b" opacity="1.00" d=" M 374.19 508.23 C 381.72 508.29 389.25 508.29 396.78 508.22 C 395.25 512.26 394.48 516.83 396.09 520.96 C 396.60 522.21 397.45 523.74 399.04 523.68 C 402.05 523.79 405.36 524.31 408.22 523.20 C 411.93 519.19 410.56 512.98 409.19 508.22 C 416.63 508.29 424.07 508.30 431.51 508.23 C 431.50 513.42 431.54 518.61 431.48 523.80 C 425.36 525.06 422.33 531.19 422.34 537.00 C 420.29 536.99 418.24 536.97 416.19 537.01 C 407.63 537.00 399.07 536.99 390.51 537.02 C 388.27 536.98 386.03 536.99 383.79 537.00 C 383.11 533.73 382.68 530.20 380.52 527.52 C 379.09 525.39 376.50 524.75 374.27 523.87 C 374.26 523.20 374.24 521.84 374.23 521.17 C 374.21 516.86 374.21 512.54 374.19 508.23 Z" />
</g>
<g id="#8b5f44ff">
<path fill="#8b5f44" opacity="1.00" d=" M 629.23 524.78 C 632.53 523.06 635.96 520.66 639.89 521.28 C 642.13 521.42 643.41 523.50 644.89 524.90 C 643.67 526.51 642.45 528.11 641.25 529.72 C 639.77 531.70 638.36 533.72 636.98 535.77 C 640.26 535.75 643.54 535.68 646.82 535.72 C 650.07 536.58 654.03 536.91 656.25 539.75 C 657.74 543.29 657.27 547.39 656.44 551.06 L 656.35 549.61 C 652.03 552.75 647.54 556.06 642.12 556.89 C 636.57 558.16 630.91 557.03 625.46 555.85 C 626.83 545.51 628.24 535.17 629.23 524.78 Z" />
<path fill="#8b5f44" opacity="1.00" d=" M 686.16 524.74 C 687.63 523.37 688.95 521.41 691.15 521.28 C 694.03 520.87 696.79 522.08 699.30 523.37 C 699.56 523.56 700.08 523.93 700.34 524.11 C 701.62 534.78 702.82 545.45 704.34 556.09 C 698.87 557.39 693.09 558.14 687.60 556.52 C 682.61 555.40 678.60 552.11 674.32 549.55 C 673.79 546.14 673.13 542.23 675.07 539.15 C 677.60 537.00 681.03 536.45 684.17 535.72 C 687.51 535.68 690.85 535.74 694.20 535.71 C 692.82 533.67 691.40 531.66 689.92 529.70 C 688.66 528.04 687.40 526.39 686.16 524.74 Z" />
</g>
<g id="#007d76ff">
<path fill="#007d76" opacity="1.00" d=" M 320.16 541.33 C 321.54 543.47 322.98 545.57 324.44 547.67 C 316.38 594.89 309.11 642.31 305.32 690.09 C 305.14 695.82 304.04 701.58 304.60 707.30 C 317.16 714.20 330.98 718.71 344.86 722.16 C 344.48 725.90 345.48 730.01 343.67 733.48 C 326.38 729.89 309.16 725.21 293.04 717.89 C 293.02 717.41 292.97 716.43 292.95 715.94 C 295.94 671.88 303.13 628.22 311.27 584.85 C 314.15 570.33 316.77 555.74 320.16 541.33 Z" />
<path fill="#007d76" opacity="1.00" d=" M 477.57 552.24 C 479.75 549.26 481.76 546.17 483.78 543.09 C 483.78 543.77 483.77 545.13 483.76 545.81 C 492.46 587.80 500.29 630.01 505.67 672.57 C 507.54 687.66 509.05 702.80 509.94 717.98 C 493.76 724.92 476.78 730.00 459.49 733.34 C 459.35 729.52 459.07 725.71 459.02 721.89 C 471.36 718.57 483.43 714.26 495.02 708.88 C 496.58 708.17 498.30 706.97 497.73 704.99 C 494.88 655.32 487.30 606.07 479.30 557.01 C 479.09 555.29 478.49 553.68 477.57 552.24 Z" />
</g>
<g id="#00a5bbff">
<path fill="#00a5bb" opacity="1.00" d=" M 55.58 542.20 C 57.05 544.30 58.76 546.22 60.26 548.31 C 59.19 550.75 58.69 553.37 58.33 556.01 C 50.31 604.41 42.92 653.02 39.87 702.03 C 40.09 704.17 38.84 707.61 41.60 708.46 C 53.95 714.33 66.89 719.05 80.20 722.19 C 80.09 725.94 79.96 729.69 79.85 733.45 C 62.19 729.87 44.61 725.12 28.20 717.59 C 31.62 669.34 39.62 621.56 48.80 574.11 C 51.12 563.49 52.67 552.67 55.58 542.20 Z" />
<path fill="#00a5bb" opacity="1.00" d=" M 213.48 551.59 C 215.14 549.14 216.90 546.77 218.56 544.32 C 228.24 589.49 236.44 635.03 241.91 680.91 C 243.45 693.09 244.14 705.35 245.39 717.56 C 229.35 725.00 212.12 729.58 194.88 733.27 C 194.77 729.49 194.58 725.71 194.37 721.94 C 207.60 718.30 220.57 713.68 232.92 707.67 C 233.09 703.42 232.91 699.17 232.50 694.95 C 230.53 667.68 227.30 640.51 223.43 613.44 C 220.39 592.78 217.47 572.08 213.48 551.59 Z" />
</g>
<g id="#f8d0bcff">
<path fill="#f8d0bc" opacity="1.00" d=" M 147.14 547.85 C 149.16 549.81 151.05 551.95 153.40 553.55 C 160.68 557.80 169.51 558.40 177.54 556.12 C 178.00 559.46 178.51 562.81 179.04 566.15 C 178.76 565.89 178.20 565.36 177.92 565.10 C 171.82 566.02 165.34 568.10 159.34 565.56 C 152.28 562.57 148.42 555.07 147.14 547.85 Z" />
<path fill="#f8d0bc" opacity="1.00" d=" M 109.16 557.53 C 116.95 557.66 124.46 554.25 130.05 548.93 C 128.64 556.41 123.98 564.17 116.20 566.23 C 109.90 567.61 103.35 566.20 97.42 563.95 C 97.77 561.28 98.17 558.64 98.55 555.98 C 102.08 556.53 105.58 557.33 109.16 557.53 Z" />
</g>
<g id="#d5a91dff">
<path fill="#d5a91d" opacity="1.00" d=" M 443.56 566.50 C 449.83 561.40 456.53 556.68 461.79 550.47 C 463.36 555.78 465.17 561.03 467.14 566.21 C 461.17 573.91 454.99 581.45 448.80 588.98 C 448.44 589.43 447.70 590.32 447.34 590.77 C 445.95 583.17 444.96 575.52 443.70 567.90 C 443.66 567.55 443.59 566.85 443.56 566.50 Z" />
<path fill="#d5a91d" opacity="1.00" d=" M 73.51 566.31 C 75.38 561.27 77.11 556.18 78.73 551.06 C 82.95 554.91 87.17 558.78 91.66 562.33 C 93.72 563.93 95.42 565.92 96.91 568.05 C 95.78 575.48 94.72 582.92 93.41 590.33 C 92.34 589.27 91.28 588.20 90.28 587.09 C 84.56 580.27 79.04 573.29 73.51 566.31 Z" />
<path fill="#d5a91d" opacity="1.00" d=" M 343.40 551.10 C 348.88 556.15 354.48 561.10 360.37 565.66 C 360.77 565.54 361.56 565.30 361.96 565.18 C 360.69 573.69 359.80 582.30 357.85 590.69 C 357.01 589.66 356.19 588.65 355.37 587.63 C 349.62 580.48 343.71 573.45 338.17 566.14 C 340.20 561.23 341.80 556.16 343.40 551.10 Z" />
<path fill="#d5a91d" opacity="1.00" d=" M 605.48 551.01 L 605.60 551.13 C 611.09 556.45 617.17 561.11 622.95 566.12 C 623.00 568.14 623.07 570.16 623.07 572.19 C 622.28 578.24 621.25 584.26 620.29 590.29 C 619.33 589.37 618.37 588.46 617.46 587.51 C 611.70 580.50 605.91 573.50 600.40 566.29 C 602.19 561.22 604.02 556.17 605.48 551.01 Z" />
<path fill="#d5a91d" opacity="1.00" d=" M 705.79 566.21 C 712.40 561.70 718.26 556.23 724.13 550.84 C 725.71 556.02 727.51 561.14 729.38 566.24 C 723.29 574.04 717.12 581.78 710.68 589.29 C 710.36 589.51 709.72 589.95 709.40 590.17 C 708.19 582.18 706.93 574.20 705.79 566.21 Z" />
<path fill="#d5a91d" opacity="1.00" d=" M 179.04 566.15 C 185.77 561.93 191.04 555.89 197.37 551.17 C 198.99 556.19 200.55 561.23 202.60 566.11 C 196.72 573.77 190.64 581.28 184.41 588.66 C 183.99 589.13 183.16 590.09 182.74 590.56 C 181.30 582.46 180.00 574.32 179.04 566.15 Z" />
</g>
<g id="#82c5bfff">
<path fill="#82c5bf" opacity="1.00" d=" M 275.21 724.20 C 280.27 719.97 286.64 717.59 292.95 715.94 C 292.97 716.43 293.02 717.41 293.04 717.89 C 309.16 725.21 326.38 729.89 343.67 733.48 C 343.90 733.79 344.36 734.43 344.59 734.75 C 344.40 736.46 344.23 738.19 344.06 739.93 C 381.39 751.22 422.10 751.20 459.47 740.08 C 459.48 737.82 459.53 735.58 459.49 733.34 C 476.78 730.00 493.76 724.92 509.94 717.98 C 514.47 720.16 519.61 722.05 522.63 726.31 C 524.96 729.62 522.83 733.83 519.86 735.89 C 512.52 741.19 503.55 743.51 494.90 745.73 C 470.99 751.32 446.40 753.34 421.91 754.40 C 396.48 755.16 370.98 754.94 345.64 752.57 C 326.19 750.64 306.54 748.23 287.98 741.85 C 282.84 739.85 277.25 737.79 273.69 733.36 C 271.38 730.54 272.50 726.32 275.21 724.20 Z" />
<path fill="#82c5bf" opacity="1.00" d=" M 11.82 726.86 C 15.22 721.52 21.68 719.53 27.19 717.11 L 28.20 717.59 C 44.61 725.12 62.19 729.87 79.85 733.45 C 80.20 735.84 78.86 740.09 82.14 740.76 C 97.96 745.40 114.42 747.75 130.87 748.35 C 138.25 749.37 145.61 747.91 152.99 747.84 C 167.16 746.56 181.33 744.30 194.93 740.04 C 194.92 737.78 194.92 735.52 194.88 733.27 C 212.12 729.58 229.35 725.00 245.39 717.56 L 246.21 717.15 C 251.36 719.19 256.90 721.16 260.69 725.40 C 263.25 728.05 262.60 732.57 259.82 734.82 C 254.80 739.26 248.26 741.44 241.98 743.47 C 225.47 748.35 208.33 750.67 191.23 752.37 C 165.26 754.92 139.13 755.18 113.07 754.41 C 89.98 753.45 66.84 751.52 44.20 746.73 C 34.57 744.45 24.64 742.17 16.18 736.81 C 12.88 734.83 9.76 730.81 11.82 726.86 Z" />
<path fill="#82c5bf" opacity="1.00" d=" M 540.49 724.54 C 544.29 720.90 549.35 719.08 554.12 717.09 L 555.06 717.58 C 571.38 725.31 589.07 729.69 606.63 733.62 C 606.53 735.69 606.43 737.75 606.34 739.83 C 609.79 741.10 613.32 742.12 616.92 742.92 C 651.32 750.93 687.95 750.42 721.76 739.94 C 721.72 737.73 721.69 735.52 721.63 733.32 C 738.91 729.63 756.18 725.04 772.25 717.58 C 773.60 716.81 775.05 718.10 776.39 718.43 C 781.16 720.57 786.87 722.86 789.01 728.04 C 790.33 732.80 785.53 736.06 782.02 738.17 C 771.36 743.78 759.37 746.13 747.65 748.41 C 713.46 754.36 678.62 755.36 643.99 754.53 C 620.87 753.80 597.71 751.93 574.97 747.55 C 565.20 745.52 555.34 743.23 546.35 738.78 C 543.10 736.94 539.35 734.86 538.15 731.07 C 537.43 728.63 538.77 726.18 540.49 724.54 Z" />
</g>
</svg>
